<svg xmlns="http://www.w3.org/2000/svg" width="604.724" height="604.724" viewBox="0 0 160 160"><path fill="#000" d="M90-.001C84.477-.001 80 4.477 80 10A10 10 0 0 0 70 0a10 10 0 0 0-10 10A10 10 0 0 0 50 0a10 10 0 0 0-10 10A10 10 0 0 0 30 0c-5.523 0-10 4.477-10 10A10 10 0 0 0 10 0 10 10 0 0 0 0 10a10 10 0 0 0 10 10C4.477 20 0 24.477 0 30a10 10 0 0 0 10 10A10 10 0 0 0 0 50a10 10 0 0 0 10 10A10 10 0 0 0 0 70a10 10 0 0 0 10 10C4.477 80 0 84.477 0 90a10 10 0 0 0 10 10 10 10 0 0 0-10 10 10 10 0 0 0 10 10 10 10 0 0 0-10 10 10 10 0 0 0 10 10c-5.523 0-10 4.477-10 10a10 10 0 0 0 20 0c0 5.523 4.477 10 10 10a10 10 0 0 0 10-10 10 10 0 0 0 20 0 10 10 0 0 0 20 0c0 5.523 4.477 10 10 10a10 10 0 0 0 10-10 10 10 0 0 0 20 0 10 10 0 0 0 20 0c0 5.523 4.477 10 10 10a10 10 0 0 0 10-10c0-5.523-4.477-10-10-10a10 10 0 0 0 0-20 10 10 0 0 0 0-20 10 10 0 0 0 10-10c0-5.523-4.477-10-10-10v-.001a10 10 0 0 0 0-20 10 10 0 0 0 0-20 10 10 0 0 0 10-10c0-5.523-4.477-10-10-10a10 10 0 0 0 0-20c-5.523 0-10 4.477-10 10a10 10 0 0 0-20 0 10 10 0 0 0-20 0 10 10 0 0 0-10-10zM30 4.593l3.535 3.536L30 11.664l-3.536-3.535L30 4.593zm20 0l3.536 3.536L50 11.664l-3.536-3.535L50 4.593zm20 0l3.536 3.536L70 11.664l-3.535-3.535L70 4.593zm20 0l3.535 3.536L90 11.664l-3.536-3.535L90 4.593zm20 0l3.536 3.536L110 11.664l-3.536-3.535L110 4.593zm20 0l3.536 3.536-2.838 2.837-.698.698-.698-.698-2.838-2.837L130 4.593zM10 6.464L13.536 10 10 13.535 6.465 10 10 6.464zm140 0L153.535 10 150 13.535 146.464 10 150 6.464zM16.871 15h6.258L20 18.129 16.871 15zm10 0h6.257l5.001 5.001L30 28.129 21.871 20l5-5zm10 0h6.258L40 18.129 36.871 15zm10 0h6.258l5 5L50 28.129 41.871 20l5-5zm10 0h6.258L60 18.129 56.871 15zm10 0h6.258l5 5L70 28.129 61.871 20l5-5zm10 0h6.258L80 18.129 76.871 15zm9.999 0h6.258l5 5L90 28.129 81.871 20l4.999-5zm10 0h6.258L100 18.129 96.87 15zm10 0h6.258l5 5L110 28.129 101.871 20l4.999-5zm10 0h6.258L120 18.129 116.87 15zm10 0h6.257l5 5L130 28.129 121.871 20l4.999-5zm9.999 0h6.257L140 18.129 136.869 15zM15 16.87l3.129 3.129L15 23.128V16.87zm130 .001v6.257L141.871 20 145 16.871zm-125 5L28.13 30l-8.129 8.129L15 33.128v-6.257l5-5zm20 0L48.128 30l-5.443 5.443c-1.826-.892-3.702-1.69-5.646-2.354-2.13-.68-4.287-1.302-6.47-1.784-.042-.01-.086-.017-.131-.026L31.871 30 40 21.871zm20.001 0L68.129 30 60 38.129 51.871 30l8.13-8.129zm20 0L88.129 30l-5.587 5.587-2.37-9.642c-.155-.468-.227-1.294-.788-1.35l-.746.352c-.164 2.818-.625 6.792-.983 10.838L71.871 30l8.13-8.129zm20 0L108.129 30l-7.08 7.08c-.775-.174-1.568-.266-2.353-.256L91.871 30l8.13-8.129zm19.999 0l8.068 8.069c-4.332.861-8.569 2.087-12.741 3.517L111.871 30 120 21.871zm20.001 0l5 5v6.257l-5 5-8.13-8.128 8.13-8.129zM8.129 26.464L11.664 30l-3.535 3.535L4.594 30l3.535-3.536zm143.742 0L155.407 30l-3.535 3.535L148.336 30l3.535-3.536zM70 31.871l7.384 7.383-.094 1.585-7.29 7.29L61.871 40 70 31.871zm20 0l5.603 5.603c-.33.148-.652.323-.962.528-1.492.983-2.604 2.43-3.67 3.839-1.033 1.458-1.837 3.039-2.645 4.615l-4.299-4.3-.785-3.525L90 31.871zm40.001 0L138.13 40 130 48.129 121.871 40l8.13-8.129zm-20 .001l2.563 2.563c-2.822 1.029-5.617 2.136-8.395 3.268l5.832-5.831zm-60 .001L58.129 40l-2.884 2.957c-3.328-2.192-6.663-4.38-10.151-6.272l4.907-4.812zm-20.731.648c.38.322 1.019.462 1.419.695l9.344 4.882-.032.032 2.395 1.197.618.321c-2.838-.802-5.689-1.705-8.635-2.067-.431.421-.742.931-.176 1.394.825.948 2.102 1.212 3.193 1.758L30 48.125l-8.129-8.129 7.439-7.439-.04-.036zm95.903.436v.001L120 38.129l-2.034-2.034 7.207-3.138zM15 36.871L18.129 40 15 43.129v-6.258zm130 0v6.258L141.871 40 145 36.871zm-29.618.382L118.129 40 110 48.129 108.129 50l-6.513 6.513c1.236-2.27 2.235-4.654 2.743-7.215.293-1.339.476-2.7.606-4.064-.491-.439-2.395 3.056-2.871 3.607.838-5.008 6.95-8.652 13.288-11.588zm-18.354 2.805c.536.01.985.195 1.247.559.288.4.306.969.052 1.581s-.761 1.217-1.409 1.683c-.346.249-.716.441-1.087.579a1.86 1.86 0 0 1-.169.053 3.4 3.4 0 0 1-.789.167c-.661.046-1.194-.153-1.482-.553-.599-.833.009-2.295 1.357-3.264.758-.545 1.59-.819 2.279-.805zm-57.133 1.773l10.094 4.023c-3.701-.727-7.396-1.527-11.149-1.943-.507.419-.66.93-.257 1.482.824 1.766 2.788 2.83 4.71 2.702l12.81 2.107-8.309.271-.071-.069-.076.076c-1.471.077-2.94.178-4.407.318-.358.524-.463 1.021.06 1.467.306.485.65 1.037 1.066 1.496L40 58.127l-8.129-8.129 8.024-8.167zM20 41.871L28.129 50 20 58.128l-5-5V46.87l5-4.999zm40 0L68.129 50l-1.115 1.013c-1.272-1.131-2.654-2.14-4.293-3.275a158.32 158.32 0 0 1-5.224-3.301L60 41.871zm60 0L128.129 50 120 58.128l-8.129-8.129L120 41.871zm20 0l5 5v6.258l-5 5L131.871 50 140 41.871zm-62.803 2.804c.012 1.304.081 2.505.226 3.547.306 1.876.784 3.809 1.962 5.344.799.42 1.521-.296 2.209-.641.863-.609 3.311-2.266 3.822-3.199.103-.921-.264-1.867-.377-2.793-.002-.01-.004-.021-.006-.032l1.993 1.993c-.311.546-.639 1.082-.993 1.605-2.084 2.6-5.108 4.13-8.119 5.541l-6.043-6.042 5.326-5.323zM8.129 46.464L11.664 50l-3.535 3.536L4.593 50l3.536-3.536zm143.742 0L155.406 50l-3.535 3.536L148.335 50l3.536-3.536zM30 51.871L38.129 60 30 68.129 21.872 60 30 51.871zm80 0L118.129 60 110 68.129 101.871 60 110 51.871zm20 0L138.129 60 130 68.129 121.871 60 130 51.871zm-60 .001l5.455 5.456c-1.028.682-2.347 1.655-2.971 2.002-.092-1.135-.754-3.095-1.607-3.989a27.97 27.97 0 0 0-1.982-2.464L70 51.872zm-10.349 2.151c-3.894.93-7.794 1.854-11.605 3.088-.684.651-.135 1.577.288 2.218.752 1.001 1.728 1.832 2.291 2.967.722 1.004 2.105.629 2.969.039 1.066-.759 2.34-1.053 3.497-1.632l6.499-3.018c-2.745 1.712-5.489 3.436-8.161 5.259-.706.452-1.628.84-2.001 1.615a1.09 1.09 0 0 0-.018.161l-3.409 3.409L41.872 60l5.448-5.448c1.242-.182 2.529-.101 3.783-.218l8.548-.311zM15 56.87l3.129 3.129L15 63.128V56.87zm130 0v6.258l-3.129-3.129L145 56.87zm-125 5l8.129 8.129L20 78.128l-5-5V66.87l5-5zm20 0L48.129 70 40 78.128l-8.129-8.129L40 61.87zm60 0l8.129 8.129L100 78.128l-4.723-4.723c.745-2.918 1.344-5.874 2.002-8.814L100 61.87zm20 0l8.129 8.129L120 78.128l-8.129-8.129L120 61.87zm20 0l5 5v6.257l-5 5-8.129-8.129L140 61.87zm-74.474.438c-2.273 2.494-4.626 4.946-6.659 7.653-.167.886.731 1.325 1.299 1.825.542.351 1.077.842 1.673 1.038.842.05 1.147-.886 1.7-1.367l4.264-4.906c-1.12 1.926-2.278 3.843-3.102 5.92.378.567.849.863 1.445.388 2.07-1.072 3.586-2.909 5.289-4.453 1.908-1.887 3.663-3.921 5.551-5.828-3.441 6.32-6.722 12.802-8.64 19.769-.322 1.058-.632 2.167-.837 3.288L51.872 69.999l3.054-3.002c.543.598 1.092 1.219 1.716 1.669.815.229 1.308-.625 1.949-.982l6.935-5.375zM8.129 66.464l3.535 3.535-3.535 3.536-3.536-3.536 3.536-3.535zm143.742 0l3.535 3.535-3.535 3.536-3.536-3.536 3.536-3.535zM30 71.87l8.129 8.129L30 88.128 21.872 80 30 71.87zm20 0L58.129 80 50 88.128 41.871 80 50 71.87zm60 0l8.129 8.13L110 88.128 101.871 80 110 71.87zm20 0l8.129 8.13L130 88.128l-8.129-8.129L130 71.87zm-35.533 4.467L108.129 90l-7.754 7.754c-1.704-3.949-3.497-7.855-5.704-11.554-.338-.523-.578-1.296-1.309-.819l-.3.079c-.131 1.824.253 3.771-.174 5.557l-1.013-1.013a3.41 3.41 0 0 0 .033-.212c.1-2.17-.124-4.449.24-6.501.262-1.955 1.352-3.648 1.871-5.531l.448-1.422v-.001zM15 76.871L18.129 80 15 83.129v-6.258zm130 .001v6.257L141.871 80 145 76.872zM20 81.87L28.129 90 20 98.128l-5-5V86.87l5-5zm20 0l8.129 8.129L40 98.128l-8.129-8.129L40 81.87zm80 0l8.129 8.129L120 98.128 111.871 90 120 81.87zm20 0l5 5v6.257l-5 5.001L131.871 90 140 81.87zm-80 .001l7.319 7.32a8.42 8.42 0 0 0 .258 1.36v.001l-1.927 1.927c-.169-.062-.321-.062-.45.017v.001c-.588.648-1.12 1.335-1.615 2.047L60 98.128 51.871 90 60 81.871zM8.129 86.464L11.664 90l-3.535 3.535L4.594 90l3.535-3.536zm143.742 0L155.407 90l-3.535 3.535L148.336 90l3.535-3.536zM50.001 91.87l8.129 8.129-8.13 8.129L41.871 100l8.13-8.13zm-20 .001L38.129 100 30 108.128 21.872 100l8.129-8.129zm79.999 0l8.129 8.129-8.129 8.129-8.129-8.129L110 91.871zm20.001 0L138.13 100l-8.129 8.129-8.129-8.129 8.129-8.129zm-39.621.378l1.111 1.111c-.589.474-1.261.869-1.668 1.524-.129.9.525 1.691.82 2.515 1.846 3.841 4.189 7.427 6.677 10.878 1.325 1.721 3.307 4.527 5.427 7.105L100 118.128l-3.539-3.539c-2.388-5.509-4.758-11.31-7.228-16.312l-.98.072c-.717 1.95-.446 4.258-1.736 5.98a3.16 3.16 0 0 1-.157.157l-1.652-1.652c.503-.202.921-.559 1.129-1.13.947-2.176 1.079-4.542 1.209-6.879l1.87-1.87c.525-.156 1.025-.392 1.464-.706zm-21.598.84c.633.938 1.448 1.746 2.523 2.158 1.002 2.119.356 4.762 1.789 6.711.417.382 1.285.661 2.101.976l-2.485 2.485c-1.734-2.133-2.021-4.407-3.065-3.67-1.996 2.395-2.964 5.418-4.499 8.094-.771 1.694-1.843 3.823-2.902 6.042L60 118.128l-4.285-4.284c4.449-4.425 10.838-12.232 13.537-16.646-.085-.22-.858-1.617-1.738-2.841l1.268-1.268zM15 96.87l3.129 3.13L15 103.129V96.87zm130 0v6.258L141.871 100 145 96.87zm-125 5l8.129 8.129-8.129 8.13-5-5v-6.258l5-5.001zm120 0l5 5v6.258l-5 5-8.129-8.129L140 101.87zm-100 .001L48.129 110 40 118.128l-8.129-8.129L40 101.871zm80 .001l8.129 8.129L120 118.13l-8.129-8.129 8.129-8.129zm-38.209 1.789v.001l1.842 1.842c-.358.33-.49.885-.169 1.341l2.08 5.739-2.337 2.337-.307-2.318c-.294-1.584-.381-3.888-.885-5.503-.5-.423-.804.236-1.307.59-2.771 1.411-3.904-1.066-4.419-2.108l.86-.86c.474.971 1.446 1.784 2.548 1.451 1.057-.469 1.41-1.663 2.094-2.512zm-23.972.391l-4.561 7.334L51.872 110l5.947-5.948zm45.919 1.558h.001l4.389 4.389-1.843 1.843-2.117-5.262-.43-.97zm-27.91.433l-.426 7.49-3.531-3.531 3.957-3.959zm-67.699.421L11.664 110l-3.535 3.536L4.593 110l3.536-3.536zm143.742 0l3.535 3.536-3.535 3.536-3.536-3.536 3.536-3.536zM30 111.871L38.129 120 30 128.129 21.871 120 30 111.871zm20 0l1.854 1.854c-.829 1.412-1.524 2.669-1.958 3.606.294.451.632.994 1.196.559 1.033-.565 1.757-1.529 2.669-2.257L58.128 120 50 128.128l-8.129-8.129L50 111.871zm60 0l8.129 8.129-8.129 8.129-8.129-8.129 2.608-2.608c1.421 1.555 2.84 2.858 4.11 3.533.581-.306.945-.701.593-1.344-.316-1.192-1.021-3.07-1.819-5.074l2.637-2.636zm19.999 0l8.129 8.129-8.129 8.129L121.87 120l8.129-8.129zm-59.331.669l4.532 4.532-.353 6.209L70 128.128l-3.324-3.324 3.992-12.264zm15.877 2.786c1.489 4.043 3.082 8.161 4.691 11.567L90 128.128l-5.782-5.782-.549-4.144 2.876-2.876zM15 116.87l3.129 3.129L15 123.128v-6.258zm130 0v6.258l-3.129-3.129L145 116.87zm-25 5l8.129 8.129-8.129 8.129-8.129-8.129L120 121.87zm-100 .001L28.129 130 20 138.128l-5-5v-6.257l5-5zm20 0L48.129 130 40 138.128 31.871 130 40 121.871zm60 0l8.129 8.129-8.129 8.129L91.871 130l1.479-1.479c1.537.782 2.992.829 4.775.619.887-.47 2.645-4.071 1.689-7.083l.186-.186zm40 .001l5 5v6.257l-5 5-8.129-8.129 8.129-8.128zm-80.574.575c-.255.727-.47 1.422-.629 2.07.032 1.829 1.526 3.305 3.043 4.078.834.071 1.478-.658 2.17-1.037l.936-.741L68.129 130 60 138.128l-8.129-8.129 7.555-7.552zM8.13 126.465L11.665 130l-3.535 3.536L4.594 130l3.536-3.535zm143.742 0l3.535 3.535-3.535 3.536-3.536-3.536 3.536-3.535zm-67.228.049L88.13 130 80 138.128l-8.129-8.129 2.751-2.751-.118 2.08c.306.813 1.166 1.256 1.715 1.909 1.049.975 2.234 2.051 3.708 2.212.806-.224 1.424-.908 2.153-1.32 1.045-.768 2.219-1.599 2.692-2.85-.007-.851-.054-1.782-.128-2.765zM30 131.87l8.129 8.129-5 5h-6.257l-5-5L30 131.87zm20 0l8.129 8.129-5 5h-6.258l-5-5L50 131.87zm20 0l8.129 8.129-5 5h-6.257l-5-5L70 131.87zm20 0l8.129 8.129-5.001 5h-6.257l-5-5L90 131.87zm20 0l8.129 8.129-5 5h-6.258l-5-5L110 131.87zm20 0l8.129 8.129-5 5h-6.257l-5-5L130 131.87zm-115 5l3.129 3.129L15 143.128v-6.258zm130 .001v6.257l-3.128-3.129 3.128-3.128zm-105 5L43.129 145h-6.258L40 141.871zm20 0L63.129 145h-6.258L60 141.871zm40 0l3.129 3.129h-6.258l3.129-3.129zm20 0l3.129 3.129h-6.258l3.129-3.129zm-100 .001l3.128 3.129h-6.257L20 141.872zm60 0l3.128 3.129h-6.257L80 141.872zm59.999 0l3.128 3.129h-6.257l3.129-3.129zm-130 4.593l3.536 3.536L10 153.535 6.465 150l3.534-3.535zm140 0l3.535 3.536-3.535 3.535-3.536-3.535 3.536-3.536zm-120 1.871l3.535 3.535L30 155.406l-3.536-3.536 3.535-3.534zm20 0l3.536 3.535L50 155.406l-3.536-3.536 3.535-3.534zm20 0l3.536 3.535L70 155.406l-3.535-3.536 3.534-3.534zm20 0l3.535 3.535L90 155.406l-3.536-3.536 3.535-3.534zm20 0l3.536 3.535-3.536 3.536-3.536-3.536 3.536-3.535zm20 0l3.536 3.535-3.536 3.536-3.535-3.536 3.535-3.535z"/></svg>
