<svg xmlns="http://www.w3.org/2000/svg" width="604.724" height="604.724" viewBox="0 0 160 160"><path fill="#000" d="M0 0v139.971A30 20 0 0 0 0 140a30 20 0 0 0 30 20 30 20 0 0 0 27.557-12.095A25 15 0 0 0 80 156.296a25 15 0 0 0 22.443-8.391A30 20 0 0 0 130 160a30 20 0 0 0 30-20V0zm7.737 3.856a2.764 2.765 0 1 1 0 5.529 2.764 2.765 0 1 1 0-5.529zm11.058.001a2.765 2.764 0 0 1 0 5.528 2.765 2.764 0 0 1 0-5.528zm11.058 0a2.765 2.764 0 0 1 0 5.528 2.765 2.764 0 0 1 0-5.528zm11.059 0a2.765 2.764 0 0 1 0 5.528 2.765 2.764 0 0 1 0-5.528zm11.059 0a2.765 2.764 0 0 1 0 5.528 2.765 2.764 0 0 1 0-5.528zm11.059 0a2.765 2.764 0 0 1 0 5.528 2.765 2.764 0 0 1 0-5.528zm11.059 0a2.765 2.764 0 0 1 0 5.528 2.765 2.764 0 0 1 0-5.528zm11.059 0a2.765 2.764 0 0 1 0 5.528 2.765 2.764 0 0 1 0-5.528zm11.059 0a2.765 2.764 0 0 1 0 5.528 2.765 2.764 0 0 1 0-5.528zm11.059 0a2.765 2.764 0 0 1 0 5.528 2.765 2.764 0 0 1 0-5.528zm11.059 0a2.765 2.764 0 0 1 0 5.528 2.765 2.764 0 0 1 0-5.528zm11.059 0a2.765 2.764 0 0 1 0 5.528 2.765 2.764 0 0 1 0-5.528zm11.059 0a2.765 2.764 0 0 1 0 5.528 2.765 2.764 0 0 1 0-5.528zm11.059 0a2.765 2.764 0 0 1 0 5.528 2.765 2.764 0 0 1 0-5.528zM7.737 14.914a2.764 2.765 0 1 1 0 5.529 2.764 2.765 0 1 1 0-5.529zm143.763 0a2.764 2.765 0 1 1 0 5.529 2.764 2.765 0 1 1 0-5.529zM44.663 17.679c9.144 0 16.564 1.169 16.564 2.61s-7.421 2.61-16.564 2.61-16.564-1.169-16.564-2.61 7.421-2.61 16.564-2.61zm70.541 0c9.144 0 16.564 1.169 16.564 2.61s-7.421 2.61-16.564 2.61-16.565-1.169-16.565-2.61 7.421-2.61 16.565-2.61zM7.737 25.973a2.764 2.765 0 1 1 0 5.529 2.764 2.765 0 1 1 0-5.529zm143.763 0a2.764 2.765 0 1 1 0 5.529 2.764 2.765 0 1 1 0-5.529zM20.848 28.119c1.441 0 2.61 7.421 2.61 16.564s-1.169 16.565-2.61 16.565-2.61-7.421-2.61-16.565 1.169-16.564 2.61-16.564zm118.172 0c1.441 0 2.61 7.421 2.61 16.564s-1.169 16.565-2.61 16.565-2.61-7.421-2.61-16.565 1.169-16.564 2.61-16.564zm-77.574 5.85h12.941 11.176 12.941l-12.941 12v4.235c7.401.545 14.274 2.172 20.244 4.715 1.99.848 3.88 1.797 5.655 2.843 1.908 1.123 3.713 2.387 5.364 3.78 2.476 2.09 4.605 4.474 6.214 7.119v.001c1.073 1.764 1.914 3.644 2.473 5.631.14.497.262 1 .365 1.51a20.95 20.95 0 0 1 .207 1.196h-11.489c-2.541-6.67-13.528-13.373-29.033-14.753V77H74.388V62.247c-1.933.172-3.813.43-5.625.765s-3.558.746-5.221 1.224C53.332 67.167 47.144 72.308 45.354 77H33.865c.43-3.003 1.497-5.792 3.045-8.338v-.001c1.073-1.764 2.377-3.411 3.86-4.933 2.226-2.282 4.856-4.282 7.718-5.967 2.805-1.651 5.895-3.064 9.215-4.213v-.001c5.086-1.761 10.714-2.904 16.684-3.345v-4.235zM7.737 37.032a2.764 2.765 0 1 1 0 5.529 2.764 2.765 0 1 1 0-5.529zm143.763 0a2.764 2.765 0 1 1 0 5.529 2.764 2.765 0 1 1 0-5.529zM7.737 48.091a2.764 2.765 0 1 1 0 5.529 2.764 2.765 0 1 1 0-5.529zm143.763 0a2.764 2.765 0 1 1 0 5.529 2.764 2.765 0 1 1 0-5.529zM7.737 59.149a2.764 2.765 0 1 1 0 5.529 2.764 2.765 0 1 1 0-5.529zm143.763 0a2.764 2.765 0 1 1 0 5.529 2.764 2.765 0 1 1 0-5.529zM7.737 70.208a2.764 2.765 0 0 1 2.764 2.764 2.764 2.765 0 0 1-5.529 0 2.764 2.765 0 0 1 2.765-2.764zm143.763 0a2.764 2.765 0 0 1 2.764 2.764 2.764 2.765 0 0 1-5.528 0 2.764 2.765 0 0 1 2.764-2.764zM7.737 81.266a2.764 2.765 0 1 1 0 5.529 2.764 2.765 0 1 1 0-5.529zm143.763 0a2.764 2.765 0 1 1 0 5.529 2.764 2.765 0 1 1 0-5.529zM34.252 85h12.123a14.6 14.6 0 0 0 .369.554c.087.124.164.248.257.372a16.26 16.26 0 0 0 1.132 1.358c.067.072.147.143.216.215a20.24 20.24 0 0 0 1.187 1.134c.161.142.331.282.501.424.274.228.573.453.87.679.877.668 1.819 1.328 2.905 1.968 5.18 3.05 12.406 5.323 20.576 6.05V85h11.176v12.753c8.17-.727 15.396-3 20.575-6.05 1.086-.639 2.028-1.3 2.905-1.968.297-.226.596-.45.87-.679l.501-.424a20.24 20.24 0 0 0 1.187-1.134c.069-.072.149-.143.216-.215.421-.452.794-.905 1.132-1.358.093-.124.171-.248.258-.372a14.59 14.59 0 0 0 .369-.554h12.123a21.66 21.66 0 0 1-1.229 3.606c-.414.939-.893 1.85-1.429 2.732-1.073 1.764-2.377 3.411-3.86 4.933-2.226 2.283-4.856 4.282-7.717 5.967-5.326 3.136-11.681 5.411-18.688 6.659-2.336.416-4.744.718-7.211.9v4.235l12.941 12H61.446l12.941-12v-4.235c-9.867-.727-18.797-3.378-25.899-7.559-3.816-2.247-7.22-5.052-9.802-8.343-1.936-2.468-3.41-5.208-4.249-8.189-.066-.234-.128-.47-.186-.707zM7.737 92.325a2.764 2.765 0 1 1 0 5.529 2.764 2.765 0 1 1 0-5.529zm143.763 0a2.764 2.765 0 1 1 0 5.529 2.764 2.765 0 1 1 0-5.529zM20.848 98.797c1.441 0 2.61 7.421 2.61 16.565s-1.169 16.564-2.61 16.564-2.61-7.421-2.61-16.564 1.169-16.565 2.61-16.565zm118.172 0c1.441 0 2.61 7.421 2.61 16.565s-1.169 16.564-2.61 16.564-2.61-7.421-2.61-16.564 1.169-16.565 2.61-16.565zM7.737 103.384a2.764 2.765 0 1 1 0 5.529 2.764 2.765 0 1 1 0-5.529zm143.763 0a2.764 2.765 0 1 1 0 5.529 2.764 2.765 0 1 1 0-5.529zM7.737 114.443a2.764 2.765 0 1 1 0 5.529 2.764 2.765 0 1 1 0-5.529zm143.763 0a2.764 2.765 0 1 1 0 5.529 2.764 2.765 0 1 1 0-5.529zM7.737 125.501a2.764 2.765 0 1 1 0 5.529 2.764 2.765 0 1 1 0-5.529zm143.763 0a2.764 2.765 0 1 1 0 5.529 2.764 2.765 0 1 1 0-5.529zM44.663 135.92c9.144 0 16.564 1.169 16.564 2.61s-7.421 2.61-16.564 2.61-16.564-1.169-16.564-2.61 7.421-2.61 16.564-2.61zm70.541 0c9.144 0 16.565 1.169 16.565 2.61s-7.421 2.61-16.565 2.61-16.564-1.169-16.564-2.61 7.421-2.61 16.564-2.61zm-107.467.64a2.764 2.765 0 1 1 0 5.529 2.764 2.765 0 1 1 0-5.529zm143.763 0a2.764 2.765 0 1 1 0 5.529 2.764 2.765 0 1 1 0-5.529zm-89.416 6.807a2.5 2.5 0 0 1 1.775 4.264 2.5 2.5 0 0 1-3.543-3.528 2.5 2.5 0 0 1 1.766-.736zm35.833 0h.001a2.5 2.5 0 0 1 1.758 4.272 2.5 2.5 0 0 1-3.529-3.544 2.5 2.5 0 0 1 1.769-.729zm-27.359 4.288a2.5 2.5 0 0 1 2.267 3.485 2.5 2.5 0 1 1-4.595-1.97 2.5 2.5 0 0 1 2.329-1.515zm18.884 0a2.5 2.5 0 0 1 1.016 4.797 2.5 2.5 0 1 1-1.97-4.595c.302-.129.626-.198.954-.202zM80 149.708a2.5 2.5 0 1 1 0 5 2.5 2.5 0 1 1 0-5zm-50 2.611a2.764 2.765 0 1 1 0 5.529 2.764 2.765 0 1 1 0-5.529zm100 0a2.764 2.765 0 1 1 0 5.529 2.764 2.765 0 1 1 0-5.529z"/></svg>
