<svg xmlns="http://www.w3.org/2000/svg" width="604.724" height="604.724" viewBox="0 0 160 160"><path fill="#000" d="M10 0C4.477 0 0 4.477 0 10s4.477 10 10 10C4.477 20 0 24.477 0 30s4.477 10 10 10C4.477 40 0 44.477 0 50s4.477 10 10 10C4.477 60 0 64.477 0 70s4.477 10 10 10h0C4.477 80 0 84.477 0 90s4.477 10 10 10c-5.523 0-10 4.477-10 10s4.477 10 10 10c-5.523 0-10 4.477-10 10s4.477 10 10 10c-5.523 0-10 4.477-10 10s4.477 10 10 10 10-4.477 10-10c0 5.523 4.477 10 10 10s10-4.477 10-10c0 5.523 4.477 10 10 10s10-4.477 10-10c0 5.523 4.477 10 10 10s10-4.477 10-10H80c0 5.523 4.477 10 10 10s10-4.477 10-10c0 5.523 4.477 10 10 10s10-4.477 10-10c0 5.523 4.477 10 10 10s10-4.477 10-10c0 5.523 4.477 10 10 10s10-4.477 10-10-4.477-10-10-10c5.523 0 10-4.477 10-10s-4.477-10-10-10c5.523 0 10-4.477 10-10s-4.477-10-10-10c5.523 0 10-4.477 10-10s-4.477-10-10-10h0c5.523 0 10-4.477 10-10s-4.477-10-10-10c5.523 0 10-4.477 10-10s-4.477-10-10-10c5.523 0 10-4.477 10-10s-4.477-10-10-10c5.523 0 10-4.477 10-10s-4.477-10-10-10-10 4.477-10 10H140c0-5.523-4.477-10-10-10s-10 4.477-10 10c0-5.523-4.477-10-10-10s-10 4.477-10 10c0-5.523-4.477-10-10-10S80 4.477 80 10H80c0-5.523-4.477-10-10-10S60 4.477 60 10c0-5.523-4.477-10-10-10S40 4.477 40 10c0-5.523-4.477-10-10-10S20 4.477 20 10c0-5.523-4.477-10-10-10zm20 4.594l3.535 3.536L30 11.664l-3.536-3.535zm20 0l3.536 3.536L50 11.664l-3.536-3.535zm20 0l3.536 3.536L70 11.664l-3.535-3.535zm20 0l3.535 3.536L90 11.664l-3.536-3.535zm20 0l3.536 3.536L110 11.664l-3.536-3.535zm20 0l3.536 3.536-2.838 2.837-.698.698-.698-.698-2.838-2.837zM10 6.465L13.536 10 10 13.536 6.465 10zm140 0L153.535 10 150 13.536 146.464 10zM16.871 15h6.258L20 18.129zm10 0h6.257l5.001 5.001L30 28.13 21.871 20zm10 0h6.258L40 18.129zm10 0h6.258l5 5L50 28.129 41.871 20zm10 0h6.258L60 18.129zm10 0h6.258l5 5L70 28.129 61.871 20zm10 0h6.258L80 18.129zm9.999 0h6.258l5 5L90 28.129 81.871 20zm10 0h6.258L100 18.129zm10 0h6.258l5 5L110 28.129 101.871 20zm10 0h6.258L120 18.129zm10 0h6.257l5 5L130 28.129 121.871 20zm9.999 0h6.258L140 18.129zM15 16.871L18.129 20 15 23.129zm130 .001v6.257L141.871 20zm-125 5L28.13 30l-8.129 8.129L15 33.128v-6.257zm100 0L128.129 30 120 38.129 111.871 30zM40 21.872L48.128 30 40 38.129 31.871 30zm20.001 0L68.129 30 60 38.129 51.871 30zm20 0L88.129 30l-4.751 4.751a50.03 50.03 0 0 0-3.388-.036c-1.074.026-2.149.087-3.222.183h-.001L71.871 30zm20 0L108.129 30 100 38.129 91.871 30zm40 0l5 5v6.257l-5 5L131.871 30zM8.129 26.465L11.664 30l-3.535 3.535L4.594 30zm143.742 0L155.407 30l-3.535 3.535L148.336 30zM30 31.871L38.129 40 30 48.128 21.872 40zm40 0l3.44 3.44c-3.177.504-6.308 1.319-9.32 2.441zm20 0l4.717 4.717a48.98 48.98 0 0 0-7.871-1.561zm40.001 0L138.129 40 130 48.129 121.871 40zm-20 .001L118.129 40l-6.033 6.033c-2.928-2.598-6.227-4.792-9.74-6.517zm-60 .001l8.129 8.129-1.107 1.107c-2.458 1.437-4.775 3.112-6.903 5.024l-1.088 1.027-7.159-7.159zm-35 4.999L18.129 40 15 43.129zm130 0v6.258L141.871 40zm-125 5L28.129 50 20 58.129l-5-5v-6.258zm20.001 0l7.184 7.184c-1.87 2.038-3.543 4.253-4.896 6.674l-.153.264-2.135 2.135L31.872 50zm79.999 0L128.129 50l-7.245 7.245c-1.784-3.475-4.124-6.627-6.865-9.392zm20 0l5 5v6.258l-5 5L131.871 50zM8.129 46.464L11.664 50l-3.535 3.536L4.594 50zm143.742 0L155.407 50l-3.535 3.536L148.336 50zM30 51.871L38.129 60 30 68.129 21.872 60zm100 0L138.129 60 130 68.129l-7.637-7.637-.286-.698zm-115 5L18.129 60 15 63.129zm130 0v6.258L141.871 60zm-125 5L28.129 70 20 78.129l-5-5v-6.258zm119.999 0l5 5v6.257l-5 5L131.871 70zm-100.781.781c-1.351 4.257-1.878 8.776-1.476 13.219L31.871 70zm84.745 3.183L128.129 70l-3.441 3.441c.039-2.553-.2-5.109-.724-7.605zm-115.835.629L11.664 70l-3.535 3.536L4.594 70zm143.742 0L155.407 70l-3.535 3.536L148.336 70zm-99.299 4.837c.191-.006.381-.004.571.008.908.055 1.789.322 2.568.882 2.008 1.499 2.276 4.306 1.839 6.597-.773 3.908-3.178 7.44-6.388 9.767-1.503.913-3.046 1.898-4.847 2.049-2.062.339-4.355-.682-5.157-2.682l-.357-4.912c.964-4.434 3.935-8.426 7.925-10.594 1.149-.614 2.51-1.071 3.846-1.114zM30 71.871L38.129 80 30 88.129 21.872 80zm100 0L138.129 80 130 88.129l-6.43-6.431c.361-1.387.635-2.798.823-4.22zm-56.601 1.67c3.345.147 6.057 2.697 7.597 5.498.588 1.562 1.138 3.159 1.622 4.756.473 3.066-.073 6.613-2.483 8.773-1.892 1.72-4.86 1.727-6.984.427-2.551-1.497-4.321-3.977-5.325-6.698-1.005-2.843-1.184-6.055-.013-8.825.62-1.497 1.894-3.031 3.547-3.596a5.53 5.53 0 0 1 2.039-.336zM15 76.871L18.129 80 15 83.129zm130 .001v6.257L141.871 80zm-50.99 3.332c.894.025 1.755.502 2.568.818 2.332 1.06 4.423 2.694 5.905 4.795 1.054 1.474 1.94 3.559 2.122 5.555.389 3.421-.965 6.898-3.253 9.319-1.384 1.515-3.126 2.662-4.985 3.509l-.506 4.686c.27.193.842-.173 1.305-.311a52.55 52.55 0 0 0 6.603-2.934l4.359 4.359-8.129 8.129-8.129-8.129-.529-.529c.104-.622.109-1.334.211-1.959l.22-2.035c-2.508.271-5.128.076-7.441-.677-1.129-.386-2.679-.743-2.895-2.141-.293-1.665 1.758-2.823 3.164-2.112 4.587 1.978 10.547 1.002 13.793-2.942 2.039-2.39 2.454-6.022.891-8.767-1.291-2.421-3.717-4.043-6.298-4.825-.626-.298-1.405-.998-.947-1.74.298-.673.18-1.718 1.064-1.92.305-.114.607-.156.905-.148zM20 81.871L28.129 90 20 98.129l-5-5v-6.258zm120 0l5 5v6.257l-5 5.001L131.871 90zm-100.893.893c1.035 2.364 1.204 3.895.655 6.454l-1.299 7.374L31.871 90zm83.572 1.786l5.45 5.45L120 98.129l-3.204-3.204c2.494-3.12 4.506-6.627 5.883-10.375zM8.129 86.464L11.664 90l-3.535 3.535L4.594 90zm143.742 0L155.407 90l-3.535 3.535L148.336 90zm-93.819 4.538a2.9 2.9 0 0 1 .407.008c.753.038 1.464.258 2.046.746 1.485.849 2.477 2.293 3.435 3.661.889 1.64 1.654 3.754.733 5.539-.813 1.263-2.594.907-3.695.256-1.118-.592-2.018-1.504-2.838-2.452-1.52 1.497-3.414 3.02-5.658 2.971-1.209.002-1.916-1.26-1.741-2.355.216-2.47 1.798-4.577 3.606-6.165.737-.765 1.688-1.264 2.576-1.803.317-.267.721-.384 1.13-.406zM30 91.871l7.901 7.901-.097.552L30 108.129 21.872 100zm100 0l8.129 8.129-8.129 8.129-8.129-8.129zm-115 5L18.129 100 15 103.129zm130 0v6.258L141.871 100zm-29.932.069l3.06 3.06-8.129 8.129-3.848-3.848c2.282-1.397 4.435-3.001 6.396-4.835a38.94 38.94 0 0 0 2.521-2.506zM20 101.871L28.129 110 20 118.129l-5-5v-6.258zm120 0l5 5v6.258l-5 5-8.129-8.129zm-20 .001l8.129 8.129-8.129 8.129-8.129-8.129zm-82.988 2.988l-1.48 8.801-3.66-3.66zm-28.882 1.605L11.664 110l-3.535 3.536L4.594 110zm143.742 0l3.535 3.536-3.535 3.536-3.536-3.536zm-107.654 1.641c.024 0 .048.001.072.004.792.398.692 1.516.75 2.276-.069 2.392-.779 4.725-1.74 6.9l-3.846-2.242c.83-2.37 1.892-4.81 3.806-6.507.276-.204.601-.435.958-.431zm8.769 2.715c.829.466.862 1.613.987 2.461.186 2.445-.244 4.902-.932 7.242l-4.241-1.008c.469-2.751 1.216-5.582 2.912-7.848.325-.368.733-.875 1.273-.847zm19.039.452c.019 0 .037 0 .057.002 1.342.414 2.059 1.796 2.727 2.934.74 1.416 1.277 2.937 1.614 4.497-1.341.52-2.699.995-4.07 1.428-.958-2.41-1.673-5.067-1.227-7.67.13-.453.322-1.183.898-1.191zM30 111.871L38.129 120 30 128.129 21.871 120zm80 0l8.129 8.129-8.129 8.129-8.129-8.129zm19.999 0l8.129 8.129-8.129 8.129-8.129-8.129zm-68.089.264l.051.006c1.15.52 1.575 1.873 2.023 2.963.75 2.204 1.073 4.513 1.069 6.793-1.391.216-2.803.334-4.211.272-.546-2.502-.751-5.063-.291-7.648.219-.843.381-2.013 1.28-2.381zm29.023.669L98.129 120 90 128.129l-7.745-7.745c2.605-1.116 5.139-2.397 7.546-3.888.49-.435 1.008-.909.936-1.627l.197-2.065zM15 116.871L18.129 120 15 123.129zm130 0v6.258L141.871 120zm-101.562 4.695c.84.361 1.69.692 2.537 1.005 2.448.855 4.956 1.572 7.502 2.081L50 128.129zm76.562.304l8.129 8.129-8.129 8.129-8.129-8.129zm-100 .001L28.129 130 20 138.128l-5-5v-6.257zm20 0L48.129 130 40 138.129 31.871 130zm40 0L88.129 130 80 138.129 71.871 130zm20 0l8.129 8.129-8.129 8.129L91.871 130zm40 .001l5 5v6.257l-5 5-8.129-8.129zm-64.649.906L70 128.129l-3.316-3.316c2.934-.448 5.833-1.154 8.667-2.035zm-18.657 2.4l1.074.121c1.86.096 3.719.058 5.568-.093L68.129 130 60 138.129 51.871 130zm-48.564 1.287L11.664 130l-3.535 3.536L4.594 130zm143.742 0l3.535 3.535-3.535 3.536-3.536-3.536zM30 131.871L38.129 140l-5 5h-6.257l-5-5zm20 0L58.129 140l-5 5h-6.258l-5-5zm20 0L78.129 140l-5 5h-6.257l-5-5zm20 0L98.129 140l-5.001 5h-6.257l-5-5zm20 0l8.129 8.129-5 5h-6.258l-5-5zm20 0l8.129 8.129-5 5h-6.257l-5-5zm-115 5L18.129 140 15 143.129zm130 .001v6.257L141.871 140zm-105 5L43.129 145h-6.258zm20 0L63.129 145h-6.258zm40 0l3.129 3.129h-6.258zm20 0l3.129 3.129h-6.258zm-100 .001L23.128 145h-6.257zm60 0L83.129 145h-6.257zm59.999 0l3.128 3.128h-6.257zm-130 4.593L13.536 150 10 153.535 6.465 150zm140 0l3.535 3.536-3.535 3.535-3.536-3.535zm-120 1.871l3.535 3.535L30 155.406l-3.536-3.536zm20 0l3.536 3.535L50 155.406l-3.536-3.536zm20 0l3.536 3.535L70 155.406l-3.535-3.536zm20 0l3.535 3.535L90 155.406l-3.536-3.536zm20 0l3.536 3.535-3.536 3.536-3.536-3.536zm20 0l3.536 3.535-3.536 3.536-3.535-3.536z"/></svg>
