<svg xmlns="http://www.w3.org/2000/svg" width="604.724" height="604.724" viewBox="0 0 160 160"><path fill="#000" d="M20 0L10 10 0 20l10 10L0 40l10 10L0 60l10 10L0 80l10 10-10 10 10 10-10 10 10 10-10 10 10 10 10 10 10-10 10 10 10-10 10 10 10-10 10 10 10-10 10 10 10-10 10 10 10-10 10 10 10-10 10-10-10-10 10-10-10-10 10-10-10-10 10-10-10-10 10-10-10-10 10-10-10-10 10-10-10-10-10-10-10 10-10-10-10 10-10-10-10 10L80 0 70 10 60 0 50 10 40 0 30 10zm0 5l5 5H15zm20 0l5 5H35zm20 0l5 5H55zm20 0l5 5H75zm20 0l5 5H95zm20 0l5 5h-10zm20 0l5 5h-10zM10 15v10l-5-5zm5 0h13.678v13.678H15zm16.322 0h17.356v13.678H31.322zm20 0h17.356v13.678H51.322zm20 0h17.356v13.678H71.322zm20 0h17.355v13.678H91.323zm20 0h17.356v13.678h-17.356zm20 0H145v13.678h-13.678zM150 15l5 5-5 5zM15 31.322h13.678v17.356H15zm16.322 0h17.356v17.356H31.322zm20 0h9.694l-9.694 4.303zm20 0h17.356v5.571l-17.356-5.154zm20 0h17.355v12.397l-.959-1.172-16.396-4.868zm20 0h17.356v17.355h-17.356zm20 0H145v17.356h-13.678zM10 35v10l-5-5zm140 0l5 5-5 5zm-97.416 1.332l44.286 13.354v44.816l11.54-6.708v1.8l-12.21 6.881L57.4 81.795l1.399-.986L95.406 94.65v-43.91L51.823 37.598l-.024-.761zm4.92 6.169s-1.517.977-1.517 2.807v27.373c0 1.074.673 2.032 1.699 2.417l33.562 12.517a2.76 2.76 0 0 1-2.811.542L57.163 76.432c-1.588-.595-2.641-2.091-2.641-3.752V45.308c0-1.582 1.363-2.865 2.982-2.807zm2.744 1.486l27.993 8.591a4.46 4.46 0 0 1 2.82 2.537l.958 27.496-1.435.102c-7.683-.034-17.469-3.193-22.514-5.387-4.526-1.969-7.141-4.263-7.141-4.263s-2.441-2.348-2.393-14.468c.032-8.129.915-12.402 1.713-14.608zm48.177 7.194l1.676.983v27.393l-1.643 1.186zM15 51.322h13.678v17.356H15zm16.322 0h17.356v17.356H31.322zm81.276 0h16.08v17.356h-7.526V56.59l-1.014-1.634zm18.724 0H145v17.356h-13.678zM10 55v10l-5-5zm140 0l5 5-5 5zM15 71.322h13.678v17.356H15zm16.322 0h17.356v13.036l-.023.033.002 4.286H31.322zm89.83 0h7.526v13.152l-1.043-1.157-13.323-5.033.002-1.397 6.839-5.324zm10.17 0H145v17.356h-13.678zM10 75v10l-5-5zm140 0l5 5-5 5zm-98.678 3.05l5.391 1.969-5.391 2.154zm.951 6.008l42.461 16.729-.671 1.279-42.741-16.844v-.515zm74.306.235l1.032 1.064-29.768 16.602-.759-1.223zm-.775 5.008v12.102l-1.465.827V90.149zm-2.93 1.695v12.06l-1.465.827V91.845zM15 91.322h13.678v17.356H15zm16.322 0h17.335l.002 3.97-.705 1.67-16.398 11.168.006.547h-.24zm100 0H145v17.356h-13.678zm-11.379 1.37v12.017l-1.465.827V93.54zM10 95v10l-5-5zm140 0l5 5-5 5zm-77.299 1.702l17.859 7.154v2.318l-17.859-7.153zm-19.34.331h.001l36.549 14.399-1.573 1.44-37.333-14.707zm-5.255 1.308l-.734.497 1.743.705-1.731 1.185-1.744-.719zm1.764 1.507l1.777.719-1.729 1.204-1.779-.733zm-4.979.669l2.945 1.223-1.765 1.219-2.946-1.246zm7.526.362l1.813.734-1.728 1.223-1.814-.747zm2.598 1.051l1.849.749-1.725 1.243-1.851-.762zm-6.416.126l1.795.746-1.765 1.239-1.797-.76zm-6.239.175l1.745.744-1.804 1.234-1.745-.757zm15.305.772l1.887.764-1.723 1.265-1.889-.778zm71.013.091v5.585h-8.767l8.046-4.376zm-77.506.032l1.832.761-1.764 1.259-1.833-.776zm-6.312.172l1.78.758-1.803 1.256-1.78-.773zm-5.084.684l2.946 1.29-1.842 1.271-2.946-1.314zm20.594.117l1.926.779-1.72 1.286-1.928-.794zm-6.572.118l1.869.776-1.761 1.281-1.871-.792zm-6.387.168l1.816.774-1.802 1.276-1.817-.789zm47.996.825h1.466v16.001l11.807-6.422v13.891H91.323v-8.849l4.083 1.38zm-32.277.01l1.966.795-1.717 1.308-1.969-.811zm-6.653.113l1.908.792-1.76 1.303-1.91-.808zm-6.464.165l1.854.79-1.801 1.299-1.854-.806zm-6.528.111l1.798.787-1.842 1.292-1.798-.802zm-6.348.164l1.745.784-1.882 1.288-1.744-.799zm28.81.586l2.007.812-1.713 1.331-2.01-.828zm-6.736.109l1.948.808-1.756 1.326-1.95-.825zm-6.542.161l1.891.806-1.799 1.321-1.893-.822zm-6.608.106l1.835.804-1.841 1.315-1.836-.819zm-6.424.16l1.781.8-1.882 1.31-1.78-.817zm29.186.626l2.05.83-1.708 1.354-2.053-.846zm-34.381.075l1.744.806-1.921 1.316-1.738-.82.309-.216zm27.561.032l1.989.826-1.752 1.348-1.992-.842zm-6.622.159l1.931.823-1.796 1.343-1.933-.839zm-6.69.102l1.873.82-1.84 1.337-1.874-.836zm-6.502.156l1.817.817-1.881 1.332-1.817-.833zm29.572.667l2.094.847-1.703 1.379-2.097-.864zm-34.819.04l1.78.823-1.922 1.339-1.78-.839zm27.912.059l2.031.843-1.749 1.373-2.035-.86zm-6.705.154l1.973.841-1.795 1.367-1.974-.857zm-6.774.098l1.913.837-1.838 1.361-1.914-.854zm-6.581.151l1.855.835-1.88 1.356-1.856-.851zm29.968.71l2.138.865-1.698 1.403-2.142-.882zm-35.269.01l1.817.84-1.923 1.362-1.817-.857zm28.272.088l2.075.862-1.744 1.397-2.079-.879zm-6.789.152l2.015.858-1.791 1.392-2.017-.876zm-6.86.094l1.953.855-1.836 1.384-1.955-.871zm-6.663.148l1.894.852-1.879 1.38-1.895-.869zm-5.356.725l1.856.858-1.923 1.386-1.856-.875zm35.729.028l2.186.885-1.691 1.429-2.191-.902zm-7.087.088l2.12.88-1.739 1.423-2.124-.899zM15 111.329h13.678v17.355H15zm16.322 0h.924l16.432 8.132v9.223H31.322zm83.726 0h13.63v17.355h-17.356v-15.329zm16.274 0H145v17.355h-13.678zm-67.461.075l2.058.877-1.787 1.417-2.061-.896zm-6.947.086l1.995.874-1.833 1.409-1.998-.891zm-6.747.144l1.936.871-1.878 1.405-1.937-.888zm-5.411.733l13.3 6.148-1.915 1.518-13.309-6.273zm36.201.068l6.807 2.754-1.673 1.494-2.042-.841-.981-.404-3.8-1.565zm-7.181.083l2.167.9-1.734 1.448-2.171-.918zm-6.965.142l2.103.897-1.782 1.442-2.106-.915zm-7.038.082l2.039.892-1.829 1.436-2.042-.91zm-6.832.141l1.978.889-1.876 1.43-1.979-.907zm23.941.925l2.215.92-1.728 1.475-2.219-.939zm-7.056.138l2.15.916-1.777 1.47-2.153-.935zm-7.13.077l2.084.913-1.826 1.462-2.087-.931zm-6.92.137l2.022.909-1.874 1.456-2.023-.928zM10 115.007v10l-5-5zm140 0l5 5-5 5zm-69.943.12l2.283.948-1.72 1.503-2.288-.968zm-7.149.133l2.198.937-1.771 1.497-2.202-.957zm-7.225.069l2.13.932-1.822 1.489-2.133-.952zm-7.01.131l2.066.929-1.871 1.483-2.068-.948zm24.649 1.022l2.045.849-1.713 1.529-2.049-.867zm-7.264.121l6.852 2.921-1.754 1.567-6.867-2.982zm-7.322.063l2.179.954-1.817 1.517-2.182-.974zm-7.103.127l2.113.95-1.867 1.51-2.115-.969zm10.225 1.24l2.228.975-1.811 1.547-2.232-.995zm-7.197.121l2.16.972-1.862 1.54-2.163-.992zm-5.708.777l2.116.978-1.911 1.547-2.118-.998zm16.099.5l5.344 2.338-1.797 1.606-5.355-2.388zm-7.295.115l2.21.994-1.858 1.569-2.213-1.014zm20.921.749v8.39H77.406zm-26.691.038l2.164 1-1.907 1.577-2.167-1.021zm-10.664.438l15.991 7.914H51.322zm19.602.2l6.894 3.1-1.842 1.645-6.907-3.166zm-5.836.797l2.215 1.023-1.903 1.608-2.218-1.045zm3.175 1.467l2.267 1.048-1.898 1.639-2.27-1.07zm3.249 1.502l3.664 1.694-1.889 1.686-3.671-1.73zM15 131.329h13.678v13.678H15zm16.322 0h17.356v13.678H31.322zm20 0h17.356v13.678H51.322zm20 0h17.356v13.678H71.322zm20 0h17.355v13.678H91.323zm20 0h17.356v13.678h-17.356zm20 0H145v13.678h-13.678zM10 135.007v10l-5-5zm140 0l5 5-5 5zm-135 15h10l-5 5zm20 0h10l-5 5zm20 0h10l-5 5zm20 0h10l-5 5zm20 0h10l-5 5zm20 0h10l-5 5zm20 0h10l-5 5z"/></svg>
