<svg xmlns="http://www.w3.org/2000/svg" width="604.724" height="604.724" viewBox="0 0 160 160"><path fill="#000" d="M26.667 0A26.61 26.61 0 0 0 0 26.667V30v100 3.334A26.61 26.61 0 0 0 26.667 160 26.61 26.61 0 0 0 52.5 140h1.667A26.61 26.61 0 0 0 80 160c12.47 0 22.887-8.473 25.833-20h1.667a26.61 26.61 0 0 0 25.834 20A26.61 26.61 0 0 0 160 133.333V130 30v-3.334A26.61 26.61 0 0 0 133.333 0 26.61 26.61 0 0 0 107.5 20h-1.667C102.888 8.473 92.47 0 80 0a26.61 26.61 0 0 0-25.834 20H52.5A26.61 26.61 0 0 0 26.667 0zm.001 3.184h.001c0 1.373 2.745 5.382 2.546 6.549-.216 1.138-2.524 3.761-2.546 4.724l-.001.014c0-.938-2.362-3.665-2.546-4.738-.001-.009-.004-.018-.005-.026h0c-.17-1.15 2.551-5.167 2.551-6.522zm53.333 0h.001c0 1.373 2.745 5.382 2.546 6.549-.216 1.138-2.524 3.761-2.546 4.724l-.001.014c0-.938-2.362-3.665-2.546-4.738-.001-.009-.004-.018-.005-.026h0C77.28 8.556 80 4.539 80 3.184zm53.333 0h.001c0 1.373 2.745 5.382 2.546 6.549-.216 1.138-2.523 3.761-2.545 4.724l-.002.014c0-.938-2.361-3.665-2.545-4.738-.001-.009-.004-.018-.005-.026h0c-.17-1.15 2.551-5.167 2.551-6.522zM13.344 8.033c.879.938 5.382 2.001 6.261 2.939.665.709.793 4.587 1.458 5.296-.665-.709-4.526-1.088-5.191-1.797-.879-.938-1.649-5.5-2.528-6.438zm26.645 0c-.879.938-1.649 5.5-2.528 6.438-.665.709-4.526 1.088-5.191 1.797.665-.709.793-4.587 1.458-5.296.879-.938 5.382-2.001 6.261-2.939zm26.688 0c.879.938 5.382 2.001 6.261 2.939.665.709.793 4.587 1.458 5.296-.665-.709-4.526-1.088-5.191-1.797-.879-.938-1.649-5.5-2.528-6.438zm26.645 0c-.879.938-1.649 5.5-2.528 6.438-.665.709-4.526 1.088-5.191 1.797.665-.709.793-4.587 1.458-5.296.879-.938 5.382-2.001 6.261-2.939zm26.688 0c.879.938 5.382 2.001 6.261 2.939.665.709.793 4.587 1.458 5.296-.665-.709-4.526-1.088-5.191-1.797-.879-.938-1.649-5.5-2.528-6.438zm26.645 0c-.879.938-1.649 5.5-2.528 6.438-.665.709-4.526 1.088-5.191 1.797.665-.709.793-4.587 1.458-5.296.879-.938 5.382-2.001 6.261-2.939zM26.667 17.646a4 4 0 1 1 0 8 4 4 0 1 1 0-8zm53.333 0a4 4 0 1 1 0 8 4 4 0 1 1 0-8zm53.333 0a4 4 0 1 1 0 8 4 4 0 1 1 0-8zM13.719 19.088c1.155 0 4.618 2.558 5.773 2.558-1.155 0-4.618 2.558-5.773 2.558-1.526 0-6.105-2.558-7.631-2.558 1.526 0 6.105-2.558 7.631-2.558zm25.896 0c1.526 0 6.105 2.558 7.631 2.558-1.526 0-6.105 2.558-7.631 2.558-1.155 0-4.618-2.558-5.773-2.558 1.155 0 4.618-2.558 5.773-2.558zm27.438 0c1.155 0 4.618 2.558 5.773 2.558-1.155 0-4.618 2.558-5.773 2.558-1.526 0-6.105-2.558-7.631-2.558 1.526 0 6.105-2.558 7.631-2.558zm25.896 0c1.526 0 6.105 2.558 7.631 2.558-1.526 0-6.105 2.558-7.631 2.558-1.155 0-4.618-2.558-5.773-2.558 1.155 0 4.618-2.558 5.773-2.558zm27.438 0c1.155 0 4.618 2.558 5.773 2.558-1.155 0-4.618 2.558-5.773 2.558-1.526 0-6.105-2.558-7.631-2.558 1.526 0 6.105-2.558 7.631-2.558zm25.896 0c1.526 0 6.105 2.558 7.631 2.558-1.526 0-6.105 2.558-7.631 2.558-1.155 0-4.618-2.558-5.773-2.558 1.155 0 4.618-2.558 5.773-2.558zM6.382 30h12.052l-6.026 20.087zm14.816 0h12.42l-6.21 20.7-6.21-20.699zm15.184 0h2.191v7.301zm46.089 0h11.148l-5.392 17.974zm13.911 0h12.054l-6.027 20.089zm14.817 0h12.42l-6.21 20.7zm15.184 0h12.054v.001l-6.027 20.089zm14.817 0h12.419l-6.21 20.7-6.21-20.699zm-98.685 3.942h16.111v2.646H45.16v8.424h13.465v2.646h-.304-15.807V34.471zm19.112 0h.811H79.43l.304.943L97.181 89l-2.494.881-17.181-53.292H61.625zm93.375.662v40.176l-.184.613-6.027-20.088zm-60 .001l6.027 20.089-5.151 17.168-6.223-19.434zm-90 .001l6.026 20.087L5 74.78zm14.816 0l6.21 20.7L20 75.394l-6.21-20.7zm15.184 0l3.572 11.907v5.085h1.525l.929 3.096-6.21 20.7-6.027-20.089zm90 0l6.027 20.089-6.21 20.7-6.027-20.089zm-15.183.001l6.209 20.699L110 75.394l-6.209-20.698zm30 0l6.21 20.7L140 75.394l-6.21-20.7zM61.625 45.013h6.51l5.77 18.154-8.322 26.635-2.49-.908 8.039-25.72-4.93-15.514h-4.576zM44.72 51.599h10.195l1.112 3.706L50 75.394l-6.209-20.698zm15.183 0h3.414l3.681 11.586-2.982 9.541-5.226-17.421zm-47.494 7.701L18.618 80l-6.209 20.7L6.199 80zm90 .001L108.618 80l-4.903 16.342-6.412-20.023zm30 0L138.618 80l-6.21 20.7-6.209-20.699zm-90 .001L48.618 80l-6.21 20.7-6.209-20.698zm-15.001.61l6.027 20.089-6.027 20.088L21.382 80zm30 0l5.198 17.327-6.15 19.677L51.382 80zm60 0l6.026 20.089-6.026 20.087L111.382 80zm30 0L153.435 80l-6.027 20.088L141.382 80zM80 77.175l4.982 16.132-2.498.882L80 86.144l-2.475 8.014-2.49-.908L80 77.175zm60 7.431l6.026 20.088-6.21 20.701-6.027-20.088zm14.816 0l.184.613v40.176l-6.21-20.702zM20 84.606l6.026 20.089-6.21 20.7-6.027-20.089zm30 0l5.046 16.822-2.083 6.666h-8.337l-.836-2.788zm60 0l6.027 20.088-1.02 3.399h-7.528l-2.336-7.296zm14.817.001l6.21 20.699-1.027 3.423v-.635h-10.19l-1.02-3.399zm-90 .001l6.209 20.698-.836 2.788H30v.634l-1.21-4.032zM5 85.22l6.026 20.087L5 125.393zm57.195 6.54l2.491.908-6.882 22.015H46.621v-2.646h9.237l6.338-20.277zm35.905.096l6.507 20.181h8.195v2.646h-10.119l-7.077-21.946zM74.149 96.12l2.49.908-8.965 29.031h-.11-20.312-.631v-2.646h19.1l8.428-27.293zm11.719.056l8.411 27.238h18.523v2.646H92.436h-.11l-8.956-29.002zM80 99.5l3.815 12.568-3.998 13.327-3.816-12.719zm67.408 9.799l6.21 20.701h-12.42v-.001zm-119.999.003L30 117.941V130h-8.801zm105 .61L138.435 130H130v-12.059zm-120 .001L18.435 130H6.382zm21.534 2.123h9.68v2.646h-7.033v8.731h7.033v2.647h-9.68zm81.861 0h10.256v14.023h-10.256v-2.646h7.609v-8.731h-7.609zm-30.598 4.612L89.258 130h-8.058zm-10.593.607L78.435 130h-7.692zm-47.944 17.1a4 4 0 1 1 0 8 4 4 0 1 1 0-8zm53.333 0a4 4 0 1 1 0 8 4 4 0 1 1 0-8zm53.333 0a4 4 0 1 1 0 8 4 4 0 1 1 0-8zm-119.614 1.442c1.155 0 4.618 2.559 5.773 2.559-1.155 0-4.618 2.558-5.773 2.558-1.526 0-6.105-2.558-7.631-2.558 1.526 0 6.105-2.559 7.631-2.559zm25.896 0c1.526 0 6.105 2.559 7.631 2.559-1.526 0-6.105 2.558-7.631 2.558-1.155 0-4.618-2.558-5.773-2.558 1.155 0 4.618-2.559 5.773-2.559zm27.438 0c1.155 0 4.618 2.559 5.773 2.559-1.155 0-4.618 2.558-5.773 2.558-1.526 0-6.105-2.558-7.631-2.558 1.526 0 6.105-2.559 7.631-2.559zm25.896 0c1.526 0 6.105 2.559 7.631 2.559-1.526 0-6.105 2.558-7.631 2.558-1.155 0-4.618-2.558-5.773-2.558 1.155 0 4.618-2.559 5.773-2.559zm27.438 0c1.155 0 4.618 2.559 5.773 2.559-1.155 0-4.618 2.558-5.773 2.558-1.526 0-6.105-2.558-7.631-2.558 1.526 0 6.105-2.559 7.631-2.559zm25.896 0c1.526 0 6.105 2.559 7.631 2.559-1.526 0-6.105 2.558-7.631 2.558-1.155 0-4.618-2.558-5.773-2.558 1.155 0 4.618-2.559 5.773-2.559zm-125.218 7.936c-.665.709-.793 4.587-1.458 5.296-.879.938-5.382 2.001-6.261 2.939.879-.938 1.649-5.5 2.528-6.438.665-.709 4.526-1.088 5.191-1.797zm11.207 0c.665.709 4.526 1.088 5.191 1.797.879.938 1.649 5.5 2.528 6.438-.879-.938-5.382-2.001-6.261-2.939-.665-.709-.793-4.587-1.458-5.296zm42.126 0c-.665.709-.793 4.587-1.458 5.296-.879.938-5.382 2.001-6.261 2.939.879-.938 1.649-5.5 2.528-6.438.665-.709 4.526-1.088 5.191-1.797zm11.207 0c.665.709 4.526 1.088 5.191 1.797.879.938 1.649 5.5 2.528 6.438-.879-.938-5.382-2.001-6.261-2.939-.665-.709-.793-4.587-1.458-5.296zm42.126 0c-.665.709-.793 4.587-1.458 5.296-.879.938-5.382 2.001-6.261 2.939.879-.938 1.649-5.5 2.528-6.438.665-.709 4.526-1.088 5.191-1.797zm11.207 0c.665.709 4.526 1.088 5.191 1.797.879.938 1.649 5.5 2.528 6.438-.879-.938-5.382-2.001-6.261-2.939-.665-.709-.793-4.587-1.458-5.296zm-5.603 1.797c.023.977 2.33 3.6 2.546 4.739.199 1.167-2.546 5.176-2.546 6.549h-.001c0-1.355-2.72-5.373-2.551-6.522h0c.001-.008.004-.017.005-.026.184-1.074 2.545-3.8 2.545-4.738zm-106.667.001h.001c.022.977 2.33 3.6 2.546 4.738.199 1.167-2.546 5.176-2.546 6.549h-.001c0-1.355-2.721-5.373-2.551-6.522v-.001c.001-.008.004-.017.005-.026.184-1.074 2.546-3.8 2.546-4.738zm53.333 0H80c.022.977 2.33 3.6 2.546 4.738.199 1.167-2.546 5.176-2.546 6.549H80c0-1.355-2.721-5.373-2.551-6.522v-.001c.001-.008.004-.017.005-.026.184-1.074 2.546-3.8 2.546-4.738z"/></svg>
