<svg xmlns="http://www.w3.org/2000/svg" width="604.724" height="604.724" viewBox="0 0 160 160"><path fill="#000" d="M0 0v139.971.029c0 11.046 13.432 20 30 20 11.985 0 22.821-4.756 27.557-12.095 4.201 5.136 12.907 8.391 22.443 8.391s18.241-3.255 22.443-8.391C107.18 155.245 118.015 160 130 160c16.568 0 30-8.954 30-20V0zm7.737 3.856c1.527 0 2.764 1.238 2.764 2.765S9.263 9.385 7.737 9.385c-.733 0-1.436-.291-1.955-.81s-.81-1.222-.81-1.955.291-1.437.81-1.955 1.222-.81 1.955-.81zm11.058.001c1.527 0 2.765 1.238 2.765 2.764s-1.238 2.764-2.765 2.764-2.765-1.238-2.765-2.764 1.238-2.764 2.765-2.764zm11.058 0c1.527 0 2.765 1.238 2.765 2.764s-1.238 2.764-2.765 2.764-2.764-1.238-2.764-2.764 1.237-2.764 2.764-2.764zm11.059 0c1.527 0 2.765 1.238 2.765 2.764s-1.238 2.764-2.765 2.764-2.765-1.238-2.765-2.764 1.238-2.764 2.765-2.764zm11.059 0c1.527 0 2.765 1.238 2.765 2.764s-1.238 2.764-2.765 2.764-2.765-1.238-2.765-2.764 1.238-2.764 2.765-2.764zm11.059 0c1.527 0 2.765 1.238 2.765 2.764s-1.238 2.764-2.765 2.764-2.765-1.238-2.765-2.764 1.238-2.764 2.765-2.764zm11.059 0c1.527 0 2.765 1.238 2.765 2.764s-1.238 2.764-2.765 2.764-2.765-1.238-2.765-2.764 1.238-2.764 2.765-2.764zm11.059 0c1.527 0 2.765 1.238 2.765 2.764s-1.238 2.764-2.765 2.764-2.765-1.238-2.765-2.764 1.238-2.764 2.765-2.764zm11.059 0c1.527 0 2.765 1.238 2.765 2.764s-1.238 2.764-2.765 2.764-2.765-1.238-2.765-2.764 1.238-2.764 2.765-2.764zm11.059 0c1.527 0 2.765 1.238 2.765 2.764s-1.238 2.764-2.765 2.764-2.765-1.238-2.765-2.764 1.238-2.764 2.765-2.764zm11.059 0c1.527 0 2.765 1.238 2.765 2.764s-1.238 2.764-2.765 2.764-2.765-1.238-2.765-2.764 1.238-2.764 2.765-2.764zm11.059 0c1.527 0 2.765 1.238 2.765 2.764s-1.238 2.764-2.765 2.764-2.765-1.238-2.765-2.764 1.238-2.764 2.765-2.764zm11.059 0c1.527 0 2.765 1.238 2.765 2.764s-1.238 2.764-2.765 2.764-2.765-1.238-2.765-2.764 1.238-2.764 2.765-2.764zm11.059 0c1.527 0 2.765 1.238 2.765 2.764s-1.238 2.764-2.765 2.764-2.765-1.238-2.765-2.764 1.238-2.764 2.765-2.764zM7.737 14.915c1.527 0 2.764 1.238 2.764 2.765s-1.238 2.765-2.764 2.765c-.733 0-1.436-.291-1.955-.81s-.81-1.222-.81-1.955.291-1.437.81-1.955 1.222-.81 1.955-.81zm143.763 0c1.527 0 2.764 1.238 2.764 2.765s-1.238 2.765-2.764 2.765-2.764-1.238-2.764-2.765 1.238-2.765 2.764-2.765zM44.663 17.679c9.144 0 16.564 1.169 16.564 2.61s-7.421 2.61-16.564 2.61-16.564-1.169-16.564-2.61 7.421-2.61 16.564-2.61zm70.541 0c9.144 0 16.564 1.169 16.564 2.61s-7.421 2.61-16.564 2.61-16.565-1.169-16.565-2.61 7.421-2.61 16.565-2.61zM7.737 25.973c1.527 0 2.764 1.238 2.764 2.765s-1.238 2.765-2.764 2.765c-.733 0-1.436-.291-1.955-.81s-.81-1.222-.81-1.955.291-1.437.81-1.955 1.222-.81 1.955-.81zm143.763 0c1.527 0 2.764 1.238 2.764 2.765s-1.238 2.765-2.764 2.765-2.764-1.238-2.764-2.765 1.238-2.765 2.764-2.765zM20.848 28.119c1.441 0 2.61 7.421 2.61 16.564s-1.169 16.565-2.61 16.565-2.61-7.421-2.61-16.565 1.169-16.564 2.61-16.564zm118.172 0c1.441 0 2.61 7.421 2.61 16.564s-1.169 16.565-2.61 16.565-2.61-7.421-2.61-16.565 1.169-16.564 2.61-16.564zm-66.15 4.958l35.952 20.757-23.151 14.015-36.784-21.455zM7.737 37.032c1.527 0 2.764 1.238 2.764 2.765s-1.238 2.765-2.764 2.765c-.733 0-1.436-.291-1.955-.81s-.81-1.222-.81-1.955.291-1.437.81-1.955 1.222-.81 1.955-.81zm143.763 0c1.527 0 2.764 1.238 2.764 2.765s-1.238 2.765-2.764 2.765-2.764-1.238-2.764-2.765 1.238-2.765 2.764-2.765zM7.737 48.091c1.527 0 2.764 1.238 2.764 2.765S9.263 53.62 7.737 53.62c-.733 0-1.436-.291-1.955-.81s-.81-1.222-.81-1.955.291-1.437.81-1.955 1.222-.81 1.955-.81zm143.763 0c1.527 0 2.764 1.238 2.764 2.765s-1.238 2.765-2.764 2.765-2.764-1.238-2.764-2.765 1.238-2.765 2.764-2.765zM51.106 51.037L83.379 69.67l-2.783 2.397a2.75 2.75 0 0 0-.81-.713L55.673 57.433l-2.187-1.263zm-2.218 2.28l3.257 3.981v20.396c0 .096.007.192.02.288l-3.277.899zm61.288 3.592v15.229l-15.111 9.056v2.309a.46.46 0 0 0 .036-.02l15.075-9.036v2.312l-15.039 9.013v2.309c.012-.006.024-.012.036-.019l15.004-8.993v2.311l-14.968 8.972v2.309a.5.5 0 0 0 .036-.02l14.932-8.951v4.773l-21.318 12.307c-1.184.684-2.135-.17-2.135-1.538l-.001-28.411zm-55.935 1.723l23.916 13.808a2.75 2.75 0 0 1 1.281 1.669 2.75 2.75 0 0 1 .094.712v17.485L57.41 79.536c-2.137-1.233-3.453-3.513-3.453-5.98V59.78a2.46 2.46 0 0 1 .284-1.148zm-46.504.517c1.527 0 2.764 1.238 2.764 2.765s-1.238 2.765-2.764 2.765c-.733 0-1.436-.291-1.955-.81s-.81-1.222-.81-1.955.291-1.437.81-1.955 1.222-.81 1.955-.81zm143.763 0c1.527 0 2.764 1.238 2.764 2.765s-1.238 2.765-2.764 2.765-2.764-1.238-2.764-2.765 1.238-2.765 2.764-2.765zM7.737 70.208c1.526 0 2.764 1.237 2.764 2.764s-1.238 2.765-2.764 2.765c-.733 0-1.436-.291-1.955-.81s-.81-1.222-.81-1.955c0-1.527 1.238-2.764 2.765-2.764zm143.763 0c1.526 0 2.764 1.237 2.764 2.764s-1.238 2.765-2.764 2.765-2.764-1.238-2.764-2.765 1.238-2.764 2.764-2.764zm-67.083 1.979v26.184l-3.257-4.27v-2.297-.001-18.068a2.75 2.75 0 0 0-.078-.649zM53.134 79.46L79.902 94.91l2.108 4.983-31.632-18.262 2.756-2.171zM7.737 81.267c1.527 0 2.764 1.238 2.764 2.765s-1.238 2.765-2.764 2.765c-.733 0-1.436-.291-1.955-.81s-.81-1.222-.81-1.955.291-1.437.81-1.955 1.222-.81 1.955-.81zm143.763 0c1.527 0 2.764 1.238 2.764 2.765s-1.238 2.765-2.764 2.765-2.764-1.238-2.764-2.765 1.238-2.765 2.764-2.765zM47.377 82.841a2.57 2.57 0 0 0 .229.149l37.306 21.539c.793.458 1.771.458 2.564 0l28.424-16.41a2.57 2.57 0 0 0 .144-.089l2.16 1.247-33.121 19.319c-.492-.559-1.078-1.044-1.742-1.428L44.189 84.493zm-5.467 3.654h0c.284.009.601.106.935.299l20.35 11.749v15.385l-20.35-11.749c-1.224-.707-2.209-2.43-2.209-3.864V88.107c0-.986.466-1.571 1.154-1.61a1.18 1.18 0 0 1 .119-.002zm78.667 5.276v13.216c-.402.867-1.047 1.65-1.777 2.07l-29.767 17.136c-1.225.705-2.21.122-2.21-1.312v-9.67a6.98 6.98 0 0 0-.301-2.03zm-112.84.555c1.527 0 2.764 1.238 2.764 2.765s-1.238 2.765-2.764 2.765c-.733 0-1.436-.291-1.955-.81s-.81-1.222-.81-1.955.291-1.437.81-1.955 1.222-.81 1.955-.81zm143.763 0c1.527 0 2.764 1.238 2.764 2.765s-1.238 2.765-2.764 2.765-2.764-1.238-2.764-2.765 1.238-2.765 2.764-2.765zM20.848 98.797c1.441 0 2.61 7.421 2.61 16.565s-1.169 16.564-2.61 16.564-2.61-7.421-2.61-16.564 1.169-16.565 2.61-16.565zm118.172 0c1.441 0 2.61 7.421 2.61 16.565s-1.169 16.564-2.61 16.564-2.61-7.421-2.61-16.564 1.169-16.565 2.61-16.565zm-73.798 3.382c.293.012.626.124.977.327h0l6.461 3.731v1.484l-6.461-3.731c-.214-.124-.395-.151-.486-.132-.064.014-.077.032-.08.037v.001h0v.001h0 .001v3.85h-.001v.001h0a.57.57 0 0 0 .08.129 1.7 1.7 0 0 0 .486.429l6.461 3.731v1.484l-6.461-3.731a4.15 4.15 0 0 1-1.257-1.146c-.354-.484-.642-1.116-.642-1.666v-3.854c0-.55.289-.849.642-.924a1.12 1.12 0 0 1 .28-.022zm-57.485 1.205c1.527 0 2.764 1.238 2.764 2.765s-1.238 2.765-2.764 2.765c-.733 0-1.436-.291-1.955-.81s-.81-1.222-.81-1.955.291-1.437.81-1.955 1.222-.81 1.955-.81zm143.763 0c1.527 0 2.764 1.238 2.764 2.765s-1.238 2.765-2.764 2.765-2.764-1.238-2.764-2.765 1.238-2.765 2.764-2.765zm-84.845 2.287l14.105 8.144v1.483l-14.105-8.143zm8.071 1.758l6.461 3.73c.468.27.905.664 1.259 1.147s.64 1.115.64 1.664v3.855c0 .55-.287.849-.64.924s-.791-.036-1.259-.306l-6.461-3.73v-1.484l6.461 3.73c.214.124.395.151.487.132.063-.013.076-.03.079-.037h0v-3.852.001c-.001-.006-.013-.038-.08-.13-.092-.125-.273-.306-.487-.43l-6.461-3.73zm-66.989 7.014c1.527 0 2.764 1.238 2.764 2.765s-1.238 2.765-2.764 2.765c-.733 0-1.436-.291-1.955-.81s-.81-1.222-.81-1.955.291-1.437.81-1.955 1.222-.81 1.955-.81zm143.763 0c1.527 0 2.764 1.238 2.764 2.765s-1.238 2.765-2.764 2.765-2.764-1.238-2.764-2.765 1.238-2.765 2.764-2.765zM7.737 125.502c1.527 0 2.764 1.238 2.764 2.765s-1.238 2.765-2.764 2.765c-.733 0-1.436-.291-1.955-.81s-.81-1.222-.81-1.955.291-1.437.81-1.955 1.222-.81 1.955-.81zm143.763 0c1.527 0 2.764 1.238 2.764 2.765s-1.238 2.765-2.764 2.765-2.764-1.238-2.764-2.765 1.238-2.765 2.764-2.765zM44.663 135.92c9.144 0 16.564 1.169 16.564 2.61s-7.421 2.61-16.564 2.61-16.564-1.169-16.564-2.61 7.421-2.61 16.564-2.61zm70.541 0c9.144 0 16.565 1.169 16.565 2.61s-7.421 2.61-16.565 2.61-16.564-1.169-16.564-2.61 7.421-2.61 16.564-2.61zm-107.467.64c1.527 0 2.764 1.238 2.764 2.765s-1.238 2.765-2.764 2.765c-.733 0-1.436-.291-1.955-.81s-.81-1.222-.81-1.955.291-1.437.81-1.955 1.222-.81 1.955-.81zm143.763 0c1.527 0 2.764 1.238 2.764 2.765s-1.238 2.765-2.764 2.765-2.764-1.238-2.764-2.765 1.238-2.765 2.764-2.765zm-53.583 6.804h0 .001c.663 0 1.298.266 1.766.736a2.5 2.5 0 0 1-3.543 3.526 2.5 2.5 0 0 1 1.776-4.264zm-35.833 0a2.5 2.5 0 0 1 2.505 2.495 2.5 2.5 0 0 1-4.265 1.779 2.5 2.5 0 0 1-.008-3.536 2.5 2.5 0 0 1 1.766-.736zm8.475 4.288a2.5 2.5 0 0 1 2.267 3.485 2.5 2.5 0 1 1-4.595-1.97 2.5 2.5 0 0 1 2.329-1.515zm18.884 0a2.5 2.5 0 0 1 1.016 4.797 2.5 2.5 0 1 1-1.97-4.595c.302-.129.626-.198.954-.202zM80 149.706a2.5 2.5 0 0 1 2.5 2.5 2.5 2.5 0 0 1-2.5 2.5 2.5 2.5 0 0 1-2.5-2.5 2.5 2.5 0 0 1 2.5-2.5zm-50 2.611c1.527 0 2.764 1.238 2.764 2.765s-1.238 2.765-2.764 2.765-2.764-1.238-2.764-2.765 1.238-2.765 2.764-2.765zm100 0c1.527 0 2.764 1.238 2.764 2.765s-1.238 2.765-2.764 2.765-2.764-1.238-2.764-2.765 1.238-2.765 2.764-2.765z"/></svg>
