<svg xmlns="http://www.w3.org/2000/svg" width="604.724" height="604.724" viewBox="0 0 160 160"><path fill="#000" d="M20 0v.012C19.993 11.048 11.05 19.992.015 20H0v58.678 2.644 58.678h.015c11.035.008 19.978 8.953 19.985 19.987V160h58.678 2.644H140v-.012c.007-11.035 8.95-19.979 19.985-19.987H160V81.323v-2.644V20h-.015C148.95 19.992 140.007 11.048 140 .013V0H81.322h-2.644zm5.233 1.712l33.8 1.507-.015.005-.004.001-1.256.343.016.058A72.06 72.06 0 0 0 44.381 9.69L24.768 5.111a25.06 25.06 0 0 0 .465-3.399zm109.534.001a25.09 25.09 0 0 0 .465 3.399L115.619 9.69a72.06 72.06 0 0 0-13.393-6.063l.016-.058-1.256-.343-.004-.001-.015-.005 33.8-1.507zM78.678 5.014v24.987h-3.649-7.312L61.609 7.635a65.66 65.66 0 0 1 17.069-2.621zm2.644 0a65.66 65.66 0 0 1 17.069 2.621l-6.108 22.366h-6.079-4.882zm-57.36 3.054l15.479 4.764-1.132.684.049.082c-1.692 1.218-3.336 2.51-4.929 3.872L22.5 11.511a25.16 25.16 0 0 0 1.462-3.443zm112.075 0a25.16 25.16 0 0 0 1.462 3.443l-10.928 5.958c-1.593-1.362-3.238-2.654-4.93-3.873l.049-.081-1.132-.684 15.48-4.764zm-76.953.359l5.892 21.574H51.354l-8.282-13.715c5.007-3.331 10.387-5.972 16.011-7.858zm41.832 0c5.625 1.887 11.004 4.527 16.011 7.858l-8.282 13.715H95.025zm38.621 6.388l.001.001a25.63 25.63 0 0 0 5.647 5.647c-2.418 3.557-4.765 6.956-6.805 9.661l-.007-.008-.002-.003c-2.389-3.209-5.004-6.215-7.824-8.994 2.586-1.919 5.721-4.082 8.991-6.304zm-119.075.001c3.269 2.222 6.405 4.385 8.991 6.304-2.819 2.778-5.435 5.785-7.824 8.994l-.002.003-.007.008c-2.04-2.705-4.387-6.104-6.805-9.661a25.63 25.63 0 0 0 5.647-5.647zm98.644 2.98c5.559 4.012 10.551 8.858 14.823 14.39l-23.631 20.19h-.001c-3.07-1.482-6.375-2.701-9.862-3.659zm-78.213.001l18.851 31.218c-3.395.995-6.609 2.243-9.591 3.746L26.071 32.185c4.272-5.532 9.264-10.377 14.822-14.389zm-28.78 4.384c2.584 4.46 5.013 8.727 6.661 12.031-2.267 3.511-4.267 7.211-5.983 11.064l-.01.279-.114.247.087-.45-.624 1.302-6.334-22.036zm135.774 0c1.964 1.081 4.085 1.908 6.317 2.437-1.476 7.066-2.928 13.646-4.216 17.012-.54 1.411-1.259 3.107-2.118 5.024l-.624-1.302c.035.168.076.358.087.45l-.114-.247c-.006-.057-.007-.174-.01-.279-1.716-3.853-3.716-7.553-5.983-11.064 1.648-3.303 4.077-7.571 6.661-12.031zM3.973 24.977L9.16 54.718l-.445 1.247.061.022a85.18 85.18 0 0 0-3.382 20.786c-.602-3.192-1.062-5.923-1.277-7.861-.935-8.39-1.695-27.202-2.495-43.673a25.1 25.1 0 0 0 2.352-.263zm152.054 0a25.1 25.1 0 0 0 2.352.263l-2.495 43.673c-.216 1.938-.676 4.669-1.277 7.861a85.18 85.18 0 0 0-3.382-20.787l.062-.022-.445-1.247 5.187-29.741zM52.18 31.368l17.165 14.634.245.898c-2.461.353-4.862.818-7.189 1.396h-.001zm55.329.514l-9.755 16.156a74.05 74.05 0 0 0-6.808-1.235zm-45.423 2.087h3.973H68.8h6.228.001 3.649 2.644 4.882H91.2h2.741 5.205l-6.969 6.462-3.671 3.404-2.301 2.134v4.235l.55.043-.006.021c.902.073 1.771.207 2.656.312l.019-.067c.5.059.969.172 1.463.241 1.076.151 2.132.327 3.179.525.518.098 1.064.151 1.574.26l-.038.063c.913.195 1.856.346 2.743.576 1.058.275 2.097.574 3.116.898 1.722.547 3.387 1.162 4.987 1.844.125.053.239.116.363.169.069.03.146.051.215.081l-.015.012c.895.394 1.782.795 2.633 1.23a46.98 46.98 0 0 1 2.459 1.349c1.363.802 2.647 1.701 3.886 2.642l.792.61c.224.18.467.343.686.528.996.841 1.935 1.729 2.807 2.663.661.707 1.272 1.427 1.841 2.17.565.738 1.088 1.501 1.566 2.286h0c.02.033.034.07.054.103.315.524.574 1.075.847 1.62.183.364.394.714.557 1.087.265.607.463 1.241.673 1.87.107.32.251.625.343.951.005.018.008.037.013.055.009.033.015.067.024.099a21.03 21.03 0 0 1 .328 1.357 20.92 20.92 0 0 1 .255 1.55h-11.405c-.008-.024-.022-.049-.03-.073-.196-.567-.454-1.135-.771-1.7-.03-.054-.075-.11-.106-.164-1.559-2.685-4.461-5.298-8.421-7.501-.329-.183-.682-.355-1.026-.531-1.623-.836-3.366-1.623-5.296-2.3l-.158-.055c-.96-.333-1.955-.644-2.985-.93l-.004.003h-.001c-1.526-.422-3.118-.789-4.767-1.093l.002-.003a59.51 59.51 0 0 0-2.821-.448v.001c-.909-.123-1.832-.226-2.767-.31l-.014.051v4.865 5.12.674 14.082.675 5.12 4.865.052l1.628-.166 1.153-.145c1.376-.186 2.689-.449 3.995-.719a55.72 55.72 0 0 0 2.3-.528c2.369-.595 4.582-1.317 6.619-2.15.431-.176.894-.333 1.307-.518 1.273-.57 2.474-1.177 3.573-1.824l.16-.095c1.019-.61 1.911-1.238 2.746-1.873l.808-.63c.385-.319.736-.64 1.076-.962.22-.208.451-.415.653-.624.341-.354.638-.709.928-1.065.143-.176.309-.352.44-.528.01-.014.019-.027.028-.041.339-.457.63-.913.888-1.368.107-.188.214-.376.307-.563l.143-.29a10.26 10.26 0 0 0 .382-.942c.008-.022.019-.045.027-.067l11.408-.008c-.066.523-.151 1.04-.255 1.55-.064.314-.164.615-.241.923-.07.28-.137.561-.219.838-.218.74-.474 1.465-.768 2.174-.053.127-.092.26-.147.387-.013.029-.021.059-.034.088-.151.342-.354.661-.521.996-.275.549-.536 1.104-.854 1.633-.02.033-.034.069-.054.102a25.99 25.99 0 0 1-1.517 2.215c-.018.023-.031.049-.049.072h-.001c-.57.746-1.21 1.449-1.86 2.145l.033.012c-.063.067-.142.121-.206.188-.092.097-.167.205-.261.301-.7.718-1.502 1.357-2.277 2.018-.413.352-.78.738-1.212 1.074-1.334 1.038-2.746 2.002-4.229 2.875-.797.469-1.617.919-2.459 1.349l-.069-.059c-.85.434-1.656.909-2.55 1.302a53.26 53.26 0 0 1-1.959.816c-1.988.782-4.087 1.442-6.248 2.022-.164.044-.31.111-.475.154l-.024-.04c-.888.231-1.804.423-2.718.618l.037.062c-.365.078-.756.113-1.125.186-.374.073-.722.183-1.1.25-.552.098-1.144.127-1.704.212-.768.117-1.506.285-2.288.378h-.001l-.024-.089c-.887.105-1.747.257-2.65.331l.007.025-.539.041-.011 4.236 2.301 2.134h0l3.671 3.403 6.97 6.463H93.94h-2.741-9.877-2.644H68.8h-2.741-3.972l5.32-4.933 3.671-3.403h0l3.951-3.663v-4.235l-1.753-.15c-.906-.089-1.736-.306-2.625-.427l-.032.116c-2.092-.284-4.133-.658-6.113-1.116a62.71 62.71 0 0 1-2.679-.683c-2.073-.577-4.039-1.286-5.949-2.052l-1.297-.533c-.388-.168-.801-.31-1.182-.486l.076-.065a49.16 49.16 0 0 1-2.573-1.282l-.079.067c-.575-.307-1.14-.624-1.694-.95-2.4-1.413-4.637-3.047-6.609-4.883-.657-.612-1.285-1.247-1.88-1.903h.001c-.458-.506-.897-1.025-1.314-1.556l-.471-.618c-.52-.703-.988-1.434-1.429-2.178-.127-.214-.244-.432-.364-.649a23.22 23.22 0 0 1-.884-1.776c-.094-.211-.195-.419-.282-.633-.312-.763-.595-1.538-.819-2.335-.008-.029-.01-.06-.018-.089-.267-.966-.474-1.956-.602-2.971h11.404c.008.025.023.051.031.076.106.308.233.618.377.929.041.09.086.18.131.271.09.181.193.362.297.544a13.1 13.1 0 0 0 .723 1.14c.073.107.141.213.221.32.047.063.109.126.158.19.322.418.665.836 1.058 1.252l.131.131c.14.145.305.289.453.433.308.301.62.601.967.899l.268.226c.274.228.573.453.87.679.845.643 1.75 1.28 2.786 1.898l.119.07c1.015.598 2.124 1.159 3.288 1.691.373.17.781.321 1.167.484 1.891.796 3.946 1.492 6.137 2.082a54.4 54.4 0 0 0 2.297.573c1.232.275 2.473.543 3.771.744a61.11 61.11 0 0 0 3.916.475v-4.567-2.394-21.586-2.394-4.565a61.47 61.47 0 0 0-2.887.326l-1.028.15-1.71.29-1.08.21c-1.587.325-3.119.708-4.585 1.143-1.148.34-2.227.717-3.27 1.11-.575.216-1.111.455-1.658.687-.56.238-1.136.47-1.662.722-.481.23-.918.478-1.373.719-.567.302-1.156.597-1.678.913l-.081.05c-1.63.994-3.015 2.055-4.186 3.142l-.382.355a18.26 18.26 0 0 0-1.339 1.456c-.074.09-.158.181-.228.271-.392.497-.725.995-1.022 1.492-.061.104-.14.208-.197.312-.149.267-.29.534-.411.8a9.83 9.83 0 0 0-.357.886c-.008.024-.022.049-.03.073H34.458c.395-3.138 1.484-6.046 3.093-8.691v-.001c.011-.019.025-.036.037-.054.394-.644.816-1.273 1.269-1.885l.01.004c.554-.748 1.14-1.477 1.774-2.177.251-.277.508-.551.771-.82.359-.368.753-.709 1.132-1.062.249-.232.485-.471.742-.696a36.21 36.21 0 0 1 2.514-2.025 40.47 40.47 0 0 1 3.331-2.184c.554-.326 1.118-.643 1.693-.95.837-.447 1.696-.873 2.577-1.279a54.1 54.1 0 0 1 4.945-1.984v-.001c.007-.003.015-.004.023-.007 1.127-.39 2.281-.75 3.459-1.078l.04.067c.883-.246 1.735-.53 2.645-.741l-.006-.009a67.24 67.24 0 0 1 6.112-1.117h.001c.874-.119 1.774-.191 2.665-.278l-.009-.032 1.753-.15V45.97l-3.952-3.664-3.67-3.403zm-37.599.343l23.171 19.796-.289.169c-3.97 2.337-7.653 5.328-10.55 8.908l-22.828-8.147c2.457-7.459 6-14.454 10.497-20.726zm111.025 0c4.497 6.273 8.04 13.268 10.497 20.726l-21.875 7.806c-2.852-3.429-6.428-6.305-10.271-8.567l-1.03-.589zM13.204 57.568l21.972 7.841c-2.59 3.856-4.271 8.302-4.526 13.269h-20.64a79.91 79.91 0 0 1 3.194-21.11zm133.591 0a79.91 79.91 0 0 1 3.194 21.11h-19.407c-.263-5.12-2.041-9.685-4.767-13.623zm-56.915 9.19a57.79 57.79 0 0 1 2.936.552l-2.936 2.508zm-19.34.137l.811 1.343v2.633L67.44 67.53a56.75 56.75 0 0 1 3.1-.635zm25.436 1.195h.001c2.446.684 4.686 1.509 6.646 2.432l-12.742 4.547v-1.771zm-31.641.267l7.016 5.994v1.158l-13.266-4.735c1.839-.907 3.945-1.724 6.251-2.417zm41.404 3.863c3.858 2.425 5.552 4.808 6.143 6.459H89.881v-.799zm-50.687.283h.001l16.298 5.816v.36H49.35c.568-1.586 2.154-3.849 5.702-6.176zm-45.042 8.82h20.64c.255 4.967 1.936 9.413 4.526 13.269l-21.972 7.841a79.91 79.91 0 0 1-3.194-21.11zm39.34 0h22.001v.36l-16.299 5.816c-3.547-2.326-5.134-4.59-5.702-6.176zm40.53 0h22.001c-.591 1.65-2.284 4.034-6.142 6.459l-15.858-5.66zm40.702 0h19.407a79.91 79.91 0 0 1-3.194 21.111l-20.981-7.487c2.726-3.938 4.505-8.503 4.768-13.623zM5.394 83.227a85.18 85.18 0 0 0 3.382 20.786l-.061.022.445 1.247-5.187 29.741-2.352-.263 2.495-43.673c.216-1.938.676-4.669 1.277-7.861zm149.212 0c.602 3.192 1.062 5.923 1.277 7.861.935 8.39 1.695 27.202 2.495 43.673a25.13 25.13 0 0 0-2.352.263l-5.187-29.741.445-1.247-.062-.022a85.18 85.18 0 0 0 3.382-20.786zm-83.255 1.265v1.158l-7.016 5.994c-2.306-.693-4.412-1.511-6.251-2.417zm18.53.44l12.742 4.548c-1.96.923-4.2 1.747-6.646 2.431h-.001l-6.096-5.208zm-18.53 4.198v2.634l-.81 1.342a56.76 56.76 0 0 1-3.101-.635zm18.53 1.053l2.935 2.508c-.956.206-1.936.39-2.935.552zm-53.062 6.633c2.896 3.58 6.58 6.57 10.55 8.907l.289.169-23.171 19.796c-4.497-6.273-8.04-13.268-10.497-20.726zm87.316.34l21.875 7.806c-2.457 7.459-6 14.454-10.497 20.726l-22.679-19.376 1.03-.59c3.843-2.263 7.418-5.138 10.271-8.567zm-73.982 10.085c2.982 1.503 6.196 2.751 9.591 3.746l-18.851 31.218c-5.558-4.011-10.55-8.857-14.822-14.389zm60.145.385l23.631 20.189c-4.273 5.532-9.265 10.378-14.823 14.39h-.001l-18.67-30.92c3.487-.958 6.792-2.177 9.862-3.659zm-47.897 4.079a72.79 72.79 0 0 0 7.189 1.396l-.253.928-17.703 15.51zm35.352.258l9.754 16.155-16.562-14.921c2.325-.313 4.598-.724 6.807-1.235zm-85.624 1.385l.666 1.513c1.682 3.824 3.719 7.461 5.978 10.929-1.648 3.303-4.077 7.571-6.661 12.031l-6.317-2.437zm135.74 0c.859 1.917 1.578 3.613 2.118 5.024 1.288 3.366 2.74 9.947 4.216 17.012-2.233.529-4.353 1.356-6.317 2.437-2.584-4.46-5.013-8.727-6.661-12.031 2.259-3.468 4.258-7.122 5.978-10.929.009-.082.006-.329.014-.414l.114-.247c-.016.134-.114.534-.129.661l.666-1.513zm-135.203.852l.114.247.014.412zm125.712 15.677c2.04 2.705 4.387 6.104 6.805 9.661a25.63 25.63 0 0 0-5.647 5.647c-3.269-2.222-6.405-4.385-8.991-6.304 2.819-2.778 5.435-5.785 7.824-8.994l.002-.003zm-116.757.001l.006.007.002.003c2.389 3.209 5.004 6.215 7.824 8.994-2.586 1.919-5.721 4.082-8.991 6.304a25.63 25.63 0 0 0-5.647-5.647c2.418-3.557 4.765-6.955 6.805-9.66zm29.732.122h13.621l-5.891 21.573c-5.625-1.887-11.004-4.527-16.011-7.858zm16.363 0h10.961v24.987a65.66 65.66 0 0 1-17.069-2.621zm13.605 0h10.961l6.108 22.366a65.66 65.66 0 0 1-17.069 2.621zm13.702 0h13.621l8.282 13.715c-5.007 3.331-10.386 5.972-16.011 7.858zm-61.596 12.531c1.593 1.362 3.238 2.654 4.929 3.872l-.049.082 1.132.684-15.479 4.764a25.16 25.16 0 0 0-1.462-3.443l10.928-5.958zm93.143 0l10.928 5.958a25.16 25.16 0 0 0-1.462 3.443l-15.48-4.764 1.132-.684-.049-.081c1.692-1.218 3.337-2.51 4.93-3.873zm-82.191 7.779a72.06 72.06 0 0 0 13.393 6.063l-.016.058 1.256.343.004.001.015.005-33.8 1.507a25.08 25.08 0 0 0-.465-3.399l19.613-4.579zm71.239 0l19.613 4.579a25.06 25.06 0 0 0-.465 3.399l-33.8-1.507.015-.005.004-.001 1.256-.343-.016-.058a72.06 72.06 0 0 0 13.393-6.063z"/></svg>
