<svg xmlns="http://www.w3.org/2000/svg" height="604.724" viewBox="0 0 160 160" width="604.724"><path fill="#000" d="M10 0C4.477 0 0 4.477 0 10s4.477 10 10 10C4.477 20 0 24.477 0 30s4.477 10 10 10C4.477 40 0 44.477 0 50s4.477 10 10 10C4.477 60 0 64.477 0 70s4.477 10 10 10h0C4.477 80 0 84.477 0 90s4.477 10 10 10c-5.523 0-10 4.477-10 10s4.477 10 10 10c-5.523 0-10 4.477-10 10s4.477 10 10 10c-5.523 0-10 4.477-10 10s4.477 10 10 10 10-4.477 10-10c0 5.523 4.477 10 10 10s10-4.477 10-10c0 5.523 4.477 10 10 10s10-4.477 10-10c0 5.523 4.477 10 10 10s10-4.477 10-10H80c0 5.523 4.477 10 10 10s10-4.477 10-10c0 5.523 4.477 10 10 10s10-4.477 10-10c0 5.523 4.477 10 10 10s10-4.477 10-10c0 5.523 4.477 10 10 10s10-4.477 10-10-4.477-10-10-10c5.523 0 10-4.477 10-10s-4.477-10-10-10c5.523 0 10-4.477 10-10s-4.477-10-10-10c5.523 0 10-4.477 10-10s-4.477-10-10-10h0c5.523 0 10-4.477 10-10s-4.477-10-10-10c5.523 0 10-4.477 10-10s-4.477-10-10-10c5.523 0 10-4.477 10-10s-4.477-10-10-10c5.523 0 10-4.477 10-10s-4.477-10-10-10-10 4.477-10 10H140c0-5.523-4.477-10-10-10s-10 4.477-10 10c0-5.523-4.477-10-10-10s-10 4.477-10 10c0-5.523-4.477-10-10-10S80 4.477 80 10H80c0-5.523-4.477-10-10-10S60 4.477 60 10c0-5.523-4.477-10-10-10S40 4.477 40 10c0-5.523-4.477-10-10-10S20 4.477 20 10c0-5.523-4.477-10-10-10zm20 4.594l3.535 3.536L30 11.664l-3.536-3.535zm20 0l3.536 3.536L50 11.664l-3.536-3.535zm20 0l3.536 3.536L70 11.664l-3.535-3.535zm20 0l3.535 3.536L90 11.664l-3.536-3.535zm20 0l3.536 3.536L110 11.664l-3.536-3.535zm20 0l3.536 3.536-2.838 2.837-.698.698-.698-.698-2.838-2.837zM10 6.465L13.536 10 10 13.536 6.465 10zm140 0L153.535 10 150 13.536 146.464 10zM16.871 15h6.258L20 18.129zm10 0h6.257l5.001 5.001L30 28.13 21.871 20zm10 0h6.258L40 18.129zm10 0h6.258l5 5L50 28.129 41.871 20zm10 0h6.258L60 18.129zm10 0h6.258l5 5L70 28.129 61.871 20zm10 0h6.258L80 18.129zm9.999 0h6.258l5 5L90 28.129 81.871 20zm10 0h6.258L100 18.129zm10 0h6.258l5 5L110 28.129 101.871 20zm10 0h6.258L120 18.129zm10 0h6.257l5 5L130 28.129 121.871 20zm9.999 0h6.258L140 18.129zM15 16.871L18.129 20 15 23.129zm130 .001v6.257L141.871 20zm-125 5L28.13 30l-8.129 8.129L15 33.128v-6.257zm100 0L128.129 30 120 38.129 111.871 30zM40 21.872L48.128 30H38.59v6.719L31.871 30zm20.001 0L68.129 30H51.871zm20 0L88.129 30l-4.394 4.394L82.319 30H71.871zm20 0L108.129 30 100 38.129 91.871 30zm40 0l5 5v6.257l-5 5L131.871 30zM8.129 26.465L11.664 30l-3.535 3.535L4.594 30zm143.742 0L155.407 30l-3.535 3.535L148.336 30zM30 31.871L38.129 40 30 48.128 21.872 40zm59.999 0L98.129 40 90 48.129 87.29 45.42l-2.643-8.197zm40.001 0L138.129 40 130 48.129 121.871 40zm-20 .001L118.129 40 110 48.129 101.871 40zM78.677 35h0 .001l25.178 78.094h21.162v.017V125h-31.89-.003L80.018 82.554 66.911 125h-.04-31.853v-11.853h-.001v-.052h.001 21.638l15.601-49.921L66.993 46.6H43.591h0V35zM15 36.871L18.129 40 15 43.129zm130 0v6.258L141.871 40zm-125 5L28.129 50 20 58.129l-5-5v-6.258zm80 0L108.129 50 100 58.129l-8.129-8.129zm20 0L128.129 50 120 58.129 111.871 50zm20 0l5 5v6.258l-5 5L131.871 50zM38.59 43.282v8.318h7.94l-6.529 6.529L31.872 50zM8.129 46.464L11.664 50l-3.535 3.536L4.594 50zm143.742 0L155.407 50l-3.535 3.536L148.336 50zM53.47 51.599h9.865l.77 2.425L60 58.129zm-3.47.271L58.129 60l-8.129 8.129-8.129-8.129zm-20 .001L38.129 60 30 68.129 21.872 60zm60 0L98.129 60l-4.642 4.642-3.964-12.294zm20 0L118.129 60 110 68.129 101.871 60zm20 0L138.129 60 130 68.129 121.871 60zm-64.992 4.993l2.009 6.322-.467 1.493L61.871 60zM15 56.871L18.129 60 15 63.129zm130 0v6.258L141.871 60zm-125 5L28.129 70 20 78.129l-5-5v-6.258zm20 0l8.129 8.129L40 78.129 31.871 70zm20 0l5.658 5.658-2.246 7.188L60 78.129 51.872 70zm40 0L108.129 70 100 78.129l-3.194-3.194-2.406-7.463zm20 0L128.129 70 120 78.129 111.871 70zm20 0l5 5v6.257l-5 5L131.871 70zM8.129 66.465L11.664 70l-3.535 3.536L4.594 70zm143.742 0L155.407 70l-3.535 3.536L148.336 70zM30 71.871L38.129 80 30 88.129l-8.129-8.129zm20 0l8.129 8.129L50 88.129l-8.129-8.129zm60 0l8.129 8.129L110 88.129l-8.129-8.129zm20 0l8.129 8.129L130 88.129 121.871 80zm-115 5l3.129 3.129L15 83.13zm130 .001v6.257l-3.128-3.128zM20 81.871L28.129 90 20 98.129l-5-5v-6.258zm20 0L48.129 90 40 98.129 31.871 90zm80 0L128.129 90 120 98.129 111.871 90zm20 0l5 5v6.257l-5 5.001L131.871 90zm-80 .001l.896.896-3.871 12.386L51.871 90zm40 0l8.129 8.129-4.889 4.889-3.964-12.295zm-91.87 4.593L11.664 90l-3.535 3.535L4.594 90zm143.742 0L155.407 90l-3.535 3.535L148.336 90zM50.001 91.871l6.134 6.134-1.814 5.803-4.286 4.286h-.07L41.871 100zm-20 .001L38.129 100l-8.094 8.094h-.017v.017l-.018.018L21.872 100zm79.999 0l8.129 8.129-8.094 8.094h-.07l-3.642-3.642-2.171-6.733zm20.001 0l8.129 8.129-8.111 8.111v-.017h-.053L121.871 100zm-115 5L18.129 100 15 103.129zm130 0v6.258L141.871 100zm-125 5L28.129 110 20 118.13l-5-5v-6.258zm60 0l1.085 1.085 3.324 10.764L80 118.13l-4.382-4.382 3.349-10.844zm59.999 0l5 5v6.258l-5 5-8.129-8.129zm-100 .001l6.222 6.222H33.778zm80 .001l6.222 6.222h-12.444zM8.129 106.465L11.664 110l-3.535 3.536L4.594 110zm143.742 0l3.535 3.536-3.535 3.536-3.536-3.536zM30 111.871l.018.018v16.221l-.019.019-8.129-8.129zm100.018.019l8.111 8.111-8.111 8.111zm-44.726 4.689l3.056 9.898L81.871 120zm-10.556.028L78.129 120l-6.424 6.424zM15 116.871L18.129 120 15 123.129zm130 0v6.258L141.871 120zm-125 5L28.129 130 20 138.129l-5-5v-6.257zm59.999 0L88.129 130 80 138.129 71.871 130zm60 .001l5 5v6.257l-5 5-8.129-8.129zM8.129 126.465L11.664 130l-3.535 3.536L4.594 130zm143.742 0l3.535 3.535-3.535 3.536-3.536-3.536zm-120 3.535h16.257L40 138.129l-8.129-8.129zm20 0h16.257v.001L60 138.129zm40.001 0h16.257L100 138.129l-8.129-8.129zm20 0h16.257L120 138.129zM30 131.871L38.129 140l-5 5h-6.257l-5-5zm20 0L58.129 140l-5 5h-6.258l-5-5zm20 0L78.129 140l-5 5h-6.257l-5-5zm20 0L98.129 140l-5.001 5h-6.257l-5-5zm20 0l8.129 8.129-5 5h-6.258l-5-5zm20 0l8.129 8.129-5 5h-6.257l-5-5zm-115 5L18.129 140 15 143.129zm130 0v6.257L141.871 140zm-105 5L43.129 145h-6.258zm20 0L63.129 145h-6.258zm40 0l3.129 3.129h-6.258zm20 0l3.129 3.129h-6.258zm-100 .001L23.128 145h-6.257zm60 0L83.129 145h-6.257zm59.999 0l3.128 3.128h-6.257zm-130 4.593L13.536 150 10 153.536 6.465 150zm140 0l3.535 3.536-3.535 3.535-3.536-3.535zm-120 1.871l3.535 3.535L30 155.407l-3.536-3.536zm20 0l3.536 3.535L50 155.407l-3.536-3.536zm20 0l3.536 3.535L70 155.407l-3.535-3.536zm20 0l3.535 3.535L90 155.407l-3.536-3.536zm20 0l3.536 3.535-3.536 3.536-3.536-3.536zm20 0l3.536 3.535-3.536 3.536-3.535-3.536z"/></svg>
