<svg xmlns="http://www.w3.org/2000/svg" width="604.724" height="604.724" viewBox="0 0 160 160"><path fill="#000" d="M26.666 0A26.61 26.61 0 0 0 0 26.667v3.334 100 3.334A26.61 26.61 0 0 0 26.666 160a26.61 26.61 0 0 0 25.834-20h1.667A26.61 26.61 0 0 0 80 160c12.47 0 22.887-8.473 25.833-20h1.667a26.61 26.61 0 0 0 25.834 20A26.61 26.61 0 0 0 160 133.334V130v-100-3.334A26.61 26.61 0 0 0 133.333 0 26.61 26.61 0 0 0 107.5 20h-1.667C102.887 8.473 92.47 0 80 0a26.61 26.61 0 0 0-25.834 20H52.5A26.61 26.61 0 0 0 26.666 0zm.001 3.184h.001c0 1.373 2.745 5.382 2.546 6.549-.216 1.138-2.524 3.761-2.546 4.724l-.001.014c0-.938-2.362-3.665-2.546-4.738-.001-.009-.004-.018-.005-.026v-.001c-.17-1.15 2.551-5.167 2.551-6.522zm53.333 0h.001c0 1.373 2.745 5.382 2.546 6.549-.216 1.138-2.524 3.761-2.546 4.724l-.001.014c0-.938-2.362-3.665-2.546-4.738-.001-.009-.004-.018-.005-.026v-.001C77.28 8.557 80 4.539 80 3.184zm53.333 0h.001c0 1.373 2.745 5.382 2.546 6.549-.216 1.138-2.523 3.761-2.545 4.724l-.002.014c0-.938-2.361-3.665-2.545-4.738-.001-.009-.004-.019-.005-.027v-.001c-.17-1.15 2.551-5.167 2.551-6.522zM13.344 8.033c.879.938 5.382 2.001 6.261 2.939.665.709.793 4.587 1.458 5.296-.665-.709-4.526-1.088-5.191-1.797-.879-.938-1.649-5.5-2.528-6.438zm26.645 0c-.879.938-1.649 5.5-2.528 6.438-.665.709-4.526 1.088-5.191 1.797.665-.709.793-4.587 1.458-5.296.879-.938 5.382-2.001 6.261-2.939zm26.688 0c.879.938 5.382 2.001 6.261 2.939.665.709.793 4.587 1.458 5.296-.665-.709-4.526-1.088-5.191-1.797-.879-.938-1.649-5.5-2.528-6.438zm26.645 0c-.879.938-1.649 5.5-2.528 6.438-.665.709-4.526 1.088-5.191 1.797.665-.709.793-4.587 1.458-5.296.879-.938 5.382-2.001 6.261-2.939zm26.688 0c.879.938 5.382 2.001 6.261 2.939.665.709.793 4.587 1.458 5.296-.665-.709-4.526-1.088-5.191-1.797-.879-.938-1.649-5.5-2.528-6.438zm26.645 0c-.879.938-1.649 5.5-2.528 6.438-.665.709-4.526 1.088-5.191 1.797.665-.709.793-4.587 1.458-5.296.879-.938 5.382-2.001 6.261-2.939zM26.667 17.646a4 4 0 1 1 0 8 4 4 0 1 1 0-8zm53.333 0a4 4 0 1 1 0 8 4 4 0 1 1 0-8zm53.333 0a4 4 0 1 1 0 8 4 4 0 1 1 0-8zM13.719 19.088c1.155 0 4.618 2.558 5.773 2.558-1.155 0-4.618 2.558-5.773 2.558-1.526 0-6.105-2.558-7.631-2.558 1.526 0 6.105-2.558 7.631-2.558zm25.896 0c1.526 0 6.105 2.558 7.631 2.558-1.526 0-6.105 2.558-7.631 2.558-1.155 0-4.618-2.558-5.773-2.558 1.155 0 4.618-2.558 5.773-2.558zm27.438 0c1.155 0 4.618 2.558 5.773 2.558-1.155 0-4.618 2.558-5.773 2.558-1.526 0-6.105-2.558-7.631-2.558 1.526 0 6.105-2.558 7.631-2.558zm25.896 0c1.526 0 6.105 2.558 7.631 2.558-1.526 0-6.105 2.558-7.631 2.558-1.155 0-4.618-2.558-5.773-2.558 1.155 0 4.618-2.558 5.773-2.558zm27.438 0c1.155 0 4.618 2.558 5.773 2.558-1.155 0-4.618 2.558-5.773 2.558-1.526 0-6.105-2.558-7.631-2.558 1.526 0 6.105-2.558 7.631-2.558zm25.896 0c1.526 0 6.105 2.558 7.631 2.558-1.526 0-6.105 2.558-7.631 2.558-1.155 0-4.618-2.558-5.773-2.558 1.155 0 4.618-2.558 5.773-2.558zM6.382 30.001h12.052l-6.027 20.087zm14.816 0h12.42l-6.21 20.7-6.21-20.699zm15.184 0h12.054L42.409 50.09zm14.817 0h12.42l-2.353 7.845-6.574 3.796zm15.184 0h8.471l-7.22 4.169zm8.473 0h3.581 0l-.507 1.691zm6.344 0h12.419l-2.659 8.862-8.507-4.681-1.254-4.18zm15.183 0h12.054l-4.758 15.86-3.039-1.672zm14.817 0h12.42l-6.21 20.7zm15.184 0h12.054 0l-6.027 20.089zm14.817 0h12.419l-6.21 20.7-6.21-20.699zm-66.447 3.234l35.952 20.757-23.151 14.015-36.784-21.455zM155 34.605v40.176l-.184.613-6.027-20.088zm-60 .001l2.328 7.761-3.997-2.199zm-90 .001l6.026 20.087L5 74.781zm14.816 0l6.21 20.7L20 75.394l-6.21-20.7zm15.184 0l6.027 20.089-6.21 20.7-6.027-20.089zm30 0l.276.922-.669.387zm60 0l6.027 20.089-6.21 20.7-6.027-20.089zm-75.183.001l2.518 8.394-3.24 1.871v27.506L43.79 54.696zm60 0l5.257 17.523-9.024-4.966zm30 0l6.21 20.7L140 75.395l-6.21-20.7zM52.988 51.194l32.273 18.633-2.783 2.397a2.75 2.75 0 0 0-.81-.713L57.555 57.59l-2.187-1.263zm-2.218 2.28l3.257 3.981v20.396c0 .096.007.192.02.288l-3.277.899zm61.288 3.592v15.229l-15.111 9.056v2.309a.54.54 0 0 0 .036-.02l15.075-9.036v2.312l-15.039 9.013v2.309c.012-.006.024-.012.036-.019l15.004-8.993v2.311L97.09 90.508v2.309a.54.54 0 0 0 .036-.02l14.932-8.951v4.773L90.74 100.926c-1.184.684-2.135-.17-2.135-1.538l-.001-28.411zm-55.935 1.723l23.916 13.808a2.75 2.75 0 0 1 1.165 1.329c.046.111.085.224.116.34a2.75 2.75 0 0 1 .093.712v17.485L59.292 79.693c-2.137-1.233-3.453-3.513-3.453-5.98V59.937a2.46 2.46 0 0 1 .284-1.148zm-43.715.512L18.618 80l-6.209 20.7L6.198 80zm120 .001L138.618 80l-6.21 20.7-6.209-20.699zm-90 .001l5.952 19.84-9.036 5.217v6.063l-3.126-10.42zm-15.001.61l6.027 20.089-6.027 20.088L21.382 80zm90 0l6.027 20.089-1.99 6.632-5.584-3.241V65.071zm30 0L153.434 80l-6.027 20.088L141.381 80zM86.299 72.345v26.184l-3.257-4.27v-2.297-.001-18.068a2.75 2.75 0 0 0-.077-.649zM54.97 79.589a1.98 1.98 0 0 0 .092.056l26.648 15.384c.049.029.102.052.156.071l-.008.006 2.034 4.944-31.632-18.262zm-5.711 3.41c.074.054.15.104.229.149l37.306 21.539c.793.458 1.771.458 2.564 0l28.424-16.41a2.57 2.57 0 0 0 .144-.089l2.16 1.247-33.121 19.319c-.492-.559-1.078-1.044-1.742-1.428L46.071 84.65zM140 84.606l6.027 20.088-6.21 20.701-6.027-20.088zm14.816 0l.184.613v40.176l-6.21-20.702zM20 84.606l6.027 20.089-6.21 20.7-6.027-20.089zm104.816.001l6.21 20.699L125 125.394l-4.521-15.069 4.116-2.376V88.462l-.796-.462zm-90 .001l4.508 15.025v2.162l.791.474.911 3.037L35 125.394l-6.209-20.698zM5 85.22l6.026 20.087L5 125.394zm38.792 1.432h0c.284.009.601.106.935.299l20.35 11.749v15.385l-20.35-11.749c-1.224-.707-2.209-2.43-2.209-3.864V88.264c0-.986.466-1.571 1.154-1.61.039-.003.079-.003.119-.002zm78.667 5.276v13.216c-.402.867-1.047 1.65-1.777 2.07L90.916 124.35c-1.225.705-2.21.122-2.21-1.312v-9.67a6.98 6.98 0 0 0-.301-2.03zm-55.355 10.409c.293.012.626.124.977.327h0l6.461 3.731v1.484l-6.461-3.731c-.214-.124-.395-.151-.486-.132-.064.014-.077.032-.08.037v.001h0v.001h0 .001v3.85h-.001v.001h0a.56.56 0 0 0 .08.129 1.7 1.7 0 0 0 .486.429l6.461 3.731v1.484l-6.461-3.731a4.15 4.15 0 0 1-1.257-1.146c-.354-.483-.642-1.116-.642-1.666v-3.854c0-.55.289-.849.642-.924.088-.019.182-.026.28-.022zm-23.101 2.261l10.217 6.122-4.403 14.676-6.027-20.089zm24.534 1.23l14.105 8.144v1.483l-14.105-8.143zm8.071 1.758l6.461 3.73a4.16 4.16 0 0 1 1.259 1.147c.354.483.64 1.115.64 1.664v3.855c0 .55-.287.849-.64.924s-.791-.036-1.259-.306l-6.461-3.73v-1.484l6.461 3.73c.214.124.395.151.487.132.063-.013.076-.031.079-.037h0v-3.852l.001.001c-.001-.006-.013-.038-.08-.13-.091-.125-.273-.306-.487-.43l-6.461-3.73zm70.8 1.714l6.21 20.701h-12.42 0zm-119.999.003L33.618 130H21.199zm15 .61L48.435 130H36.382zm90 0L138.435 130h-12.053zm-120 .001L18.434 130H6.382zm105.716 1.772L123.618 130h-12.419l5.195-17.317zm-61.562.438l2.064 1.237L63.618 130H51.199zm56.489 2.491l-3.234 10.781-2.279-7.598zm-51.056.764l5.094 3.052L65 125.395zm43.187 3.779L108.435 130H96.382l2.091-6.97zm-35.75.676l7.257 4.348L78.435 130H66.382zm25.698 5.127l-.13.435-.092-.306zm-2.577 1.488L93.618 130h-7.218-5.202l.793-2.642L86.401 130zm-65.886 7.906a4 4 0 1 1 0 8 4 4 0 1 1 0-8zm53.333 0a4 4 0 1 1 0 8 4 4 0 1 1 0-8zm53.333 0a4 4 0 1 1 0 8 4 4 0 1 1 0-8zm-119.614 1.442c1.155 0 4.618 2.558 5.773 2.558-1.155 0-4.618 2.558-5.773 2.558-1.526 0-6.105-2.558-7.631-2.558 1.526 0 6.105-2.558 7.631-2.558zm25.896 0c1.526 0 6.105 2.558 7.631 2.558-1.526 0-6.105 2.558-7.631 2.558-1.155 0-4.618-2.558-5.773-2.558 1.155 0 4.618-2.558 5.773-2.558zm27.438 0c1.155 0 4.618 2.558 5.773 2.558-1.155 0-4.618 2.558-5.773 2.558-1.526 0-6.105-2.558-7.631-2.558 1.526 0 6.105-2.558 7.631-2.558zm25.896 0c1.526 0 6.105 2.558 7.631 2.558-1.526 0-6.105 2.558-7.631 2.558-1.155 0-4.618-2.558-5.773-2.558 1.155 0 4.618-2.558 5.773-2.558zm27.438 0c1.155 0 4.618 2.558 5.773 2.558-1.155 0-4.618 2.558-5.773 2.558-1.526 0-6.105-2.558-7.631-2.558 1.526 0 6.105-2.558 7.631-2.558zm25.896 0c1.526 0 6.105 2.558 7.631 2.558-1.526 0-6.105 2.558-7.631 2.558-1.155 0-4.618-2.558-5.773-2.558 1.155 0 4.618-2.558 5.773-2.558zm-125.218 7.936c-.665.709-.793 4.587-1.458 5.296-.879.938-5.382 2.001-6.261 2.939.879-.938 1.649-5.5 2.528-6.438.665-.709 4.526-1.088 5.191-1.797zm11.207 0c.665.709 4.526 1.088 5.191 1.797.879.938 1.649 5.5 2.528 6.438-.879-.938-5.382-2.001-6.261-2.939-.665-.709-.793-4.587-1.458-5.296zm42.126 0c-.665.709-.793 4.587-1.458 5.296-.879.938-5.382 2.001-6.261 2.939.879-.938 1.649-5.5 2.528-6.438.665-.709 4.526-1.088 5.191-1.797zm11.207 0c.665.709 4.526 1.088 5.191 1.797.879.938 1.649 5.5 2.528 6.438-.879-.938-5.382-2.001-6.261-2.939-.665-.709-.793-4.587-1.458-5.296zm42.126 0c-.665.709-.793 4.587-1.458 5.296-.879.938-5.382 2.001-6.261 2.939.879-.938 1.649-5.5 2.528-6.438.665-.709 4.526-1.088 5.191-1.797zm11.207 0c.665.709 4.526 1.088 5.191 1.797.879.938 1.649 5.5 2.528 6.438-.879-.938-5.382-2.001-6.261-2.939-.665-.709-.793-4.587-1.458-5.296zm-5.604 1.794h.001c.023.974 2.33 3.597 2.546 4.735.199 1.167-2.546 5.176-2.546 6.549h-.001c0-1.355-2.72-5.372-2.551-6.522v-.001c.001-.01.004-.017.005-.026.184-1.074 2.545-3.8 2.545-4.738zm-106.666 0h.001 0l.001.01c.023.963 2.33 3.586 2.546 4.724.199 1.167-2.546 5.176-2.546 6.549h-.001c0-1.355-2.721-5.372-2.551-6.522h0c.001-.01.004-.017.005-.026.183-1.072 2.54-3.794 2.546-4.735zm53.333 0H80h0l.001.01c.023.963 2.33 3.586 2.546 4.724.199 1.167-2.546 5.176-2.546 6.549H80c0-1.355-2.721-5.372-2.551-6.522h0c.001-.01.004-.017.005-.026.183-1.072 2.54-3.794 2.546-4.735z"/></svg>
