<svg xmlns="http://www.w3.org/2000/svg" width="2267.717" height="453.543" viewBox="0 0 600 120"><path d="M0 10.048c3.82 3.833 12.054 15.58 17.505 22.338C5.793 46.031 3.915 65.563 12.812 81.19a11.24 11.24 0 0 1 4.168-2.807 37.6 37.6 0 0 1-4.737-18.262c.004-10.026 4.014-19.635 11.139-26.689l-.005-.005.087-.087 2.57-2.57C21.36 26.098 4.707 14.741 0 10.048zm288.094 13.651c-1.208 0-2.319.202-3.334.605a7.88 7.88 0 0 0-2.64 1.703c-.746.717-1.328 1.561-1.745 2.532s-.626 2.031-.626 3.182.209 2.211.626 3.182a7.94 7.94 0 0 0 1.745 2.555c.746.717 1.626 1.277 2.64 1.68 1.029.403 2.14.605 3.334.605s2.29-.194 3.289-.583c1.014-.403 1.894-.963 2.64-1.68.761-.732 1.343-1.584 1.745-2.555.418-.971.626-2.039.626-3.205s-.209-2.233-.626-3.204c-.403-.971-.985-1.815-1.745-2.532-.746-.732-1.626-1.292-2.64-1.68-.999-.403-2.096-.605-3.289-.605zm85.378 0c-1.193 0-2.297.202-3.312.605-.999.388-1.872.948-2.617 1.68-.746.717-1.328 1.561-1.745 2.532s-.626 2.039-.626 3.204.209 2.234.626 3.205.992 1.823 1.723 2.555a8.12 8.12 0 0 0 2.618 1.68c1.014.388 2.118.583 3.312.583 1.223 0 2.342-.209 3.357-.628 1.029-.418 1.901-1.03 2.617-1.837l-1.454-1.412c-.597.642-1.268 1.12-2.014 1.434-.746.299-1.544.449-2.394.449-.88 0-1.701-.15-2.462-.449a5.9 5.9 0 0 1-1.947-1.255 5.83 5.83 0 0 1-1.298-1.905c-.298-.747-.447-1.554-.447-2.42s.149-1.665.447-2.397c.313-.747.746-1.389 1.298-1.927s1.201-.956 1.947-1.255c.761-.299 1.582-.448 2.462-.448a6.11 6.11 0 0 1 2.394.471c.746.299 1.417.762 2.014 1.389l1.454-1.411c-.716-.807-1.588-1.412-2.617-1.815-1.014-.418-2.126-.627-3.334-.627zm17.769 0c-1.208 0-2.319.202-3.334.605a7.88 7.88 0 0 0-2.64 1.703c-.746.717-1.328 1.561-1.745 2.532s-.626 2.031-.626 3.182.209 2.211.626 3.182a7.94 7.94 0 0 0 1.745 2.555 8.06 8.06 0 0 0 2.64 1.68c1.029.403 2.14.605 3.334.605s2.29-.194 3.289-.583c1.014-.403 1.894-.963 2.64-1.68a7.49 7.49 0 0 0 1.745-2.555c.418-.971.626-2.039.626-3.205s-.209-2.233-.626-3.204c-.403-.971-.985-1.815-1.745-2.532-.746-.732-1.626-1.292-2.64-1.68-.999-.403-2.096-.605-3.289-.605zm133.425 0c-1.193 0-2.297.202-3.312.605a7.65 7.65 0 0 0-2.618 1.68c-.746.717-1.328 1.561-1.745 2.532s-.626 2.039-.626 3.204.209 2.234.626 3.205a8.12 8.12 0 0 0 1.723 2.555c.746.717 1.618 1.277 2.617 1.68 1.014.388 2.118.583 3.312.583 1.223 0 2.342-.209 3.357-.628a6.94 6.94 0 0 0 2.618-1.837l-1.455-1.412c-.597.642-1.268 1.12-2.014 1.434-.746.299-1.544.449-2.394.449-.88 0-1.7-.15-2.461-.449a5.9 5.9 0 0 1-1.947-1.255 5.83 5.83 0 0 1-1.298-1.905c-.298-.747-.448-1.554-.448-2.42s.149-1.665.448-2.397c.313-.747.746-1.389 1.298-1.927s1.201-.956 1.947-1.255c.761-.299 1.581-.448 2.461-.448a6.11 6.11 0 0 1 2.394.471c.746.299 1.417.762 2.014 1.389l1.455-1.411A6.73 6.73 0 0 0 528 24.326c-1.014-.418-2.125-.627-3.334-.627zm44.67 0c-1.208 0-2.319.202-3.334.605a7.88 7.88 0 0 0-2.64 1.703c-.746.717-1.328 1.561-1.745 2.532s-.626 2.031-.626 3.182.209 2.211.626 3.182a7.94 7.94 0 0 0 1.745 2.555 8.06 8.06 0 0 0 2.64 1.68c1.029.403 2.14.605 3.334.605s2.29-.194 3.289-.583c1.014-.403 1.894-.963 2.64-1.68.761-.732 1.343-1.584 1.745-2.555.418-.971.626-2.039.626-3.205s-.209-2.233-.626-3.204c-.403-.971-.985-1.815-1.745-2.532-.746-.732-1.626-1.292-2.64-1.68-.999-.403-2.096-.605-3.289-.605zm-434.632.179v15.685h2.238V23.879zm9.49 0v15.685h2.238V27.876l9.398 11.688h1.835V23.879h-2.238v11.688l-9.398-11.688zm18.463 0v1.95h5.371v13.736h2.215V25.828h5.371v-1.95zm17.949 0v15.685h11.367v-1.95h-9.129V32.55h7.854v-1.905h-7.854v-4.817h8.816v-1.95zm17.545 0v15.685h2.238v-4.773h3.871c.344 0 .676-.013.995-.041l3.369 4.814h2.439l-3.716-5.251c.146-.053.288-.11.426-.172.97-.433 1.716-1.053 2.238-1.86.522-.822.783-1.8.783-2.935 0-1.718-.582-3.055-1.745-4.012-1.164-.971-2.76-1.456-4.789-1.456zm18.821 0v15.685h2.238V27.877l9.398 11.687h1.835V23.879h-2.238v11.688l-9.398-11.688zm25.445 0l-7.093 15.685h2.305l1.721-3.922h8.327l1.721 3.922h2.35l-7.115-15.685zm11.168 0v1.95h5.37v13.736h2.215V25.828h5.371v-1.95zm17.949 0v15.685h2.238V23.879zm30.84 0v15.685h2.238V27.876l9.398 11.688h1.835V23.879h-2.238v11.688l-9.398-11.688zm25.444 0l-7.093 15.685h2.305l1.721-3.922h8.328l1.72 3.922h2.35l-7.115-15.685zm14.211 0v15.685h10.718v-1.95h-8.481V23.879zm63.492 0v15.685h2.237V27.876l9.398 11.688h1.835V23.879h-2.238v11.688l-9.398-11.688zm20.723 0v15.685h2.237v-6.341h7.854v-1.928h-7.854v-5.467h8.816v-1.95zm16.762 0v15.685h11.367v-1.95h-9.129V32.55h7.854v-1.905h-7.854v-4.817h8.816v-1.95zm17.545 0v15.685h2.237v-4.773h3.872c.344 0 .675-.013.994-.041l3.369 4.814h2.439l-3.715-5.251a6.33 6.33 0 0 0 .426-.172c.97-.433 1.715-1.053 2.237-1.86.522-.822.783-1.8.783-2.935 0-1.718-.582-3.055-1.745-4.012-1.164-.971-2.759-1.456-4.788-1.456zm18.821 0v15.685h11.367v-1.95h-9.129V32.55h7.854v-1.905h-7.854v-4.817h8.816v-1.95zm17.545 0v15.685h2.237V27.876l9.398 11.688h1.835V23.879h-2.238v11.688l-9.398-11.688zm39.23 0v15.685h11.367v-1.95h-9.129V32.55h7.854v-1.905h-7.854v-4.817h8.816v-1.95zm47.468 0v15.685h2.237V27.877l9.398 11.687h1.835V23.879h-2.237v11.688l-9.398-11.688zm-505.166.127h0a7.48 7.48 0 0 0-7.477 7.477c0 .837.14 1.667.414 2.457l-4.166 4.201a28.04 28.04 0 0 0-17.407-6.06c-7.436 0-14.567 2.954-19.825 8.212a28.04 28.04 0 0 0-8.212 19.826c0 6.4 2.19 12.607 6.205 17.591l-4.057 4.092c-.875-.345-1.806-.523-2.747-.523-1.983 0-3.885.788-5.287 2.19s-2.19 3.304-2.19 5.287.788 3.885 2.19 5.287 3.304 2.19 5.287 2.19a7.48 7.48 0 0 0 7.477-7.477c0-.836-.141-1.667-.415-2.457l4.167-4.202a28.04 28.04 0 0 0 17.407 6.059c15.484 0 28.036-12.553 28.036-28.037 0-6.4-2.19-12.608-6.205-17.592l4.057-4.092c.875.345 1.806.522 2.747.523a7.48 7.48 0 0 0 7.477-7.477c0-1.983-.788-3.885-2.19-5.287s-3.304-2.19-5.287-2.19zm209.643 1.688c.865 0 1.664.15 2.395.448.746.299 1.387.724 1.924 1.277.552.538.977 1.173 1.276 1.905.313.732.47 1.531.47 2.397s-.157 1.666-.47 2.398c-.298.732-.724 1.374-1.276 1.927-.537.538-1.178.956-1.924 1.255-.731.299-1.529.449-2.395.449a6.5 6.5 0 0 1-2.439-.449c-.731-.299-1.372-.717-1.924-1.255a6.09 6.09 0 0 1-1.298-1.927c-.298-.732-.448-1.532-.448-2.398s.149-1.665.448-2.397c.313-.732.746-1.367 1.298-1.905a5.78 5.78 0 0 1 1.924-1.277 6.5 6.5 0 0 1 2.439-.448zm103.148 0c.865 0 1.663.15 2.394.448.746.299 1.388.724 1.925 1.277.552.538.977 1.173 1.276 1.905a6.03 6.03 0 0 1 .47 2.397c0 .866-.157 1.666-.47 2.398-.298.732-.724 1.374-1.276 1.927-.537.538-1.179.956-1.925 1.255-.731.299-1.529.449-2.394.449a6.5 6.5 0 0 1-2.439-.449c-.731-.299-1.372-.717-1.924-1.255a6.09 6.09 0 0 1-1.298-1.927c-.298-.732-.447-1.532-.447-2.398s.149-1.665.447-2.397c.313-.732.746-1.367 1.298-1.905a5.78 5.78 0 0 1 1.924-1.277 6.5 6.5 0 0 1 2.439-.448zm178.095 0c.865 0 1.664.15 2.395.448.746.299 1.387.724 1.924 1.277.552.538.977 1.173 1.275 1.905.313.732.47 1.531.47 2.397s-.157 1.666-.47 2.398c-.298.732-.724 1.374-1.275 1.927-.537.538-1.178.956-1.924 1.255-.731.299-1.529.449-2.395.449a6.5 6.5 0 0 1-2.439-.449c-.731-.299-1.372-.717-1.924-1.255a6.09 6.09 0 0 1-1.298-1.927c-.298-.732-.448-1.532-.448-2.398s.149-1.665.448-2.397a5.83 5.83 0 0 1 1.298-1.905 5.78 5.78 0 0 1 1.924-1.277 6.5 6.5 0 0 1 2.439-.448zm-368.948.135h3.804c1.432 0 2.514.306 3.244.918.746.612 1.119 1.479 1.119 2.6s-.373 1.994-1.119 2.622c-.731.612-1.812.918-3.244.918h-3.804zm262.4 0h3.804c1.432 0 2.514.306 3.245.918.746.612 1.118 1.479 1.118 2.6s-.373 1.994-1.118 2.622c-.731.612-1.812.918-3.245.918h-3.804zm-133.875.325l3.377 7.697h-6.755zm-85.4 0l3.377 7.696h-6.755zm-165.062.345c2.752 0 4.984 2.232 4.984 4.984s-2.231 4.983-4.984 4.984-4.983-2.231-4.984-4.984 2.231-4.984 4.984-4.984zm0 2.492c-1.376 0-2.492 1.116-2.492 2.492s1.116 2.492 2.492 2.492 2.492-1.116 2.492-2.492-1.116-2.492-2.492-2.492zm-28.636 9.321c12.043.001 21.805 9.764 21.807 21.807s-9.764 21.805-21.807 21.807-21.805-9.764-21.807-21.807 9.764-21.806 21.807-21.807zm36.999.738zm0 0a11.24 11.24 0 0 1-4.167 2.806 37.6 37.6 0 0 1 4.738 18.264c-.008 9.903-3.926 19.403-10.901 26.433l.015.015-.237.237-2.407 2.407c4.679 4.679 21.374 16.062 26.055 20.741-3.817-3.815-12.088-15.616-17.549-22.382 6.556-7.775 10.114-17.639 10.03-27.809-.061-7.267-1.981-14.398-5.576-20.713zm-36.999 8.607a12.46 12.46 0 0 0-12.461 12.461A12.46 12.46 0 0 0 49.813 72.58a12.46 12.46 0 0 0 12.461-12.461 12.46 12.46 0 0 0-12.461-12.461zm169.201 1.954c-1.595 0-3.074.263-4.436.789s-2.548 1.266-3.56 2.221-1.8 2.075-2.365 3.361c-.545 1.286-.817 2.689-.817 4.209s.272 2.923.817 4.209a10.43 10.43 0 0 0 2.335 3.361 10.79 10.79 0 0 0 3.56 2.221c1.381.526 2.88.789 4.495.789 1.595 0 3.065-.263 4.407-.789 1.362-.526 2.539-1.257 3.531-2.192 1.012-.955 1.8-2.075 2.365-3.361.564-1.305.846-2.719.846-4.239 0-1.539-.282-2.942-.846-4.209-.564-1.286-1.353-2.406-2.365-3.361-.992-.955-2.169-1.695-3.531-2.221-1.343-.526-2.822-.789-4.436-.789zm22.881 0c-1.926 0-3.532.292-4.816.876-1.265.565-2.218 1.335-2.86 2.309-.623.955-.933 2.017-.933 3.186 0 1.091.214 1.987.642 2.689.448.701 1.021 1.267 1.722 1.695s1.469.779 2.305 1.052a33.09 33.09 0 0 0 2.54.702c.856.175 1.634.37 2.335.584.7.195 1.265.458 1.693.789.428.312.642.741.642 1.286 0 .429-.136.809-.409 1.14s-.7.594-1.284.789c-.564.175-1.314.263-2.248.263-1.226 0-2.442-.195-3.648-.584-1.187-.409-2.218-.926-3.094-1.549l-1.605 3.565c.914.701 2.121 1.277 3.619 1.725 1.498.429 3.064.643 4.699.643 1.946 0 3.551-.292 4.816-.876 1.284-.585 2.247-1.354 2.89-2.309s.963-2.007.963-3.157c0-1.072-.224-1.959-.671-2.66a5.03 5.03 0 0 0-1.693-1.695 9.75 9.75 0 0 0-2.335-1.023c-.837-.253-1.683-.477-2.539-.672a56.31 56.31 0 0 1-2.306-.584c-.7-.195-1.265-.448-1.693-.76-.428-.331-.642-.76-.642-1.286a1.87 1.87 0 0 1 .379-1.169c.253-.351.672-.633 1.256-.848s1.332-.321 2.247-.321 1.848.136 2.802.409c.953.253 1.907.653 2.86 1.198l1.46-3.595c-.953-.604-2.053-1.053-3.298-1.345-1.245-.312-2.51-.467-3.794-.467zm21.831 0c-1.595 0-3.074.263-4.436.789s-2.549 1.266-3.561 2.221-1.8 2.075-2.364 3.361c-.545 1.286-.818 2.689-.818 4.209s.273 2.923.818 4.209c.564 1.286 1.342 2.406 2.335 3.361 1.012.955 2.199 1.695 3.561 2.221 1.381.526 2.879.789 4.494.789 1.595 0 3.065-.263 4.407-.789 1.362-.526 2.539-1.257 3.532-2.192 1.012-.955 1.8-2.075 2.364-3.361.564-1.305.846-2.719.846-4.239 0-1.539-.282-2.942-.846-4.209-.564-1.286-1.352-2.406-2.364-3.361-.992-.955-2.17-1.695-3.532-2.221-1.343-.526-2.822-.789-4.436-.789zm100.603 0c-1.595 0-3.074.263-4.436.789s-2.549 1.266-3.561 2.221-1.8 2.075-2.364 3.361c-.545 1.286-.817 2.689-.817 4.209s.272 2.923.817 4.209c.564 1.286 1.342 2.406 2.335 3.361 1.012.955 2.199 1.695 3.561 2.221 1.381.526 2.88.789 4.495.789 1.595 0 3.064-.263 4.406-.789 1.362-.526 2.539-1.257 3.532-2.192 1.012-.955 1.8-2.075 2.364-3.361.564-1.305.847-2.719.847-4.239 0-1.539-.283-2.942-.847-4.209-.564-1.286-1.352-2.406-2.364-3.361-.992-.955-2.17-1.695-3.532-2.221-1.343-.526-2.821-.789-4.436-.789zm53.643 0c-1.595 0-3.065.263-4.407.789-1.343.507-2.52 1.237-3.532 2.192-.992.955-1.77 2.075-2.335 3.361-.545 1.286-.817 2.699-.817 4.238s.272 2.953.817 4.239c.564 1.286 1.342 2.406 2.335 3.361s2.16 1.695 3.502 2.221c1.362.507 2.831.76 4.407.76 1.79 0 3.395-.311 4.816-.935 1.44-.624 2.647-1.53 3.619-2.718l-3.035-2.806c-.7.818-1.479 1.432-2.335 1.841-.856.39-1.79.585-2.802.585-.953 0-1.829-.156-2.627-.468s-1.488-.76-2.072-1.345-1.041-1.276-1.372-2.075c-.311-.799-.467-1.686-.467-2.66s.156-1.861.467-2.66c.331-.799.788-1.49 1.372-2.075s1.274-1.033 2.072-1.345 1.673-.468 2.627-.468c1.012 0 1.946.205 2.802.614.856.39 1.635.984 2.335 1.783l3.035-2.806c-.973-1.189-2.18-2.085-3.619-2.689-1.42-.624-3.016-.935-4.786-.935zm21.042 0c-1.596 0-3.074.263-4.436.789s-2.549 1.266-3.561 2.221-1.8 2.075-2.364 3.361c-.545 1.286-.817 2.689-.817 4.209s.272 2.923.817 4.209c.564 1.286 1.342 2.406 2.335 3.361 1.012.955 2.199 1.695 3.561 2.221 1.381.526 2.879.789 4.494.789 1.595 0 3.065-.263 4.407-.789 1.362-.526 2.539-1.257 3.532-2.192 1.012-.955 1.8-2.075 2.364-3.361.564-1.305.846-2.719.846-4.239 0-1.539-.282-2.942-.846-4.209-.564-1.286-1.352-2.406-2.364-3.361-.992-.955-2.17-1.695-3.532-2.221-1.343-.526-2.821-.789-4.436-.789zm152.432 0c-1.634 0-3.132.263-4.494.789-1.362.507-2.549 1.237-3.561 2.192s-1.8 2.075-2.364 3.361c-.545 1.286-.817 2.699-.817 4.238s.272 2.953.817 4.239c.564 1.286 1.342 2.406 2.335 3.361 1.012.955 2.189 1.695 3.532 2.221 1.362.507 2.851.76 4.466.76 1.459 0 2.919-.224 4.378-.672 1.479-.448 2.773-1.091 3.882-1.929V59.87h-4.319v6.01a7.03 7.03 0 0 1-.963.421c-.876.292-1.78.439-2.714.439-.973 0-1.868-.156-2.685-.468-.798-.312-1.499-.76-2.102-1.345-.584-.604-1.04-1.305-1.371-2.104-.311-.799-.467-1.676-.467-2.631 0-.974.156-1.861.467-2.66.331-.799.787-1.49 1.371-2.075a6.2 6.2 0 0 1 2.131-1.345c.817-.312 1.722-.468 2.714-.468 1.031 0 1.985.195 2.86.585.876.37 1.683.945 2.422 1.724L600 53.148c-.992-1.15-2.218-2.027-3.677-2.631-1.44-.604-3.065-.906-4.874-.906zm-456.757.351v20.459h4.728v-5.641h4.116c1.829 0 3.405-.292 4.728-.877 1.323-.604 2.345-1.461 3.065-2.572s1.08-2.426 1.08-3.946c0-1.539-.36-2.864-1.08-3.975s-1.741-1.959-3.065-2.543c-1.323-.604-2.899-.906-4.728-.906zm21.802 0v20.459h4.729v-8.388h9.281v8.388h4.728V49.962h-4.728v8.067h-9.281v-8.067zm24.312 0v20.459h4.728V49.962zm10.303 0v20.459h14.972v-3.858h-10.244V49.962zm88.088 0v20.459h4.729v-5.641h4.115c1.829 0 3.405-.292 4.728-.877 1.323-.604 2.345-1.461 3.065-2.572s1.08-2.426 1.08-3.946c0-1.539-.36-2.864-1.08-3.975s-1.741-1.959-3.065-2.543c-1.323-.604-2.899-.906-4.728-.906zm21.802 0v20.459h4.728v-8.388h9.281v8.388h4.728V49.962h-4.728v8.067h-9.281v-8.067zm21.159 0l7.909 13.167v7.292h4.729v-7.244l7.938-13.215h-4.64l-5.47 9.082-5.446-9.082zm57.642 0v20.459h4.728v-7.453h9.456v-3.799h-9.456v-5.407h10.711v-3.799zm74.686 0v20.459h4.436V58.407l5.983 9.852h2.13l6.016-10.118.026 12.28h4.436l-.058-20.459h-3.882l-7.524 12.704-7.652-12.704zm28.602 0v20.459h4.728v-5.641h4.115c1.829 0 3.405-.292 4.729-.877 1.323-.604 2.345-1.461 3.065-2.572s1.08-2.426 1.08-3.946c0-1.539-.36-2.864-1.08-3.975s-1.741-1.959-3.065-2.543c-1.323-.604-2.9-.906-4.729-.906zm21.528 0v11.457c0 3.001.817 5.31 2.452 6.928s3.901 2.425 6.8 2.425 5.166-.808 6.8-2.425 2.452-3.927 2.452-6.928V49.962h-4.67v11.282c0 1.949-.399 3.351-1.197 4.209s-1.916 1.286-3.356 1.286-2.559-.429-3.357-1.286-1.196-2.26-1.196-4.209V49.962zm21.195 0v3.858h6.538v16.601h4.728V53.82h6.538v-3.858zm21.072 0v20.459h4.729V49.962zm10.303 0v20.459h4.67V58.004l10.186 12.417h3.882V49.962h-4.669v12.412l-10.157-12.412zm-338.169 3.682c.914 0 1.761.156 2.539.468a5.72 5.72 0 0 1 2.014 1.345c.584.585 1.031 1.276 1.343 2.075.331.799.496 1.685.496 2.66s-.166 1.861-.496 2.66c-.311.799-.759 1.49-1.343 2.075a6.02 6.02 0 0 1-2.043 1.345c-.759.312-1.595.468-2.51.468s-1.761-.156-2.539-.468a6.02 6.02 0 0 1-2.043-1.345c-.564-.585-1.012-1.276-1.343-2.075-.311-.818-.467-1.706-.467-2.66 0-.974.156-1.861.467-2.66.331-.799.788-1.49 1.372-2.075a6.09 6.09 0 0 1 2.014-1.345c.778-.312 1.624-.468 2.539-.468zm44.712 0c.914 0 1.761.156 2.54.468s1.449.76 2.013 1.345c.584.585 1.031 1.276 1.343 2.075.331.799.496 1.685.496 2.66s-.166 1.861-.496 2.66c-.311.799-.759 1.49-1.343 2.075s-1.264 1.033-2.043 1.345c-.759.312-1.596.468-2.51.468s-1.761-.156-2.539-.468a6.02 6.02 0 0 1-2.043-1.345c-.564-.585-1.012-1.276-1.343-2.075-.311-.818-.466-1.706-.466-2.66 0-.974.155-1.861.466-2.66.331-.799.788-1.49 1.372-2.075a6.09 6.09 0 0 1 2.014-1.345c.778-.312 1.624-.468 2.539-.468zm100.603 0c.914 0 1.761.156 2.539.468s1.45.76 2.014 1.345c.584.585 1.031 1.276 1.343 2.075.331.799.496 1.685.496 2.66s-.165 1.861-.496 2.66c-.311.799-.759 1.49-1.343 2.075a6.02 6.02 0 0 1-2.043 1.345c-.759.312-1.595.468-2.51.468s-1.761-.156-2.54-.468-1.459-.76-2.043-1.345c-.564-.585-1.012-1.276-1.343-2.075-.311-.818-.467-1.706-.467-2.66 0-.974.156-1.861.467-2.66.331-.799.788-1.49 1.372-2.075a6.09 6.09 0 0 1 2.013-1.345c.778-.312 1.625-.468 2.54-.468zm74.686 0c.914 0 1.761.156 2.539.468s1.45.76 2.014 1.345c.584.585 1.031 1.276 1.343 2.075.331.799.496 1.685.496 2.66s-.165 1.861-.496 2.66c-.311.799-.759 1.49-1.343 2.075a6.02 6.02 0 0 1-2.043 1.345c-.759.312-1.595.468-2.51.468s-1.761-.156-2.54-.468-1.459-.76-2.043-1.345a6.57 6.57 0 0 1-1.343-2.075c-.311-.818-.467-1.706-.467-2.66 0-.974.156-1.861.467-2.66.331-.799.787-1.49 1.371-2.075a6.09 6.09 0 0 1 2.014-1.345c.778-.312 1.625-.468 2.54-.468zm-299.597.176h3.853c1.459 0 2.549.311 3.269.935s1.08 1.501 1.08 2.631c0 1.111-.36 1.978-1.08 2.601s-1.809.936-3.269.936h-3.853zm144.505 0h3.852c1.459 0 2.549.311 3.269.935s1.08 1.501 1.08 2.631c0 1.111-.36 1.978-1.08 2.601s-1.809.936-3.269.936h-3.852zm203.89 0h3.853c1.459 0 2.549.311 3.269.935s1.08 1.501 1.08 2.631c0 1.111-.36 1.978-1.08 2.601s-1.81.936-3.269.936h-3.853zm-185.72 26.822c-1.193 0-2.297.202-3.312.605a7.65 7.65 0 0 0-2.618 1.68c-.746.717-1.328 1.561-1.745 2.532s-.626 2.039-.626 3.204.209 2.233.626 3.205a8.12 8.12 0 0 0 1.723 2.555 8.12 8.12 0 0 0 2.618 1.68c1.014.388 2.118.583 3.312.583 1.223 0 2.342-.209 3.356-.628a6.94 6.94 0 0 0 2.618-1.837l-1.455-1.412c-.597.642-1.267 1.12-2.013 1.434a6.38 6.38 0 0 1-2.395.448c-.88 0-1.7-.15-2.461-.448-.746-.299-1.395-.717-1.947-1.255s-.984-1.173-1.298-1.905c-.298-.747-.448-1.554-.448-2.42s.149-1.665.448-2.397c.313-.747.746-1.389 1.298-1.927s1.201-.956 1.947-1.255c.761-.299 1.581-.449 2.461-.449.85 0 1.649.157 2.395.471.746.299 1.417.762 2.013 1.389l1.455-1.411a6.73 6.73 0 0 0-2.618-1.815c-1.014-.418-2.125-.627-3.334-.627zm17.769 0c-1.208 0-2.32.202-3.334.605a7.88 7.88 0 0 0-2.64 1.703c-.746.717-1.327 1.561-1.745 2.532s-.627 2.031-.627 3.182.209 2.211.627 3.182.999 1.823 1.745 2.555c.746.717 1.626 1.277 2.64 1.68 1.029.403 2.141.605 3.334.605s2.289-.194 3.289-.583c1.014-.403 1.894-.963 2.64-1.68.761-.732 1.343-1.584 1.745-2.555.418-.971.626-2.039.626-3.205s-.209-2.233-.626-3.204c-.403-.971-.985-1.815-1.745-2.532-.746-.732-1.626-1.292-2.64-1.68-.999-.403-2.095-.605-3.289-.605zm29.878 0c-1.193 0-2.297.202-3.312.605a7.65 7.65 0 0 0-2.618 1.68c-.746.717-1.328 1.561-1.745 2.532s-.626 2.039-.626 3.204.209 2.233.626 3.205a8.12 8.12 0 0 0 1.723 2.555c.746.717 1.618 1.277 2.617 1.68 1.014.388 2.118.583 3.312.583 1.223 0 2.342-.209 3.357-.628a6.94 6.94 0 0 0 2.618-1.837l-1.455-1.412c-.597.642-1.268 1.12-2.014 1.434-.746.299-1.544.448-2.394.448-.88 0-1.7-.15-2.461-.448-.746-.299-1.395-.717-1.947-1.255s-.984-1.173-1.298-1.905c-.298-.747-.448-1.554-.448-2.42s.149-1.665.448-2.397c.313-.747.746-1.389 1.298-1.927s1.201-.956 1.947-1.255c.761-.299 1.581-.449 2.461-.449a6.11 6.11 0 0 1 2.394.471c.746.299 1.417.762 2.014 1.389l1.455-1.411a6.73 6.73 0 0 0-2.618-1.815c-1.014-.418-2.125-.627-3.334-.627zm65.786 0c-1.208 0-2.32.209-3.334.627-.999.403-1.797.986-2.394 1.748l1.522 1.322a4.41 4.41 0 0 1 1.745-1.278c.671-.284 1.425-.426 2.26-.426 1.089 0 1.917.232 2.484.695s.85 1.098.85 1.905c0 .329-.052.672-.156 1.031-.09.344-.276.724-.559 1.143-.268.403-.687.874-1.253 1.412l-6.377 6.162v1.524h11.255v-1.95h-8.023l4.779-4.616c.701-.687 1.238-1.307 1.611-1.86s.626-1.076.761-1.569a5.69 5.69 0 0 0 .201-1.501c0-.896-.224-1.673-.671-2.33-.433-.657-1.051-1.158-1.857-1.501-.806-.359-1.753-.538-2.842-.538zm16.812 0c-1.223 0-2.319.314-3.289.941-.955.627-1.716 1.538-2.282 2.733-.552 1.195-.828 2.644-.828 4.347s.276 3.152.828 4.347c.567 1.195 1.328 2.106 2.282 2.734.97.627 2.066.941 3.289.941 1.208 0 2.298-.314 3.267-.941s1.731-1.539 2.282-2.734.828-2.644.828-4.347-.276-3.152-.828-4.347-1.313-2.106-2.282-2.733-2.059-.941-3.267-.941zm16.047 0c-1.208 0-2.319.209-3.334.627-.999.403-1.798.986-2.395 1.748l1.522 1.322a4.41 4.41 0 0 1 1.745-1.278c.671-.284 1.425-.426 2.26-.426 1.089 0 1.917.232 2.484.695s.85 1.098.85 1.905c0 .329-.052.672-.156 1.031-.09.344-.276.724-.559 1.143-.268.403-.687.874-1.253 1.412l-6.377 6.162v1.524h11.255v-1.95h-8.023l4.779-4.616c.701-.687 1.238-1.307 1.611-1.86s.626-1.076.761-1.569a5.69 5.69 0 0 0 .201-1.501c0-.896-.224-1.673-.671-2.33-.433-.657-1.051-1.158-1.857-1.501-.806-.359-1.753-.538-2.842-.538zm-313.815.179v8.918c0 2.271.589 3.996 1.768 5.176s2.797 1.77 4.856 1.77c2.073 0 3.691-.59 4.855-1.77 1.178-1.18 1.768-2.906 1.768-5.176v-8.918h-2.171v8.829c0 1.748-.388 3.025-1.163 3.832-.761.807-1.85 1.211-3.267 1.211-1.402 0-2.491-.404-3.267-1.211-.761-.807-1.141-2.084-1.141-3.832v-8.829zm20.387 0v15.685h2.238V84.818l9.398 11.688h1.835V80.821h-2.238v11.687l-9.398-11.687zm25.445 0l-7.093 15.685h2.305l1.72-3.922h8.328l1.721 3.922h2.35l-7.116-15.685zm14.211 0v15.685h2.148V85.141l5.661 9.461h1.03l5.662-9.533.021 11.437h2.148l-.022-15.685h-1.835l-6.448 11.018-6.53-11.018zm32.495 0v15.685h2.148V85.14l5.661 9.462h1.029l5.663-9.534.021 11.438h2.148l-.022-15.685h-1.835l-6.447 11.018-6.53-11.018zm23.923 0v15.685h11.367v-1.95h-9.129v-5.064h7.854v-1.905h-7.854v-4.817h8.817v-1.95zm15.682 0l5.526 7.647-5.884 8.039h2.573l4.635-6.466 4.696 6.466h2.573l-5.923-8.112 5.52-7.573h-2.439l-4.346 6.017-4.381-6.017zm18.866 0v15.685h2.238V80.821zm75.644 0v15.685h2.238V80.821zm7.23 0v1.95h5.371v13.736h2.215V82.771h5.37v-1.95zm15.339 0l6.22 10.223v5.462h2.215V91.08l6.221-10.258h-2.215l-5.033 8.275-5.014-8.275zm76.299 0l-.828 8.201h3.557c1.208 0 2.156.12 2.842.359.701.224 1.194.553 1.477.986s.425.941.425 1.524c0 .852-.321 1.531-.962 2.039s-1.558.762-2.752.762c-.94 0-1.828-.157-2.663-.471s-1.514-.718-2.036-1.211l-1.029 1.77c.656.583 1.499 1.045 2.528 1.389 1.044.344 2.119.516 3.222.516 1.343 0 2.446-.217 3.312-.65.88-.448 1.536-1.038 1.969-1.77a4.83 4.83 0 0 0 .649-2.465c0-.926-.217-1.74-.649-2.442-.433-.717-1.126-1.277-2.081-1.68s-2.215-.605-3.782-.605h-1.749l.431-4.302h6.957v-1.95zm-140.227 1.815c.865 0 1.663.15 2.394.449.746.299 1.388.724 1.925 1.277.552.538.976 1.173 1.275 1.905.313.732.47 1.531.47 2.397s-.157 1.666-.47 2.398a5.79 5.79 0 0 1-1.275 1.927c-.537.538-1.179.956-1.925 1.255-.731.299-1.529.448-2.394.448a6.5 6.5 0 0 1-2.439-.448 5.96 5.96 0 0 1-1.925-1.255 6.09 6.09 0 0 1-1.298-1.927c-.298-.732-.448-1.532-.448-2.398s.149-1.665.448-2.397c.313-.732.746-1.367 1.298-1.905.552-.553 1.194-.978 1.925-1.277a6.5 6.5 0 0 1 2.439-.449zm112.475 0c.82 0 1.537.225 2.148.673.627.448 1.112 1.12 1.455 2.016.358.896.537 2.009.537 3.339s-.179 2.442-.537 3.339c-.343.896-.828 1.569-1.455 2.017-.612.448-1.328.673-2.148.673s-1.544-.225-2.17-.673-1.118-1.121-1.476-2.017c-.343-.896-.515-2.009-.515-3.339s.172-2.442.515-3.339c.358-.896.85-1.568 1.476-2.016s1.35-.673 2.17-.673zm-250.841.46l3.377 7.697h-6.755zm-160.32.676c2.752 0 4.984 2.232 4.984 4.984s-2.231 4.983-4.984 4.984-4.983-2.231-4.984-4.984 2.231-4.984 4.984-4.984z" fill="#cc97e2"/></svg>
