<?xml version="1.0" encoding="UTF-8" standalone="no"?>
<!-- Created with Inkscape (http://www.inkscape.org/) -->

<svg
   width="600mm"
   height="120mm"
   viewBox="0 0 600 120"
   version="1.1"
   id="svg1"
   xmlns="http://www.w3.org/2000/svg"
   xmlns:svg="http://www.w3.org/2000/svg">
  <defs
     id="defs1" />
  <path
     id="path54"
     style="stroke-width:0.533506;fill:#cc97e2;fill-opacity:1"
     d="m 203.29731,-2477.9429 c 7.703,7.729 24.3061,31.4158 35.2975,45.0424 a 85.860457,85.862767 0 0 0 -9.46268,98.4085 22.667766,22.668375 0 0 1 8.40423,-5.6594 75.81108,75.81312 0 0 1 -9.55197,-36.8226 75.760708,75.762746 0 0 1 22.46074,-53.8153 l -0.0101,-0.01 0.17569,-0.1757 5.18136,-5.1814 c -9.42338,-9.4237 -43.00246,-32.323 -52.49479,-41.7864 z m 580.91334,27.5269 c -2.4364,0 -4.67685,0.4064 -6.72223,1.2197 -2.04538,0.8133 -3.81998,1.9586 -5.32394,3.4346 -1.50395,1.4459 -2.6773,3.1471 -3.51952,5.105 -0.84222,1.958 -1.26294,4.0962 -1.26294,6.4155 0,2.3195 0.42072,4.459 1.26294,6.417 0.84222,1.9579 2.01557,3.6751 3.51952,5.1511 1.50396,1.4459 3.27856,2.5752 5.32394,3.3885 2.07545,0.8133 4.31591,1.2197 6.72223,1.2197 2.40633,0 4.61766,-0.3919 6.63296,-1.1751 2.04537,-0.8133 3.81997,-1.9426 5.32393,-3.3885 1.53403,-1.4759 2.70739,-3.1931 3.51952,-5.1511 0.84222,-1.9579 1.26294,-4.112 1.26294,-6.4616 0,-2.3495 -0.42072,-4.5022 -1.26294,-6.4601 -0.81213,-1.958 -1.98549,-3.6606 -3.51952,-5.1065 -1.50396,-1.476 -3.27856,-2.6053 -5.32393,-3.3885 -2.0153,-0.8133 -4.22663,-1.2197 -6.63296,-1.2197 z m 172.15725,0 c -2.40633,0 -4.63222,0.4064 -6.67759,1.2197 -2.0153,0.7832 -3.7739,1.9125 -5.27785,3.3885 -1.50396,1.4459 -2.67731,3.1485 -3.51953,5.1065 -0.84221,1.9579 -1.26294,4.1106 -1.26294,6.4601 0,2.3496 0.42073,4.5037 1.26294,6.4616 0.84222,1.958 1.99957,3.6752 3.47344,5.1511 1.50396,1.4459 3.26399,2.5752 5.27929,3.3885 2.04538,0.7832 4.27127,1.1751 6.6776,1.1751 2.46648,0 4.72294,-0.4223 6.76832,-1.2658 2.07545,-0.8434 3.83405,-2.0773 5.27785,-3.7039 l -2.93198,-2.847 c -1.20319,1.2953 -2.55704,2.2591 -4.06099,2.8917 -1.50395,0.6024 -3.1126,0.9044 -4.82711,0.9044 -1.77466,0 -3.42988,-0.302 -4.96391,-0.9044 -1.50396,-0.6024 -2.8127,-1.4458 -3.92563,-2.5302 -1.11293,-1.0844 -1.98494,-2.3646 -2.6166,-3.8407 -0.60159,-1.5061 -0.90149,-3.1332 -0.90149,-4.8804 0,-1.747 0.2999,-3.3583 0.90149,-4.8343 0.63166,-1.5061 1.50367,-2.8009 2.6166,-3.8853 1.11293,-1.0844 2.42167,-1.9277 3.92563,-2.5302 1.53403,-0.6024 3.18925,-0.9043 4.96391,-0.9043 1.71451,0 3.32316,0.3164 4.82711,0.949 1.50395,0.6024 2.8578,1.5358 4.06099,2.8009 l 2.93198,-2.8456 c -1.4438,-1.6266 -3.2024,-2.8473 -5.27785,-3.6606 -2.04538,-0.8434 -4.28728,-1.2644 -6.72368,-1.2644 z m 35.83033,0 c -2.4364,0 -4.67689,0.4064 -6.72223,1.2197 -2.0454,0.8133 -3.82001,1.9586 -5.32394,3.4346 -1.50397,1.4459 -2.67732,3.1471 -3.51952,5.105 -0.84225,1.958 -1.26294,4.0962 -1.26294,6.4155 0,2.3195 0.42069,4.459 1.26294,6.417 0.8422,1.9579 2.01555,3.6751 3.51952,5.1511 1.50393,1.4459 3.27854,2.5752 5.32394,3.3885 2.07545,0.8133 4.31594,1.2197 6.72223,1.2197 2.40635,0 4.61767,-0.3919 6.63296,-1.1751 2.04541,-0.8133 3.81991,-1.9426 5.32391,-3.3885 1.5341,-1.4759 2.7074,-3.1931 3.5195,-5.1511 0.8422,-1.9579 1.263,-4.112 1.263,-6.4616 0,-2.3495 -0.4208,-4.5022 -1.263,-6.4601 -0.8121,-1.958 -1.9854,-3.6606 -3.5195,-5.1065 -1.504,-1.476 -3.2785,-2.6053 -5.32391,-3.3885 -2.01529,-0.8133 -4.22661,-1.2197 -6.63296,-1.2197 z m 269.03927,0 c -2.4063,0 -4.6323,0.4064 -6.6776,1.2197 -2.0153,0.7832 -3.7754,1.9125 -5.2793,3.3885 -1.504,1.4459 -2.6773,3.1485 -3.5195,5.1065 -0.8423,1.9579 -1.263,4.1106 -1.263,6.4601 0,2.3496 0.4207,4.5037 1.263,6.4616 0.8422,1.958 2.001,3.6752 3.4749,5.1511 1.5039,1.4459 3.2625,2.5752 5.2778,3.3885 2.0454,0.7832 4.2713,1.1751 6.6776,1.1751 2.4665,0 4.723,-0.4223 6.7683,-1.2658 2.0755,-0.8434 3.8355,-2.0773 5.2793,-3.7039 l -2.9334,-2.847 c -1.2032,1.2953 -2.5571,2.2591 -4.061,2.8917 -1.504,0.6024 -3.1126,0.9044 -4.8271,0.9044 -1.7747,0 -3.4285,-0.302 -4.9625,-0.9044 -1.5039,-0.6024 -2.8127,-1.4458 -3.9256,-2.5302 -1.113,-1.0844 -1.9849,-2.3646 -2.6166,-3.8407 -0.6015,-1.5061 -0.9029,-3.1332 -0.9029,-4.8804 0,-1.747 0.3014,-3.3583 0.9029,-4.8343 0.6317,-1.5061 1.5036,-2.8009 2.6166,-3.8853 1.1129,-1.0844 2.4217,-1.9277 3.9256,-2.5302 1.534,-0.6024 3.1878,-0.9043 4.9625,-0.9043 1.7145,0 3.3231,0.3164 4.8271,0.949 1.5039,0.6024 2.8578,1.5358 4.061,2.8009 l 2.9334,-2.8456 c -1.4438,-1.6266 -3.2038,-2.8473 -5.2793,-3.6606 -2.0453,-0.8434 -4.2858,-1.2644 -6.7222,-1.2644 z m 90.0734,0 c -2.4364,0 -4.6769,0.4064 -6.7223,1.2197 -2.0454,0.8133 -3.82,1.9586 -5.3239,3.4346 -1.504,1.4459 -2.6773,3.1471 -3.5195,5.105 -0.8423,1.958 -1.263,4.0962 -1.263,6.4155 0,2.3195 0.4207,4.459 1.263,6.417 0.8422,1.9579 2.0155,3.6751 3.5195,5.1511 1.5039,1.4459 3.2785,2.5752 5.3239,3.3885 2.0755,0.8133 4.3159,1.2197 6.7223,1.2197 2.4063,0 4.6176,-0.3919 6.6329,-1.1751 2.0454,-0.8133 3.82,-1.9426 5.324,-3.3885 1.534,-1.4759 2.7073,-3.1931 3.5195,-5.1511 0.8422,-1.9579 1.2629,-4.112 1.2629,-6.4616 0,-2.3495 -0.4207,-4.5022 -1.2629,-6.4601 -0.8122,-1.958 -1.9855,-3.6606 -3.5195,-5.1065 -1.504,-1.476 -3.2786,-2.6053 -5.324,-3.3885 -2.0153,-0.8133 -4.2266,-1.2197 -6.6329,-1.2197 z m -876.39517,0.3614 v 31.6283 h 4.51173 v -31.6283 z m 19.13562,0 v 31.6283 h 4.51174 v -23.5682 l 18.94985,23.5682 h 3.69954 v -31.6283 h -4.51174 v 23.5682 l -18.94985,-23.5682 z m 37.22864,0 v 3.9314 h 10.82931 v 27.6969 h 4.46565 v -27.6969 h 10.82931 v -3.9314 z m 36.19179,0 v 31.6283 h 22.92012 v -3.9314 h -18.40839 v -10.2115 h 15.83643 v -3.8407 h -15.83643 v -9.7133 h 17.7762 v -3.9314 z m 35.37815,0 v 31.6283 h 4.51173 v -9.624 h 7.80517 c 0.69412,0 1.363,-0.027 2.00602,-0.082 l 6.7928,9.7061 h 4.91783 l -7.49267,-10.5874 c 0.29488,-0.1067 0.5813,-0.2227 0.85972,-0.3471 1.95514,-0.8735 3.4604,-2.1233 4.51317,-3.7499 1.05277,-1.6568 1.57831,-3.6294 1.57831,-5.9187 0,-3.464 -1.17335,-6.161 -3.51952,-8.0889 -2.34617,-1.9579 -5.5649,-2.9363 -9.65566,-2.9363 z m 37.95011,0 v 31.6283 h 4.51318 v -23.5667 l 18.94985,23.5667 h 3.69953 v -31.6283 h -4.51173 v 23.5682 l -18.94985,-23.5682 z m 51.30674,0 -14.30275,31.6283 h 4.6471 l 3.47056,-7.9075 h 16.7912 l 3.47056,7.9075 h 4.73782 l -14.34739,-31.6283 z m 22.51979,0 v 3.9314 h 10.82787 v 27.6969 h 4.46709 v -27.6969 h 10.82931 v -3.9314 z m 36.19179,0 v 31.6283 h 4.51173 v -31.6283 z m 62.18501,0 v 31.6283 h 4.51174 v -23.5682 l 18.94985,23.5682 h 3.69953 v -31.6283 h -4.51173 v 23.5682 l -18.94985,-23.5682 z m 51.3053,0 -14.30275,31.6283 h 4.6471 l 3.47056,-7.9075 h 16.79264 l 3.46912,7.9075 h 4.73782 l -14.34739,-31.6283 z m 28.65592,0 v 31.6283 h 21.61254 v -3.9314 h -17.10081 v -27.6969 z m 128.02491,0 v 31.6283 h 4.5117 v -23.5682 l 18.9499,23.5682 h 3.701 v -31.6283 h -4.5132 v 23.5668 l -18.9499,-23.5668 z m 41.7865,0 v 31.6283 h 4.5117 v -12.7864 h 15.8364 v -3.8867 h -15.8364 v -11.0238 h 17.7762 v -3.9314 z m 33.7998,0 v 31.6283 h 22.9201 v -3.9314 h -18.4084 v -10.2115 h 15.8365 v -3.8407 h -15.8365 v -9.7133 h 17.7762 v -3.9314 z m 35.3782,0 v 31.6283 h 4.5117 v -9.624 h 7.8066 c 0.6941,0 1.3615,-0.027 2.0046,-0.082 l 6.7928,9.7061 h 4.9178 l -7.4912,-10.5874 c 0.2944,-0.1066 0.5817,-0.2229 0.8597,-0.3471 1.9551,-0.8735 3.4589,-2.1233 4.5117,-3.7499 1.0528,-1.6568 1.5783,-3.6294 1.5783,-5.9187 0,-3.464 -1.1734,-6.161 -3.5195,-8.0889 -2.3462,-1.9579 -5.5634,-2.9363 -9.6542,-2.9363 z m 37.9515,0 v 31.6283 h 22.9201 v -3.9314 h -18.4084 v -10.2115 h 15.8365 v -3.8407 h -15.8365 v -9.7133 h 17.7762 v -3.9314 z m 35.3782,0 v 31.6283 h 4.5117 v -23.5682 l 18.9498,23.5682 h 3.6996 v -31.6283 h -4.5118 v 23.5682 l -18.9498,-23.5682 z m 79.1043,0 v 31.6283 h 22.9202 v -3.9314 h -18.4084 v -10.2115 h 15.8378 v -3.8407 h -15.8378 v -9.7133 h 17.7776 v -3.9314 z m 95.7156,0 v 31.6283 h 4.5117 v -23.5667 l 18.9499,23.5667 h 3.6995 v -31.6283 h -4.5117 v 23.5682 l -18.9499,-23.5682 z m -1018.61915,0.2564 v 0 a 15.076583,15.076989 0 0 0 -15.07607,15.076 15.111844,15.11225 0 0 0 0.83524,4.9553 l -8.40135,8.4705 a 56.543481,56.545002 0 0 0 -35.10022,-12.219 56.533406,56.534926 0 0 0 -56.53275,56.5356 56.543481,56.545002 0 0 0 12.51131,35.4704 l -8.17959,8.2515 a 15.111844,15.11225 0 0 0 -5.5385,-1.0555 15.076583,15.076989 0 0 0 -15.07751,15.0775 15.076583,15.076989 0 0 0 15.07751,15.0761 15.076583,15.076989 0 0 0 15.07607,-15.0761 15.111844,15.11225 0 0 0 -0.83668,-4.9538 l 8.4028,-8.4734 a 56.543481,56.545002 0 0 0 35.10022,12.2175 56.533406,56.534926 0 0 0 56.53275,-56.5342 56.543481,56.545002 0 0 0 -12.51275,-35.4717 l 8.18102,-8.2502 a 15.111844,15.11225 0 0 0 5.5385,1.0542 15.076583,15.076989 0 0 0 15.07608,-15.0761 15.076583,15.076989 0 0 0 -15.07608,-15.0775 z m 422.7262,3.4029 c 1.74459,0 3.35467,0.3019 4.82855,0.9043 1.50395,0.6025 2.7967,1.4604 3.87954,2.5749 1.11293,1.0844 1.97038,2.3646 2.57197,3.8406 0.63166,1.476 0.94756,3.0873 0.94756,4.8343 0,1.7472 -0.3159,3.3598 -0.94756,4.8358 -0.60159,1.476 -1.45904,2.7707 -2.57197,3.8853 -1.08284,1.0844 -2.37559,1.9278 -3.87954,2.5302 -1.47388,0.6024 -3.08396,0.9044 -4.82855,0.9044 -1.77466,0 -3.41387,-0.302 -4.91783,-0.9044 -1.47387,-0.6024 -2.76662,-1.4458 -3.87954,-2.5302 -1.11293,-1.1146 -1.98494,-2.4093 -2.61661,-3.8853 -0.60158,-1.476 -0.90292,-3.0886 -0.90292,-4.8358 0,-1.747 0.30134,-3.3583 0.90292,-4.8343 0.63167,-1.476 1.50368,-2.7562 2.61661,-3.8406 1.11292,-1.1145 2.40567,-1.9724 3.87954,-2.5749 1.50396,-0.6024 3.14317,-0.9043 4.91783,-0.9043 z m 207.98758,0 c 1.74462,0 3.35325,0.3019 4.82711,0.9043 1.50397,0.6025 2.79814,1.4604 3.88096,2.5749 1.1129,1.0844 1.9704,2.3646 2.572,3.8406 0.6316,1.476 0.9476,3.0873 0.9476,4.8343 0,1.7472 -0.316,3.3598 -0.9476,4.8358 -0.6016,1.476 -1.4591,2.7707 -2.572,3.8853 -1.08282,1.0844 -2.37699,1.9278 -3.88096,2.5302 -1.47386,0.6024 -3.08249,0.9044 -4.82711,0.9044 -1.77463,0 -3.41386,-0.302 -4.91783,-0.9044 -1.47386,-0.6024 -2.76663,-1.4458 -3.87954,-2.5302 -1.11296,-1.1146 -1.98639,-2.4093 -2.61805,-3.8853 -0.60155,-1.476 -0.90148,-3.0886 -0.90148,-4.8358 0,-1.747 0.29993,-3.3583 0.90148,-4.8343 0.63166,-1.476 1.50509,-2.7562 2.61805,-3.8406 1.11291,-1.1145 2.40568,-1.9724 3.87954,-2.5749 1.50397,-0.6024 3.1432,-0.9043 4.91783,-0.9043 z m 359.11267,0 c 1.7445,0 3.3547,0.3019 4.8285,0.9043 1.504,0.6025 2.7967,1.4604 3.8796,2.5749 1.1129,1.0844 1.9703,2.3646 2.5719,3.8406 0.6317,1.476 0.9476,3.0873 0.9476,4.8343 0,1.7472 -0.3159,3.3598 -0.9476,4.8358 -0.6016,1.476 -1.459,2.7707 -2.5719,3.8853 -1.0829,1.0844 -2.3756,1.9278 -3.8796,2.5302 -1.4738,0.6024 -3.084,0.9044 -4.8285,0.9044 -1.7747,0 -3.4139,-0.302 -4.9179,-0.9044 -1.4738,-0.6024 -2.7666,-1.4458 -3.8795,-2.5302 -1.113,-1.1146 -1.985,-2.4093 -2.6166,-3.8853 -0.6016,-1.476 -0.9029,-3.0886 -0.9029,-4.8358 0,-1.747 0.3013,-3.3583 0.9029,-4.8343 0.6316,-1.476 1.5036,-2.7562 2.6166,-3.8406 1.1129,-1.1145 2.4057,-1.9724 3.8795,-2.5749 1.504,-0.6024 3.1432,-0.9043 4.9179,-0.9043 z m -743.94924,0.2721 h 7.66981 c 2.88758,0 5.06835,0.617 6.54222,1.852 1.50396,1.235 2.25659,2.9826 2.25659,5.2418 0,2.2592 -0.75263,4.0214 -2.25659,5.2865 -1.47387,1.235 -3.65464,1.8519 -6.54222,1.8519 h -7.66981 z m 529.10404,0 h 7.6712 c 2.8876,0 5.0683,0.617 6.5423,1.852 1.5039,1.235 2.2551,2.9826 2.2551,5.2418 0,2.2592 -0.7512,4.0214 -2.2551,5.2865 -1.474,1.235 -3.6547,1.8519 -6.5423,1.8519 h -7.6712 z m -269.94652,0.6553 6.81008,15.5196 H 859.7091 Z m -172.20189,0 6.81008,15.5182 h -13.62016 z m -332.83284,0.6956 a 10.049376,10.049647 0 0 1 10.0488,10.0502 10.049376,10.049647 0 0 1 -10.0488,10.0488 10.049376,10.049647 0 0 1 -10.04879,-10.0488 10.049376,10.049647 0 0 1 10.04879,-10.0502 z m 0,5.0258 a 5.0246878,5.024823 0 0 0 -5.02439,5.0244 5.0246878,5.024823 0 0 0 5.02439,5.0244 5.0246878,5.024823 0 0 0 5.0244,-5.0244 5.0246878,5.024823 0 0 0 -5.0244,-5.0244 z m -57.7424,18.7958 a 43.975464,43.976646 0 0 1 43.97103,43.9724 43.975464,43.976646 0 0 1 -43.97103,43.9711 43.975464,43.976646 0 0 1 -43.97104,-43.9711 43.975464,43.976646 0 0 1 43.97104,-43.9724 z m 74.60416,1.489 a 85.885642,85.887953 0 0 0 0.001,0 22.667766,22.668375 0 0 1 10e-4,0 z m 0.001,0 a 22.667766,22.668375 0 0 1 -8.4028,5.6581 75.81108,75.81312 0 0 1 9.55342,36.8268 75.760708,75.762746 0 0 1 -21.9812,53.2998 l 0.0302,0.03 -0.4781,0.4781 -4.85303,4.8544 c 9.43485,9.4351 43.0992,32.3874 52.53656,41.8225 -7.69703,-7.6921 -24.37387,-31.489 -35.38535,-45.1303 a 85.885642,85.887953 0 0 0 20.22431,-56.0734 85.885642,85.887953 0 0 0 -11.24405,-41.7663 z m -74.6056,17.3557 a 25.125958,25.126634 0 0 0 -25.12631,25.1263 25.125958,25.126634 0 0 0 25.12631,25.1263 25.125958,25.126634 0 0 0 25.1263,-25.1263 25.125958,25.126634 0 0 0 -25.1263,-25.1263 z m 341.17803,3.9401 c -3.21716,0 -6.19935,0.5304 -8.94571,1.5912 -2.74635,1.0609 -5.13859,2.5534 -7.17873,4.4786 -2.04015,1.9253 -3.6303,4.1839 -4.76807,6.777 -1.09854,2.5931 -1.64744,5.4217 -1.64744,8.4863 0,3.0646 0.5489,5.8947 1.64744,8.4878 1.13777,2.5931 2.70811,4.8517 4.70902,6.7769 2.04015,1.9253 4.43239,3.4178 7.17874,4.4787 2.78559,1.0608 5.8074,1.5912 9.06379,1.5912 3.21716,0 6.17954,-0.5304 8.88666,-1.5912 2.74635,-1.0609 5.11878,-2.5337 7.1197,-4.4196 2.04014,-1.9252 3.63029,-4.1838 4.76806,-6.777 1.13777,-2.6324 1.70648,-5.4822 1.70648,-8.5468 0,-3.1039 -0.56871,-5.9324 -1.70648,-8.4863 -1.13777,-2.5931 -2.72792,-4.8517 -4.76806,-6.777 -2.00092,-1.9252 -4.37335,-3.4177 -7.1197,-4.4786 -2.70712,-1.0608 -5.68931,-1.5912 -8.9457,-1.5912 z m 46.13833,0 c -3.88412,0 -7.12096,0.5882 -9.71037,1.7669 -2.55019,1.1394 -4.47277,2.6913 -5.76748,4.6558 -1.25547,1.9252 -1.88216,4.0667 -1.88216,6.4241 0,2.2002 0.43148,4.0074 1.29462,5.4219 0.90237,1.4144 2.05959,2.5543 3.472,3.4187 1.41241,0.8644 2.96149,1.5711 4.64854,2.1212 1.72628,0.5501 3.43384,1.0227 5.12088,1.4156 1.72628,0.3536 3.29517,0.7458 4.70758,1.178 1.41241,0.3929 2.54983,0.9233 3.41297,1.5912 0.86313,0.6287 1.29462,1.4935 1.29462,2.5936 0,0.8644 -0.27445,1.6304 -0.82372,2.2984 -0.54927,0.6679 -1.41224,1.1983 -2.58924,1.5912 -1.13778,0.3536 -2.64869,0.53 -4.5319,0.53 -2.47172,0 -4.92338,-0.3922 -7.35587,-1.178 -2.39325,-0.8251 -4.47286,-1.8662 -6.23837,-3.1235 l -3.23727,7.1888 c 1.84398,1.4144 4.27727,2.5741 7.29826,3.4778 3.02099,0.8644 6.17858,1.296 9.47421,1.296 3.92336,0 7.16019,-0.5882 9.71038,-1.7669 2.58942,-1.1787 4.5318,-2.7306 5.82651,-4.6558 1.29471,-1.9252 1.94265,-4.047 1.94265,-6.3651 0,-2.1609 -0.45129,-3.9498 -1.35366,-5.3642 -0.86314,-1.4145 -2.00055,-2.5529 -3.41296,-3.4173 -1.41241,-0.8644 -2.98274,-1.5529 -4.70902,-2.0636 -1.68705,-0.5108 -3.39317,-0.9622 -5.11945,-1.3551 -1.68704,-0.3929 -3.23757,-0.7851 -4.64998,-1.178 -1.41241,-0.3929 -2.54982,-0.9036 -3.41296,-1.5322 -0.86314,-0.668 -1.29462,-1.5328 -1.29462,-2.5936 0,-0.9037 0.25464,-1.6895 0.76468,-2.3574 0.51004,-0.7072 1.35463,-1.2772 2.53164,-1.7093 1.17701,-0.4322 2.68647,-0.6481 4.53045,-0.6481 1.84398,0 3.72694,0.2751 5.64939,0.8252 1.92245,0.5107 3.84502,1.3163 5.76747,2.4164 l 2.9435,-7.2493 c -1.92245,-1.218 -4.13928,-2.1223 -6.65023,-2.7116 -2.51095,-0.6287 -5.06167,-0.9418 -7.65109,-0.9418 z m 44.02,0 c -3.21715,0 -6.19791,0.5304 -8.94426,1.5912 -2.74635,1.0609 -5.14003,2.5534 -7.18018,4.4786 -2.04015,1.9253 -3.62885,4.1839 -4.76662,6.777 -1.09854,2.5931 -1.64888,5.4217 -1.64888,8.4863 0,3.0646 0.55034,5.8947 1.64888,8.4878 1.13777,2.5931 2.70667,4.8517 4.70758,6.7769 2.04015,1.9253 4.43383,3.4178 7.18018,4.4787 2.78558,1.0608 5.80596,1.5912 9.06235,1.5912 3.21715,0 6.17954,-0.5304 8.88666,-1.5912 2.74635,-1.0609 5.12022,-2.5337 7.12113,-4.4196 2.04015,-1.9252 3.62885,-4.1838 4.76663,-6.777 1.13777,-2.6324 1.70648,-5.4822 1.70648,-8.5468 0,-3.1039 -0.56871,-5.9324 -1.70648,-8.4863 -1.13778,-2.5931 -2.72648,-4.8517 -4.76663,-6.777 -2.00091,-1.9252 -4.37478,-3.4177 -7.12113,-4.4786 -2.70712,-1.0608 -5.68932,-1.5912 -8.94571,-1.5912 z m 202.85662,0 c -3.21716,0 -6.19935,0.5304 -8.9457,1.5912 -2.74635,1.0609 -5.14003,2.5534 -7.18018,4.4786 -2.04015,1.9253 -3.62885,4.1839 -4.76663,6.777 -1.09854,2.5931 -1.64743,5.4217 -1.64743,8.4863 0,3.0646 0.54889,5.8947 1.64743,8.4878 1.13778,2.5931 2.70667,4.8517 4.70759,6.7769 2.04014,1.9253 4.43382,3.4178 7.18018,4.4787 2.78558,1.0608 5.80739,1.5912 9.06378,1.5912 3.21716,0 6.1781,-0.5304 8.88522,-1.5912 2.74636,-1.0609 5.12023,-2.5337 7.12114,-4.4196 2.04015,-1.9252 3.62885,-4.1838 4.76662,-6.777 1.13778,-2.6324 1.70792,-5.4822 1.70792,-8.5468 0,-3.1039 -0.57014,-5.9324 -1.70792,-8.4863 -1.13777,-2.5931 -2.72647,-4.8517 -4.76662,-6.777 -2.00091,-1.9252 -4.37478,-3.4177 -7.12114,-4.4786 -2.70712,-1.0608 -5.68787,-1.5912 -8.94426,-1.5912 z m 108.16641,0 c -3.2171,0 -6.1795,0.5304 -8.8866,1.5912 -2.7072,1.0216 -5.081,2.4944 -7.1212,4.4196 -2.0009,1.9252 -3.5698,4.1838 -4.7076,6.777 -1.0985,2.5931 -1.6474,5.4414 -1.6474,8.5453 0,3.1039 0.5489,5.9537 1.6474,8.5468 1.1378,2.5932 2.7067,4.8518 4.7076,6.777 2.0009,1.9252 4.355,3.4178 7.0621,4.4786 2.7464,1.0215 5.7088,1.5322 8.8867,1.5322 3.6095,0 6.8463,-0.6277 9.7104,-1.885 2.9032,-1.2573 5.3365,-3.0842 7.2982,-5.4809 l -6.1203,-5.658 c -1.4124,1.6501 -2.9827,2.8874 -4.709,3.7125 -1.7263,0.7858 -3.6092,1.1794 -5.6494,1.1794 -1.9224,0 -3.688,-0.3146 -5.2966,-0.9433 -1.6085,-0.6286 -3.0006,-1.5329 -4.1776,-2.7116 -1.177,-1.1787 -2.0994,-2.5725 -2.7664,-4.1834 -0.6277,-1.6109 -0.9418,-3.3998 -0.9418,-5.3643 0,-1.9645 0.3141,-3.7519 0.9418,-5.3628 0.667,-1.6109 1.5894,-3.0047 2.7664,-4.1834 1.177,-1.1787 2.5691,-2.083 4.1776,-2.7116 1.6086,-0.6287 3.3742,-0.9433 5.2966,-0.9433 2.0402,0 3.9231,0.4134 5.6494,1.2385 1.7263,0.7858 3.2966,1.9835 4.709,3.5944 l 6.1203,-5.658 c -1.9617,-2.3967 -4.395,-4.2039 -7.2982,-5.4219 -2.8641,-1.2573 -6.0811,-1.885 -9.6514,-1.885 z m 42.4302,0 c -3.2172,0 -6.1994,0.5304 -8.9457,1.5912 -2.7464,1.0609 -5.1401,2.5534 -7.1802,4.4786 -2.0401,1.9253 -3.6289,4.1839 -4.7666,6.777 -1.0986,2.5931 -1.6475,5.4217 -1.6475,8.4863 0,3.0646 0.5489,5.8947 1.6475,8.4878 1.1377,2.5931 2.7066,4.8517 4.7076,6.7769 2.0401,1.9253 4.4338,3.4178 7.1801,4.4787 2.7856,1.0608 5.806,1.5912 9.0624,1.5912 3.2171,0 6.1795,-0.5304 8.8866,-1.5912 2.7464,-1.0609 5.1203,-2.5337 7.1212,-4.4196 2.0401,-1.9252 3.6288,-4.1838 4.7666,-6.777 1.1378,-2.6324 1.7065,-5.4822 1.7065,-8.5468 0,-3.1039 -0.5687,-5.9324 -1.7065,-8.4863 -1.1378,-2.5931 -2.7265,-4.8517 -4.7666,-6.777 -2.0009,-1.9252 -4.3748,-3.4177 -7.1212,-4.4786 -2.7071,-1.0608 -5.6878,-1.5912 -8.9442,-1.5912 z m 307.3652,0 c -3.2956,0 -6.316,0.5304 -9.0623,1.5912 -2.7464,1.0216 -5.1401,2.4944 -7.1802,4.4196 -2.0402,1.9252 -3.6289,4.1838 -4.7666,6.777 -1.0986,2.5931 -1.6475,5.4414 -1.6475,8.5453 0,3.1039 0.5489,5.9537 1.6475,8.5468 1.1377,2.5932 2.7066,4.8518 4.7075,6.777 2.0402,1.9252 4.4141,3.4178 7.1212,4.4786 2.7463,1.0215 5.7483,1.5322 9.0047,1.5322 2.9425,0 5.8851,-0.4514 8.8276,-1.3551 2.9818,-0.9036 5.5905,-2.2001 7.8268,-3.8896 v -16.7379 h -8.7095 v 12.1182 c -0.6396,0.3369 -1.2876,0.62 -1.9427,0.8482 -1.7655,0.5893 -3.589,0.8842 -5.4722,0.8842 -1.9617,0 -3.7669,-0.3146 -5.4147,-0.9433 -1.6086,-0.6286 -3.0219,-1.5329 -4.2381,-2.7116 -1.177,-1.218 -2.098,-2.6316 -2.7649,-4.2425 -0.6278,-1.6109 -0.9418,-3.38 -0.9418,-5.3052 0,-1.9645 0.314,-3.7519 0.9418,-5.3628 0.6669,-1.6109 1.5879,-3.0047 2.7649,-4.1834 1.2162,-1.1787 2.6493,-2.083 4.2972,-2.7116 1.6478,-0.6287 3.4713,-0.9433 5.4722,-0.9433 2.0794,0 4.002,0.3936 5.7675,1.1794 1.7655,0.7465 3.3938,1.9048 4.8847,3.4764 l 6.1203,-5.6566 c -2.0009,-2.3181 -4.4724,-4.0872 -7.4149,-5.3052 -2.9033,-1.218 -6.1798,-1.826 -9.8285,-1.826 z m -921.00703,0.707 v 41.2537 h 9.53325 v -11.3737 h 8.29911 c 3.68796,0 6.86537,-0.5897 9.53325,-1.7684 2.66789,-1.218 4.72769,-2.9462 6.17933,-5.1857 1.45165,-2.2395 2.17739,-4.8917 2.17739,-7.9564 0,-3.1039 -0.72574,-5.7759 -2.17739,-8.0154 -1.45164,-2.2395 -3.51144,-3.9494 -6.17933,-5.1281 -2.66788,-1.2179 -5.84529,-1.826 -9.53325,-1.826 z m 43.96095,0 v 41.2537 h 9.53469 v -16.9136 h 18.71369 v 16.9136 h 9.53325 v -41.2537 h -9.53325 v 16.2656 h -18.71369 v -16.2656 z m 49.0228,0 v 41.2537 h 9.53325 v -41.2537 z m 20.77442,0 v 41.2537 h 30.18959 v -7.7793 h -20.65634 v -33.4744 z m 177.62087,0 v 41.2537 h 9.53469 v -11.3737 h 8.29767 c 3.68796,0 6.86536,-0.5897 9.53325,-1.7684 2.66788,-1.218 4.72769,-2.9462 6.17933,-5.1857 1.45164,-2.2395 2.17738,-4.8917 2.17738,-7.9564 0,-3.1039 -0.72574,-5.7759 -2.17738,-8.0154 -1.45164,-2.2395 -3.51145,-3.9494 -6.17933,-5.1281 -2.66789,-1.2179 -5.84529,-1.826 -9.53325,-1.826 z m 43.96239,0 v 41.2537 h 9.53325 v -16.9136 h 18.71513 v 16.9136 h 9.53325 v -41.2537 h -9.53325 v 16.2656 h -18.71513 v -16.2656 z m 42.6649,0 15.94731,26.5491 v 14.7046 h 9.53469 v -14.6066 l 16.00635,-26.6471 h -9.35612 l -11.02948,18.3134 -10.98052,-18.3134 z m 116.22932,0 v 41.2537 h 9.53325 v -15.0286 h 19.06794 v -7.6612 h -19.06794 v -10.9027 h 21.59823 v -7.6612 z m 150.59658,0 v 41.2537 h 8.9457 v -24.2263 l 12.0635,19.8657 h 4.2957 l 12.1297,-20.4014 0.053,24.762 h 8.9442 l -0.1166,-41.2537 h -7.8282 l -15.1711,25.6174 -15.4304,-25.6174 z m 57.6733,0 v 41.2537 h 9.5332 v -11.3737 h 8.2977 c 3.688,0 6.8668,-0.5897 9.5347,-1.7684 2.6679,-1.218 4.7277,-2.9462 6.1793,-5.1857 1.4517,-2.2395 2.1774,-4.8917 2.1774,-7.9564 0,-3.1039 -0.7257,-5.7759 -2.1774,-8.0154 -1.4516,-2.2395 -3.5114,-3.9494 -6.1793,-5.1281 -2.6679,-1.2179 -5.8467,-1.826 -9.5347,-1.826 z m 43.4094,0 v 23.1016 c 0,6.0507 1.6481,10.7076 4.9438,13.9687 3.2956,3.261 7.8665,4.8904 13.7123,4.8904 5.8458,0 10.4167,-1.6294 13.7123,-4.8904 3.2956,-3.2611 4.9438,-7.918 4.9438,-13.9687 v -23.1016 h -9.4166 v 22.7488 c 0,3.929 -0.805,6.7576 -2.4136,8.4863 -1.6086,1.7288 -3.8636,2.5936 -6.7669,2.5936 -2.9033,0 -5.1597,-0.8648 -6.7683,-2.5936 -1.6086,-1.7287 -2.4121,-4.5573 -2.4121,-8.4863 v -22.7488 z m 42.7383,0 v 7.7793 h 13.1824 v 33.4744 h 9.5333 v -33.4744 h 13.1824 v -7.7793 z m 42.4892,0 v 41.2537 h 9.5347 v -41.2537 z m 20.7745,0 v 41.2537 h 9.4166 v -25.0385 l 20.5382,25.0385 h 7.8268 v -41.2537 h -9.4152 v 25.0284 l -20.4806,-25.0284 z m -681.88666,7.425 c 1.84398,0 3.55009,0.3146 5.11944,0.9433 1.56934,0.6286 2.92322,1.5329 4.06099,2.7116 1.17701,1.1787 2.07959,2.5725 2.70733,4.1834 0.66697,1.6109 1.00085,3.3983 1.00085,5.3628 0,1.9645 -0.33388,3.7534 -1.00085,5.3643 -0.62774,1.6109 -1.53032,3.0047 -2.70733,4.1834 -1.17701,1.1787 -2.55069,2.083 -4.12003,2.7116 -1.53012,0.6287 -3.21642,0.9433 -5.0604,0.9433 -1.84398,0 -3.5501,-0.3146 -5.11945,-0.9433 -1.56934,-0.6286 -2.94302,-1.5329 -4.12003,-2.7116 -1.13777,-1.1787 -2.04036,-2.5725 -2.70733,-4.1834 -0.62774,-1.6502 -0.9418,-3.4391 -0.9418,-5.3643 0,-1.9645 0.31406,-3.7519 0.9418,-5.3628 0.66697,-1.6109 1.58936,-3.0047 2.76637,-4.1834 1.17701,-1.1787 2.53088,-2.083 4.06099,-2.7116 1.56935,-0.6287 3.27547,-0.9433 5.11945,-0.9433 z m 90.15833,0 c 1.84398,0 3.55154,0.3146 5.12089,0.9433 1.56934,0.6286 2.92177,1.5329 4.05955,2.7116 1.17701,1.1787 2.07959,2.5725 2.70732,4.1834 0.66698,1.6109 1.00085,3.3983 1.00085,5.3628 0,1.9645 -0.33387,3.7534 -1.00085,5.3643 -0.62773,1.6109 -1.53031,3.0047 -2.70732,4.1834 -1.17701,1.1787 -2.54925,2.083 -4.1186,2.7116 -1.53011,0.6287 -3.21786,0.9433 -5.06184,0.9433 -1.84398,0 -3.55009,-0.3146 -5.11944,-0.9433 -1.56934,-0.6286 -2.94302,-1.5329 -4.12003,-2.7116 -1.13778,-1.1787 -2.04036,-2.5725 -2.70733,-4.1834 -0.62774,-1.6502 -0.94037,-3.4391 -0.94037,-5.3643 0,-1.9645 0.31263,-3.7519 0.94037,-5.3628 0.66697,-1.6109 1.58936,-3.0047 2.76637,-4.1834 1.17701,-1.1787 2.53088,-2.083 4.06099,-2.7116 1.56935,-0.6287 3.27546,-0.9433 5.11944,-0.9433 z m 202.85662,0 c 1.84398,0 3.5501,0.3146 5.11944,0.9433 1.56935,0.6286 2.92322,1.5329 4.06099,2.7116 1.17701,1.1787 2.07959,2.5725 2.70733,4.1834 0.66697,1.6109 0.99941,3.3983 0.99941,5.3628 0,1.9645 -0.33244,3.7534 -0.99941,5.3643 -0.62774,1.6109 -1.53032,3.0047 -2.70733,4.1834 -1.177,1.1787 -2.55069,2.083 -4.12003,2.7116 -1.53011,0.6287 -3.21642,0.9433 -5.0604,0.9433 -1.84398,0 -3.55154,-0.3146 -5.12088,-0.9433 -1.56935,-0.6286 -2.94159,-1.5329 -4.1186,-2.7116 -1.13777,-1.1787 -2.04035,-2.5725 -2.70732,-4.1834 -0.62774,-1.6502 -0.94181,-3.4391 -0.94181,-5.3643 0,-1.9645 0.31407,-3.7519 0.94181,-5.3628 0.66697,-1.6109 1.58936,-3.0047 2.76637,-4.1834 1.17701,-1.1787 2.52944,-2.083 4.05955,-2.7116 1.56934,-0.6287 3.2769,-0.9433 5.12088,-0.9433 z m 150.59661,0 c 1.844,0 3.5501,0.3146 5.1194,0.9433 1.5694,0.6286 2.9232,1.5329 4.061,2.7116 1.177,1.1787 2.0796,2.5725 2.7073,4.1834 0.667,1.6109 0.9994,3.3983 0.9994,5.3628 0,1.9645 -0.3324,3.7534 -0.9994,5.3643 -0.6277,1.6109 -1.5303,3.0047 -2.7073,4.1834 -1.177,1.1787 -2.5507,2.083 -4.12,2.7116 -1.5301,0.6287 -3.2164,0.9433 -5.0604,0.9433 -1.844,0 -3.5516,-0.3146 -5.1209,-0.9433 -1.5693,-0.6286 -2.9416,-1.5329 -4.1186,-2.7116 -1.1378,-1.1787 -2.0404,-2.5725 -2.7073,-4.1834 -0.6278,-1.6502 -0.9418,-3.4391 -0.9418,-5.3643 0,-1.9645 0.314,-3.7519 0.9418,-5.3628 0.6669,-1.6109 1.5879,-3.0047 2.7649,-4.1834 1.177,-1.1787 2.5309,-2.083 4.061,-2.7116 1.5693,-0.6287 3.2769,-0.9433 5.1209,-0.9433 z m -604.10858,0.3543 h 7.76917 c 2.94252,0 5.13954,0.6278 6.59119,1.885 1.45164,1.2573 2.17738,3.0264 2.17738,5.3052 0,2.2396 -0.72574,3.9875 -2.17738,5.2448 -1.45165,1.2572 -3.64867,1.8865 -6.59119,1.8865 h -7.76917 z m 291.38048,0 h 7.76772 c 2.94252,0 5.13955,0.6278 6.59119,1.885 1.45165,1.2573 2.17739,3.0264 2.17739,5.3052 0,2.2396 -0.72574,3.9875 -2.17739,5.2448 -1.45164,1.2572 -3.64867,1.8865 -6.59119,1.8865 h -7.76772 z m 411.125,0 h 7.7692 c 2.9425,0 5.1396,0.6278 6.5912,1.885 1.4516,1.2573 2.1774,3.0264 2.1774,5.3052 0,2.2396 -0.7258,3.9875 -2.1774,5.2448 -1.4516,1.2572 -3.6487,1.8865 -6.5912,1.8865 h -7.7692 z m -374.48679,54.0832 c -2.40633,0 -4.63222,0.4064 -6.6776,1.2197 -2.0153,0.7832 -3.77533,1.9125 -5.27929,3.3885 -1.50395,1.4459 -2.67731,3.1485 -3.51952,5.1065 -0.84222,1.9579 -1.26294,4.1106 -1.26294,6.4601 0,2.3496 0.42072,4.5036 1.26294,6.4616 0.84221,1.9579 2.001,3.6751 3.47488,5.1511 1.50395,1.4459 3.26399,2.5752 5.27929,3.3885 2.04537,0.7832 4.27127,1.1751 6.67759,1.1751 2.46649,0 4.7215,-0.4224 6.76688,-1.2658 2.07546,-0.8434 3.8355,-2.0773 5.27929,-3.7039 l -2.93342,-2.847 c -1.20316,1.2953 -2.55559,2.2591 -4.05955,2.8917 -1.50395,0.6024 -3.11404,0.9043 -4.82855,0.9043 -1.77466,0 -3.42844,-0.3019 -4.96247,-0.9043 -1.50396,-0.6025 -2.8127,-1.4458 -3.92563,-2.5302 -1.11292,-1.0844 -1.98494,-2.3647 -2.6166,-3.8407 -0.60158,-1.5061 -0.90292,-3.1333 -0.90292,-4.8804 0,-1.7471 0.30134,-3.3583 0.90292,-4.8343 0.63166,-1.5061 1.50368,-2.8009 2.6166,-3.8853 1.11293,-1.0844 2.42167,-1.9277 3.92563,-2.5302 1.53403,-0.6024 3.18781,-0.9044 4.96247,-0.9044 1.71451,0 3.3246,0.3165 4.82855,0.949 1.50396,0.6025 2.85639,1.5358 4.05955,2.801 l 2.93342,-2.8456 c -1.44379,-1.6266 -3.20383,-2.8473 -5.27929,-3.6606 -2.04538,-0.8435 -4.28583,-1.2644 -6.72223,-1.2644 z m 35.83033,0 c -2.43641,0 -4.6783,0.4064 -6.72368,1.2197 -2.04538,0.8133 -3.81998,1.9586 -5.32393,3.4346 -1.50396,1.4458 -2.67587,3.147 -3.51809,5.105 -0.84221,1.9579 -1.26438,4.0961 -1.26438,6.4155 0,2.3194 0.42217,4.459 1.26438,6.417 0.84222,1.9579 2.01413,3.6751 3.51809,5.1511 1.50395,1.4459 3.27855,2.5752 5.32393,3.3885 2.07545,0.8133 4.31735,1.2197 6.72368,1.2197 2.40632,0 4.61621,-0.3919 6.63151,-1.1751 2.04538,-0.8133 3.81998,-1.9426 5.32393,-3.3885 1.53404,-1.476 2.70739,-3.1932 3.51953,-5.1511 0.84221,-1.958 1.26294,-4.112 1.26294,-6.4616 0,-2.3495 -0.42073,-4.5022 -1.26294,-6.4601 -0.81214,-1.958 -1.98549,-3.6606 -3.51953,-5.1065 -1.50395,-1.476 -3.27855,-2.6053 -5.32393,-3.3885 -2.0153,-0.8133 -4.22519,-1.2197 -6.63151,-1.2197 z m 60.24524,0 c -2.40633,0 -4.63222,0.4064 -6.67759,1.2197 -2.0153,0.7832 -3.77534,1.9125 -5.27929,3.3885 -1.50395,1.4459 -2.67731,3.1485 -3.51953,5.1065 -0.84221,1.9579 -1.26294,4.1106 -1.26294,6.4601 0,2.3496 0.42073,4.5036 1.26294,6.4616 0.84222,1.9579 2.00101,3.6751 3.47489,5.1511 1.50395,1.4459 3.26255,2.5752 5.27784,3.3885 2.04539,0.7832 4.27127,1.1751 6.6776,1.1751 2.46648,0 4.72294,-0.4224 6.76832,-1.2658 2.07546,-0.8434 3.8355,-2.0773 5.27929,-3.7039 l -2.93342,-2.847 c -1.20316,1.2953 -2.55703,2.2591 -4.06099,2.8917 -1.50395,0.6024 -3.1126,0.9043 -4.82711,0.9043 -1.77467,0 -3.42844,-0.3019 -4.96247,-0.9043 -1.50396,-0.6025 -2.8127,-1.4458 -3.92563,-2.5302 -1.11292,-1.0844 -1.98494,-2.3647 -2.6166,-3.8407 -0.60159,-1.5061 -0.90293,-3.1333 -0.90293,-4.8804 0,-1.7471 0.30134,-3.3583 0.90293,-4.8343 0.63166,-1.5061 1.50368,-2.8009 2.6166,-3.8853 1.11293,-1.0844 2.42167,-1.9277 3.92563,-2.5302 1.53403,-0.6024 3.1878,-0.9044 4.96247,-0.9044 1.71451,0 3.32316,0.3165 4.82711,0.949 1.50396,0.6025 2.85783,1.5358 4.06099,2.801 l 2.93342,-2.8456 c -1.44379,-1.6266 -3.20383,-2.8473 -5.27929,-3.6606 -2.04538,-0.8435 -4.28584,-1.2644 -6.72224,-1.2644 z m 132.65042,0 c -2.4364,0 -4.6782,0.4209 -6.7236,1.2644 -2.0153,0.8133 -3.624,1.989 -4.8271,3.5252 l 3.0687,2.6656 c 0.9927,-1.1748 2.1646,-2.0341 3.5181,-2.5763 1.3536,-0.5723 2.8734,-0.8583 4.5578,-0.8583 2.1958,0 3.8656,0.4675 5.0086,1.4012 1.143,0.9338 1.7137,2.2141 1.7137,3.8407 0,0.6627 -0.1049,1.3551 -0.3154,2.078 -0.1805,0.6928 -0.5561,1.4607 -1.1276,2.3041 -0.5414,0.8133 -1.3843,1.7626 -2.5273,2.847 l -12.8584,12.4249 v 3.0731 h 22.6941 v -3.9313 h -16.1777 l 9.6355,-9.3072 c 1.4137,-1.3856 2.4968,-2.6354 3.2487,-3.7499 0.7521,-1.1145 1.263,-2.1698 1.5337,-3.1639 0.2707,-0.994 0.4061,-2.0028 0.4061,-3.027 0,-1.8073 -0.4513,-3.3735 -1.3536,-4.6989 -0.8724,-1.3254 -2.12,-2.3342 -3.7442,-3.0271 -1.6243,-0.7229 -3.5343,-1.0843 -5.7301,-1.0843 z m 33.8992,0 c -2.4664,0 -4.6763,0.6328 -6.6315,1.898 -1.925,1.2651 -3.4594,3.1013 -4.6024,5.5111 -1.1129,2.4098 -1.6691,5.3318 -1.6691,8.7657 0,3.434 0.5562,6.3559 1.6691,8.7657 1.143,2.4098 2.6774,4.2475 4.6024,5.5126 1.9552,1.2651 4.1651,1.898 6.6315,1.898 2.4365,0 4.6332,-0.6329 6.5884,-1.898 1.9551,-1.2651 3.4895,-3.1028 4.6024,-5.5126 1.1129,-2.4098 1.6691,-5.3317 1.6691,-8.7657 0,-3.4339 -0.5562,-6.3559 -1.6691,-8.7657 -1.1129,-2.4098 -2.6473,-4.246 -4.6024,-5.5111 -1.9552,-1.2652 -4.1519,-1.898 -6.5884,-1.898 z m 32.3569,0 c -2.4364,0 -4.6768,0.4209 -6.7222,1.2644 -2.0153,0.8133 -3.6254,1.989 -4.8286,3.5252 l 3.0688,2.6656 c 0.9926,-1.1748 2.1646,-2.0341 3.5181,-2.5763 1.3536,-0.5723 2.8734,-0.8583 4.5578,-0.8583 2.1958,0 3.8656,0.4675 5.0086,1.4012 1.143,0.9338 1.7137,2.2141 1.7137,3.8407 0,0.6627 -0.1049,1.3551 -0.3154,2.078 -0.1805,0.6928 -0.5561,1.4607 -1.1276,2.3041 -0.5414,0.8133 -1.3843,1.7626 -2.5273,2.847 l -12.8584,12.4249 v 3.0731 h 22.6941 v -3.9313 h -16.1778 l 9.6355,-9.3072 c 1.4138,-1.3856 2.4969,-2.6354 3.2488,-3.7499 0.752,-1.1145 1.263,-2.1698 1.5337,-3.1639 0.2707,-0.994 0.4061,-2.0028 0.4061,-3.027 0,-1.8073 -0.4513,-3.3735 -1.3537,-4.6989 -0.8723,-1.3254 -2.1199,-2.3342 -3.7441,-3.0271 -1.6243,-0.7229 -3.5343,-1.0843 -5.7301,-1.0843 z m -632.77884,0.3614 v 17.9822 c 0,4.5786 1.18792,8.0579 3.56417,10.4376 2.37624,2.3796 5.6401,3.5699 9.79102,3.5699 4.18099,0 7.44341,-1.1903 9.78958,-3.5699 2.37625,-2.3797 3.56561,-5.859 3.56561,-10.4376 v -17.9822 h -4.37781 v 17.8022 c 0,3.5243 -0.78176,6.0993 -2.34587,7.7259 -1.53403,1.6266 -3.72936,2.4409 -6.58687,2.4409 -2.82743,0 -5.02276,-0.8143 -6.58687,-2.4409 -1.53404,-1.6266 -2.30123,-4.2016 -2.30123,-7.7259 v -17.8022 z m 41.10818,0 v 31.6282 h 4.51173 v -23.5681 l 18.94986,23.5681 h 3.69953 v -31.6282 h -4.51173 v 23.5667 l -18.94986,-23.5667 z m 51.30674,0 -14.30275,31.6282 h 4.64709 l 3.46913,-7.9074 h 16.79263 l 3.47057,7.9074 h 4.73782 l -14.34884,-31.6282 z m 28.65591,0 v 31.6282 h 4.33173 v -22.9186 l 11.41398,19.078 h 2.07657 l 11.41686,-19.222 0.0432,23.0626 h 4.33028 l -0.0446,-31.6282 h -3.69954 l -13.00093,22.216 -13.16798,-22.216 z m 65.5231,0 v 31.6282 h 4.33172 v -22.9201 l 11.41542,19.0795 h 2.07514 l 11.4183,-19.2235 0.0418,23.0641 h 4.33172 l -0.0446,-31.6282 h -3.70097 l -12.9995,22.2174 -13.16798,-22.2174 z m 48.23795,0 v 31.6282 h 22.92013 v -3.9313 h -18.40839 v -10.2116 h 15.83643 v -3.8406 h -15.83643 v -9.7133 h 17.77764 v -3.9314 z m 31.62102,0 11.1418,15.4188 -11.86472,16.2094 h 5.18857 l 9.34604,-13.0383 9.46845,13.0383 h 5.18856 l -11.94248,-16.3577 11.13028,-15.2705 h -4.91783 l -8.76281,12.1326 -8.83338,-12.1326 z m 38.04083,0 v 31.6282 h 4.51174 v -31.6282 z m 152.52912,0 v 31.6282 h 4.51318 v -31.6282 z m 14.57925,0 v 3.9314 h 10.82931 v 27.6968 h 4.4671 v -27.6968 h 10.82787 v -3.9314 z m 30.92978,0 12.543,20.6146 v 11.0136 h 4.46709 v -10.943 l 12.54307,-20.6852 h -4.4671 l -10.14823,16.6861 -10.10928,-16.6861 z m 153.84966,0 -1.669,16.5363 h 7.173 c 2.4364,0 4.3464,0.241 5.73,0.7229 1.4138,0.4519 2.4066,1.1153 2.9781,1.9888 0.5715,0.8735 0.8568,1.8983 0.8568,3.0731 0,1.717 -0.6464,3.0872 -1.9398,4.1114 -1.2933,1.0242 -3.1422,1.5365 -5.5485,1.5365 -1.895,0 -3.6856,-0.3164 -5.37,-0.949 -1.6844,-0.6325 -3.0529,-1.4469 -4.1057,-2.4409 l -2.0751,3.5699 c 1.3234,1.1748 3.0224,2.1081 5.0978,2.801 2.1056,0.6928 4.2718,1.0397 6.4976,1.0397 2.7071,0 4.933,-0.4369 6.6776,-1.3105 1.7746,-0.9036 3.098,-2.0939 3.9703,-3.5699 0.8723,-1.5061 1.309,-3.1623 1.309,-4.9697 0,-1.8676 -0.4367,-3.5092 -1.309,-4.925 -0.8723,-1.4459 -2.2713,-2.5752 -4.1964,-3.3885 -1.925,-0.8133 -4.4668,-1.2197 -7.6251,-1.2197 h -3.5268 l 0.8684,-8.675 h 14.0291 v -3.9314 z m -282.75446,3.6592 c 1.74458,0 3.35323,0.302 4.82711,0.9044 1.50395,0.6025 2.79814,1.4603 3.88098,2.5748 1.11293,1.0845 1.96894,2.3647 2.57052,3.8407 0.63166,1.476 0.94756,3.0872 0.94756,4.8343 0,1.7471 -0.3159,3.3597 -0.94756,4.8358 -0.60158,1.4759 -1.45759,2.7708 -2.57052,3.8853 -1.08284,1.0844 -2.37703,1.9277 -3.88098,2.5302 -1.47388,0.6024 -3.08253,0.9043 -4.82711,0.9043 -1.77467,0 -3.41388,-0.3019 -4.91783,-0.9043 -1.47388,-0.6025 -2.76806,-1.4458 -3.88099,-2.5302 -1.11292,-1.1145 -1.98494,-2.4094 -2.6166,-3.8853 -0.60158,-1.4761 -0.90292,-3.0887 -0.90292,-4.8358 0,-1.7471 0.30134,-3.3583 0.90292,-4.8343 0.63166,-1.476 1.50368,-2.7562 2.6166,-3.8407 1.11293,-1.1145 2.40711,-1.9723 3.88099,-2.5748 1.50395,-0.6024 3.14316,-0.9044 4.91783,-0.9044 z m 226.79486,0 c 1.6544,0 3.0985,0.4529 4.3318,1.3566 1.2633,0.9037 2.2416,2.258 2.9334,4.0653 0.7219,1.8073 1.0829,4.0514 1.0829,6.7323 0,2.6809 -0.361,4.925 -1.0829,6.7323 -0.6918,1.8074 -1.6701,3.1631 -2.9334,4.0668 -1.2333,0.9037 -2.6774,1.3565 -4.3318,1.3565 -1.6543,0 -3.113,-0.4528 -4.3763,-1.3565 -1.2633,-0.9037 -2.2547,-2.2594 -2.9766,-4.0668 -0.6919,-1.8073 -1.0383,-4.0514 -1.0383,-6.7323 0,-2.6809 0.3464,-4.925 1.0383,-6.7323 0.7219,-1.8073 1.7133,-3.1616 2.9766,-4.0653 1.2633,-0.9037 2.722,-1.3566 4.3763,-1.3566 z m -505.79652,0.9274 6.81009,15.5197 H 562.4599 Z m -323.27078,1.3624 a 10.049376,10.049647 0 0 1 10.0488,10.0502 10.049376,10.049647 0 0 1 -10.0488,10.0488 10.049376,10.049647 0 0 1 -10.04879,-10.0488 10.049376,10.049647 0 0 1 10.04879,-10.0502 z"
     transform="matrix(0.49593233,0,0,0.49593233,-100.82171,1238.939)" />
</svg>
