<svg xmlns="http://www.w3.org/2000/svg" width="1080" height="1350"><path fill="#000" d="M0 0v7.07l1.668 1.668L0 10.406v14.145l3.535-3.535 5.205-5.205 24.18 24.18L8.74 64.17l-5.205-5.205L0 55.43v14.145l1.668 1.668L0 72.91v14.143l3.535-3.537 5.203-5.203 24.184 24.18L8.74 126.674l-5.205-5.205L0 117.934v14.141l1.67 1.67-1.67 1.67v14.139l3.535-3.535 5.205-5.203 24.18 24.18-24.182 24.182-5.203-5.203L0 180.436v14.143l1.668 1.668L0 197.914v14.141l3.535-3.535 5.203-5.203 24.18 24.18-24.18 24.18-5.203-5.201L0 242.939v14.143l1.666 1.666L0 260.414v14.141l3.535-3.535 5.201-5.201 24.18 24.18L8.734 314.18l-5.199-5.201L0 305.441v14.145l1.664 1.664L0 322.914v14.143l3.535-3.535 5.201-5.201 24.178 24.18-24.18 24.18-5.199-5.199L0 367.945v14.143l1.664 1.664L0 385.416v14.143l3.535-3.537 5.199-5.199 24.18 24.182-24.18 24.18-5.199-5.199L0 430.449v14.141l1.664 1.664L0 447.918v14.141l3.535-3.535 5.199-5.199 24.18 24.18-24.182 24.182-5.197-5.199L0 492.951v14.143l1.662 1.662L0 510.418v14.143l3.535-3.535 5.199-5.197 24.18 24.18-24.182 24.18-5.197-5.197L0 555.455v14.141l1.662 1.662L0 572.92v14.141l3.535-3.535 5.197-5.197 24.182 24.18-24.184 24.184-5.195-5.197L0 617.957v14.145l1.66 1.66-1.66 1.66v14.141l3.535-3.535 5.195-5.195 24.18 24.18-24.18 24.18-5.195-5.195L0 680.461v14.141l1.66 1.66-1.66 1.66v14.143l3.535-3.535 5.195-5.197 24.18 24.18-24.182 24.182-5.193-5.193L0 742.963v14.143l1.658 1.658L0 760.422v14.143l3.535-3.535 5.193-5.195 24.18 24.18-24.18 24.182-5.193-5.193L0 805.467v14.143l1.656 1.656L0 822.922v14.145l3.535-3.535 5.193-5.193 24.18 24.18-24.182 24.182-5.191-5.193L0 867.971v14.143l1.656 1.656L0 885.426v14.143l3.535-3.537 5.191-5.191 24.184 24.18-24.182 24.182-5.193-5.193L0 930.473v14.143l1.656 1.656L0 947.928v14.141l3.535-3.535 5.191-5.191 24.18 24.182-24.18 24.18-5.191-5.191L0 992.977v14.141l1.656 1.656L0 1010.43v14.141l3.535-3.535 5.191-5.191 24.18 24.18-24.182 24.182-5.189-5.189L0 1055.479v14.143l1.654 1.654L0 1072.93v14.141l3.535-3.535 5.189-5.189 24.18 24.18-24.182 24.182-5.187-5.189L0 1117.982v14.143l1.652 1.652L0 1135.43v14.143l3.535-3.535 5.189-5.189 24.18 24.182-24.182 24.182-5.187-5.189L0 1180.484v14.145l1.652 1.652L0 1197.934v14.143l3.535-3.537 5.188-5.187 24.184 24.18-24.182 24.182-5.189-5.189L0 1242.988v14.145l1.652 1.652L0 1260.438v14.141l3.535-3.535 5.188-5.187 24.18 24.18-24.18 24.18-5.187-5.187L0 1305.492v14.143l1.652 1.652L0 1322.94v14.142l3.535-3.535 5.189-5.189L30.365 1350h19.221l21.641-21.641L92.867 1350h19.219l21.645-21.645L155.371 1350h19.219l21.643-21.643L217.875 1350h19.219l21.642-21.643L280.379 1350h19.215l21.644-21.645L342.883 1350h19.219l21.641-21.641L405.383 1350h19.219l21.644-21.645L467.887 1350h19.219l21.643-21.643L530.391 1350h19.219l21.643-21.643L592.895 1350h19.215l21.644-21.645L655.398 1350h19.219l21.641-21.641L717.898 1350h19.219l21.644-21.645L780.402 1350h19.219l21.643-21.643L842.906 1350h19.217l21.643-21.645L905.41 1350h19.219l21.641-21.643L967.91 1350h19.219l21.644-21.643 21.641 21.643h19.219l21.643-21.643 5.189 5.189 3.535 3.535v-14.145l-1.652-1.652 1.652-1.652v-14.141l-3.535 3.535-5.187 5.188-24.182-24.18 24.182-24.18 5.188 5.188 3.535 3.535v-14.141l-1.652-1.652 1.652-1.652v-14.145l-3.535 3.535-5.189 5.189-24.182-24.182 24.182-24.182 5.189 5.189 3.535 3.537v-14.143l-1.654-1.654 1.654-1.654v-14.141l-3.535 3.537-5.189 5.188-24.18-24.18 24.18-24.182 5.189 5.189 3.535 3.535v-14.143l-1.652-1.652 1.652-1.652v-14.143l-3.535 3.535-5.187 5.189-24.182-24.182 24.18-24.18 5.189 5.189 3.535 3.535v-14.141l-1.654-1.654 1.654-1.654v-14.143l-3.535 3.537-5.189 5.189-24.182-24.182 24.18-24.18 5.191 5.191 3.535 3.535v-14.141l-1.656-1.656 1.656-1.656v-14.141l-3.535 3.535-5.191 5.191-24.18-24.182 24.18-24.18 5.191 5.191 3.535 3.535v-14.141l-1.656-1.656 1.656-1.656v-14.143l-3.535 3.535-5.191 5.191-24.184-24.18 24.182-24.182 5.193 5.193 3.535 3.537v-14.143l-1.658-1.658 1.658-1.658v-14.139l-3.535 3.535-5.193 5.191-24.18-24.18 24.18-24.18 5.193 5.193 3.535 3.535v-14.145l-1.656-1.656 1.656-1.656v-14.143l-3.535 3.535-5.193 5.193-24.182-24.18 24.18-24.18 5.195 5.193 3.535 3.535v-14.139l-1.66-1.66 1.66-1.66v-14.143l-3.535 3.537-5.195 5.195-24.18-24.184 24.18-24.18 5.195 5.197 3.535 3.535v-14.143l-1.66-1.66 1.66-1.66v-14.141l-3.535 3.535-5.195 5.195-24.18-24.18 24.18-24.18 5.195 5.195 3.535 3.535v-14.141l-1.66-1.66 1.66-1.66v-14.145l-3.535 3.537-5.195 5.197-24.184-24.184 24.182-24.18 5.197 5.197 3.535 3.535V572.92l-1.662-1.662 1.662-1.662v-14.141l-3.535 3.535-5.197 5.197-24.182-24.18 24.18-24.18 5.199 5.197 3.535 3.535v-14.143l-1.662-1.662 1.662-1.662v-14.143l-3.535 3.535-5.197 5.199-24.182-24.182 24.18-24.18 5.199 5.199 3.535 3.535v-14.141l-1.664-1.664 1.664-1.664v-14.141l-3.535 3.535-5.199 5.199-24.182-24.182 24.182-24.18 5.199 5.199 3.535 3.537v-14.143l-1.664-1.664 1.664-1.664v-14.143l-3.535 3.535-5.199 5.199-24.182-24.18 24.18-24.18 5.201 5.201 3.535 3.535v-14.143l-1.664-1.664 1.664-1.664v-14.145l-3.535 3.537-5.199 5.201-24.182-24.182 24.18-24.18 5.201 5.201 3.535 3.535v-14.141l-1.666-1.666 1.666-1.666v-14.143l-3.535 3.535-5.203 5.201-24.18-24.18 24.18-24.18 5.203 5.203 3.535 3.535v-14.141l-1.668-1.668 1.668-1.668v-14.143l-3.535 3.537-5.203 5.203-24.18-24.184 24.18-24.18 5.203 5.205 3.535 3.535V135.41l-1.668-1.668 1.668-1.668v-14.141l-3.535 3.535-5.203 5.203-24.182-24.18 24.182-24.18 5.203 5.203 3.535 3.537V72.91l-1.668-1.668 1.668-1.668V55.43l-3.535 3.535-5.205 5.205-24.18-24.18 24.18-24.18 5.205 5.205 3.535 3.535V10.406l-1.668-1.668L1080 7.07V0h-7.07l-1.668 1.668L1069.594 0h-14.145l8.74 8.74-24.18 24.18-24.18-24.18 8.74-8.74h-14.144l-1.668 1.668L1007.09 0h-14.141l8.738 8.738-24.18 24.182-24.18-24.18 8.74-8.74h-14.141l-1.67 1.67-1.67-1.67h-14.141l8.74 8.74-24.18 24.18-24.18-24.182L899.566 0h-14.141l-1.668 1.668L882.09 0h-14.144l8.74 8.74-24.18 24.18-24.18-24.18 8.74-8.74h-14.144l-1.668 1.668L819.586 0h-14.141l8.738 8.738-24.18 24.18-24.18-24.18L774.563 0h-14.141l-1.668 1.668L757.086 0h-14.143l8.74 8.74-24.18 24.18-24.18-24.18 8.74-8.74h-14.143l-1.668 1.668L694.586 0h-14.141l8.738 8.738-24.182 24.182-24.18-24.18 8.74-8.74h-14.141l-1.67 1.67-1.67-1.67h-14.141l8.74 8.74-24.18 24.18L578.32 8.738 587.059 0h-14.141l-1.668 1.668L569.582 0H555.44l8.74 8.74L540 32.92 515.82 8.74l8.74-8.74h-14.143l-1.668 1.668L507.082 0h-14.141l8.738 8.738-24.182 24.182-24.18-24.18 8.74-8.74h-14.141l-1.67 1.67-1.67-1.67h-14.141l8.74 8.74-24.18 24.18-24.182-24.182L399.555 0h-14.141l-1.668 1.668L382.078 0h-14.143l8.74 8.74-24.18 24.18-24.18-24.18 8.74-8.74h-14.142l-1.668 1.668L319.578 0h-14.141l8.738 8.738-24.18 24.18-24.18-24.18L274.555 0h-14.141l-1.668 1.668L257.078 0h-14.144l8.74 8.74-24.18 24.18-24.18-24.18 8.74-8.74H197.91l-1.668 1.668L194.574 0h-14.141l8.738 8.738-24.18 24.182-24.18-24.18 8.74-8.74h-14.141l-1.67 1.67-1.67-1.67h-14.141l8.74 8.74-24.18 24.18-24.18-24.182L87.051 0H72.91l-1.668 1.668L69.574 0H55.43l8.74 8.74-24.18 24.18-24.18-24.18L24.551 0H10.406L8.738 1.668 7.07 0zm71.24 15.811l24.182 24.182-24.18 24.18L47.061 39.99zm62.502 0l24.18 24.18-24.18 24.18-24.18-24.18zm62.502 0l24.18 24.18-24.182 24.182-24.18-24.18zm62.5 0l24.18 24.18-24.18 24.18-24.18-24.18zm62.502 0l24.18 24.18-24.18 24.18-24.18-24.18zm62.5 0l24.18 24.182-24.18 24.18-24.18-24.182zm62.502 0l24.18 24.18-24.18 24.18-24.18-24.18zm62.502 0l24.18 24.18-24.18 24.182-24.18-24.182zm62.5 0l24.18 24.182-24.18 24.18-24.18-24.182zm62.502 0l24.18 24.18-24.18 24.18-24.18-24.18zm62.502 0l24.18 24.18-24.18 24.182-24.18-24.18zm62.5 0l24.18 24.18-24.18 24.18-24.18-24.18zm62.502 0l24.18 24.18-24.18 24.18-24.18-24.18zm62.5 0l24.182 24.182-24.18 24.18-24.182-24.182zm62.502 0l24.18 24.18-24.18 24.18-24.18-24.18zm62.502 0l24.18 24.18-24.182 24.182-24.18-24.182zM39.99 47.061l24.182 24.182-24.18 24.18L15.811 71.24zm187.504 0l24.18 24.18-24.182 24.182-24.18-24.18zm125.002 0l24.18 24.182-24.18 24.18-24.18-24.182zm187.504 0l24.18 24.182L540 95.422l-24.18-24.18zm187.504 0l24.18 24.18-24.18 24.182-24.18-24.18zm125.002 0l24.182 24.182-24.18 24.18-24.182-24.182zm187.504 0l24.18 24.18-24.182 24.18-24.18-24.178zm-937.518.002l24.18 24.18-24.18 24.18-24.18-24.18zm62.5 0l24.18 24.18-24.18 24.18-24.18-24.18zm125.004 0l24.18 24.18-24.18 24.18-24.18-24.18zm125 0l24.18 24.178-24.18 24.18-24.18-24.178zm62.504 0l24.18 24.18-24.18 24.18-24.18-24.18zm125 0l24.18 24.18-24.18 24.18-24.18-24.18zm62.504 0l24.18 24.18-24.18 24.18-24.18-24.18zm125 0l24.18 24.18-24.18 24.18-24.18-24.18zm125.004 0l24.18 24.18-24.18 24.18-24.18-24.18zm62.5 0l24.18 24.18-24.18 24.18-24.18-24.18zM71.242 78.313l24.18 24.18-24.18 24.18-24.18-24.18zm62.5 0l24.18 24.18-24.18 24.18-24.18-24.18zm62.5 0l24.18 24.18-24.18 24.18-24.18-24.18zm62.504 0l24.18 24.18-24.182 24.18-24.18-24.18zm62.5 0l24.18 24.18-24.18 24.18-24.18-24.18zm62.5 0l24.18 24.178-24.18 24.18-24.18-24.178zm62.502 0l24.18 24.18-24.18 24.18-24.18-24.18zm62.502 0l24.18 24.18-24.18 24.18-24.18-24.18zm62.5 0l24.18 24.18-24.18 24.18-24.18-24.18zm62.502 0l24.18 24.18-24.18 24.18-24.18-24.18zm62.502 0l24.18 24.18-24.18 24.18-24.18-24.18zm62.5 0l24.18 24.18-24.18 24.18-24.18-24.18zm62.5 0l24.182 24.18-24.18 24.18-24.182-24.18zm62.504 0l24.18 24.18-24.18 24.18-24.18-24.18zm62.5 0l24.18 24.18-24.18 24.18-24.18-24.18zm62.5 0l24.18 24.18-24.18 24.18-24.18-24.18zm-968.766 31.25l24.18 24.18-24.182 24.182-24.18-24.18zm62.5 0l24.18 24.18-24.18 24.18-24.18-24.18zm62.5 0l24.18 24.18-24.18 24.18-24.18-24.18zm62.502 0l24.18 24.18-24.18 24.18-24.18-24.18zm62.502 0l24.18 24.18-24.18 24.18-24.182-24.18zm62.5 0l24.18 24.18-24.18 24.18-24.18-24.18zm62.502 0l24.18 24.18-24.18 24.18-24.18-24.18zm62.5 0l24.182 24.18-24.18 24.18-24.182-24.18zm62.502 0l24.18 24.18-24.18 24.18-24.18-24.18zm62.502 0l24.18 24.18-24.182 24.18-24.18-24.18zm62.5 0l24.18 24.18-24.18 24.18-24.18-24.18zm62.502 0l24.18 24.18-24.18 24.18-24.18-24.18zm62.5 0l24.182 24.18-24.182 24.18-24.18-24.18zm62.502 0l24.18 24.18-24.18 24.18-24.18-24.18zm62.502 0l24.18 24.18-24.18 24.18-24.18-24.18zm62.5 0l24.18 24.18-24.18 24.18-24.18-24.18zm62.502 0l24.182 24.18-24.18 24.18-24.182-24.18zm-968.768 31.25l24.18 24.18-24.182 24.182-24.18-24.18zm62.5 0l24.18 24.18-24.18 24.18-24.18-24.18zm62.5 0l24.18 24.18-24.18 24.18-24.18-24.18zm62.502 0l24.182 24.18-24.18 24.18-24.182-24.18zm62.502 0l24.18 24.18-24.18 24.18-24.18-24.18zm62.5 0l24.18 24.18-24.18 24.18-24.18-24.18zm62.502 0l24.182 24.18-24.18 24.18-24.182-24.18zm62.502 0l24.18 24.18-24.18 24.18-24.18-24.18zm62.5 0l24.18 24.18-24.18 24.18-24.18-24.18zm62.502 0l24.18 24.18-24.182 24.18-24.18-24.18zm62.502 0l24.18 24.18-24.18 24.18-24.18-24.18zm62.5 0l24.18 24.18-24.18 24.18-24.18-24.18zm62.502 0l24.18 24.18-24.182 24.18-24.18-24.18zm62.502 0l24.18 24.18-24.18 24.182-24.18-24.182zm62.5 0l24.18 24.18-24.18 24.18-24.18-24.18zm62.5 0l24.182 24.182-24.18 24.18-24.182-24.182zm-906.266 31.25l24.18 24.18-24.182 24.182-24.18-24.18zm62.5 0l24.18 24.18-24.18 24.18-24.18-24.18zm62.5 0l24.182 24.182-24.18 24.18-24.182-24.182zm62.504 0l24.18 24.18-24.18 24.18-24.18-24.18zm62.5 0l24.18 24.18-24.18 24.182-24.18-24.18zm62.5 0l24.182 24.182-24.18 24.18-24.182-24.182zm62.504 0l24.18 24.18-24.18 24.18-24.18-24.18zm125 0l24.18 24.18-24.18 24.18-24.18-24.18zm62.504 0l24.18 24.18-24.182 24.182-24.18-24.18zm62.5 0l24.18 24.182-24.18 24.18-24.18-24.182zm62.5 0l24.18 24.18-24.18 24.18-24.18-24.18zm62.504 0l24.18 24.18-24.182 24.182-24.18-24.18zm62.5 0l24.18 24.18-24.18 24.182-24.18-24.18zm62.5 0l24.182 24.182-24.18 24.18-24.182-24.182zm-937.518.002l24.18 24.18-24.182 24.182-24.18-24.18zm500.01 0l24.18 24.18-24.18 24.18-24.18-24.18zm500.01 0l24.182 24.182-24.18 24.18-24.182-24.182zm-906.268 31.248l24.18 24.18-24.182 24.182-24.18-24.18zm62.5 0l24.182 24.182-24.18 24.18-24.182-24.182zm187.504 0l24.182 24.182-24.182 24.182-24.18-24.182zm312.508 0l24.18 24.182-24.18 24.182-24.182-24.182zm187.504 0l24.18 24.18-24.182 24.182-24.18-24.18zm-812.518.002l24.18 24.18-24.182 24.182-24.18-24.18zm187.504 0l24.18 24.18-24.18 24.18-24.18-24.18zm62.502 0l24.18 24.18-24.18 24.18-24.18-24.18zm125.002 0l24.18 24.18-24.18 24.18-24.18-24.18zm62.502 0l24.18 24.18-24.18 24.18-24.18-24.18zm62.5 0l24.18 24.18-24.18 24.18-24.18-24.18zm62.502 0l24.18 24.18-24.18 24.18-24.18-24.18zm125.002 0l24.18 24.18-24.18 24.18-24.18-24.18zm62.502 0l24.18 24.18-24.18 24.18-24.18-24.18zm125.002 0l24.18 24.182-24.18 24.178-24.18-24.18zm62.502 0l24.182 24.182-24.18 24.18-24.182-24.182zm-843.768 31.248l24.18 24.184-24.18 24.18-24.182-24.182zm-62.502.002l24.18 24.18-24.182 24.182-24.18-24.18zm125.004 0l24.18 24.18-24.18 24.18-24.18-24.18zm125.002 0l24.18 24.182-24.18 24.18-24.18-24.182zm62.502 0l24.18 24.18-24.182 24.182-24.18-24.18zm125.002 0l24.18 24.18-24.18 24.18-24.18-24.18zm125.002 0l24.182 24.182-24.18 24.18-24.182-24.182zm62.502 0l24.18 24.18-24.18 24.182-24.18-24.18zm125.002 0l24.18 24.18-24.18 24.18-24.18-24.18zm62.502 0l24.18 24.182-24.18 24.18-24.18-24.18zm-875.019.002l24.18 24.18-24.18 24.18-24.18-24.18zm250.008 0l24.18 24.18-24.18 24.18-24.18-24.18zm187.504 0l24.18 24.18-24.18 24.18-24.18-24.18zm125 0l24.18 24.18-24.18 24.18-24.18-24.18zm187.504 0l24.18 24.18-24.18 24.18-24.18-24.18zm187.504 0l24.184 24.18-24.18 24.18-24.184-24.18zm62.504 0l24.18 24.18-24.18 24.18-24.18-24.18zM133.74 265.815l24.182 24.182-24.182 24.182-24.182-24.182zm750.018 0l24.18 24.182-24.18 24.18-24.18-24.18zm-812.519.002l24.18 24.18-24.18 24.18-24.18-24.178zm125.004 0l24.18 24.18-24.18 24.18-24.18-24.18zm62.504 0l24.18 24.18-24.18 24.18-24.18-24.18zm62.5 0l24.18 24.18-24.18 24.18-24.18-24.18zm62.5 0l24.18 24.18-24.18 24.18-24.18-24.18zm62.504 0l24.18 24.18-24.182 24.18-24.18-24.18zm62.5 0l24.18 24.18-24.18 24.18-24.18-24.18zm62.5 0l24.18 24.18-24.18 24.18-24.18-24.18zm62.5 0l24.182 24.18-24.18 24.18-24.182-24.18zm62.504 0l24.18 24.18-24.18 24.18-24.18-24.18zm62.5 0l24.18 24.18-24.18 24.18-24.18-24.18zm62.5 0l24.18 24.18-24.18 24.18-24.18-24.18zm125.004 0l24.184 24.18-24.182 24.182-24.182-24.182zm62.504 0l24.18 24.18-24.18 24.18-24.18-24.18zm-906.273 31.25l24.182 24.182-24.182 24.182-24.18-24.184zm62.504 0l24.18 24.18-24.182 24.182-24.18-24.18zm62.504 0l24.18 24.18-24.182 24.182-24.18-24.18zm62.5 0l24.18 24.18-24.18 24.18-24.18-24.18zm62.5 0l24.18 24.18-24.18 24.18-24.18-24.18zm62.502 0l24.18 24.18-24.18 24.18-24.18-24.18zm62.502 0l24.18 24.18-24.182 24.18-24.18-24.18zm62.5 0l24.18 24.18-24.18 24.18-24.18-24.18zm62.5 0l24.182 24.18-24.18 24.18-24.182-24.18zm62.502 0l24.18 24.18-24.18 24.18-24.18-24.18zm62.502 0l24.18 24.18-24.18 24.18-24.18-24.18zm62.5 0l24.18 24.18-24.18 24.18-24.18-24.18zm62.502 0l24.182 24.18-24.18 24.18-24.182-24.18zm62.502 0l24.182 24.182-24.18 24.18-24.182-24.182zm62.504 0l24.18 24.18-24.182 24.182-24.18-24.18zm-937.523.002l24.178 24.18-24.182 24.182-24.178-24.18zm1000.023.002l24.182 24.18-24.18 24.18-24.182-24.18zm-781.266 31.246l24.18 24.18-24.182 24.182-24.18-24.18zm62.5 0l24.18 24.18-24.18 24.18-24.18-24.18zm62.5 0l24.18 24.18-24.18 24.18-24.18-24.18zm62.502 0l24.18 24.18-24.18 24.18-24.18-24.18zm62.502 0l24.18 24.18-24.18 24.18-24.18-24.18zm62.5 0l24.18 24.18-24.18 24.18-24.18-24.18zm62.502 0l24.18 24.18-24.18 24.18-24.18-24.18zm62.502 0l24.18 24.18-24.18 24.18-24.18-24.18zm62.5 0l24.18 24.18-24.18 24.18-24.18-24.18zm62.502 0l24.182 24.18-24.182 24.182-24.182-24.182zm62.502 0l24.18 24.184-24.18 24.18-24.18-24.184zm-812.521.002L95.418 352.5l-24.18 24.18-24.184-24.18zm62.504 0l24.18 24.18-24.182 24.182-24.18-24.18zm62.504 0l24.18 24.18-24.182 24.182-24.18-24.18zm750.016 0l24.18 24.18-24.18 24.18-24.18-24.18zm62.502.002l24.182 24.18-24.18 24.182-24.182-24.182zm-718.766 31.246l24.18 24.18-24.182 24.182-24.18-24.18zm62.5 0l24.18 24.18-24.18 24.18-24.18-24.18zm62.5 0l24.18 24.18-24.18 24.18-24.18-24.18zm62.504 0l24.18 24.18-24.18 24.18-24.18-24.18zm62.5 0l24.18 24.18L540 407.928l-24.18-24.182zm62.5 0l24.18 24.18-24.18 24.18-24.18-24.18zm62.504 0l24.18 24.18-24.18 24.18-24.18-24.18zm62.5 0l24.18 24.18-24.18 24.18-24.18-24.18zm62.5 0l24.182 24.182-24.18 24.18-24.182-24.182zm62.504 0l24.18 24.184-24.18 24.18-24.182-24.182zm-625.014.002l24.18 24.18-24.182 24.182-24.18-24.18zm-187.51.002l24.184 24.18-24.182 24.182-24.182-24.182zm62.504 0l24.18 24.18-24.18 24.18-24.18-24.18zm62.504 0l24.18 24.18-24.18 24.18-24.18-24.18zm750.016 0l24.18 24.18-24.18 24.18-24.18-24.18zm62.504 0l24.182 24.182-24.18 24.18-24.182-24.182zm62.502 0l24.182 24.18-24.182 24.182-24.18-24.18zm-718.768 31.246l24.18 24.18-24.182 24.182-24.18-24.18zm62.5 0l24.18 24.18-24.18 24.18-24.18-24.18zm125.004 0l24.18 24.182-24.18 24.18-24.18-24.182zm62.5 0l24.18 24.18-24.18 24.182-24.18-24.18zm125.004 0l24.18 24.18-24.18 24.18-24.18-24.18zm-437.51.002l24.18 24.18-24.182 24.182-24.18-24.18zm187.504 0l24.18 24.18-24.18 24.18-24.18-24.18zm187.504 0l24.18 24.18-24.18 24.18-24.18-24.18zm125.002 0l24.18 24.182-24.18 24.18-24.18-24.182zm62.502 0l24.182 24.182-24.18 24.18-24.182-24.182zm-750.018.002l24.18 24.18-24.182 24.182-24.18-24.18zm125.004 0L220.422 415l-24.18 24.18-24.18-24.18zm687.516 0L907.938 415l-24.18 24.18-24.18-24.18zm62.504 0l24.18 24.184-24.18 24.18L922.082 415zm-812.521.002l24.18 24.18-24.182 24.182-24.18-24.18zm875.024 0l24.18 24.18-24.18 24.18-24.18-24.18zm-656.268 31.244l24.18 24.18-24.182 24.182-24.18-24.18zm-62.502.002l24.18 24.18-24.182 24.182-24.18-24.18zm125.004 0l24.18 24.18-24.18 24.18-24.18-24.18zm62.5 0l24.182 24.182-24.18 24.18-24.182-24.182zm62.502 0l24.18 24.18-24.18 24.18-24.18-24.18zm62.502 0l24.18 24.18L602.5 470.43l-24.18-24.18zm62.5 0l24.18 24.18-24.18 24.18-24.18-24.18zm62.502 0l24.18 24.182-24.18 24.18-24.18-24.182zm-500.012.002l24.18 24.18-24.18 24.18-24.18-24.18zm562.512 0l24.184 24.18-24.18 24.18-24.184-24.18zm62.504 0l24.18 24.18-24.18 24.18-24.18-24.18zm62.504 0l24.18 24.184-24.18 24.18-24.182-24.182zm-750.021.002l24.18 24.18-24.182 24.182-24.18-24.18zm875.024 0l24.182 24.182-24.18 24.18-24.182-24.182zm-1000.029.002l24.18 24.18-24.18 24.18-24.18-24.18zm62.504 0l24.18 24.18-24.18 24.18-24.18-24.18zm875.023 0l24.18 24.18-24.18 24.18-24.18-24.18zm-656.268 31.244l24.18 24.18-24.182 24.182-24.18-24.181zm125.004 0l24.182 24.182-24.18 24.18-24.182-24.182zm187.504 0l24.18 24.18-24.182 24.181-24.18-24.18zm-375.01.002l24.18 24.18-24.18 24.18-24.18-24.181zm125.004 0l24.18 24.18-24.18 24.18-24.18-24.181zm125.004 0l24.18 24.179-24.18 24.18-24.18-24.18zm62.5 0l24.18 24.179-24.18 24.18-24.18-24.18zm125.004 0l24.18 24.18-24.18 24.18-24.18-24.181zm62.5 0l24.184 24.18-24.18 24.18-24.184-24.181zm62.504 0l24.18 24.18-24.18 24.18-24.18-24.181zm-625.018.002l24.18 24.18-24.182 24.182-24.18-24.18zm687.52 0l24.182 24.182-24.18 24.18-24.182-24.182zm-812.521.002l24.18 24.18-24.182 24.182-24.18-24.18zm62.5 0l24.18 24.18-24.18 24.18-24.18-24.18zm812.523 0l24.18 24.18-24.18 24.18-24.18-24.18zm62.5 0l24.184 24.18-24.18 24.18-24.184-24.18zm-718.769 31.246l24.18 24.18-24.18 24.18-24.18-24.18zm62.504 0l24.18 24.18-24.182 24.182-24.18-24.18zm62.5 0l24.184 24.18-24.182 24.182-24.182-24.182zm62.504 0l24.18 24.179-24.18 24.18-24.18-24.18zm62.5 0l24.18 24.179L540 532.93l-24.18-24.18zm62.5 0l24.18 24.179-24.18 24.18-24.18-24.18zm62.504 0l24.18 24.18-24.18 24.18-24.182-24.18zm62.5 0l24.182 24.182-24.18 24.18-24.182-24.182zm62.504 0l24.18 24.18-24.18 24.18-24.18-24.18zm-562.518.002l24.18 24.18-24.182 24.182-24.18-24.18zm-125.002.002l24.18 24.18-24.182 24.182-24.18-24.18zm62.5 0l24.18 24.18-24.18 24.18-24.18-24.18zm687.52 0l24.184 24.18-24.18 24.18-24.184-24.18zm62.504 0l24.18 24.18-24.18 24.18-24.18-24.18zm62.5 0l24.184 24.18-24.182 24.182-24.182-24.182zm62.504 0l24.18 24.182-24.18 24.18-24.18-24.182zm-1000.029.002l24.18 24.18-24.182 24.18-24.18-24.18zm343.76 31.244l24.182 24.182-24.182 24.182-24.182-24.182zm62.504 0l24.18 24.18-24.182 24.182-24.18-24.18zm62.5 0L532.93 540l-24.18 24.18L484.57 540zm62.5 0L595.43 540l-24.18 24.18L547.07 540zm62.502 0L657.934 540l-24.18 24.18L609.572 540zm62.502 0l24.182 24.182-24.182 24.182L672.074 540zm-437.514.002l24.18 24.18-24.182 24.182-24.18-24.18zm62.504 0l24.18 24.18-24.182 24.182-24.18-24.18zm437.512 0l24.18 24.18-24.18 24.18-24.18-24.18zm-625.018.002l24.18 24.18-24.182 24.182-24.18-24.18zm62.5 0l24.18 24.18-24.18 24.18-24.18-24.18zm625.02 0l24.184 24.18-24.18 24.18-24.184-24.18zm62.504 0l24.18 24.18-24.18 24.18-24.18-24.18zm62.5 0l24.182 24.182-24.18 24.18-24.182-24.182zm62.504 0l24.18 24.182-24.18 24.182-24.182-24.182zm-937.529.002l24.18 24.18-24.182 24.182-24.18-24.182zM477.5 547.072l24.18 24.18-24.182 24.182-24.18-24.18zm62.5 0l24.18 24.178L540 595.43l-24.18-24.18zm62.5 0l24.182 24.182-24.18 24.18-24.182-24.182zm62.504 0l24.18 24.184-24.18 24.18-24.18-24.184zm-312.51.002l24.182 24.182-24.18 24.18-24.184-24.18zm62.504 0l24.18 24.18-24.182 24.182-24.18-24.18zm312.508 0l24.18 24.18-24.182 24.182-24.18-24.18zm-562.518.002l24.18 24.18-24.182 24.182-24.18-24.18zm62.5 0l24.18 24.18-24.18 24.18-24.18-24.18zm62.504 0l24.18 24.18-24.18 24.18-24.18-24.18zm500.016 0l24.182 24.182-24.18 24.18-24.182-24.182zm62.504 0l24.18 24.18-24.18 24.18-24.18-24.18zm62.5 0l24.18 24.184-24.18 24.18-24.18-24.184zm-812.525.002l24.18 24.18-24.182 24.182-24.18-24.18zm875.027 0l24.182 24.182-24.18 24.18-24.182-24.182zm-937.529.002l24.18 24.18-24.18 24.18-24.182-24.18zm1000.031 0l24.182 24.18-24.182 24.18-24.18-24.18zM508.75 578.322l24.18 24.18-24.182 24.182-24.18-24.18zm62.5 0l24.182 24.182-24.18 24.18L547.07 602.5zm-125.002.002l24.18 24.18-24.182 24.182-24.18-24.18zm187.504 0l24.182 24.182-24.18 24.18-24.182-24.182zm-437.514.002l24.18 24.18-24.182 24.182-24.18-24.18zm62.504 0l24.18 24.18-24.182 24.182-24.18-24.18zm62.5 0l24.182 24.182-24.182 24.182-24.18-24.184zm62.504 0l24.18 24.18-24.18 24.18-24.18-24.18zm312.508 0l24.18 24.18-24.18 24.18-24.18-24.18zm62.504 0l24.182 24.182-24.182 24.182-24.18-24.184zm125.004 0l24.18 24.184-24.18 24.18-24.18-24.184zm-750.025.002l24.18 24.18-24.182 24.182-24.18-24.18zm687.524 0l24.18 24.18-24.18 24.18-24.18-24.18zm-750.025.002l24.18 24.18-24.18 24.18-24.18-24.18zm875.027 0l24.184 24.18-24.18 24.18-24.184-24.18zm62.504 0l24.18 24.18-24.18 24.18-24.18-24.18zM540 609.57l24.18 24.184-24.18 24.18-24.182-24.182zm-62.502.002l24.18 24.18-24.182 24.182-24.18-24.18zm125.004 0l24.182 24.182-24.18 24.18-24.182-24.182zm-312.51.002l24.18 24.184-24.18 24.18-24.182-24.182zm125.004 0l24.18 24.18-24.18 24.18-24.18-24.18zm250.008 0l24.18 24.18-24.18 24.18-24.18-24.18zm62.504 0l24.18 24.184-24.18 24.18-24.18-24.184zm-562.521.002l24.18 24.18-24.182 24.182-24.18-24.18zm187.508 0l24.18 24.18-24.182 24.182-24.18-24.18zm437.516 0l24.18 24.18-24.182 24.18-24.18-24.178zm62.5 0l24.182 24.182-24.18 24.18-24.182-24.182zm-812.525.002l24.18 24.18-24.184 24.184-24.18-24.18zm62.5 0l24.18 24.18-24.18 24.18-24.18-24.18zm125.004 0l24.18 24.18-24.18 24.18-24.18-24.18zm687.523 0l24.184 24.18-24.18 24.18-24.184-24.18zm62.504 0l24.18 24.18-24.18 24.18-24.18-24.18zm62.5 0l24.184 24.184-24.18 24.18-24.184-24.184zm-531.268 31.244l24.182 24.182-24.182 24.182-24.182-24.182zm-62.502.002l24.18 24.18-24.18 24.18-24.18-24.18zm125.004 0l24.184 24.18-24.182 24.182-24.182-24.182zm62.504 0l24.18 24.18-24.18 24.18-24.18-24.18zm-250.01.002l24.18 24.18-24.182 24.182-24.18-24.18zm312.512 0l24.182 24.182-24.18 24.18-24.182-24.182zm125.004 0l24.182 24.182-24.18 24.18-24.184-24.18zm-750.025.002l24.18 24.18-24.184 24.184-24.18-24.18zm62.5 0l24.18 24.18-24.18 24.18-24.18-24.18zm62.504 0l24.18 24.18-24.182 24.182-24.18-24.18zm62.5 0l24.184 24.18-24.182 24.182-24.182-24.182zm62.504 0l24.18 24.18-24.18 24.18-24.18-24.18zm437.516 0l24.18 24.18-24.18 24.18-24.18-24.18zm125.004 0l24.182 24.182-24.18 24.18-24.182-24.182zm62.504 0l24.18 24.18-24.18 24.18-24.18-24.18zm62.5 0l24.184 24.184-24.18 24.18-24.184-24.184zm-531.269 31.246l24.182 24.182-24.182 24.182-24.18-24.184zm62.504 0l24.182 24.182L540 720.438l-24.182-24.182zm62.504 0l24.18 24.18-24.182 24.182-24.18-24.18zm-187.51.002l24.18 24.18-24.182 24.182-24.18-24.18zm250.012 0l24.182 24.182-24.18 24.18-24.182-24.182zm-562.521.002l24.18 24.18-24.184 24.184-24.18-24.18zm125.004 0l24.182 24.182-24.182 24.182-24.182-24.182zm62.504 0l24.18 24.18-24.182 24.182-24.18-24.18zm62.5 0l24.18 24.18-24.18 24.18-24.18-24.18zm375.016 0l24.18 24.18-24.18 24.18-24.18-24.18zm62.5 0l24.184 24.18-24.18 24.18-24.184-24.18zm62.504 0l24.182 24.182-24.182 24.182-24.18-24.184zm125.004 0l24.184 24.184-24.18 24.18-24.184-24.184zm-812.529.002l24.18 24.18-24.182 24.182-24.18-24.18zm750.027 0l24.18 24.18-24.18 24.18-24.18-24.18zm-875.033.002l24.18 24.18-24.18 24.18-24.18-24.18zm1000.039 0l24.18 24.18-24.18 24.18-24.18-24.18zm-593.775 31.244l24.182 24.182-24.18 24.18-24.184-24.18zm62.504 0l24.182 24.182-24.18 24.18-24.184-24.18zm62.504 0l24.18 24.18-24.182 24.182-24.18-24.18zm-250.01.002l24.18 24.18-24.182 24.182-24.18-24.18zm62.5 0l24.18 24.18-24.18 24.18-24.18-24.18zm250.012 0l24.184 24.18-24.182 24.182-24.182-24.182zm62.504 0l24.18 24.18-24.18 24.18-24.18-24.18zm62.5 0l24.182 24.182-24.18 24.18-24.182-24.182zm62.504 0l24.18 24.184-24.18 24.18-24.18-24.184zm-625.025.002l24.182 24.182-24.18 24.18-24.184-24.18zm62.504 0l24.18 24.18-24.182 24.182-24.18-24.18zm625.024 0l24.18 24.18-24.182 24.182-24.18-24.18zm62.5 0l24.184 24.184-24.18 24.18-24.184-24.184zm-875.033.002l24.18 24.18-24.18 24.18-24.18-24.18zm62.504 0l24.18 24.18-24.18 24.18-24.18-24.18zm875.035 0l24.18 24.18-24.18 24.18-24.18-24.18zm-656.277 31.246l24.18 24.18-24.182 24.182-24.18-24.18zm62.5 0l24.184 24.18-24.182 24.182-24.182-24.182zm62.504 0l24.182 24.182-24.182 24.182-24.18-24.184zm62.504 0l24.18 24.18L540 782.938l-24.18-24.18zm62.504 0l24.182 24.182-24.182 24.182-24.182-24.182zm62.504 0l24.18 24.18-24.182 24.182-24.18-24.18zm62.5 0l24.182 24.182-24.18 24.18-24.182-24.182zm-437.518.002l24.18 24.18-24.182 24.182-24.18-24.18zm500.02 0l24.182 24.182-24.18 24.18-24.182-24.182zm125.004 0l24.184 24.184-24.182 24.182-24.184-24.184zm-875.033.002l24.18 24.18-24.182 24.182-24.18-24.18zm62.504 0l24.18 24.18-24.182 24.182-24.18-24.18zm62.5 0l24.184 24.18-24.184 24.184-24.18-24.184zm62.504 0l24.18 24.18-24.18 24.18-24.18-24.18zm625.023 0l24.18 24.18-24.18 24.18-24.18-24.18zm187.508 0l24.18 24.184-24.18 24.18-24.18-24.184zm-62.502.002l24.18 24.18-24.18 24.18-24.18-24.18zm-593.775 31.244l24.18 24.184-24.18 24.18-24.182-24.182zm62.504 0l24.18 24.184-24.18 24.18-24.182-24.182zm250.012 0l24.18 24.184-24.18 24.18-24.182-24.182zm-375.018.002l24.18 24.18-24.182 24.182-24.18-24.18zm187.508 0l24.18 24.18-24.182 24.182-24.18-24.18zm62.504 0l24.182 24.182-24.18 24.18-24.184-24.18zm62.504 0l24.18 24.18-24.182 24.182-24.18-24.18zm125.004 0l24.182 24.182-24.18 24.18-24.182-24.182zm-625.025.002l24.18 24.184-24.18 24.18-24.182-24.182zm62.504 0l24.18 24.18-24.184 24.184-24.18-24.18zm62.5 0l24.18 24.18-24.18 24.18-24.18-24.18zm562.523 0l24.18 24.18-24.18 24.18-24.18-24.18zm62.5 0l24.184 24.184-24.18 24.18-24.184-24.184zm-812.529.002l24.18 24.18-24.182 24.182-24.18-24.18zm875.035 0l24.18 24.18-24.182 24.182-24.18-24.18zm62.5 0l24.182 24.182-24.18 24.18-24.182-24.182zM352.49 797.081l24.182 24.182-24.182 24.182-24.182-24.182zm312.516 0l24.182 24.182-24.182 24.182-24.182-24.182zm-437.518.002l24.18 24.18-24.184 24.184-24.18-24.18zm62.5 0l24.18 24.18-24.18 24.18-24.18-24.18zm125.004 0l24.184 24.18-24.182 24.182-24.182-24.182zm62.504 0l24.18 24.18-24.18 24.18-24.18-24.18zm62.504 0l24.182 24.182L540 845.446l-24.18-24.184zm62.504 0l24.18 24.18-24.18 24.18-24.18-24.18zm125.004 0l24.184 24.18-24.182 24.182-24.182-24.182zm62.504 0l24.18 24.18-24.18 24.18-24.18-24.18zm62.5 0l24.184 24.184-24.18 24.18-24.184-24.184zm-750.029.002l24.182 24.182-24.182 24.182-24.182-24.182zm875.035 0l24.182 24.182-24.18 24.18-24.184-24.18zm-937.537.002l24.18 24.18-24.18 24.18-24.18-24.18zm125.004 0l24.18 24.18-24.18 24.18-24.18-24.18zm750.031 0l24.18 24.18-24.18 24.18-24.18-24.18zm125.004 0l24.182 24.182-24.18 24.18-24.182-24.182zm-781.281 31.246l24.18 24.18-24.184 24.184-24.18-24.18zm62.5 0l24.182 24.182-24.182 24.182-24.18-24.184zm62.504 0l24.182 24.182-24.182 24.182-24.182-24.182zm62.504 0l24.18 24.18-24.182 24.182-24.18-24.18zm62.504 0l24.18 24.184-24.18 24.18-24.182-24.182zm125.004 0l24.182 24.182-24.182 24.182-24.18-24.184zm62.504 0l24.182 24.182-24.182 24.182-24.182-24.182zm62.504 0l24.18 24.18-24.182 24.182-24.18-24.18zm62.5 0l24.184 24.184-24.18 24.18-24.184-24.184zm-250.01.002l24.18 24.18-24.182 24.182-24.18-24.18zm-500.021.002l24.182 24.182L71.231 876.7l-24.18-24.184zm62.504 0l24.18 24.18-24.182 24.182-24.18-24.18zm62.5 0l24.18 24.18-24.18 24.18-24.18-24.18zm687.531 0l24.18 24.18-24.18 24.18-24.18-24.18zm62.5 0l24.184 24.18-24.18 24.18-24.184-24.18zm62.504 0l24.182 24.182-24.182 24.182-24.18-24.184zm-718.781 31.246l24.18 24.184-24.18 24.18-24.184-24.18zm500.023 0l24.184 24.184-24.182 24.182-24.184-24.184zm-437.521.002l24.182 24.182-24.18 24.18-24.184-24.18zm62.504 0l24.18 24.18-24.182 24.182-24.18-24.18zm187.508 0l24.182 24.182-24.18 24.18-24.184-24.18zm62.504 0l24.182 24.182-24.18 24.18-24.184-24.18zm62.504 0l24.18 24.18-24.182 24.182-24.18-24.18zm-562.525.002l24.18 24.18-24.182 24.182-24.18-24.18zm62.5 0l24.18 24.18-24.18 24.18-24.18-24.18zm250.012 0l24.184 24.18-24.182 24.182-24.182-24.182zm62.504 0l24.18 24.18-24.18 24.18-24.18-24.18zm312.516 0l24.18 24.18-24.18 24.18-24.18-24.18zm62.5 0l24.182 24.182-24.18 24.18-24.182-24.182zm62.504 0l24.18 24.184-24.18 24.18-24.18-24.184zm-937.541.002l24.182 24.182-24.18 24.18-24.184-24.18zm62.504 0l24.18 24.18-24.182 24.182-24.18-24.18zm937.539 0l24.18 24.18-24.182 24.182-24.18-24.18zM758.76 890.835l24.184 24.184-24.182 24.182-24.184-24.184zm-562.525.002l24.18 24.18-24.182 24.182-24.18-24.18zm62.5 0l24.184 24.18-24.182 24.182-24.182-24.182zm62.504 0l24.184 24.18-24.184 24.184-24.18-24.184zm62.504 0l24.18 24.18-24.18 24.18-24.18-24.18zm62.504 0l24.182 24.182-24.182 24.182-24.182-24.182zm62.504 0l24.18 24.18-24.182 24.182-24.18-24.18zm62.5 0l24.184 24.18-24.182 24.182-24.182-24.182zm62.504 0l24.182 24.182-24.182 24.182-24.18-24.184zm62.504 0l24.18 24.18-24.18 24.18-24.18-24.18zm125.008 0l24.18 24.18-24.182 24.182-24.18-24.18zm62.5 0l24.182 24.182-24.18 24.18-24.182-24.182zm-750.033.002l24.18 24.18-24.182 24.182-24.18-24.18zm812.535 0l24.182 24.182-24.18 24.18-24.182-24.182zm-875.037.002l24.18 24.18-24.18 24.18-24.18-24.18zm937.539 0l24.18 24.18-24.18 24.18-24.18-24.18zm-781.285 31.246l24.182 24.182-24.182 24.182-24.182-24.182zm62.504 0l24.18 24.184-24.18 24.18-24.182-24.182zm62.504 0l24.18 24.18-24.184 24.184-24.18-24.18zm187.508 0l24.18 24.184-24.18 24.18-24.182-24.182zm62.504 0l24.18 24.184-24.18 24.18-24.182-24.182zm125.004 0l24.184 24.184-24.18 24.18-24.184-24.184zm125.008 0l24.18 24.184-24.18 24.18-24.182-24.182zm-687.533.002l24.18 24.18-24.182 24.182-24.18-24.18zm250.012 0l24.182 24.182-24.18 24.18-24.184-24.18zm62.504 0l24.18 24.18-24.182 24.182-24.18-24.18zm187.508 0l24.18 24.18-24.182 24.182-24.18-24.18zm125.008 0l24.18 24.18-24.182 24.182-24.18-24.18zm125.004 0l24.182 24.182-24.18 24.18-24.182-24.182zm-875.037.002l24.18 24.18-24.182 24.182-24.18-24.18zm62.5 0l24.18 24.18-24.18 24.18-24.18-24.18zm875.039 0l24.18 24.18-24.18 24.18-24.18-24.18zm62.5 0l24.184 24.18-24.18 24.18-24.184-24.18zm-843.787 31.248l24.182 24.182-24.18 24.18-24.184-24.18zm62.504 0l24.182 24.182-24.182 24.182-24.182-24.182zm250.012 0l24.182 24.182-24.182 24.182-24.182-24.182zm187.508 0l24.184 24.184-24.182 24.182-24.184-24.184zm125.008 0l24.182 24.182-24.182 24.182-24.182-24.182zm-750.033.002l24.18 24.18-24.182 24.182-24.18-24.18zm62.5 0l24.18 24.18-24.18 24.18-24.18-24.18zm187.508 0l24.18 24.18-24.18 24.18-24.18-24.18zm62.504 0l24.184 24.18-24.184 24.184-24.18-24.184zm62.504 0l24.18 24.18-24.18 24.18-24.18-24.18zm125.004 0l24.184 24.18-24.182 24.182-24.182-24.182zm62.504 0l24.18 24.18-24.18 24.18-24.18-24.18zm125.008 0l24.18 24.18-24.18 24.18-24.18-24.18zm125.004 0l24.184 24.18-24.182 24.182-24.182-24.182zm62.504 0l24.18 24.18-24.18 24.18-24.18-24.18zm62.5 0l24.182 24.182-24.18 24.18-24.182-24.182zm-906.289 31.25l24.18 24.18-24.182 24.182-24.18-24.18zm62.5 0l24.182 24.182-24.182 24.182-24.18-24.184zm62.504 0l24.182 24.182-24.182 24.182-24.18-24.184zm62.504 0l24.18 24.18-24.182 24.182-24.18-24.18zm62.504 0l24.18 24.184-24.18 24.18-24.182-24.182zm62.504 0l24.18 24.18-24.184 24.184-24.18-24.18zm62.5 0l24.182 24.182-24.182 24.182-24.18-24.184zm62.504 0l24.182 24.182L540 1032.955l-24.182-24.182zm62.504 0l24.18 24.18-24.182 24.182-24.18-24.18zm62.5 0l24.184 24.184-24.18 24.18-24.184-24.184zm125.008 0l24.182 24.182-24.182 24.182-24.18-24.184zm62.504 0l24.182 24.182-24.182 24.182-24.182-24.182zm62.504 0l24.18 24.18-24.182 24.182-24.18-24.18zm62.5 0l24.182 24.182-24.18 24.18-24.182-24.182zm-250.01.002l24.18 24.18-24.182 24.182-24.18-24.18zm-687.533.002l24.18 24.18-24.18 24.18-24.18-24.18zm1000.047 0l24.18 24.18-24.18 24.18-24.18-24.18zm-906.293 31.246l24.18 24.184-24.18 24.18-24.182-24.182zm312.516 0l24.18 24.184-24.18 24.18-24.184-24.18zm187.508 0l24.184 24.184-24.182 24.182-24.184-24.184zm312.516 0l24.18 24.184-24.18 24.18-24.182-24.182zm-750.037 0l24.182 24.182-24.18 24.18-24.184-24.18zm62.504 0l24.18 24.18-24.182 24.182-24.18-24.18zm62.504 0l24.182 24.182-24.182 24.182-24.182-24.182zm187.508 0l24.182 24.182-24.18 24.18-24.184-24.18zm62.504 0l24.18 24.18-24.182 24.182-24.18-24.18zm187.508 0l24.182 24.182-24.18 24.18-24.184-24.18zm62.504 0l24.182 24.182-24.18 24.18-24.184-24.18zm62.504 0l24.18 24.18-24.182 24.182-24.18-24.18zm-812.541 0l24.18 24.18-24.18 24.18-24.18-24.18zm312.516 0l24.18 24.18-24.18 24.18-24.18-24.18zm312.516 0l24.18 24.18-24.18 24.18-24.18-24.18zm312.516 0l24.18 24.18-24.18 24.18-24.18-24.18zm-406.271 31.248l24.183 24.184-24.182 24.182-24.184-24.184zm312.516 0l24.182 24.182-24.182 24.182-24.182-24.182zm-875.041 0l24.18 24.18-24.182 24.182-24.18-24.18zm62.5 0l24.184 24.18-24.182 24.182-24.182-24.182zm62.504 0l24.184 24.18-24.182 24.182-24.182-24.182zm62.504 0l24.18 24.18-24.18 24.18-24.18-24.18zm62.504 0l24.182 24.182-24.182 24.182-24.18-24.184zm62.504 0l24.18 24.18-24.182 24.182-24.18-24.18zm62.5 0l24.184 24.18-24.182 24.182-24.182-24.182zm62.504 0l24.184 24.18-24.184 24.184-24.18-24.184zm62.504 0l24.18 24.18-24.18 24.18-24.18-24.18zm125.008 0l24.18 24.18-24.182 24.182-24.18-24.18zm62.5 0l24.184 24.18-24.182 24.182-24.182-24.182zm62.504 0l24.182 24.182-24.182 24.182-24.18-24.184zm62.504 0l24.18 24.18-24.18 24.18-24.18-24.18zm125.008 0l24.18 24.18-24.182 24.182-24.18-24.18zm62.5 0l24.182 24.182-24.18 24.18-24.182-24.182zm-968.797 31.25l24.182 24.182-24.182 24.182-24.182-24.182zm62.504 0l24.18 24.184-24.18 24.18-24.182-24.182zm62.504 0l24.18 24.18-24.182 24.182-24.18-24.18zm187.508 0l24.182 24.182-24.182 24.182-24.182-24.182zm62.504 0l24.18 24.184-24.18 24.18-24.182-24.182zm62.504 0l24.18 24.18-24.184 24.184-24.18-24.18zm62.5 0l24.184 24.184-24.18 24.18-24.184-24.184zm125.008 0l24.18 24.184-24.18 24.18-24.182-24.182zm62.504 0l24.18 24.184-24.18 24.18-24.182-24.182zm125.004 0l24.182 24.182-24.182 24.182-24.18-24.184zm125.008 0l24.18 24.184-24.18 24.18-24.182-24.182zm-750.037 0l24.182 24.182-24.18 24.18-24.184-24.18zm62.504 0l24.18 24.18-24.182 24.182-24.18-24.18zm312.516 0l24.18 24.18-24.182 24.182-24.18-24.18zm187.508 0l24.18 24.18-24.182 24.182-24.18-24.18zm125.008 0l24.18 24.18-24.182 24.182-24.18-24.18zM540 1109.594l24.184 24.183L540 1157.961l-24.184-24.184zm-500.025 0l24.182 24.182-24.18 24.18-24.182-24.18zm62.504 0l24.182 24.182-24.182 24.182-24.182-24.182zm250.012 0l24.182 24.182-24.18 24.18-24.184-24.18zm62.504 0l24.182 24.182-24.182 24.182-24.182-24.182zm250.012 0l24.182 24.182-24.182 24.182-24.182-24.182zm187.508 0l24.182 24.182-24.18 24.18-24.184-24.18zm125.008 0l24.182 24.182-24.182 24.182-24.182-24.182zm-812.541 0l24.18 24.18-24.18 24.18-24.18-24.18zm62.504 0l24.184 24.18-24.182 24.182-24.182-24.182zm62.504 0l24.18 24.18-24.18 24.18-24.18-24.18zm187.508 0l24.18 24.18-24.18 24.18-24.18-24.18zm125.008 0l24.18 24.18-24.18 24.18-24.18-24.18zm125.004 0l24.184 24.18-24.182 24.182-24.182-24.182zm62.504 0l24.18 24.18-24.18 24.18-24.18-24.18zm125.008 0l24.18 24.18-24.18 24.18-24.18-24.18zm125.004 0l24.182 24.18-24.18 24.182-24.182-24.182zm-968.797 31.25l24.182 24.182-24.182 24.182-24.18-24.184zm62.504 0l24.18 24.18-24.182 24.182-24.18-24.18zm62.504 0l24.18 24.184-24.18 24.18-24.182-24.182zm62.504 0l24.18 24.18-24.182 24.182-24.18-24.18zm62.5 0l24.182 24.182-24.182 24.182-24.18-24.184zm62.504 0l24.182 24.182-24.182 24.182-24.18-24.184zm62.504 0l24.18 24.18-24.182 24.182-24.18-24.18zm62.5 0l24.184 24.184-24.18 24.18-24.184-24.184zm62.508 0l24.18 24.18-24.184 24.184-24.18-24.18zm62.5 0l24.182 24.182-24.182 24.182-24.18-24.184zm62.504 0l24.182 24.182-24.182 24.182-24.182-24.182zm62.504 0l24.18 24.18-24.182 24.182-24.18-24.18zm62.5 0l24.184 24.18-24.182 24.182-24.182-24.182zm125.008 0l24.182 24.182-24.182 24.182-24.18-24.184zm62.504 0l24.182 24.182-24.182 24.182-24.182-24.182zm-125.006 0l24.18 24.18-24.182 24.182-24.18-24.18zm-593.779 31.248l24.18 24.184-24.18 24.18-24.182-24.182zm187.508 0l24.184 24.184-24.182 24.182-24.183-24.184zm125.008 0l24.18 24.184-24.18 24.18-24.184-24.18zm187.508 0l24.18 24.184-24.18 24.18-24.182-24.182zm-750.037 0l24.182 24.182-24.18 24.18-24.184-24.18zm62.504 0l24.18 24.18-24.182 24.182-24.18-24.18zm62.504 0l24.182 24.182-24.182 24.182-24.182-24.182zm187.508 0l24.182 24.182-24.18 24.18-24.184-24.18zm62.504 0l24.18 24.18-24.182 24.182-24.18-24.18zm250.012 0l24.182 24.182-24.18 24.18-24.184-24.18zm62.504 0l24.18 24.18-24.182 24.182-24.18-24.18zm187.508 0l24.182 24.182-24.18 24.18-24.184-24.18zm62.504 0l24.182 24.182-24.182 24.18-24.182-24.18zm62.504 0l24.18 24.18-24.182 24.182-24.18-24.18zm-812.541 0l24.18 24.18-24.18 24.18-24.18-24.18zm312.516 0l24.18 24.18-24.18 24.18-24.18-24.18zm312.516 0l24.18 24.18-24.18 24.18-24.18-24.18zm-406.271 31.248l24.184 24.184-24.182 24.182-24.184-24.184zm312.516 0l24.182 24.182-24.182 24.182-24.182-24.182zm-687.533 0l24.18 24.18-24.18 24.18-24.18-24.18zm62.504 0l24.182 24.182-24.182 24.182-24.18-24.184zm62.504 0l24.18 24.18-24.182 24.182-24.18-24.18zm62.5 0l24.184 24.18-24.182 24.182-24.182-24.182zm62.504 0l24.184 24.18-24.182 24.182-24.182-24.182zm62.504 0l24.18 24.18-24.18 24.18-24.18-24.18zm125.008 0l24.18 24.18-24.182 24.182-24.18-24.18zm62.5 0l24.184 24.18-24.182 24.182-24.182-24.182zm62.504 0l24.184 24.18-24.184 24.184-24.18-24.184zm62.504 0l24.18 24.18-24.18 24.18-24.18-24.18zm125.008 0l24.18 24.18-24.182 24.182-24.18-24.18zm62.5 0l24.184 24.18-24.182 24.182-24.182-24.182zm62.504 0l24.182 24.18-24.182 24.182-24.18-24.182zm62.504 0l24.18 24.18-24.18 24.182-24.182-24.182zm-968.797 31.25l24.18 24.18-24.182 24.182-24.18-24.18zm187.508 0l24.182 24.182-24.182 24.182-24.182-24.182zm62.504 0l24.18 24.184-24.18 24.18-24.182-24.182zm62.504 0l24.18 24.18-24.182 24.182-24.18-24.18zm62.5 0l24.184 24.184-24.18 24.18-24.184-24.184zm125.008 0l24.182 24.182L540 1282.953l-24.182-24.182zm62.504 0l24.18 24.184-24.18 24.18-24.182-24.182zm62.504 0l24.18 24.18-24.184 24.184-24.18-24.18zm62.5 0l24.182 24.182-24.182 24.182-24.18-24.184zm125.008 0l24.18 24.184-24.18 24.18-24.182-24.182zm62.504 0l24.18 24.182-24.182 24.18-24.18-24.18zm62.502 0l24.182 24.182-24.182 24.182-24.182-24.182zm62.502 0l24.182 24.182-24.182 24.182-24.18-24.182zm-937.545 0l24.182 24.182-24.18 24.18-24.184-24.18zm62.504 0l24.18 24.18-24.182 24.182-24.18-24.18zm312.516 0l24.18 24.18-24.182 24.182-24.18-24.18zm312.516 0l24.18 24.18-24.182 24.182-24.18-24.18zm-406.271 31.248l24.184 24.184-24.182 24.182-24.184-24.184zm312.516 0l24.18 24.184-24.18 24.18-24.184-24.18zm-500.025 0l24.182 24.182-24.18 24.18-24.184-24.18zm62.504 0l24.182 24.182-24.182 24.182-24.182-24.182zm250.012 0l24.182 24.182-24.18 24.18-24.184-24.18zm62.504 0l24.182 24.182-24.182 24.182-24.182-24.182zm250.012 0l24.182 24.182-24.182 24.182-24.182-24.182zm125.006 0l24.182 24.182-24.18 24.182-24.184-24.184zm62.504 0l24.18 24.182-24.18 24.18-24.182-24.18zm-937.547 0l24.184 24.18-24.182 24.182-24.182-24.182zm62.504 0l24.18 24.18-24.18 24.18-24.18-24.18zm187.508 0l24.18 24.18-24.18 24.18-24.18-24.18zm125.008 0l24.18 24.18-24.18 24.18-24.18-24.18zm187.508 0l24.18 24.18-24.18 24.18-24.18-24.18zm125.008 0l24.18 24.18-24.18 24.18-24.18-24.18zm125.004 0l24.182 24.18-24.182 24.18-24.18-24.18zm-843.789 31.25l24.18 24.184-24.18 24.18-24.182-24.182zm62.504 0l24.18 24.18-24.182 24.182-24.18-24.18zm62.5 0l24.182 24.182-24.182 24.182-24.18-24.184zm62.504 0l24.182 24.182-24.182 24.182-24.18-24.184zm62.504 0l24.18 24.18-24.182 24.182-24.18-24.18zm62.5 0l24.184 24.184-24.18 24.18-24.184-24.184zm62.508 0l24.18 24.18-24.182 24.182-24.18-24.18zm62.5 0l24.182 24.182-24.182 24.182-24.18-24.184zm62.504 0l24.182 24.182L540 1345.451l-24.18-24.184zm62.504 0l24.18 24.18-24.182 24.182-24.18-24.18zm62.5 0l24.184 24.18-24.182 24.182-24.182-24.182zm62.508 0l24.18 24.18-24.184 24.184-24.18-24.18zm62.5 0l24.182 24.182-24.182 24.182-24.18-24.184zm62.504 0l24.18 24.18-24.18 24.182-24.182-24.18zm62.502 0l24.182 24.182-24.18 24.182-24.184-24.184zm62.504 0l24.182 24.18-24.182 24.182-24.18-24.18zm62.504 0l24.18 24.182-24.182 24.182-24.18-24.182z"/></svg>
