<svg xmlns="http://www.w3.org/2000/svg" width="1080" height="1350"><path fill="#000" d="M46.297 0v36.479H0v7.225h46.297v81.883H0v7.225h46.297v81.883H0v7.225h46.297v81.883H0v7.225h46.297v81.883H0v7.225h46.297v81.883H0v7.225h46.297v81.883H0v7.225h46.297v81.883H0v7.225h46.297v81.883H0v7.225h46.297v81.883H0v7.225h46.297v81.883H0v7.225h46.297v81.883H0v7.225h46.297v81.883H0v7.226h46.297v81.881H0v7.227h46.297v81.883H0v7.225h46.297V1350h7.225v-58.791h81.883V1350h7.225v-58.791h81.883V1350h7.225v-58.791h81.883V1350h7.225v-58.791h81.883V1350h7.224v-58.791h81.883V1350h7.225v-58.791h81.883V1350h7.225v-58.791h81.883V1350h7.225v-58.791h81.883V1350h7.225v-58.791h81.883V1350h7.225v-58.791h81.883V1350h7.225v-58.791h81.883V1350h7.225v-58.791H1080v-7.225h-46.297v-81.883H1080v-7.227h-46.297v-81.881H1080v-7.226h-46.297v-81.883H1080v-7.225h-46.297v-81.883H1080v-7.225h-46.297V845.67H1080v-7.225h-46.297v-81.883H1080v-7.225h-46.297v-81.883H1080v-7.225h-46.297v-81.883H1080v-7.225h-46.297V489.24H1080v-7.225h-46.297v-81.883H1080v-7.225h-46.297v-81.883H1080v-7.225h-46.297v-81.883H1080v-7.225h-46.297v-81.883H1080v-7.225h-46.297V43.703H1080v-7.225h-46.297V0h-7.225v36.479h-81.883V0h-7.225v36.479h-81.883V0h-7.225v36.479h-81.883V0h-7.225v36.479h-81.883V0h-7.225v36.479h-81.883V0h-7.225v36.479h-81.883V0h-7.225v36.479h-81.883V0h-7.224v36.479h-81.883V0h-7.225v36.479h-81.883V0h-7.225v36.479h-81.883V0h-7.225v36.479H53.522V0zm7.225 43.703h81.883v81.883H53.522zm89.107 0h81.883v81.883h-81.883zm89.107 0h81.883v81.883h-81.883zm89.108 0h81.883v81.883h-81.883zm89.107 0h81.883v81.883h-81.883zm89.108 0h81.883v81.883h-81.883zm89.108 0h81.883v81.883h-81.883zm89.107 0h81.883v81.883h-81.883zm89.107 0h81.883v81.883h-81.883zm89.107 0h81.883v81.883h-81.883zm89.107 0h81.883v81.883h-81.883zM53.522 132.811h81.883v81.883H53.522zm89.107 0h81.883v81.883h-81.883zm89.107 0h81.883v81.883h-81.883zm89.108 0h81.883v81.883h-81.883zm89.107 0h81.883v81.883h-81.883zm89.108 0h81.883v81.883h-81.883zm89.108 0h81.883v81.883h-81.883zm89.107 0h81.883v81.883h-81.883zm89.107 0h81.883v81.883h-81.883zm89.107 0h81.883v81.883h-81.883zm89.107 0h81.883v81.883h-81.883zM53.522 221.918h81.883v81.883H53.522zm89.107 0h81.883v81.883h-81.883zm89.107 0h81.883v81.883h-81.883zm89.108 0h81.883v81.883h-81.883zm89.107 0h81.883v81.883h-81.883zm89.108 0h81.883v81.883h-81.883zm89.108 0h81.883v81.883h-81.883zm89.107 0h81.883v81.883h-81.883zm89.107 0h81.883v81.883h-81.883zm89.107 0h81.883v81.883h-81.883zm89.107 0h81.883v81.883h-81.883zM53.522 311.025h81.883v81.883H53.522zm89.107 0h81.883v81.883h-81.883zm89.107 0h81.883v81.883h-81.883zm89.108 0h81.883v81.883h-81.883zm89.107 0h81.883v81.883h-81.883zm89.108 0h81.883v81.883h-81.883zm89.108 0h81.883v81.883h-81.883zm89.107 0h81.883v81.883h-81.883zm89.107 0h81.883v81.883h-81.883zm89.107 0h81.883v81.883h-81.883zm89.107 0h81.883v81.883h-81.883zM53.522 400.133h81.883v81.883H53.522zm89.107 0h81.883v81.883h-81.883zm89.107 0h81.883v81.883h-81.883zm89.108 0h81.883v81.883h-81.883zm89.107 0h81.883v81.883h-81.883zm89.108 0h81.883v81.883h-81.883zm89.108 0h81.883v81.883h-81.883zm89.107 0h81.883v81.883h-81.883zm89.107 0h81.883v81.883h-81.883zm89.107 0h81.883v81.883h-81.883zm89.107 0h81.883v81.883h-81.883zM53.522 489.24h81.883v81.883H53.522zm89.107 0h81.883v81.883h-81.883zm89.107 0h81.883v81.883h-81.883zm89.108 0h81.883v81.883h-81.883zm89.107 0h81.883v81.883h-81.883zm89.108 0h81.883v81.883h-81.883zm89.108 0h81.883v81.883h-81.883zm89.107 0h81.883v81.883h-81.883zm89.107 0h81.883v81.883h-81.883zm89.107 0h81.883v81.883h-81.883zm89.107 0h81.883v81.883h-81.883zM53.522 578.348h81.883v81.883H53.522zm89.107 0h81.883v81.883h-81.883zm89.107 0h81.883v81.883h-81.883zm89.108 0h81.883v81.883h-81.883zm89.107 0h81.883v81.883h-81.883zm89.108 0h81.883v81.883h-81.883zm89.108 0h81.883v81.883h-81.883zm89.107 0h81.883v81.883h-81.883zm89.107 0h81.883v81.883h-81.883zm89.107 0h81.883v81.883h-81.883zm89.107 0h81.883v81.883h-81.883zM53.522 667.455h81.883v81.883H53.522zm89.107 0h81.883v81.883h-81.883zm89.107 0h81.883v81.883h-81.883zm89.108 0h81.883v81.883h-81.883zm89.107 0h81.883v81.883h-81.883zm89.108 0h81.883v81.883h-81.883zm89.108 0h81.883v81.883h-81.883zm89.107 0h81.883v81.883h-81.883zm89.107 0h81.883v81.883h-81.883zm89.107 0h81.883v81.883h-81.883zm89.107 0h81.883v81.883h-81.883zM53.522 756.563h81.883v81.883H53.522zm89.107 0h81.883v81.883h-81.883zm89.107 0h81.883v81.883h-81.883zm89.108 0h81.883v81.883h-81.883zm89.107 0h81.883v81.883h-81.883zm89.108 0h81.883v81.883h-81.883zm89.108 0h81.883v81.883h-81.883zm89.107 0h81.883v81.883h-81.883zm89.107 0h81.883v81.883h-81.883zm89.107 0h81.883v81.883h-81.883zm89.107 0h81.883v81.883h-81.883zM53.522 845.67h81.883v81.883H53.522zm89.107 0h81.883v81.883h-81.883zm89.107 0h81.883v81.883h-81.883zm89.108 0h81.883v81.883h-81.883zm89.107 0h81.883v81.883h-81.883zm89.108 0h81.883v81.883h-81.883zm89.108 0h81.883v81.883h-81.883zm89.107 0h81.883v81.883h-81.883zm89.107 0h81.883v81.883h-81.883zm89.107 0h81.883v81.883h-81.883zm89.107 0h81.883v81.883h-81.883zM53.522 934.777h81.883v81.883H53.522zm89.107 0h81.883v81.883h-81.883zm89.107 0h81.883v81.883h-81.883zm89.108 0h81.883v81.883h-81.883zm89.107 0h81.883v81.883h-81.883zm89.108 0h81.883v81.883h-81.883zm89.108 0h81.883v81.883h-81.883zm89.107 0h81.883v81.883h-81.883zm89.107 0h81.883v81.883h-81.883zm89.107 0h81.883v81.883h-81.883zm89.107 0h81.883v81.883h-81.883zm-891.074 89.107h81.883v81.883H53.522zm89.107 0h81.883v81.883h-81.883zm89.107 0h81.883v81.883h-81.883zm89.108 0h81.883v81.883h-81.883zm89.107 0h81.883v81.883h-81.883zm89.108 0h81.883v81.883h-81.883zm89.108 0h81.883v81.883h-81.883zm89.107 0h81.883v81.883h-81.883zm89.107 0h81.883v81.883h-81.883zm89.107 0h81.883v81.883h-81.883zm89.107 0h81.883v81.883h-81.883zm-891.074 89.109h81.883v81.881H53.522zm89.107 0h81.883v81.881h-81.883zm89.107 0h81.883v81.881h-81.883zm89.108 0h81.883v81.881h-81.883zm89.107 0h81.883v81.881h-81.883zm89.108 0h81.883v81.881h-81.883zm89.107 0h81.883v81.881h-81.883zm89.107 0h81.883v81.881h-81.883zm89.107 0h81.883v81.881h-81.883zm89.107 0h81.883v81.881h-81.883zm89.107 0h81.883v81.881h-81.883zm-891.074 89.108h81.883v81.883H53.522zm89.107 0h81.883v81.883h-81.883zm89.107 0h81.883v81.883h-81.883zm89.108 0h81.883v81.883h-81.883zm89.107 0h81.883v81.883h-81.883zm89.108 0h81.883v81.883h-81.883zm89.107 0h81.883v81.883h-81.883zm89.107 0h81.883v81.883h-81.883zm89.107 0h81.883v81.883h-81.883zm89.107 0h81.883v81.883h-81.883zm89.107 0h81.883v81.883h-81.883z"/></svg>
