<svg xmlns="http://www.w3.org/2000/svg" width="1080" height="1350"><path fill="#000" d="M28.514 0l.014.047L3.86 80.73 0 68.107v59.451l3.859-12.623 24.67 80.689-24.668 80.688L0 263.684v59.449L3.86 310.51l24.67 80.689-24.668 80.688L0 459.258v59.449l3.859-12.623 24.67 80.689-24.668 80.688L0 654.832v59.459l3.861-12.629 24.668 80.686-24.668 80.686L0 850.404v59.461l3.861-12.629 24.668 80.688-24.668 80.686L0 1045.98v59.451l3.861-12.629 24.668 80.686-24.67 80.686L0 1241.551v59.461l3.859-12.623L22.698 1350h10.461L9.09 1271.272l24.668-80.686 24.668 80.684L34.354 1350h10.463l18.838-61.615L82.493 1350h10.459l-24.068-78.727 24.668-80.687 24.668 80.686L94.151 1350h10.459l18.838-61.615L142.286 1350h10.459l-24.068-78.727 24.668-80.687 24.668 80.686L153.943 1350h10.459l18.838-61.615L202.078 1350h10.459l-24.068-78.727 24.668-80.687 24.668 80.689L213.736 1350h10.459l18.838-61.615L261.871 1350h10.459l-24.068-78.727 24.668-80.687 24.668 80.689L273.529 1350h10.459l18.838-61.615L321.664 1350h10.461l-24.07-78.728 24.668-80.686 24.668 80.686L333.32 1350h10.461l18.838-61.615L381.457 1350h10.459l-24.068-78.728 24.668-80.686 24.668 80.686L393.115 1350h10.459l18.838-61.615L441.25 1350h10.461l-24.07-78.731 24.668-80.684 24.668 80.686-24.07 78.729h10.463l18.838-61.611L501.043 1350h10.463l-24.07-78.731 24.668-80.684 24.666 80.684L512.697 1350h10.465L542 1288.389 560.836 1350h10.461l-24.068-78.727 24.668-80.687 24.668 80.686L572.496 1350h10.459l18.838-61.615L620.631 1350h10.459l-24.068-78.727 24.668-80.687 24.668 80.686L632.289 1350h10.459l18.838-61.615L680.424 1350h10.459l-24.068-78.727 24.668-80.687 24.668 80.689L692.082 1350h10.459l18.838-61.615L740.217 1350h10.459l-24.068-78.727 24.668-80.687 24.668 80.689L751.875 1350h10.459l18.838-61.615L800.01 1350h10.461l-24.07-78.728 24.668-80.686 24.668 80.686-24.07 78.728h10.461l18.838-61.615L859.803 1350h10.459l-24.068-78.728 24.668-80.686 24.668 80.686L871.461 1350h10.459l18.838-61.615L919.596 1350h10.459l-24.068-78.728 24.668-80.686 24.668 80.686L931.254 1350h10.461l18.838-61.611L979.389 1350h10.463l-24.07-78.731 24.668-80.684 24.666 80.684L991.043 1350h10.465l18.838-61.611 18.836 61.611h10.463l-24.07-78.727 24.668-80.687 24.668 80.684-24.07 78.73h10.461l18.699-61.162v-35.117l-24.529-80.23 24.529-80.234v-35.1l-24.529-80.23L1080 897.691V862.58l-24.531-80.236L1080 702.105v-35.098l-24.531-80.238L1080 506.531v-35.1l-24.529-80.232L1080 310.967v-35.109l-24.531-80.236L1080 115.385V80.281L1055.471.047l.014-.047h-10.486l.014.047-24.668 80.684L995.678.047l.014-.047h-10.486l.014.047-24.668 80.684L935.884.045l.014-.045h-10.484l.014.047-24.668 80.686L876.091.047l.014-.047h-10.484l.014.047-24.668 80.686L816.299.047l.014-.047h-10.484l.014.047-24.668 80.686L756.507.047l.014-.047h-10.484l.014.047-24.668 80.686L696.714.047l.014-.047h-10.484l.014.047-24.668 80.686L636.922.047l.014-.047h-10.484l.014.047-24.668 80.686L577.13.047l.014-.047H566.66l.014.045-24.668 80.688L517.338.047l.014-.047h-10.486l.014.047-24.668 80.684L457.545.047l.014-.047h-10.486l.014.047-24.668 80.686L397.751.047l.014-.047h-10.484l.014.047-24.668 80.686L337.959.047l.014-.047h-10.484l.014.047-24.668 80.686L278.167.047l.014-.047h-10.484l.014.047-24.668 80.686L218.374.047l.014-.047h-10.484l.014.047-24.668 80.686L158.572.047l.014-.047h-10.484l.014.047-24.668 80.686L98.78.047 98.794 0H88.309l.014.047-24.668 80.686L38.987.047 39.001 0zm65.037 17.148l24.668 80.686-24.668 80.686-24.668-80.686zm59.793 0l24.668 80.686-24.668 80.686-24.668-80.686zm59.793 0l24.668 80.686-24.668 80.686-24.668-80.686zm59.793 0l24.668 80.686-24.668 80.686-24.668-80.686zm59.793 0l24.668 80.686-24.668 80.686-24.668-80.686zm59.793 0l24.668 80.686-24.668 80.686-24.668-80.686zm179.381 0l24.668 80.686-24.668 80.688-24.668-80.687zm59.793 0l24.668 80.686-24.668 80.686-24.668-80.686zm59.793 0l24.668 80.686-24.668 80.686-24.668-80.686zm59.793 0l24.668 80.686-24.668 80.686-24.668-80.686zm59.793 0l24.668 80.686-24.668 80.686L786.4 97.834zm59.793 0l24.668 80.686-24.668 80.686-24.668-80.686zm59.793 0l24.668 80.686-24.668 80.686-24.668-80.686zm-896.898.002l24.67 80.687-24.668 80.686-24.67-80.691zm418.553.002l24.668 80.682-24.668 80.686-24.668-80.684zm59.793 0l24.668 80.684-24.668 80.682-24.666-80.684zm478.346 0l24.668 80.682-24.668 80.684-24.666-80.684zm59.795 0l24.668 80.686-24.668 80.684-24.668-80.686zm-926.795 97.783l24.668 80.686-24.668 80.686-24.668-80.686zm59.793 0l24.668 80.686-24.668 80.686-24.668-80.686zm59.793 0l24.668 80.686-24.668 80.686-24.668-80.686zm59.793 0l24.668 80.686-24.668 80.686-24.668-80.686zm59.793 0l24.668 80.686-24.668 80.686-24.668-80.686zm239.174 0l24.668 80.686-24.668 80.687-24.668-80.686zm59.793 0l24.668 80.686-24.668 80.686-24.668-80.686zm59.793 0l24.668 80.686-24.668 80.686-24.668-80.686zm59.793 0l24.668 80.686-24.668 80.686-24.668-80.686zm59.793 0l24.668 80.686-24.668 80.686-24.668-80.686zm59.793 0l24.668 80.686-24.668 80.686-24.668-80.686zm-837.105.002l24.67 80.686-24.668 80.686-24.67-80.689zm358.76 0l24.668 80.684-24.668 80.686-24.668-80.684zm59.793 0l24.668 80.684-24.668 80.686-24.668-80.684zm478.346 0l24.668 80.684-24.668 80.686-24.668-80.684zM542 114.94l24.668 80.684L542 276.309l-24.668-80.684zm478.346 0l24.668 80.686-24.668 80.686-24.668-80.686zm-986.59 97.783l24.67 80.689L33.758 374.1l-24.67-80.691zm119.588 0l24.668 80.686-24.668 80.686-24.668-80.686zm59.793 0l24.668 80.686-24.668 80.686-24.668-80.686zm59.793 0l24.668 80.686-24.668 80.686-24.668-80.686zm59.793 0l24.668 80.686-24.668 80.686-24.668-80.686zm59.793 0l24.668 80.686-24.668 80.686-24.668-80.686zm59.793 0l24.668 80.686-24.668 80.686-24.668-80.686zm179.381 0l24.668 80.686-24.668 80.688-24.668-80.686zm59.793 0l24.668 80.686-24.668 80.686-24.668-80.686zm59.793 0l24.668 80.686-24.668 80.686-24.668-80.686zm59.793 0l24.668 80.686-24.668 80.686-24.668-80.686zm59.793 0l24.668 80.686-24.668 80.686-24.668-80.686zm59.793 0l24.668 80.686-24.668 80.686-24.668-80.686zm119.586 0l24.67 80.689-24.668 80.686-24.67-80.691zm-956.691.002l24.67 80.688-24.668 80.686-24.67-80.689zm478.348 0l24.668 80.686-24.668 80.686-24.668-80.686zm-59.793.002l24.668 80.686-24.668 80.688-24.668-80.686zm478.346 0l24.668 80.686-24.668 80.688-24.668-80.686zM63.652 310.51l24.67 80.689-24.668 80.688-24.67-80.691zm119.588 0l24.668 80.686-24.668 80.686-24.668-80.686zm59.793 0l24.668 80.686-24.668 80.686-24.668-80.686zm59.793 0l24.668 80.686-24.668 80.686-24.668-80.686zm59.793 0l24.668 80.686-24.668 80.686-24.668-80.686zm59.793 0l24.668 80.686-24.668 80.686-24.668-80.686zm239.174 0l24.668 80.686-24.668 80.688-24.668-80.686zm59.793 0l24.668 80.686-24.668 80.686-24.668-80.686zm59.793 0l24.668 80.686-24.668 80.686-24.668-80.686zm59.793 0l24.668 80.686-24.668 80.686-24.668-80.686zm59.793 0l24.668 80.686-24.668 80.686-24.668-80.686zm119.586 0l24.67 80.689-24.668 80.688-24.67-80.691zm-896.896.002l24.668 80.686-24.668 80.686-24.668-80.686zm478.346 0l24.668 80.686-24.668 80.686-24.668-80.686zm-119.586.002l24.668 80.686-24.668 80.688-24.668-80.686zm59.793 0l24.668 80.686L542 471.887l-24.668-80.686zm418.553 0l24.668 80.686-24.668 80.688-24.668-80.686zM33.756 408.297l24.67 80.689-24.668 80.688-24.67-80.691zm179.381 0l24.668 80.686-24.668 80.686-24.668-80.686zm59.793 0l24.668 80.686-24.668 80.686-24.668-80.686zm59.793 0l24.668 80.686-24.668 80.686-24.668-80.686zm59.793 0l24.668 80.686-24.668 80.686-24.668-80.686zm298.967 0l24.668 80.686-24.668 80.687-24.668-80.686zm59.793 0l24.668 80.686-24.668 80.686-24.668-80.686zm59.793 0l24.668 80.686-24.668 80.686-24.668-80.686zm59.793 0l24.668 80.686-24.668 80.686-24.668-80.686zm119.586 0l24.67 80.689-24.668 80.688-24.67-80.691zm-837.104.002l24.668 80.686-24.668 80.686-24.668-80.686zm478.346 0l24.668 80.686-24.668 80.686-24.668-80.686zm-538.139.002l24.668 80.686-24.668 80.688-24.668-80.686zm358.76 0l24.668 80.686-24.668 80.688-24.668-80.686zm59.793 0l24.668 80.686-24.668 80.688-24.668-80.686zm59.793 0l24.668 80.686-24.668 80.688-24.668-80.686zm358.76 0l24.668 80.686-24.668 80.688-24.668-80.686zm119.586 0l24.668 80.686-24.668 80.688-24.668-80.686zm-747.416 97.783l24.668 80.688-24.668 80.686-24.668-80.687zm59.793 0l24.668 80.686-24.668 80.686-24.668-80.686zm358.76 0l24.668 80.686-24.668 80.688-24.668-80.686zm59.793 0l24.668 80.688-24.668 80.686-24.668-80.687zm59.793 0l24.668 80.686-24.668 80.686-24.668-80.686zm119.586 0l24.67 80.689-24.668 80.688-24.67-80.691zm-777.311.002l24.668 80.686-24.668 80.686-24.668-80.686zm59.793 0l24.668 80.684-24.668 80.686-24.668-80.684zm418.553 0l24.668 80.686-24.668 80.686-24.668-80.686zm-597.932.002l24.668 80.686-24.668 80.686-24.668-80.686zm59.793 0l24.668 80.686-24.668 80.688-24.668-80.686zm298.967 0l24.668 80.686-24.668 80.688-24.668-80.686zm59.793 0l24.668 80.686-24.668 80.688-24.668-80.686zm59.793 0l24.668 80.686L542 667.462l-24.668-80.686zm59.793 0l24.668 80.686-24.668 80.688-24.668-80.686zm298.967 0l24.668 80.686-24.668 80.688-24.668-80.686zm119.586 0l24.668 80.686-24.668 80.688-24.668-80.686zm-89.691 97.783l24.67 80.689-24.668 80.688-24.67-80.691zm119.586 0l24.67 80.689-24.668 80.688-24.67-80.691zm-777.31.002l24.668 80.686-24.668 80.686-24.668-80.686zm59.793 0l24.668 80.686-24.668 80.686-24.668-80.686zm358.76 0l24.668 80.686-24.668 80.686-24.668-80.684zm59.793 0l24.668 80.686-24.668 80.688-24.668-80.686zm59.793 0l24.668 80.686-24.668 80.686-24.668-80.686zm-777.31.002l24.668 80.686-24.668 80.686L9.09 684.561zm59.793 0l24.668 80.686-24.668 80.688-24.668-80.687zm59.793 0l24.668 80.686-24.668 80.686-24.668-80.686zm59.793 0l24.668 80.684-24.668 80.686-24.668-80.684zm179.381 0l24.668 80.686-24.668 80.688-24.668-80.686zm59.793 0l24.668 80.686-24.668 80.688-24.668-80.686zm59.793 0l24.668 80.686-24.668 80.688-24.668-80.686zm59.793 0l24.668 80.686-24.668 80.688-24.668-80.686zm59.793 0l24.668 80.686-24.668 80.688-24.668-80.686zm239.174 0l24.668 80.686-24.668 80.688-24.668-80.686zm119.586 0l24.668 80.686-24.668 80.688-24.668-80.686zm-89.691 97.783l24.67 80.689-24.668 80.686-24.67-80.689zm119.586 0l24.67 80.689-24.668 80.686-24.67-80.689zm-717.517.002l24.668 80.686-24.668 80.686-24.668-80.686zm478.346 0l24.668 80.686-24.668 80.688-24.668-80.686zm-717.518.002l24.668 80.686-24.668 80.688-24.668-80.687zm59.793 0l24.668 80.686-24.668 80.686-24.668-80.686zm59.793 0l24.668 80.684-24.668 80.688-24.668-80.684zm59.793 0l24.668 80.686-24.668 80.686-24.668-80.686zm179.381 0l24.668 80.686-24.668 80.686-24.668-80.684zm59.793 0l24.668 80.686-24.668 80.686-24.668-80.684zm59.793 0l24.668 80.686L542 863.034l-24.668-80.684zm59.793 0l24.668 80.686-24.668 80.686-24.668-80.684zm59.793 0l24.668 80.686-24.668 80.686-24.668-80.684zm59.793 0l24.668 80.686-24.668 80.686-24.668-80.686zm239.174 0l24.668 80.686-24.668 80.686-24.668-80.684zm-597.932.002l24.668 80.686-24.668 80.686-24.668-80.686zm478.346 0l24.668 80.686-24.668 80.686-24.668-80.686zm149.481 97.781l24.67 80.689-24.668 80.686-24.67-80.689zm59.793 0l24.67 80.689-24.668 80.686-24.67-80.689zm-179.379.002l24.67 80.689-24.668 80.686-24.67-80.689zm-837.103.002l24.668 80.686-24.668 80.686L9.09 880.136zm59.793 0l24.668 80.686-24.668 80.686-24.668-80.686zm59.793 0l24.668 80.684-24.668 80.688-24.668-80.684zm59.793 0l24.668 80.686-24.668 80.688-24.668-80.686zm59.793 0l24.668 80.686-24.668 80.686-24.668-80.686zm179.381 0l24.668 80.686-24.668 80.686-24.668-80.686zm59.793 0l24.668 80.686-24.668 80.686-24.668-80.686zm59.793 0l24.668 80.686-24.668 80.686-24.668-80.686zm59.793 0l24.668 80.686-24.668 80.686-24.668-80.684zm59.793 0l24.668 80.686-24.668 80.688-24.668-80.686zm59.793 0l24.668 80.686-24.668 80.686-24.668-80.686zm179.381 0l24.668 80.686-24.668 80.686-24.668-80.686zm-597.932.002l24.668 80.686-24.668 80.686-24.668-80.686zm59.793 0l24.668 80.686-24.668 80.686-24.668-80.686zm418.553 0l24.668 80.686-24.668 80.688-24.668-80.686zm149.481 97.781l24.67 80.689-24.668 80.688-24.67-80.691zm59.793 0l24.67 80.689-24.668 80.688-24.67-80.691zm-179.379.004l24.67 80.691-24.668 80.684-24.67-80.687zm-777.31.002l24.668 80.686-24.668 80.686-24.668-80.686zm59.793 0l24.668 80.684-24.668 80.688-24.668-80.684zm59.793 0l24.668 80.686-24.668 80.687-24.668-80.686zm59.793 0l24.668 80.686-24.668 80.687-24.668-80.686zm239.174 0l24.668 80.686-24.668 80.686-24.668-80.686zm59.793 0l24.668 80.686L542 1058.611l-24.668-80.686zm59.793 0l24.668 80.686-24.668 80.686-24.668-80.684zm59.793 0l24.668 80.686-24.668 80.687-24.668-80.686zm59.793 0l24.668 80.686-24.668 80.687-24.668-80.686zm-358.758.002l24.668 80.688-24.668 80.684-24.668-80.685zm59.793 0l24.668 80.686-24.668 80.685-24.668-80.685zm478.346 0l24.668 80.686-24.668 80.685-24.668-80.685zm-597.934.002l24.67 80.686-24.668 80.686-24.67-80.688zm478.346 0l24.67 80.686-24.668 80.686-24.67-80.688zM33.758 995.023l24.668 80.686-24.67 80.686-24.668-80.686zm59.793 0l24.668 80.684-24.668 80.688-24.668-80.684zm59.793 0l24.668 80.686-24.668 80.688-24.668-80.686zm59.793 0l24.668 80.686-24.668 80.688-24.668-80.686zm59.793 0l24.67 80.688-24.67 80.688-24.668-80.689zm59.793 0l24.67 80.686-24.668 80.686-24.67-80.687zm59.795 0l24.668 80.686-24.668 80.686-24.668-80.686zm59.791 0l24.668 80.686-24.668 80.682-24.668-80.686zm59.795 0l24.668 80.686-24.668 80.686-24.668-80.686zm59.793 0l24.668 80.686-24.668 80.686-24.668-80.684zm59.793 0l24.668 80.686-24.668 80.688-24.668-80.686zm59.793 0l24.668 80.686-24.668 80.688-24.668-80.686zm59.793 0l24.67 80.688-24.67 80.688-24.668-80.689zm59.793 0l24.67 80.689-24.668 80.686-24.67-80.689zm59.795 0l24.668 80.686-24.67 80.688-24.668-80.686zm59.791 0l24.668 80.689-24.668 80.682-24.668-80.686zm59.793 0l24.67 80.689-24.668 80.686-24.67-80.689zm59.795 0l24.668 80.686-24.668 80.686-24.668-80.684zm-986.588 97.781l24.668 80.684-24.67 80.686-24.666-80.682zm59.793 0l24.668 80.686-24.668 80.688-24.668-80.686zm59.793 0l24.668 80.686-24.668 80.688-24.668-80.686zm59.793 0l24.67 80.688-24.67 80.686-24.668-80.687zm59.793 0l24.67 80.688-24.67 80.686-24.668-80.687zm59.793 0l24.668 80.686-24.668 80.684-24.668-80.686zm59.793 0l24.668 80.686-24.668 80.684-24.668-80.686zm59.793 0l24.668 80.686-24.668 80.682-24.668-80.686zm59.795 0l24.668 80.686L542 1254.175l-24.668-80.684zm59.793 0l24.668 80.686-24.668 80.688-24.668-80.686zm59.793 0l24.668 80.686-24.668 80.688-24.668-80.686zm59.793 0l24.67 80.688-24.67 80.686-24.668-80.687zm59.793 0l24.67 80.689-24.67 80.686-24.668-80.687zm59.793 0l24.668 80.686-24.668 80.684-24.668-80.686zm59.793 0l24.668 80.688-24.668 80.688-24.668-80.687zm59.793 0l24.668 80.689-24.668 80.682-24.668-80.686zm59.795 0l24.668 80.686-24.668 80.686-24.668-80.684z"/></svg>
