<?xml version="1.0" encoding="UTF-8"?>
<svg id="_x32_" width="800px" height="800px" fill="#000" version="1.1" viewBox="0 0 512 512" xml:space="preserve" xmlns="http://www.w3.org/2000/svg">

<path d="m256.01 0c-116.09 0-210.2 94.106-210.2 210.18v301.82h59.872v-300.32c0-83.012 67.307-150.31 150.33-150.31 59.582 0 111.07 34.674 135.39 84.945-22.442-29.785-58.111-49.042-98.272-49.042-67.916 0-122.98 55.056-122.98 122.97v92.996l70.881-8.3925c10.985-1.3006 20.409 3.782 20.409 11.481v52.67c0 7.6993-9.4233 12.729-20.409 11.366l-70.881-8.7925v140.44h236.17 9.7738 50.1v-301.82c-1e-3 -116.08-94.116-210.18-210.18-210.18z" fill="#000" stroke-linecap="round" stroke-linejoin="round" stroke-width="6.4" style="paint-order:markers stroke fill"/>

</svg>
