<svg xmlns="http://www.w3.org/2000/svg" width="340.157" height="453.543" viewBox="0 0 90 120"><path d="M0 0h90v120H0z" fill="#fff" paint-order="markers stroke fill"/><path fill="#000" d="M0 0v21.125a9 9 0 0 0 9 8.999c5.378-.003 8.999-4.496 9-8.999a9 9 0 0 0 9 9c5.378-.003 8.999-4.496 9-8.999a9 9 0 0 0 9 8.999c5.379-.003 8.999-4.497 9-9a9 9 0 0 0 9 8.999c5.378-.003 8.999-4.496 9-8.999a9 9 0 0 0 9 8.999c5.379-.003 8.999-4.497 9-9V0zm63.001 21.469a1.35 1.35 0 1 1-1.351 1.35 1.35 1.35 0 0 1 1.35-1.35zm18 0a1.35 1.35 0 0 1 1.35 1.35 1.35 1.35 0 0 1-2.7 0 1.35 1.35 0 0 1 1.35-1.35zm-72 .001a1.35 1.35 0 1 1-1.35 1.35 1.35 1.35 0 0 1 1.35-1.35zm18 0a1.35 1.35 0 1 1-1.35 1.35 1.35 1.35 0 0 1 1.35-1.35zm17.999 0a1.35 1.35 0 0 1 0 2.7 1.35 1.35 0 1 1 0-2.7zm13.63.486c.39 0 1.559.864 1.949.864-.39 0-1.559.863-1.949.863-.515 0-2.06-.863-2.575-.863.515 0 2.06-.864 2.575-.864zm8.741 0c.515 0 2.06.864 2.575.864-.515 0-2.06.863-2.575.863-.39 0-1.559-.863-1.949-.863.39 0 1.559-.864 1.949-.864zm9.26 0c.39 0 1.558.864 1.948.864-.39 0-1.558.863-1.948.863-.515 0-2.061-.863-2.576-.863.515 0 2.061-.864 2.576-.864zm8.74 0c.515 0 2.061.864 2.576.864-.515 0-2.061.863-2.576.863-.39 0-1.558-.863-1.948-.863.39 0 1.558-.864 1.948-.864zm-80.74.001c.39 0 1.559.864 1.949.864-.39 0-1.559.864-1.949.864-.515 0-2.06-.864-2.575-.864.515 0 2.06-.864 2.575-.864zm8.74 0c.515 0 2.061.864 2.576.864-.515 0-2.061.864-2.576.864-.39 0-1.558-.864-1.948-.864.39 0 1.558-.864 1.948-.864zm9.26 0c.39 0 1.559.864 1.949.864-.39 0-1.559.864-1.949.864-.515 0-2.06-.864-2.575-.864.515 0 2.06-.864 2.575-.864zm8.74 0c.515 0 2.061.864 2.576.864-.515 0-2.061.864-2.576.864-.39 0-1.558-.864-1.948-.864.39 0 1.558-.864 1.948-.864zm9.26 0c.39 0 1.558.864 1.948.864-.39 0-1.558.864-1.948.864-.515 0-2.061-.864-2.576-.864.515 0 2.061-.864 2.576-.864zm8.74 0c.515 0 2.061.864 2.576.864-.515 0-2.061.864-2.576.864-.39 0-1.558-.864-1.948-.864.39 0 1.558-.864 1.948-.864zm11.74 2.678c-.224.239-.268 1.548-.492 1.787-.297.317-1.816.675-2.113.992.297-.317.557-1.856.854-2.172.224-.239 1.527-.367 1.752-.607zm3.782 0c.224.239 1.527.367 1.752.607.297.317.557 1.856.853 2.172-.297-.317-1.816-.675-2.113-.992-.224-.239-.268-1.548-.492-1.787zm14.217 0c-.224.239-.268 1.548-.492 1.787-.297.317-1.816.675-2.113.992.297-.317.557-1.856.853-2.172.224-.239 1.527-.367 1.752-.607zm3.782 0c.224.239 1.528.367 1.752.607.297.317.557 1.856.853 2.172-.297-.317-1.816-.675-2.113-.992-.224-.239-.268-1.548-.492-1.787zm-75.782.001c-.224.239-.268 1.548-.492 1.787-.297.317-1.816.675-2.113.992.297-.317.557-1.856.853-2.172.224-.239 1.527-.367 1.752-.607zm3.783 0c.224.239 1.527.367 1.752.607.297.317.557 1.856.853 2.172-.297-.317-1.817-.675-2.114-.992-.224-.239-.267-1.548-.491-1.787zm14.217 0c-.224.239-.268 1.548-.492 1.787-.297.317-1.816.675-2.113.992.297-.317.557-1.856.853-2.172.224-.239 1.527-.367 1.752-.607zm3.783 0c.224.239 1.527.367 1.752.607.297.317.556 1.856.853 2.172-.297-.317-1.816-.675-2.113-.992-.224-.239-.268-1.548-.492-1.787zm14.217 0c-.224.239-.268 1.548-.492 1.787-.297.317-1.816.675-2.113.992.297-.317.557-1.856.853-2.172.224-.239 1.527-.367 1.752-.607zm3.782 0c.224.239 1.528.367 1.752.607.297.317.557 1.856.853 2.172-.297-.317-1.816-.675-2.113-.992-.224-.239-.268-1.548-.492-1.787zm-19.891.607h.001c.008.33.786 1.215.859 1.599.067.394-.859 1.747-.859 2.21 0-.457-.919-1.814-.861-2.201.064-.371.861-1.291.861-1.608zm36 0h.001c.008.33.786 1.215.859 1.599.067.394-.859 1.747-.859 2.21h-.001c0-.457-.918-1.813-.861-2.201v-.001c.064-.371.861-1.291.861-1.608zm-54 .001c.008.33.787 1.215.859 1.599.067.394-.859 1.747-.859 2.21H9c0-.457-.918-1.814-.86-2.201.064-.371.861-1.291.861-1.608zm36 0c.008.33.787 1.215.859 1.599.067.394-.859 1.747-.859 2.21H45c0-.457-.918-1.814-.86-2.201.064-.371.861-1.291.861-1.608zm36 .001c.01.331.787 1.214.859 1.597.067.394-.859 1.747-.859 2.21H81c0-.457-.918-1.813-.86-2.201h0c.064-.371.858-1.288.861-1.606zM45 88.579c-5.379.003-8.999 4.497-9 9a9 9 0 0 0-9-9c-5.378.003-8.999 4.496-9 8.999a9 9 0 0 0-9-8.999c-5.379.003-8.999 4.497-9 9V120h90V97.578a9 9 0 0 0-9-8.999c-5.378.003-8.999 4.496-9 8.999a9 9 0 0 0-9-8.999c-5.378.003-8.999 4.496-9 8.999a9 9 0 0 0-9-8.999zm-.001 1.074H45c0 .457.918 1.814.86 2.201-.064.371-.861 1.291-.861 1.608-.008-.33-.787-1.215-.859-1.599-.067-.394.859-1.747.859-2.21zm18 0c0 .457.919 1.814.861 2.201-.064.371-.861 1.291-.861 1.608v.001h-.001c-.008-.33-.786-1.215-.859-1.599-.067-.394.859-1.747.859-2.21zm18 0H81c0 .457.918 1.814.86 2.201-.064.371-.858 1.288-.861 1.606-.011-.331-.787-1.214-.859-1.597-.067-.394.859-1.747.859-2.21zm-72 .001H9c0 .457.918 1.813.86 2.201h0c-.064.371-.858 1.288-.861 1.606-.01-.331-.787-1.214-.859-1.597-.067-.394.859-1.747.859-2.21zm17.999 0h.001c0 .457.918 1.813.861 2.201h0c-.064.371-.861 1.291-.861 1.608h-.001c-.008-.33-.786-1.215-.859-1.599-.067-.394.859-1.747.859-2.21zm13.504 1.637c.297.317 1.816.675 2.113.992.224.239.268 1.548.492 1.787-.224-.239-1.528-.367-1.752-.607-.297-.317-.557-1.856-.853-2.172zm8.993 0c-.297.317-.557 1.856-.853 2.172-.224.239-1.527.367-1.752.607.224-.239.268-1.548.492-1.787.297-.317 1.816-.675 2.113-.992zm9.008 0c.297.317 1.816.675 2.113.992.224.239.268 1.548.492 1.787-.224-.239-1.527-.367-1.752-.607-.297-.317-.556-1.856-.853-2.172zm8.992 0c-.297.317-.557 1.856-.853 2.172-.224.239-1.527.367-1.752.607.224-.239.268-1.548.492-1.787.297-.317 1.816-.675 2.113-.992zm9.007 0c.297.317 1.817.675 2.114.992.224.239.267 1.548.491 1.787-.224-.239-1.527-.367-1.752-.607-.297-.317-.557-1.856-.853-2.172zm8.993 0c-.297.317-.557 1.856-.853 2.172-.224.239-1.527.367-1.752.607.224-.239.268-1.548.492-1.787.297-.317 1.816-.675 2.113-.992zm-80.992.001c.297.317 1.816.675 2.113.992.224.239.268 1.548.492 1.787-.225-.239-1.528-.367-1.752-.607-.297-.317-.557-1.856-.853-2.172zm8.993 0c-.297.317-.557 1.856-.853 2.172-.224.239-1.527.367-1.752.607.224-.239.268-1.548.492-1.787.297-.317 1.816-.675 2.113-.992zm9.007 0c.297.317 1.816.675 2.113.992.224.239.268 1.548.492 1.787-.224-.239-1.527-.367-1.752-.607-.297-.317-.557-1.856-.853-2.172zm8.993 0c-.297.317-.557 1.856-.854 2.172-.224.239-1.527.367-1.752.607.224-.239.268-1.548.492-1.787.297-.317 1.816-.675 2.113-.992zM45 94.534a1.35 1.35 0 0 1 1.349 1.35A1.35 1.35 0 0 1 45 97.233a1.35 1.35 0 0 1 0-2.7zm17.999 0a1.35 1.35 0 1 1-1.35 1.35 1.35 1.35 0 0 1 1.35-1.35zm18 0a1.35 1.35 0 1 1-1.35 1.35 1.35 1.35 0 0 1 1.35-1.35zm-72 .001a1.35 1.35 0 0 1 1.35 1.349 1.35 1.35 0 0 1-2.7 0 1.35 1.35 0 0 1 1.35-1.349zm18 0a1.35 1.35 0 1 1-1.351 1.349 1.35 1.35 0 0 1 1.35-1.349zm13.63.486c.39 0 1.558.864 1.948.864-.39 0-1.558.864-1.948.864-.515 0-2.061-.864-2.576-.864.515 0 2.061-.864 2.576-.864zm8.74 0c.515 0 2.061.864 2.576.864-.515 0-2.061.864-2.576.864-.39 0-1.558-.864-1.948-.864.39 0 1.558-.864 1.948-.864zm9.26 0c.39 0 1.558.864 1.948.864-.39 0-1.558.864-1.948.864-.515 0-2.061-.864-2.576-.864.515 0 2.061-.864 2.576-.864zm8.74 0c.515 0 2.06.864 2.575.864-.515 0-2.06.864-2.575.864-.39 0-1.559-.864-1.949-.864.39 0 1.559-.864 1.949-.864zm9.26 0c.39 0 1.558.864 1.948.864-.39 0-1.558.864-1.948.864-.515 0-2.061-.864-2.576-.864.515 0 2.061-.864 2.576-.864zm8.74 0c.515 0 2.06.864 2.575.864-.515 0-2.06.864-2.575.864-.39 0-1.559-.864-1.949-.864.39 0 1.559-.864 1.949-.864zm-80.74.001c.39 0 1.558.863 1.948.863-.39 0-1.558.864-1.948.864-.515 0-2.061-.864-2.576-.864.515 0 2.061-.863 2.576-.863zm8.74 0c.515 0 2.061.863 2.576.863-.515 0-2.061.864-2.576.864-.39 0-1.558-.864-1.948-.864.39 0 1.558-.863 1.948-.863zm9.26 0c.39 0 1.559.863 1.949.863-.39 0-1.559.864-1.949.864-.515 0-2.06-.864-2.575-.864.515 0 2.06-.863 2.575-.863zm8.741 0c.515 0 2.06.863 2.575.863-.515 0-2.06.864-2.575.864-.39 0-1.559-.864-1.949-.864.39 0 1.559-.863 1.949-.863z"/></svg>
