<svg xmlns="http://www.w3.org/2000/svg" width="340.157" height="453.543" viewBox="0 0 90 120"><path d="M0 0h90v120H0z" fill="#fff" paint-order="markers stroke fill"/><path fill="#000" d="M0 0v21.125a9 9 0 0 0 9 8.999c5.378-.003 8.999-4.496 9-8.999a9 9 0 0 0 9 9c5.378-.003 8.999-4.496 9-8.999a9 9 0 0 0 9 8.999c5.379-.003 8.999-4.497 9-9a9 9 0 0 0 9 8.999c5.378-.003 8.999-4.496 9-8.999a9 9 0 0 0 9 8.999c5.379-.003 8.999-4.497 9-9V0zm4.988 21.125l1.549 1.583-1.592 1.539-1.549-1.582zm7.977 0l1.549 1.583-1.592 1.539-1.549-1.582zm10.023 0l1.549 1.583-1.592 1.539-1.549-1.582zm7.977 0l1.549 1.583-1.592 1.539-1.549-1.582zm10.06 0l1.549 1.583-1.592 1.539-1.549-1.582zm7.977 0l1.549 1.583-1.592 1.539-1.549-1.582zm10.023 0l1.549 1.583-1.592 1.539-1.549-1.582zm7.977 0l1.549 1.583-1.592 1.539-1.549-1.582zm10.023 0l1.549 1.583-1.592 1.539-1.549-1.582zm7.977 0l1.549 1.583-1.592 1.539-1.549-1.582zM8.91 22.482l.983 2.408 2.403.869-2.423.978L9 29.125l-.983-2.408-2.403-.869 2.423-.978.874-2.389zm18 0l.983 2.408 2.403.869-2.423.978L27 29.125l-.983-2.408-2.403-.869 2.423-.978.874-2.389zm18.038 0l.983 2.408 2.403.869-2.423.978-.874 2.389-.983-2.408-2.403-.869 2.423-.978zm18 0l.983 2.408 2.403.869-2.423.978-.874 2.389-.983-2.408-2.403-.869 2.423-.978zm18 0l.983 2.408 2.403.869-2.423.978-.874 2.389-.983-2.408-2.403-.869 2.423-.978zM45 88.579c-5.379.003-8.999 4.497-9 9a9 9 0 0 0-9-9c-5.378.003-8.999 4.496-9 8.999a9 9 0 0 0-9-8.999c-5.379.003-8.999 4.497-9 9V120h90V97.578a9 9 0 0 0-9-8.999c-5.378.003-8.999 4.496-9 8.999a9 9 0 0 0-9-8.999c-5.378.003-8.999 4.496-9 8.999a9 9 0 0 0-9-8.999zm-36 .953l.874 2.389 2.423.978-2.403.869-.983 2.408-.874-2.389-2.423-.978 2.403-.869L9 89.531zm18 0l.874 2.389 2.423.978-2.403.869-.983 2.408-.874-2.389-2.423-.978 2.403-.869zm18.038 0l.874 2.389 2.423.978-2.403.869-.983 2.408-.874-2.389-2.423-.978 2.403-.869zm18 0l.874 2.389 2.423.978-2.403.869-.983 2.408-.874-2.389-2.423-.978 2.403-.869zm18 0l.874 2.389 2.423.978-2.403.869-.983 2.408-.874-2.389-2.423-.978 2.403-.869zM4.945 94.409l1.592 1.539-1.549 1.583-1.592-1.54zm7.977 0l1.592 1.539-1.549 1.583-1.592-1.54zm10.023 0l1.592 1.539-1.549 1.583-1.592-1.54zm7.977 0l1.592 1.539-1.549 1.583-1.592-1.54zm10.06 0l1.592 1.539-1.549 1.583-1.592-1.54zm7.977 0l1.592 1.539-1.549 1.583-1.592-1.54zm10.023 0l1.592 1.539-1.549 1.583-1.592-1.54zm7.977 0l1.592 1.539-1.549 1.583-1.592-1.54zm10.023 0l1.592 1.539-1.549 1.583-1.592-1.54zm7.977 0l1.592 1.539-1.549 1.583-1.592-1.54z"/></svg>
