<?xml version="1.0" encoding="UTF-8" standalone="no"?>
<!-- Uploaded to: SVG Repo, www.svgrepo.com, Generator: SVG Repo Mixer Tools -->

<svg
   width="800px"
   height="800px"
   viewBox="0 0 24 24"
   fill="none"
   version="1.1"
   id="svg1"
   xmlns="http://www.w3.org/2000/svg"
   xmlns:svg="http://www.w3.org/2000/svg">
  <defs
     id="defs1" />
  <path
     d="m 8.027168,19.314176 c 0,0.104956 -0.104956,0.179924 -0.2548931,0.179924 -0.1499371,0 -0.2698867,0 -0.2698867,-0.179924 0,-0.179925 0.1199496,-0.179925 0.254893,-0.179925 0.1349434,0 0.2698868,0.07497 0.2698868,0.179925 z M 6.5277972,19.08927 c 0,0.104956 0,0.224906 0.2099119,0.254893 0.053692,0.02579 0.1154215,0.02924 0.1716329,0.0096 0.056227,-0.01964 0.1023321,-0.06087 0.1282412,-0.114552 0,-0.104956 0,-0.209912 -0.2099119,-0.254893 -0.2099119,-0.04498 -0.2698867,0 -0.2998741,0.104956 z M 8.6569037,19.0143 c -0.1349434,0 -0.2249056,0.119949 -0.2099119,0.239899 0.014994,0.11995 0.1349434,0.164931 0.2848804,0.134943 0.1499371,-0.02999 0.2249057,-0.134943 0.2099119,-0.239899 C 8.9267904,19.044289 8.8068408,18.999308 8.6569037,19.014302 Z M 11.850519,0.00230999 C 10.269282,-0.01257876 8.7012701,0.29215336 7.240658,0.89821403 5.7800459,1.5042747 4.4569262,2.3991742 3.3506904,3.529205 2.2444696,4.6592357 1.3779383,6.0011126 0.80310948,7.4742894 0.22828071,8.9474812 -0.04301545,10.521566 0.00553418,12.102202 c -0.04186243,2.589264 0.72604032,5.126949 2.19642832,7.258604 1.4703879,2.131656 3.5698369,3.750826 6.00513,4.631407 0.614742,0.104956 0.8396026,-0.284881 0.8396026,-0.599749 0,-0.314867 0,-2.009156 0,-2.998741 0,0 -3.388533,0.749685 -4.108231,-1.499371 0,0 -0.5397735,-1.499371 -1.33444,-1.814239 0,0 -1.1095344,-0.779672 0.074968,-0.764679 0.3879472,0.05233 0.7582319,0.194919 1.0811214,0.416226 0.3228895,0.221307 0.5893876,0.515333 0.7780984,0.858239 0.1568792,0.307521 0.3749477,0.579807 0.6408161,0.799915 0.2658535,0.220257 0.5739142,0.383839 0.9052601,0.480698 0.331361,0.09686 0.6790051,0.125048 1.0216263,0.08276 C 8.4485356,18.910992 8.778892,18.798987 9.076682,18.62446 9.133508,17.998473 9.4033949,17.41102 9.8413611,16.960159 7.1425392,16.645296 4.4136843,16.255459 4.4136843,11.472467 4.3850164,10.932093 4.4718299,10.39187 4.6683075,9.8877816 4.8648,9.3836932 5.1664584,8.9271497 5.5532061,8.5487235 5.1883193,7.4511391 5.2309014,6.2588845 5.6731558,5.190133 c 1.0195721,-0.3298616 3.3435519,1.33444 3.3435519,1.33444 1.9854673,-0.55997 4.0871353,-0.55997 6.0724513,0 0,0 2.324025,-1.6643016 3.343597,-1.33444 0.451911,1.0666523 0.494493,2.2624305 0.11995,3.3585905 0.400482,0.3732084 0.718049,0.8262733 0.932459,1.329912 0.21426,0.5036385 0.320565,1.0465605 0.312019,1.5938315 0,4.797986 -2.848805,5.172829 -5.547672,5.487697 0.271236,0.304222 0.477699,0.660623 0.606645,1.04731 0.128796,0.386688 0.177526,0.795566 0.14304,1.201746 0,1.679295 0,3.748427 0,4.153257 -8.99e-4,0.101208 0.02249,0.201216 0.06837,0.291478 0.04603,0.09026 0.112902,0.168229 0.195368,0.227004 0.08231,0.05893 0.177825,0.09701 0.277983,0.111104 0.100308,0.01424 0.202565,0.0039 0.297925,-0.02984 2.43093,-0.872933 4.526001,-2.487456 5.989536,-4.615513 1.463686,-2.128057 2.221618,-4.662293 2.167041,-7.24451 C 24.00951,10.50552 23.704692,8.9220649 23.098796,7.4447198 22.492903,5.9673768 21.598078,4.6258747 20.466953,3.4988877 19.335827,2.3719006 17.990892,1.482099 16.511313,0.88167597 15.031734,0.28125293 13.447198,-0.01770661 11.850519,0.00230999 Z M 4.7135585,17.110101 c 0,0 0,0.164931 0,0.254893 0.016718,0.01679 0.03657,0.03014 0.058445,0.03913 0.021876,0.0091 0.045311,0.0138 0.069001,0.0138 0.023675,0 0.047125,-0.0046 0.069001,-0.0138 0.021861,-0.009 0.041727,-0.02234 0.058445,-0.03913 0,0 0,-0.164931 0,-0.269887 0,-0.104956 -0.1949182,-0.04498 -0.254893,0.01499 z m -0.5247798,-0.40483 c 0,0 0,0.149937 0.104956,0.194918 0.01264,0.01574 0.028638,0.02834 0.046795,0.03703 0.018157,0.0085 0.038039,0.01319 0.058161,0.01319 0.020122,0 0.039988,-0.0046 0.058146,-0.01319 0.018172,-0.0087 0.034156,-0.02129 0.04681,-0.03703 0,0 0,-0.149937 -0.104956,-0.194918 -0.1049559,-0.04498 -0.1799245,-0.04498 -0.209912,0 z m 1.4993708,1.769257 c 0,0 0,0.209912 0,0.314868 0,0.104956 0.254893,0.11995 0.3148679,0 0.059975,-0.11995 0,-0.209912 0,-0.314868 0,-0.104956 -0.1949182,-0.07497 -0.2548931,0 z M 5.1333823,17.739837 c 0,0 0,0.179924 0,0.299874 0,0.119949 0.2099119,0.164931 0.2848805,0.119949 0.037964,-0.04363 0.05888,-0.09956 0.05888,-0.157434 0,-0.05787 -0.020916,-0.113802 -0.05888,-0.157433 -0.074969,-0.11995 -0.1949182,-0.164931 -0.2848805,-0.104956 z"
     fill="#000"
     id="path1"
     style="stroke-width:0.999999" />
</svg>
