<svg xmlns="http://www.w3.org/2000/svg" width="287.32" height="377.953" viewBox="0 0 76.02 100"><path d="M-11.99 0h100v100h-100z" fill="#fff" paint-order="markers stroke fill"/><g fill="#000"><path d="M12.855 13.885l-5.537 3.429-5.308-3.288v2.428l3.349 2.074-3.349 2.074v2.428l5.308-3.288 8.271 5.124-8.271 5.122L2.01 26.7v2.429l3.349 2.074-3.349 2.074v2.428l5.308-3.288 8.271 5.122-8.271 5.124-5.308-3.288v2.428l3.349 2.074-3.349 2.074v2.427l5.308-3.287 8.271 5.122-8.272 5.125-5.307-3.287v2.428l3.348 2.073-3.348 2.073v2.429l5.307-3.288 8.271 5.122-8.271 5.124-5.307-3.287v2.428l3.346 2.073-3.346 2.073v2.428l5.307-3.287 8.272 5.124-8.271 5.122-5.308-3.288v2.428L5.359 81.9 2.01 83.974v2.139h.466l4.843-2.999 4.843 2.999h3.92L9.278 81.9l8.271-5.122 8.271 5.122-6.803 4.213h3.923l4.841-2.999 4.843 2.999h3.919L29.739 81.9l8.272-5.122 8.271 5.122-6.801 4.213H43.4l4.841-2.999 4.843 2.999h3.923L50.203 81.9l8.271-5.124 8.271 5.124-6.803 4.213h3.92l4.843-2.999 4.843 2.999h.691v-2L70.665 81.9l3.573-2.214v-2.428l-5.533 3.428-8.272-5.124 8.271-5.122 5.534 3.427v-2.428l-3.573-2.213 3.573-2.214v-2.428l-5.533 3.428-8.272-5.124 8.272-5.124 5.533 3.428v-2.428l-3.573-2.214 3.573-2.213v-2.429l-5.534 3.428-8.271-5.122 8.272-5.124 5.533 3.427v-2.427l-3.574-2.214 3.574-2.214v-2.428l-5.534 3.428-8.271-5.122 8.271-5.124 5.534 3.427v-2.428l-3.573-2.213 3.573-2.214v-2.428l-5.534 3.427-8.271-5.122 8.271-5.122 5.534 3.427v-2.428l-3.573-2.214 3.573-2.213v-2.429l-5.534 3.428-5.537-3.429h-3.92l7.497 4.643-8.271 5.124-8.272-5.124 7.499-4.643h-3.922l-5.537 3.429-5.537-3.429h-3.922l7.497 4.645-8.271 5.122-8.271-5.122 7.497-4.645h-3.922l-5.537 3.429-5.537-3.429h-3.92l7.497 4.643-8.271 5.124-8.272-5.124 7.499-4.643zm14.926 5.859l8.271 5.122-8.271 5.124-8.272-5.124zm20.461 0l8.271 5.122-8.271 5.124-8.272-5.124zM17.55 26.08l8.272 5.124-8.272 5.122-8.271-5.122zm20.461 0l8.272 5.124-8.272 5.122-8.271-5.122zm20.461 0l8.272 5.124-8.272 5.122-8.271-5.122zm-30.691 6.337l8.271 5.122-8.271 5.124-8.272-5.124zm20.461 0l8.271 5.122-8.272 5.124-8.271-5.122zM17.55 38.754l8.271 5.124-8.271 5.124-8.272-5.124zm20.461 0l8.272 5.124L38.011 49l-8.271-5.122zm20.463 0l8.271 5.124-8.271 5.124-8.272-5.124zm-30.693 6.337l8.269 5.122-8.271 5.124-8.271-5.122zm20.461 0l8.271 5.122-8.271 5.124-8.271-5.122zm10.231 6.336l8.271 5.124-8.272 5.124-8.271-5.124zm-40.924.001l8.271 5.122-8.272 5.124-8.271-5.122zm20.461 0l8.271 5.122-8.269 5.124-8.272-5.124zm-10.23 6.336l8.271 5.124-8.272 5.124-8.272-5.124zm20.461 0l8.271 5.124-8.271 5.122-8.271-5.122zm-30.694 6.337l8.272 5.124-8.272 5.122-8.271-5.122zm20.463 0l8.271 5.122-8.271 5.124-8.271-5.122zm20.461 0l8.272 5.124-8.271 5.122-8.271-5.124zM27.78 70.44l8.271 5.122-8.271 5.124-8.272-5.124zm20.463 0l8.271 5.122-8.271 5.124-8.272-5.124z"/><path d="M12.671 0C5.652 0 0 5.651 0 12.67v1.583 71.494 1.583C0 94.349 5.652 100 12.671 100a12.64 12.64 0 0 0 12.274-9.502h.792A12.64 12.64 0 0 0 38.011 100a12.64 12.64 0 0 0 12.274-9.502h.792A12.64 12.64 0 0 0 63.35 100c7.019 0 12.67-5.651 12.67-12.67v-1.583-71.494-1.583C76.02 5.651 70.369 0 63.35 0a12.64 12.64 0 0 0-12.274 9.502h-.792A12.64 12.64 0 0 0 38.011 0a12.64 12.64 0 0 0-12.274 9.502h-.792A12.64 12.64 0 0 0 12.671 0zm0 1.512c0 .653 1.303 2.557 1.209 3.111-.102.541-1.198 1.787-1.209 2.244-.008-.45-1.123-1.737-1.21-2.246-.083-.559 1.208-2.465 1.21-3.11zm25.339 0c0 .653 1.303 2.557 1.209 3.111-.102.541-1.198 1.787-1.209 2.244-.008-.45-1.123-1.737-1.21-2.246-.083-.559 1.208-2.465 1.21-3.11zm25.339 0c0 .653 1.305 2.557 1.21 3.111-.102.541-1.2 1.787-1.21 2.244-.008-.45-1.123-1.737-1.21-2.246-.083-.559 1.208-2.465 1.21-3.11zM6.342 3.816c.418.445 2.557.951 2.974 1.396.316.337.377 2.179.693 2.516-.316-.337-2.15-.517-2.466-.854-.418-.445-.783-2.613-1.201-3.059zm12.659 0c-.418.445-.784 2.613-1.202 3.059-.316.337-2.15.517-2.466.854.316-.337.377-2.179.693-2.516.418-.445 2.558-.951 2.975-1.396zm12.68 0c.418.445 2.557.951 2.974 1.396.316.337.377 2.179.693 2.516-.316-.337-2.15-.517-2.466-.854-.418-.445-.783-2.613-1.201-3.059zm12.659 0c-.418.445-.784 2.613-1.202 3.059-.316.337-2.15.517-2.466.854.316-.337.377-2.179.693-2.516.418-.445 2.558-.951 2.975-1.396zm12.68 0c.418.445 2.557.951 2.974 1.396.316.337.377 2.179.693 2.516-.316-.337-2.15-.517-2.466-.854-.418-.445-.783-2.613-1.201-3.059zm12.659 0c-.418.445-.784 2.613-1.202 3.059-.316.337-2.15.517-2.466.854.316-.337.377-2.179.693-2.516.418-.445 2.558-.951 2.975-1.396zM12.671 8.383a1.9 1.9 0 1 1 0 3.801 1.9 1.9 0 0 1-1.901-1.9c0-1.05.852-1.901 1.901-1.901zm25.339 0a1.9 1.9 0 1 1 0 3.801 1.9 1.9 0 0 1-1.901-1.9c0-1.05.852-1.901 1.901-1.901zm25.339 0a1.9 1.9 0 1 1 0 3.801 1.9 1.9 0 0 1-1.901-1.9c0-1.05.852-1.901 1.901-1.901zm-56.832.686c.549 0 2.195 1.215 2.743 1.215-.549 0-2.195 1.215-2.743 1.215-.725 0-2.9-1.215-3.625-1.215.725 0 2.9-1.215 3.625-1.215zm12.304 0c.725 0 2.901 1.215 3.626 1.215-.725 0-2.901 1.215-3.626 1.215-.549 0-2.195-1.215-2.743-1.215.549 0 2.195-1.215 2.743-1.215zm13.035 0c.549 0 2.195 1.215 2.743 1.215-.549 0-2.195 1.215-2.743 1.215-.725 0-2.9-1.215-3.625-1.215.725 0 2.9-1.215 3.625-1.215zm12.304 0c.725 0 2.901 1.215 3.626 1.215-.725 0-2.901 1.215-3.626 1.215-.549 0-2.195-1.215-2.743-1.215.549 0 2.195-1.215 2.743-1.215zm13.035 0c.549 0 2.195 1.215 2.743 1.215-.549 0-2.195 1.215-2.743 1.215-.725 0-2.9-1.215-3.625-1.215.725 0 2.9-1.215 3.625-1.215zm12.304 0c.725 0 2.901 1.215 3.626 1.215-.725 0-2.901 1.215-3.626 1.215-.549 0-2.195-1.215-2.743-1.215.549 0 2.195-1.215 2.743-1.215zM2.377 14.252H73.87v71.494H2.377zm10.295 73.563a1.9 1.9 0 1 1 0 3.801 1.9 1.9 0 1 1 0-3.801zm25.339 0a1.9 1.9 0 1 1 0 3.801 1.9 1.9 0 1 1 0-3.801zm25.339 0a1.9 1.9 0 1 1 0 3.801 1.9 1.9 0 1 1 0-3.801zm-56.832.685c.549 0 2.195 1.217 2.743 1.217-.549 0-2.195 1.215-2.743 1.215-.725 0-2.9-1.215-3.625-1.215.725 0 2.9-1.217 3.625-1.217zm12.304 0c.725 0 2.901 1.217 3.626 1.217-.725 0-2.901 1.215-3.626 1.215-.549 0-2.195-1.215-2.743-1.215.549 0 2.195-1.217 2.743-1.217zm13.035 0c.549 0 2.195 1.217 2.743 1.217-.549 0-2.195 1.215-2.743 1.215-.725 0-2.9-1.215-3.625-1.215.725 0 2.9-1.217 3.625-1.217zm12.304 0c.725 0 2.901 1.217 3.626 1.217-.725 0-2.901 1.215-3.626 1.215-.549 0-2.195-1.215-2.743-1.215.549 0 2.195-1.217 2.743-1.217zm13.035 0c.549 0 2.195 1.217 2.743 1.217-.549 0-2.195 1.215-2.743 1.215-.725 0-2.9-1.215-3.625-1.215.725 0 2.9-1.217 3.625-1.217zm12.304 0c.725 0 2.901 1.217 3.626 1.217-.725 0-2.901 1.215-3.626 1.215-.549 0-2.195-1.215-2.743-1.215.549 0 2.195-1.217 2.743-1.217zM10.008 92.27c-.316.337-.377 2.179-.693 2.516-.418.445-2.557.951-2.974 1.396.418-.445.783-2.613 1.201-3.059.316-.337 2.15-.517 2.466-.854zm5.324 0c.316.337 2.15.517 2.466.854.418.445.784 2.613 1.202 3.059-.418-.445-2.558-.951-2.975-1.396-.316-.337-.377-2.179-.693-2.516zm20.015 0c-.316.337-.377 2.179-.693 2.516-.418.445-2.557.951-2.974 1.396.418-.445.783-2.613 1.201-3.059.316-.337 2.15-.517 2.466-.854zm5.324 0c.316.337 2.15.517 2.466.854.418.445.784 2.613 1.202 3.059-.418-.445-2.558-.951-2.975-1.396-.316-.337-.377-2.179-.693-2.516zm20.015 0c-.316.337-.377 2.179-.693 2.516-.418.445-2.557.951-2.974 1.396.418-.445.783-2.613 1.201-3.059.316-.337 2.15-.517 2.466-.854zm5.324 0c.316.337 2.15.517 2.466.854.418.445.784 2.613 1.202 3.059-.418-.445-2.558-.951-2.975-1.396-.316-.337-.377-2.179-.693-2.516zm-53.342.852l.001.001v.001c.01.462 1.106 1.708 1.209 2.249.095.554-1.209 2.459-1.209 3.111 0-.644-1.293-2.552-1.213-3.098v-.001c.09-.522 1.211-1.817 1.211-2.263zm25.339 0l.001.001v.001c.01.462 1.106 1.708 1.209 2.249.095.554-1.209 2.459-1.209 3.111 0-.644-1.293-2.552-1.213-3.098v-.001-.001-.001c.09-.519 1.211-1.815 1.211-2.26zm25.339 0l.001.001c.01.463 1.106 1.709 1.209 2.25.095.554-1.209 2.459-1.209 3.111 0-.644-1.293-2.552-1.213-3.098v-.001-.001-.001c.09-.519 1.211-1.815 1.211-2.26z" paint-order="stroke fill markers"/><path d="M38.009 19.749c-8.159 0-14.773 6.615-14.773 14.774s6.614 14.773 14.773 14.773 14.774-6.614 14.774-14.773-6.615-14.774-14.774-14.774zm-6.834 33.768c-8.27 0-14.975 6.705-14.975 14.975 0 6.494 5.265 11.759 11.759 11.759h20.1c6.494 0 11.759-5.265 11.759-11.759a14.98 14.98 0 0 0-14.975-14.975z"/></g></svg>
