<svg xmlns="http://www.w3.org/2000/svg" width="2267.717" height="453.543" viewBox="0 0 600 120"><path fill="#291f3a" d="M0 10.024c3.82 3.837 12.054 15.595 17.505 22.359-11.712 13.658-13.59 33.208-4.693 48.85a11.24 11.24 0 0 1 4.168-2.809 37.66 37.66 0 0 1-4.737-18.279c.004-10.036 4.014-19.654 11.139-26.714l-.005-.005.087-.087 2.57-2.572C21.36 26.088 4.708 14.721 0 10.024zm288.094 13.664c-1.208 0-2.319.202-3.334.605a7.88 7.88 0 0 0-2.64 1.705c-.746.718-1.328 1.562-1.745 2.534s-.626 2.033-.626 3.185.209 2.213.626 3.185 1 1.824 1.745 2.557a8.06 8.06 0 0 0 2.64 1.682c1.029.404 2.14.605 3.334.605s2.29-.195 3.289-.583a8.06 8.06 0 0 0 2.64-1.682 7.5 7.5 0 0 0 1.745-2.557c.418-.972.626-2.041.626-3.208s-.209-2.235-.626-3.207c-.403-.972-.985-1.817-1.745-2.535-.746-.733-1.626-1.293-2.64-1.682-.999-.404-2.096-.605-3.289-.605zm85.378 0c-1.193 0-2.297.202-3.312.605-.999.389-1.872.949-2.617 1.682-.746.718-1.328 1.563-1.745 2.535s-.626 2.04-.626 3.207.209 2.236.626 3.208.992 1.824 1.723 2.557a8.12 8.12 0 0 0 2.618 1.682c1.014.389 2.118.583 3.312.583 1.223 0 2.342-.21 3.357-.628 1.029-.419 1.901-1.031 2.617-1.839l-1.454-1.413c-.597.643-1.268 1.121-2.014 1.435-.746.299-1.544.449-2.394.449a6.67 6.67 0 0 1-2.462-.449 5.9 5.9 0 0 1-1.947-1.256c-.552-.538-.984-1.174-1.298-1.907-.298-.748-.447-1.555-.447-2.423s.149-1.667.447-2.4c.313-.748.746-1.39 1.298-1.929a5.9 5.9 0 0 1 1.947-1.256 6.67 6.67 0 0 1 2.462-.449c.85 0 1.648.157 2.394.471.746.299 1.417.762 2.014 1.39l1.454-1.413c-.716-.807-1.588-1.413-2.617-1.817-1.014-.419-2.126-.628-3.334-.628zm17.769 0c-1.208 0-2.319.202-3.334.605a7.88 7.88 0 0 0-2.64 1.705c-.746.718-1.328 1.562-1.745 2.534s-.626 2.033-.626 3.185.209 2.213.626 3.185 1 1.824 1.745 2.557a8.06 8.06 0 0 0 2.64 1.682c1.029.404 2.14.605 3.334.605s2.29-.195 3.289-.583a8.06 8.06 0 0 0 2.64-1.682 7.5 7.5 0 0 0 1.745-2.557c.418-.972.626-2.041.626-3.208s-.209-2.235-.626-3.207c-.403-.972-.985-1.817-1.745-2.535-.746-.733-1.626-1.293-2.64-1.682-.999-.404-2.096-.605-3.289-.605zm133.425 0c-1.193 0-2.297.202-3.312.605a7.65 7.65 0 0 0-2.618 1.682c-.746.718-1.328 1.563-1.745 2.535s-.626 2.04-.626 3.207.209 2.236.626 3.208.992 1.824 1.723 2.557c.746.718 1.618 1.278 2.617 1.682 1.014.389 2.118.583 3.312.583 1.223 0 2.342-.21 3.357-.628a6.94 6.94 0 0 0 2.618-1.839l-1.455-1.413c-.597.643-1.268 1.121-2.014 1.435-.746.299-1.544.449-2.394.449-.88 0-1.7-.15-2.461-.449a5.9 5.9 0 0 1-1.947-1.256c-.552-.538-.984-1.174-1.298-1.907-.298-.748-.448-1.555-.448-2.423s.149-1.667.448-2.4c.313-.748.746-1.39 1.298-1.929a5.9 5.9 0 0 1 1.947-1.256c.761-.299 1.581-.449 2.461-.449.85 0 1.648.157 2.394.471.746.299 1.417.762 2.014 1.39l1.455-1.413a6.73 6.73 0 0 0-2.618-1.817c-1.014-.419-2.125-.628-3.334-.628zm44.67 0c-1.208 0-2.319.202-3.334.605a7.88 7.88 0 0 0-2.64 1.705c-.746.718-1.328 1.562-1.745 2.534s-.626 2.033-.626 3.185.209 2.213.626 3.185 1 1.824 1.745 2.557a8.06 8.06 0 0 0 2.64 1.682c1.029.404 2.14.605 3.334.605s2.29-.195 3.289-.583a8.06 8.06 0 0 0 2.64-1.682 7.5 7.5 0 0 0 1.745-2.557c.418-.972.626-2.041.626-3.208s-.209-2.235-.626-3.207c-.403-.972-.985-1.817-1.745-2.535-.746-.733-1.626-1.293-2.64-1.682-.999-.404-2.096-.605-3.289-.605zm-434.633.179v15.7h2.238v-15.7zm9.49 0v15.7h2.238V27.868l9.398 11.699h1.835v-15.7h-2.238v11.699l-9.398-11.699zm18.463 0v1.952h5.371v13.749h2.215V25.819h5.371v-1.952zm17.949 0v15.7h11.367v-1.952h-9.129v-5.069h7.854V30.64h-7.854v-4.822h8.816v-1.952zm17.545 0v15.7h2.238V34.79h3.871a11.67 11.67 0 0 0 .995-.041l3.369 4.818h2.439l-3.716-5.256c.146-.053.288-.111.426-.172.97-.434 1.716-1.054 2.238-1.861.522-.822.783-1.802.783-2.938 0-1.72-.582-3.058-1.745-4.015-1.164-.972-2.76-1.458-4.789-1.458zm18.821 0v15.7h2.238V27.869l9.398 11.698h1.835v-15.7h-2.238v11.699l-9.398-11.699zm25.445 0l-7.093 15.7h2.305l1.721-3.925h8.327l1.721 3.925h2.35l-7.115-15.7zm11.168 0v1.952h5.37v13.749h2.215V25.819h5.371v-1.952zm17.949 0v15.7h2.238v-15.7zm30.84 0v15.7h2.238V27.868l9.398 11.699h1.835v-15.7h-2.238v11.699l-9.398-11.699zm25.444 0l-7.093 15.7h2.305l1.721-3.925h8.328l1.72 3.925h2.35l-7.115-15.7zm14.211 0v15.7h10.718v-1.952h-8.481V23.867zm63.492 0v15.7h2.238V27.868l9.398 11.699h1.835v-15.7h-2.238v11.699l-9.398-11.699zm20.723 0v15.7h2.238V33.22h7.854v-1.929h-7.854v-5.472h8.816v-1.952zm16.762 0v15.7h11.367v-1.952h-9.129v-5.069h7.854V30.64h-7.854v-4.822h8.816v-1.952zm17.545 0v15.7h2.238V34.79h3.872c.344 0 .675-.013.994-.041l3.369 4.818h2.439l-3.715-5.256a6.33 6.33 0 0 0 .426-.172c.97-.434 1.715-1.054 2.238-1.861.522-.822.783-1.802.783-2.938 0-1.72-.582-3.058-1.745-4.015-1.164-.972-2.759-1.458-4.788-1.458zm18.821 0v15.7h11.367v-1.952h-9.129v-5.069h7.854V30.64h-7.854v-4.822h8.816v-1.952zm17.545 0v15.7h2.238V27.868l9.398 11.699h1.835v-15.7h-2.238v11.699l-9.398-11.699zm39.23 0v15.7h11.367v-1.952h-9.129v-5.069h7.854V30.64h-7.854v-4.822h8.816v-1.952zm47.468 0v15.7h2.237V27.869l9.398 11.698h1.835v-15.7h-2.237v11.699l-9.398-11.699zm-505.166.127h0c-4.129 0-7.476 3.351-7.477 7.484a7.51 7.51 0 0 0 .414 2.46l-4.167 4.205c-4.954-3.927-11.088-6.065-17.407-6.065-15.484 0-28.037 12.565-28.036 28.064 0 6.406 2.19 12.619 6.205 17.607l-4.057 4.096a7.49 7.49 0 0 0-2.747-.524c-4.13 0-7.478 3.351-7.477 7.484s3.348 7.484 7.477 7.484 7.476-3.351 7.477-7.484a7.51 7.51 0 0 0-.415-2.459l4.167-4.206c4.954 3.927 11.088 6.064 17.407 6.065 15.484 0 28.036-12.565 28.036-28.064 0-6.406-2.19-12.62-6.205-17.608l4.057-4.095a7.49 7.49 0 0 0 2.747.523c4.129 0 7.476-3.351 7.477-7.484s-3.347-7.484-7.477-7.484zm209.644 1.689c.865 0 1.664.15 2.395.449.746.299 1.387.725 1.924 1.278a5.56 5.56 0 0 1 1.276 1.906 6.04 6.04 0 0 1 .47 2.4c0 .867-.157 1.668-.47 2.4a5.8 5.8 0 0 1-1.276 1.929c-.537.538-1.178.957-1.924 1.256-.731.299-1.529.449-2.395.449-.88 0-1.693-.15-2.439-.449-.731-.299-1.372-.718-1.924-1.256-.552-.553-.984-1.196-1.298-1.929-.298-.733-.448-1.533-.448-2.4s.149-1.667.448-2.4c.313-.733.746-1.368 1.298-1.906a5.78 5.78 0 0 1 1.924-1.278c.746-.299 1.559-.449 2.439-.449zm103.148 0c.865 0 1.663.15 2.394.449.746.299 1.388.725 1.925 1.278a5.56 5.56 0 0 1 1.276 1.906c.313.733.47 1.533.47 2.4s-.157 1.668-.47 2.4a5.8 5.8 0 0 1-1.276 1.929c-.537.538-1.179.957-1.925 1.256-.731.299-1.529.449-2.394.449-.88 0-1.693-.15-2.439-.449-.731-.299-1.372-.718-1.924-1.256a6.1 6.1 0 0 1-1.298-1.929c-.298-.733-.447-1.533-.447-2.4s.149-1.667.447-2.4a5.84 5.84 0 0 1 1.298-1.906 5.78 5.78 0 0 1 1.924-1.278c.746-.299 1.559-.449 2.439-.449zm178.096 0c.865 0 1.664.15 2.395.449.746.299 1.387.725 1.924 1.278a5.56 5.56 0 0 1 1.275 1.906 6.04 6.04 0 0 1 .47 2.4c0 .867-.157 1.668-.47 2.4a5.8 5.8 0 0 1-1.275 1.929c-.537.538-1.178.957-1.924 1.256-.731.299-1.529.449-2.395.449-.88 0-1.693-.15-2.439-.449-.731-.299-1.372-.718-1.924-1.256-.552-.553-.984-1.196-1.298-1.929-.298-.733-.448-1.533-.448-2.4s.149-1.667.448-2.4c.313-.733.746-1.368 1.298-1.906a5.78 5.78 0 0 1 1.924-1.278c.746-.299 1.559-.449 2.439-.449zm-368.948.135h3.804c1.432 0 2.514.306 3.244.919.746.613 1.119 1.481 1.119 2.602s-.373 1.996-1.119 2.624c-.731.613-1.812.919-3.244.919h-3.804zm262.4 0h3.804c1.432 0 2.514.306 3.245.919.746.613 1.118 1.481 1.118 2.602s-.373 1.996-1.118 2.624c-.731.613-1.812.919-3.245.919h-3.804zm-133.875.325l3.377 7.704h-6.755zm-85.4 0l3.377 7.703h-6.755zm-165.063.345c2.752 0 4.984 2.234 4.984 4.989s-2.231 4.988-4.984 4.988-4.983-2.233-4.984-4.988 2.231-4.989 4.984-4.989zm0 2.495c-1.376 0-2.492 1.117-2.492 2.494s1.116 2.494 2.492 2.494 2.492-1.117 2.492-2.494-1.116-2.494-2.492-2.494zm-28.636 9.33c12.043.001 21.805 9.773 21.807 21.828s-9.764 21.826-21.807 21.827-21.805-9.773-21.807-21.827 9.764-21.827 21.807-21.828zm36.999.739h0 0zm0 0a11.24 11.24 0 0 1-4.167 2.809 37.66 37.66 0 0 1 4.738 18.281c-.008 9.913-3.926 19.421-10.901 26.458l.015.015-.237.237-2.407 2.41c4.679 4.684 21.374 16.077 26.055 20.761-3.817-3.818-12.088-15.631-17.549-22.403a42.66 42.66 0 0 0 10.03-27.835c-.061-7.274-1.981-14.411-5.576-20.733zm-36.999 8.615a12.47 12.47 0 1 0 0 24.945 12.47 12.47 0 1 0 0-24.945zm169.201 1.956c-1.595 0-3.074.263-4.436.79a10.79 10.79 0 0 0-3.56 2.223c-1.012.956-1.8 2.077-2.365 3.364-.545 1.287-.817 2.691-.817 4.213s.272 2.926.817 4.213a10.44 10.44 0 0 0 2.335 3.364c1.012.956 2.198 1.697 3.56 2.223 1.381.527 2.88.79 4.495.79 1.595 0 3.065-.263 4.407-.79 1.362-.527 2.539-1.258 3.531-2.194 1.012-.956 1.8-2.077 2.365-3.364.564-1.307.846-2.721.846-4.243 0-1.541-.282-2.945-.846-4.213-.564-1.287-1.353-2.408-2.365-3.364-.992-.956-2.169-1.697-3.531-2.223-1.343-.527-2.822-.79-4.436-.79zm22.881 0c-1.926 0-3.532.292-4.816.877-1.265.566-2.218 1.336-2.86 2.311-.623.956-.933 2.019-.933 3.189 0 1.092.214 1.989.642 2.691.448.702 1.021 1.268 1.722 1.697a10.82 10.82 0 0 0 2.305 1.053c.856.273 1.703.508 2.54.703.856.176 1.634.37 2.335.585.7.195 1.265.458 1.693.79.428.312.642.741.642 1.287 0 .429-.136.809-.409 1.141s-.7.595-1.284.79c-.564.176-1.314.263-2.248.263a11.79 11.79 0 0 1-3.648-.585c-1.187-.41-2.218-.926-3.094-1.551l-1.605 3.569c.914.702 2.121 1.278 3.619 1.726a16.98 16.98 0 0 0 4.699.643c1.946 0 3.551-.292 4.816-.877 1.284-.585 2.247-1.355 2.89-2.311s.963-2.009.963-3.16c0-1.073-.224-1.961-.671-2.663-.428-.702-.992-1.267-1.693-1.696s-1.479-.771-2.335-1.024c-.837-.254-1.683-.478-2.539-.673-.837-.195-1.606-.39-2.306-.585s-1.265-.449-1.693-.761c-.428-.332-.642-.761-.642-1.287 0-.449.126-.839.379-1.17.253-.351.672-.634 1.256-.848s1.332-.322 2.247-.322 1.848.137 2.802.41c.953.254 1.907.653 2.86 1.199l1.46-3.599c-.953-.605-2.053-1.054-3.298-1.346a15.55 15.55 0 0 0-3.794-.468zm21.831 0c-1.595 0-3.074.263-4.436.79s-2.549 1.268-3.561 2.223-1.8 2.077-2.364 3.364c-.545 1.287-.818 2.691-.818 4.213s.273 2.926.818 4.213c.564 1.287 1.342 2.408 2.335 3.364 1.012.956 2.199 1.697 3.561 2.223 1.381.527 2.879.79 4.494.79 1.595 0 3.065-.263 4.407-.79 1.362-.527 2.539-1.258 3.532-2.194 1.012-.956 1.8-2.077 2.364-3.364.564-1.307.846-2.721.846-4.243 0-1.541-.282-2.945-.846-4.213-.564-1.287-1.352-2.408-2.364-3.364-.992-.956-2.17-1.697-3.532-2.223-1.343-.527-2.822-.79-4.436-.79zm100.603 0c-1.596 0-3.074.263-4.436.79s-2.549 1.268-3.561 2.223-1.8 2.077-2.364 3.364c-.545 1.287-.817 2.691-.817 4.213s.272 2.926.817 4.213c.564 1.287 1.342 2.408 2.335 3.364 1.012.956 2.199 1.697 3.561 2.223 1.381.527 2.88.79 4.495.79 1.595 0 3.064-.263 4.406-.79 1.362-.527 2.539-1.258 3.532-2.194 1.012-.956 1.8-2.077 2.364-3.364.564-1.307.847-2.721.847-4.243 0-1.541-.283-2.945-.847-4.213-.564-1.287-1.352-2.408-2.364-3.364-.992-.956-2.17-1.697-3.532-2.223-1.343-.527-2.821-.79-4.436-.79zm53.643 0c-1.595 0-3.065.263-4.407.79-1.343.507-2.52 1.238-3.532 2.194-.992.956-1.77 2.077-2.335 3.364-.545 1.287-.817 2.701-.817 4.242s.272 2.955.817 4.243c.564 1.287 1.342 2.408 2.335 3.364s2.16 1.697 3.502 2.223c1.362.507 2.831.761 4.407.761 1.79 0 3.395-.312 4.816-.936 1.44-.624 2.647-1.531 3.619-2.721l-3.035-2.809c-.7.819-1.479 1.433-2.335 1.843-.856.39-1.79.585-2.802.585-.953 0-1.829-.156-2.627-.468s-1.488-.761-2.072-1.346a6.33 6.33 0 0 1-1.372-2.077c-.311-.8-.467-1.688-.467-2.663s.156-1.862.467-2.662a6.33 6.33 0 0 1 1.372-2.077c.584-.585 1.274-1.034 2.072-1.346s1.673-.468 2.627-.468c1.012 0 1.946.205 2.802.615.856.39 1.635.985 2.335 1.784l3.035-2.809c-.973-1.19-2.18-2.087-3.619-2.691-1.42-.624-3.016-.936-4.786-.936zm21.043 0c-1.596 0-3.074.263-4.436.79s-2.549 1.268-3.561 2.223-1.8 2.077-2.364 3.364c-.545 1.287-.817 2.691-.817 4.213s.272 2.926.817 4.213c.564 1.287 1.342 2.408 2.335 3.364 1.012.956 2.199 1.697 3.561 2.223 1.381.527 2.879.79 4.494.79 1.595 0 3.065-.263 4.407-.79 1.362-.527 2.539-1.258 3.532-2.194 1.012-.956 1.8-2.077 2.364-3.364.564-1.307.846-2.721.846-4.243 0-1.541-.282-2.945-.846-4.213-.564-1.287-1.352-2.408-2.364-3.364-.992-.956-2.17-1.697-3.532-2.223-1.343-.527-2.821-.79-4.436-.79zm152.432 0c-1.634 0-3.132.263-4.494.79-1.362.507-2.549 1.238-3.561 2.194s-1.8 2.077-2.364 3.364c-.545 1.287-.817 2.701-.817 4.242s.272 2.955.817 4.243c.564 1.287 1.342 2.408 2.335 3.364 1.012.956 2.189 1.697 3.532 2.223 1.362.507 2.851.761 4.466.761a14.83 14.83 0 0 0 4.378-.673c1.479-.449 2.773-1.092 3.882-1.931v-8.309h-4.319v6.015c-.317.167-.639.308-.963.421-.876.293-1.78.439-2.714.439-.973 0-1.868-.156-2.685-.468-.798-.312-1.499-.761-2.102-1.346a6.67 6.67 0 0 1-1.371-2.106c-.311-.8-.467-1.678-.467-2.633 0-.975.156-1.862.467-2.662.331-.8.787-1.492 1.371-2.077a6.2 6.2 0 0 1 2.131-1.346c.817-.312 1.722-.468 2.714-.468 1.031 0 1.985.195 2.86.585.876.371 1.683.946 2.422 1.726L600 53.165c-.992-1.151-2.218-2.029-3.677-2.633-1.44-.605-3.065-.906-4.874-.906zm-456.757.351v20.478h4.728v-5.646h4.116c1.829 0 3.405-.293 4.728-.878 1.323-.605 2.345-1.462 3.065-2.574s1.08-2.428 1.08-3.95c0-1.541-.36-2.867-1.08-3.979s-1.741-1.96-3.065-2.546c-1.323-.605-2.899-.906-4.728-.906zm21.802 0v20.478h4.729v-8.396h9.281v8.396h4.728V49.976h-4.728v8.074h-9.281v-8.074zm24.312 0v20.478h4.728V49.976zm10.303 0v20.478h14.972v-3.862h-10.244V49.976zm88.088 0v20.478h4.729v-5.646h4.115c1.829 0 3.405-.293 4.728-.878 1.323-.605 2.345-1.462 3.065-2.574s1.08-2.428 1.08-3.95c0-1.541-.36-2.867-1.08-3.979s-1.741-1.96-3.065-2.546c-1.323-.605-2.899-.906-4.728-.906zm21.802 0v20.478h4.728v-8.396h9.281v8.396h4.728V49.976h-4.728v8.074h-9.281v-8.074zm21.159 0l7.909 13.179v7.299h4.729v-7.251l7.938-13.228h-4.64l-5.47 9.091-5.446-9.091zm57.642 0v20.478h4.728v-7.46h9.456v-3.803h-9.456v-5.412h10.711v-3.803zm74.686 0v20.478h4.436V58.428l5.983 9.861h2.13l6.016-10.127.026 12.292h4.436l-.058-20.478h-3.882l-7.524 12.716-7.652-12.716zm28.602 0v20.478h4.728v-5.646h4.115c1.829 0 3.405-.293 4.729-.878 1.323-.605 2.345-1.462 3.065-2.574s1.08-2.428 1.08-3.95c0-1.541-.36-2.867-1.08-3.979s-1.741-1.96-3.065-2.546c-1.323-.605-2.9-.906-4.729-.906zm21.528 0v11.468c0 3.004.817 5.315 2.452 6.934s3.901 2.428 6.8 2.428 5.166-.809 6.8-2.428 2.452-3.93 2.452-6.934V49.976h-4.67v11.292c0 1.95-.399 3.354-1.197 4.213s-1.916 1.287-3.356 1.287-2.559-.429-3.357-1.287-1.196-2.262-1.196-4.213V49.976zm21.195 0v3.862h6.538v16.617h4.728V53.837h6.538v-3.862zm21.072 0v20.478h4.729V49.976zm10.303 0v20.478h4.67V58.025l10.186 12.429h3.882V49.976h-4.669V62.4l-10.157-12.424zm-338.17 3.686c.914 0 1.761.156 2.539.468s1.45.761 2.014 1.346c.584.585 1.031 1.277 1.343 2.077.331.8.496 1.687.496 2.662s-.166 1.863-.496 2.663c-.311.8-.759 1.492-1.343 2.077a6.02 6.02 0 0 1-2.043 1.346c-.759.312-1.595.468-2.51.468s-1.761-.156-2.539-.468a6.02 6.02 0 0 1-2.043-1.346c-.564-.585-1.012-1.277-1.343-2.077-.311-.819-.467-1.707-.467-2.663 0-.975.156-1.862.467-2.662a6.33 6.33 0 0 1 1.372-2.077 6.09 6.09 0 0 1 2.014-1.346c.778-.312 1.624-.468 2.539-.468zm44.712 0c.914 0 1.761.156 2.54.468s1.449.761 2.013 1.346c.584.585 1.031 1.277 1.343 2.077.331.8.496 1.687.496 2.662s-.166 1.863-.496 2.663c-.311.8-.759 1.492-1.343 2.077s-1.264 1.034-2.043 1.346c-.759.312-1.596.468-2.51.468s-1.761-.156-2.539-.468a6.02 6.02 0 0 1-2.043-1.346c-.564-.585-1.012-1.277-1.343-2.077-.311-.819-.466-1.707-.466-2.663 0-.975.155-1.862.466-2.662a6.33 6.33 0 0 1 1.372-2.077 6.09 6.09 0 0 1 2.014-1.346c.778-.312 1.624-.468 2.539-.468zm100.603 0c.914 0 1.761.156 2.539.468s1.45.761 2.014 1.346c.584.585 1.031 1.277 1.343 2.077.331.8.496 1.687.496 2.662s-.165 1.863-.496 2.663c-.311.8-.759 1.492-1.343 2.077a6.02 6.02 0 0 1-2.043 1.346c-.759.312-1.595.468-2.51.468s-1.761-.156-2.54-.468-1.459-.761-2.043-1.346c-.564-.585-1.012-1.277-1.343-2.077-.311-.819-.467-1.707-.467-2.663 0-.975.156-1.862.467-2.662a6.33 6.33 0 0 1 1.372-2.077 6.09 6.09 0 0 1 2.013-1.346c.778-.312 1.625-.468 2.54-.468zm74.686 0c.914 0 1.761.156 2.539.468s1.45.761 2.014 1.346c.584.585 1.031 1.277 1.343 2.077.331.8.496 1.687.496 2.662s-.165 1.863-.496 2.663c-.311.8-.759 1.492-1.343 2.077a6.02 6.02 0 0 1-2.043 1.346c-.759.312-1.595.468-2.51.468s-1.761-.156-2.54-.468-1.459-.761-2.043-1.346c-.564-.585-1.012-1.277-1.343-2.077-.311-.819-.467-1.707-.467-2.663 0-.975.156-1.862.467-2.662a6.33 6.33 0 0 1 1.371-2.077 6.09 6.09 0 0 1 2.014-1.346c.778-.312 1.625-.468 2.54-.468zm-299.597.176h3.853c1.459 0 2.549.312 3.269.936s1.08 1.502 1.08 2.633c0 1.112-.36 1.979-1.08 2.604s-1.81.936-3.269.936h-3.853zm144.505 0h3.852c1.459 0 2.549.312 3.269.936s1.08 1.502 1.08 2.633c0 1.112-.36 1.979-1.08 2.604s-1.81.936-3.269.936h-3.852zm203.89 0h3.853c1.459 0 2.549.312 3.269.936s1.08 1.502 1.08 2.633c0 1.112-.36 1.979-1.08 2.604s-1.81.936-3.269.936h-3.853zM302.229 80.684c-1.193 0-2.297.202-3.312.605a7.65 7.65 0 0 0-2.618 1.682c-.746.718-1.328 1.563-1.745 2.535s-.626 2.04-.626 3.207.209 2.236.626 3.208a8.13 8.13 0 0 0 1.723 2.557c.746.718 1.619 1.278 2.618 1.682 1.014.389 2.118.583 3.312.583 1.223 0 2.342-.21 3.356-.628a6.94 6.94 0 0 0 2.618-1.839l-1.455-1.413c-.597.643-1.267 1.121-2.013 1.435-.746.299-1.544.449-2.395.449-.88 0-1.7-.15-2.461-.449a5.9 5.9 0 0 1-1.947-1.256c-.552-.538-.984-1.174-1.298-1.907-.298-.748-.448-1.555-.448-2.423s.149-1.667.448-2.4c.313-.748.746-1.39 1.298-1.929a5.9 5.9 0 0 1 1.947-1.256c.761-.299 1.581-.449 2.461-.449a6.11 6.11 0 0 1 2.395.471c.746.299 1.417.762 2.013 1.39l1.455-1.413a6.73 6.73 0 0 0-2.618-1.817c-1.014-.419-2.125-.628-3.334-.628zm17.769 0c-1.208 0-2.32.202-3.334.605a7.88 7.88 0 0 0-2.64 1.705 7.69 7.69 0 0 0-1.745 2.534c-.418.972-.627 2.033-.627 3.185s.209 2.213.627 3.185.999 1.824 1.745 2.557a8.06 8.06 0 0 0 2.64 1.682c1.029.404 2.141.605 3.334.605s2.289-.195 3.289-.583a8.06 8.06 0 0 0 2.64-1.682 7.5 7.5 0 0 0 1.745-2.557c.418-.972.626-2.041.626-3.208s-.209-2.235-.626-3.207c-.403-.972-.985-1.817-1.745-2.535-.746-.733-1.626-1.293-2.64-1.682-.999-.404-2.095-.605-3.289-.605zm29.878 0c-1.193 0-2.297.202-3.312.605a7.65 7.65 0 0 0-2.618 1.682c-.746.718-1.328 1.563-1.745 2.535s-.626 2.04-.626 3.207.209 2.236.626 3.208a8.13 8.13 0 0 0 1.723 2.557c.746.718 1.618 1.278 2.617 1.682 1.014.389 2.118.583 3.312.583 1.223 0 2.342-.21 3.357-.628a6.94 6.94 0 0 0 2.618-1.839l-1.455-1.413c-.597.643-1.268 1.121-2.014 1.435-.746.299-1.544.449-2.394.449-.88 0-1.7-.15-2.461-.449a5.9 5.9 0 0 1-1.947-1.256c-.552-.538-.984-1.174-1.298-1.907-.298-.748-.448-1.555-.448-2.423s.149-1.667.448-2.4c.313-.748.746-1.39 1.298-1.929a5.9 5.9 0 0 1 1.947-1.256c.761-.299 1.581-.449 2.461-.449.85 0 1.648.157 2.394.471a5.68 5.68 0 0 1 2.014 1.39l1.455-1.413a6.73 6.73 0 0 0-2.618-1.817c-1.014-.419-2.125-.628-3.334-.628zm65.786 0c-1.208 0-2.32.209-3.334.628-.999.404-1.797.987-2.394 1.75l1.522 1.323a4.41 4.41 0 0 1 1.745-1.279c.671-.284 1.425-.426 2.26-.426 1.089 0 1.917.232 2.484.696s.85 1.099.85 1.907a3.69 3.69 0 0 1-.156 1.032c-.089.344-.276.725-.559 1.144-.269.404-.687.875-1.253 1.413l-6.377 6.168v1.525h11.255v-1.951h-8.023l4.779-4.62c.701-.688 1.238-1.308 1.611-1.861s.626-1.077.761-1.571a5.7 5.7 0 0 0 .201-1.503c0-.897-.224-1.675-.671-2.333-.433-.658-1.051-1.159-1.857-1.503-.806-.359-1.753-.538-2.842-.538zm16.812 0c-1.223 0-2.319.314-3.289.942-.955.628-1.716 1.539-2.282 2.736-.552 1.196-.828 2.647-.828 4.351s.276 3.155.828 4.351c.567 1.196 1.328 2.108 2.282 2.736.97.628 2.066.942 3.289.942 1.208 0 2.298-.314 3.267-.942s1.731-1.54 2.282-2.736.828-2.647.828-4.351-.276-3.155-.828-4.351-1.313-2.108-2.282-2.736-2.059-.942-3.267-.942zm16.047 0c-1.208 0-2.319.209-3.334.628-.999.404-1.798.987-2.395 1.75l1.522 1.323a4.41 4.41 0 0 1 1.745-1.279c.671-.284 1.425-.426 2.26-.426 1.089 0 1.917.232 2.484.696s.85 1.099.85 1.907a3.69 3.69 0 0 1-.156 1.032c-.089.344-.276.725-.559 1.144-.268.404-.687.875-1.253 1.413l-6.377 6.168v1.525h11.255v-1.951h-8.023l4.779-4.62c.701-.688 1.238-1.308 1.611-1.861s.626-1.077.761-1.571a5.7 5.7 0 0 0 .201-1.503c0-.897-.224-1.675-.671-2.333-.433-.658-1.051-1.159-1.857-1.503-.806-.359-1.753-.538-2.842-.538zm-313.815.179v8.926c0 2.273.589 4 1.768 5.181s2.797 1.772 4.856 1.772c2.073 0 3.691-.591 4.855-1.772 1.178-1.181 1.768-2.908 1.768-5.181v-8.926h-2.171v8.837c0 1.749-.388 3.028-1.163 3.835-.761.807-1.85 1.212-3.267 1.212-1.402 0-2.491-.404-3.267-1.212-.761-.807-1.141-2.086-1.141-3.835v-8.837zm20.387 0v15.7h2.238V84.865l9.398 11.699h1.835v-15.7h-2.238v11.698l-9.398-11.698zm25.445 0l-7.093 15.7h2.305l1.72-3.925h8.328l1.721 3.925h2.35l-7.116-15.7zm14.211 0v15.7h2.148V85.187l5.661 9.47h1.03l5.662-9.542.021 11.448h2.148l-.022-15.7h-1.835l-6.448 11.028-6.53-11.028zm32.495 0v15.7h2.148V85.186l5.661 9.471h1.029l5.663-9.543.021 11.449h2.148l-.022-15.7h-1.835l-6.447 11.029-6.53-11.029zm23.923 0v15.7h11.367v-1.951h-9.129v-5.069h7.854v-1.906h-7.854v-4.822h8.817v-1.952zm15.682 0l5.526 7.654-5.884 8.046h2.573l4.635-6.472 4.696 6.472h2.573l-5.923-8.12 5.52-7.58h-2.439l-4.346 6.023-4.381-6.023zm18.866 0v15.7h2.238v-15.7zm75.644 0v15.7h2.238v-15.7zm7.23 0v1.952h5.371v13.749h2.215V82.815h5.37v-1.952zm15.339 0l6.22 10.233v5.467h2.215v-5.432l6.221-10.268h-2.215l-5.033 8.283-5.014-8.283zm76.299 0l-.828 8.209h3.557c1.208 0 2.156.12 2.842.359.701.224 1.194.554 1.477.987s.425.942.425 1.525c0 .852-.321 1.532-.962 2.041s-1.558.763-2.752.763c-.94 0-1.828-.157-2.663-.471s-1.514-.718-2.036-1.212l-1.029 1.772c.656.583 1.499 1.046 2.528 1.39 1.044.344 2.119.516 3.222.516 1.343 0 2.446-.217 3.312-.651.88-.449 1.536-1.039 1.969-1.772.433-.748.649-1.57.649-2.467 0-.927-.217-1.742-.649-2.445-.433-.718-1.126-1.278-2.081-1.682s-2.215-.605-3.782-.605h-1.749l.431-4.306h6.957v-1.952zM319.998 82.68c.865 0 1.663.15 2.394.449.746.299 1.388.725 1.925 1.278a5.56 5.56 0 0 1 1.275 1.907 6.04 6.04 0 0 1 .47 2.4c0 .867-.157 1.668-.47 2.4-.298.733-.723 1.375-1.275 1.929-.537.538-1.179.957-1.925 1.256-.731.299-1.529.449-2.394.449-.88 0-1.693-.15-2.439-.449a5.96 5.96 0 0 1-1.925-1.256c-.552-.553-.984-1.196-1.298-1.929-.298-.733-.448-1.533-.448-2.4s.149-1.667.448-2.4a5.84 5.84 0 0 1 1.298-1.907c.552-.553 1.194-.979 1.925-1.278.746-.299 1.559-.449 2.439-.449zm112.475 0c.82 0 1.537.225 2.148.673.627.449 1.112 1.121 1.455 2.018.358.897.537 2.011.537 3.342s-.179 2.445-.537 3.342c-.343.897-.828 1.57-1.455 2.019-.612.449-1.328.673-2.148.673s-1.544-.225-2.17-.673-1.118-1.122-1.476-2.019c-.343-.897-.515-2.011-.515-3.342s.172-2.445.515-3.342c.358-.897.85-1.569 1.476-2.018s1.35-.673 2.17-.673zm-250.841.46l3.377 7.704h-6.755zm-160.455.676c2.752 0 4.984 2.234 4.984 4.989s-2.231 4.988-4.984 4.988-4.983-2.233-4.984-4.988 2.231-4.989 4.984-4.989z"/></svg>
