<svg xmlns="http://www.w3.org/2000/svg" viewBox="0 0 800 800"><path fill="#000" d="M0 0c30.51 30.51 96.59 124.8 140.31 179a340.9 340.9 0 0 0-37.57 390.71 90 90 0 0 1 33.37-22.47 301 301 0 0 1-37.93-146.2 300.8 300.8 0 0 1 89.18-213.66l-.04-.04.7-.7 20.57-20.57C171.12 128.6 37.46 37.47 0 0m628.23 111.92a59.86 59.86 0 0 0-59.86 59.86 60 60 0 0 0 3.32 19.67l-33.36 33.63a224.5 224.5 0 0 0-139.36-48.51 224.46 224.46 0 0 0-224.46 224.46 224.5 224.5 0 0 0 49.68 140.83l-32.48 32.76a60 60 0 0 0-21.99-4.19 59.86 59.86 0 1 0 0 119.72 59.86 59.86 0 0 0 59.86-59.86 60 60 0 0 0-3.32-19.67l33.36-33.64a224.5 224.5 0 0 0 139.36 48.51 224.46 224.46 0 0 0 224.46-224.46 224.5 224.5 0 0 0-49.68-140.83l32.48-32.76a60 60 0 0 0 21.99 4.19 59.86 59.86 0 1 0 0-119.72zm0 19.95a39.9 39.9 0 1 1 0 79.8 39.9 39.9 0 1 1 0-79.8m0 19.95a19.95 19.95 0 0 0 0 39.9 19.95 19.95 0 0 0 0-39.9m-229.26 74.63a174.6 174.6 0 0 1 174.58 174.58 174.6 174.6 0 0 1-174.58 174.58 174.6 174.6 0 0 1-174.58-174.58 174.6 174.6 0 0 1 174.58-174.58m296.22 5.91a90 90 0 0 1-33.37 22.47 301 301 0 0 1 37.93 146.21 300.8 300.8 0 0 1-87.27 211.62l.12.12-1.9 1.9-19.27 19.27C628.89 671.41 762.55 762.54 800.02 800c-30.56-30.54-96.77-125.02-140.49-179.18a341 341 0 0 0 35.65-388.46zm-296.22 68.91a99.76 99.76 0 0 0 0 199.52 99.76 99.76 0 0 0 0-199.52M169.71 590.39a39.9 39.9 0 1 1 0 79.8 39.9 39.9 0 0 1 0-79.8"/></svg>
