<?xml version="1.0" encoding="UTF-8" standalone="no"?>
<!-- Uploaded to: SVG Repo, www.svgrepo.com, Generator: SVG Repo Mixer Tools -->

<svg
   width="800px"
   height="800px"
   viewBox="0 0 24 24"
   fill="none"
   version="1.1"
   id="svg1"
   xmlns="http://www.w3.org/2000/svg"
   xmlns:svg="http://www.w3.org/2000/svg">
  <defs
     id="defs1" />
  <path
     d="M 22.07837,0.00215221 H 2.0564258 C 1.7983602,-0.00993595 1.5404296,0.02898311 1.2974216,0.11670472 1.0544137,0.20442634 0.83109782,0.33921076 0.64023695,0.51333419 0.44939108,0.68747261 0.29474968,0.89754555 0.1851914,1.1315098 0.07563312,1.3654891 0.01328764,1.6187705 0.0017394,1.8768661 V 21.943848 c 0.01511769,0.540068 0.23645391,1.05404 0.61855059,1.436031 0.38209671,0.382142 0.89597821,0.603508 1.43613581,0.618656 H 22.07837 c 0.52507,-0.0234 1.020144,-0.251662 1.37904,-0.635753 0.358895,-0.384092 0.552965,-0.893414 0.540667,-1.418934 V 1.8768661 C 24.002426,1.6256544 23.955334,1.3762275 23.859798,1.143853 23.764263,0.91149342 23.622234,0.70109053 23.442412,0.52554233 23.262739,0.35000912 23.049022,0.21305002 22.814458,0.12304876 22.579893,0.03304749 22.329432,-0.00809123 22.07837,0.00215221 Z M 7.5005949,20.009144 H 4.0061282 V 9.3157757 H 7.5005949 Z M 5.835849,7.6959779 C 5.5920012,7.7044817 5.3490233,7.6624581 5.1221979,7.5725618 4.8953575,7.4826655 4.6895589,7.3468312 4.5177452,7.1735927 4.3459164,7.0003541 4.2117619,6.7934607 4.1237253,6.5659004 4.0356737,6.3383402 3.9956448,6.0950323 4.0061282,5.8512595 3.9953449,5.6048471 4.0361836,5.3589146 4.1260349,5.1292247 4.2158862,4.8995198 4.3527553,4.6911416 4.5278536,4.5174531 4.7029669,4.3437496 4.9124399,4.2085752 5.1428497,4.1205986 5.3732746,4.0326071 5.619537,3.993763 5.8658444,4.006541 c 0.2438478,-0.00849 0.4868257,0.03352 0.7136511,0.1234162 0.2268404,0.089896 0.432639,0.2257306 0.6044527,0.3989691 0.1718288,0.1732386 0.3059833,0.380132 0.3940199,0.6076923 0.088052,0.2275602 0.1280804,0.4708681 0.117597,0.7146409 C 7.7063485,6.0976719 7.6655097,6.3436044 7.5756584,6.5732943 7.4858072,6.8029992 7.348938,7.0113774 7.1738398,7.1850659 6.9987265,7.3587694 6.7892535,7.4939438 6.5588436,7.5819204 6.3284188,7.6699119 6.0821564,7.708756 5.835849,7.6959779 Z M 20.008686,20.009144 h -3.509465 v -5.849108 c 0,-1.394787 -0.494924,-2.35464 -1.739734,-2.35464 -0.386641,0.0033 -0.762934,0.126131 -1.076986,0.351696 -0.314202,0.225566 -0.550866,0.542767 -0.677746,0.908111 -0.09748,0.273859 -0.138279,0.564664 -0.119982,0.85487 v 6.089071 H 9.4352996 V 9.3157757 h 3.4494734 v 1.4997713 c 0.306703,-0.563464 0.763084,-1.0310928 1.318899,-1.3514439 0.555815,-0.3202011 1.189318,-0.4805567 1.83062,-0.4633243 2.264655,0 3.974394,1.4998162 3.974394,4.6943282 z"
     fill="#000"
     id="path1"
     style="stroke-width:0.999999" />
</svg>
