<?xml version="1.0" encoding="UTF-8" standalone="no"?>
<!-- Created with Inkscape (http://www.inkscape.org/) -->

<svg
   width="210mm"
   height="296.99997mm"
   viewBox="0 0 793.70081 1122.5196"
   version="1.1"
   id="svg1"
   xml:space="preserve"
   xmlns="http://www.w3.org/2000/svg"
   xmlns:svg="http://www.w3.org/2000/svg"><defs
     id="defs1" /><path
     id="path1"
     style="fill:#000;stroke-width:3.77952"
     d="M 634.96096,-0.00195313 V 0 h -79.3711 -79.36914 -79.3711 -79.36914 V 0.00195313 H 238.10938 158.74024 79.369142 0 V 4.9628906 C 0.00118124,26.879381 17.769055,44.646157 39.685548,44.646485 63.40224,44.634601 79.365546,24.820291 79.369142,4.9628906 c 0.0012,21.9164904 17.769056,39.6832664 39.685548,39.6835944 23.71669,-0.01188 39.68195,-19.826194 39.68555,-39.6835944 0.001,21.9164904 17.76905,39.6832664 39.68555,39.6835944 23.71669,-0.01188 39.68001,-19.826194 39.68359,-39.6835944 0.001,21.9164904 17.76906,39.6832664 39.68554,39.6835944 23.71672,-0.012 39.68196,-19.826194 39.68556,-39.6835943 10e-4,21.9164903 17.7671,39.6813123 39.6836,39.6816403 23.7159,-0.012 39.6809,-19.824892 39.68554,-39.6816403 10e-4,21.9164903 17.76906,39.6813123 39.68554,39.6816403 23.7159,-0.012 39.68092,-19.824892 39.68556,-39.6816403 0.001,21.9164903 17.76706,39.6813123 39.68358,39.6816403 23.71592,-0.012 39.68092,-19.824892 39.68556,-39.6816403 10e-4,21.9164903 17.76906,39.6813123 39.68554,39.6816403 23.7167,-0.012 39.68198,-19.826192 39.68556,-39.6835933 10e-4,21.9164913 17.76708,39.6813153 39.68358,39.6816413 23.71594,-0.012 39.6809,-19.824894 39.68556,-39.6816413 10e-4,21.9164913 17.76906,39.6813153 39.68554,39.6816413 23.71668,-0.012 39.68196,-19.826194 39.68556,-39.6835945 v -4.96093763 h -79.3711 z m 39.6875,6.48242193 c 3.2876,0 5.95312,2.6655206 5.95312,5.9531252 0,3.287609 -2.66552,5.951172 -5.95312,5.951172 -3.28762,0 -5.95314,-2.663563 -5.95314,-5.951172 0,-3.2876046 2.66552,-5.9531252 5.95314,-5.9531252 z m 79.36914,0 c 3.28762,0 5.95312,2.6655206 5.95312,5.9531252 0,3.287609 -2.6655,5.951172 -5.95312,5.951172 -3.28762,0 -5.95118,-2.663563 -5.95118,-5.951172 0,-3.2876046 2.66356,-5.9531252 5.95118,-5.9531252 z M 39.6875,6.482422 c 3.287608,0 5.953126,2.6655202 5.953126,5.953125 0,3.287609 -2.665518,5.953125 -5.953126,5.953125 -3.287608,0 -5.953124,-2.665516 -5.953124,-5.953125 0,-3.2876048 2.665516,-5.953125 5.953124,-5.953125 z m 79.3711,0 c 3.2876,0 5.95117,2.6655202 5.95117,5.953125 0,3.287609 -2.66357,5.953125 -5.95117,5.953125 -3.28761,0 -5.95313,-2.665516 -5.95313,-5.953125 0,-3.2876048 2.66552,-5.953125 5.95313,-5.953125 z m 79.36914,0 c 3.2876,0 5.95312,2.6655202 5.95312,5.953125 0,3.287609 -2.66552,5.953125 -5.95312,5.953125 -3.28761,0 -5.95313,-2.665516 -5.95313,-5.953125 0,-3.2876048 2.66552,-5.953125 5.95313,-5.953125 z m 79.3711,0 c 3.2876,0 5.95116,2.6655202 5.95116,5.953125 0,3.287609 -2.66356,5.953125 -5.95116,5.953125 -3.28762,0 -5.95314,-2.665516 -5.95314,-5.953125 0,-3.2876048 2.66552,-5.953125 5.95314,-5.953125 z m 79.36914,0 c 3.28762,0 5.95312,2.663567 5.95312,5.951172 0,3.287609 -2.6655,5.953125 -5.95312,5.953125 -3.28762,0 -5.95312,-2.665516 -5.95312,-5.953125 0,-3.287605 2.6655,-5.951172 5.95312,-5.951172 z m 79.3711,0 c 3.2876,0 5.95116,2.663567 5.95116,5.951172 0,3.287609 -2.66356,5.953125 -5.95116,5.953125 -3.28762,0 -5.95314,-2.665516 -5.95314,-5.953125 0,-3.287605 2.66552,-5.951172 5.95314,-5.951172 z m 79.36914,0 c 3.28762,0 5.95312,2.663567 5.95312,5.951172 0,3.287609 -2.6655,5.953125 -5.95312,5.953125 -3.2876,0 -5.95312,-2.665516 -5.95312,-5.953125 0,-3.287605 2.66552,-5.951172 5.95312,-5.951172 z m 79.36914,0 c 3.28762,0 5.95312,2.663567 5.95312,5.951172 0,3.287609 -2.6655,5.953125 -5.95312,5.953125 -3.2876,0 -5.95118,-2.665516 -5.95118,-5.953125 0,-3.287605 2.66358,-5.951172 5.95118,-5.951172 z m 60.10156,2.1425782 c 1.71886,0 6.87298,3.8085938 8.5918,3.8085938 -1.71882,0 -6.87294,3.806641 -8.5918,3.806641 -2.27096,0 -9.0845,-3.806641 -11.35546,-3.806641 2.27096,0 9.0845,-3.8085938 11.35546,-3.8085938 z m 38.53906,0 c 2.27096,0 9.08452,3.8085938 11.35548,3.8085938 -2.27096,0 -9.08452,3.806641 -11.35548,3.806641 -1.71884,0 -6.87298,-3.806641 -8.5918,-3.806641 1.71882,0 6.87296,-3.8085938 8.5918,-3.8085938 z m 40.83204,0 c 1.71886,0 6.87294,3.8085938 8.5918,3.8085938 -1.71886,0 -6.87294,3.806641 -8.5918,3.806641 -2.27096,0 -9.08452,-3.806641 -11.35548,-3.806641 2.27096,0 9.08452,-3.8085938 11.35548,-3.8085938 z m 38.5371,0 c 2.27094,0 9.08646,3.8085938 11.35742,3.8085938 -2.27096,0 -9.08648,3.806641 -11.35742,3.806641 -1.71886,0 -6.87098,-3.806641 -8.58984,-3.806641 1.71886,0 6.87098,-3.8085938 8.58984,-3.8085938 z m -435.38868,0.00195 c 1.71884,0 6.87296,3.8085938 8.5918,3.8085938 -1.71884,0 -6.87296,3.806641 -8.5918,3.806641 -2.27098,0 -9.0845,-3.806641 -11.35546,-3.806641 2.27096,0 9.08448,-3.8085937 11.35546,-3.8085938 z m 38.53906,0 c 2.27096,0 9.08452,3.8085938 11.35548,3.8085938 -2.27096,0 -9.08452,3.806641 -11.35548,3.806641 -1.71886,0 -6.87294,-3.806641 -8.59178,-3.806641 1.71884,0 6.87292,-3.8085937 8.59178,-3.8085938 z m 40.83204,0 c 1.71884,0 6.87296,3.8085938 8.5918,3.8085938 -1.71884,0 -6.87296,3.806641 -8.5918,3.806641 -2.27096,0 -9.0845,-3.806641 -11.35546,-3.806641 2.27096,0 9.0845,-3.8085937 11.35546,-3.8085938 z m 38.53712,0 c 2.27094,0 9.08646,3.8085938 11.35742,3.8085938 -2.27096,0 -9.08648,3.806641 -11.35742,3.806641 -1.71884,0 -6.87102,-3.806641 -8.58986,-3.806641 1.71884,0 6.87102,-3.8085937 8.58986,-3.8085938 z m 40.83202,0 c 1.71886,0 6.87294,3.8085938 8.5918,3.8085938 -1.71886,0 -6.87294,3.806641 -8.5918,3.806641 -2.27096,0 -9.0845,-3.806641 -11.35546,-3.806641 2.27096,0 9.0845,-3.8085937 11.35546,-3.8085938 z m 38.53906,0 c 2.27098,0 9.0845,3.8085938 11.35548,3.8085938 -2.27098,0 -9.0845,3.806641 -11.35548,3.806641 -1.71884,0 -6.87298,-3.806641 -8.5918,-3.806641 1.71882,0 6.87296,-3.8085937 8.5918,-3.8085938 z m 40.83204,0 c 1.71884,0 6.87296,3.8085938 8.5918,3.8085938 -1.71884,0 -6.87296,3.806641 -8.5918,3.806641 -2.27096,0 -9.0845,-3.806641 -11.35546,-3.806641 2.27096,0 9.0845,-3.8085937 11.35546,-3.8085938 z m 38.5371,0 c 2.27096,0 9.08648,3.8085938 11.35744,3.8085938 -2.27096,0 -9.08648,3.806641 -11.35744,3.806641 -1.71886,0 -6.87098,-3.806641 -8.58984,-3.806641 1.71886,0 6.87098,-3.8085937 8.58984,-3.8085938 z m -594.12891,0.00195 c 1.718846,0 6.87295,3.8085938 8.591796,3.8085938 -1.718846,0 -6.87295,3.806641 -8.591796,3.806641 -2.270961,0 -9.08451,-3.806641 -11.3554698,-3.806641 2.2709598,0 9.0845088,-3.8085938 11.3554698,-3.8085938 z m 38.539062,0 c 2.270956,0 9.084512,3.8085938 11.35547,3.8085938 -2.270958,0 -9.084514,3.806641 -11.35547,3.806641 -1.718848,0 -6.87295,-3.806641 -8.591796,-3.806641 1.718846,0 6.872948,-3.8085938 8.591796,-3.8085938 z m 40.832032,0 c 1.718846,0 6.872956,3.8085938 8.591796,3.8085938 -1.71884,0 -6.87295,3.806641 -8.591796,3.806641 -2.270962,0 -9.084508,-3.806641 -11.355468,-3.806641 2.27096,0 9.084506,-3.8085938 11.355468,-3.8085938 z m 38.537116,0 c 2.27095,0 9.08646,3.8085938 11.35742,3.8085938 -2.27096,0 -9.08647,3.806641 -11.35742,3.806641 -1.71885,0 -6.871,-3.806641 -8.58985,-3.806641 1.71885,0 6.871,-3.8085938 8.58985,-3.8085938 z m 40.83203,0 c 1.71884,0 6.87295,3.8085938 8.59179,3.8085938 -1.71884,0 -6.87295,3.806641 -8.59179,3.806641 -2.27096,0 -9.08451,-3.806641 -11.35547,-3.806641 2.27096,0 9.08451,-3.8085938 11.35547,-3.8085938 z m 38.53907,0 c 2.27096,0 9.0845,3.8085938 11.35546,3.8085938 -2.27096,0 -9.0845,3.806641 -11.35546,3.806641 -1.71886,0 -6.87296,-3.806641 -8.5918,-3.806641 1.71884,0 6.87294,-3.8085938 8.5918,-3.8085938 z m 40.83202,0 c 1.71886,0 6.87294,3.8085938 8.5918,3.8085938 -1.71886,0 -6.87294,3.806641 -8.5918,3.806641 -2.27096,0 -9.0845,-3.806641 -11.35546,-3.806641 2.27096,0 9.0845,-3.8085938 11.35546,-3.8085938 z m 38.53712,0 c 2.27096,0 9.08646,3.8085938 11.35742,3.8085938 -2.27096,0 -9.08646,3.806641 -11.35742,3.806641 -1.71884,0 -6.87102,-3.806641 -8.58986,-3.806641 1.71884,0 6.87102,-3.8085938 8.58986,-3.8085938 z m 369.2461,11.8066408 c -0.98964,1.055116 -1.18028,6.825744 -2.16992,7.88086 -1.30812,1.395912 -8.01028,2.977132 -9.31836,4.373046 1.30808,-1.395914 2.45556,-8.18417 3.76366,-9.580078 0.98964,-1.05512 6.73498,-1.618712 7.72462,-2.673828 z m 16.67774,0 c 0.98964,1.055116 6.73496,1.618708 7.7246,2.673828 1.3081,1.395908 2.45362,8.184164 3.76172,9.580078 -1.3081,-1.395914 -8.00828,-2.977134 -9.3164,-4.373046 -0.98964,-1.055116 -1.18028,-6.825744 -2.16992,-7.88086 z m 62.6914,0 c -0.98966,1.055116 -1.18028,6.825744 -2.16992,7.88086 -1.3081,1.395912 -8.0083,2.977132 -9.31642,4.373046 1.30812,-1.395914 2.45362,-8.18417 3.76172,-9.580078 0.98964,-1.05512 6.73496,-1.618712 7.72462,-2.673828 z m 16.67774,0 c 0.98966,1.055116 6.73692,1.618708 7.72656,2.673828 1.3081,1.395908 2.4536,8.184164 3.76172,9.580078 -1.30812,-1.395914 -8.01026,-2.977134 -9.31836,-4.373046 -0.98962,-1.055116 -1.18026,-6.825744 -2.16992,-7.88086 z m -413.52736,0.002 c -0.98966,1.055118 -1.18026,6.82574 -2.16992,7.880858 -1.3081,1.395912 -8.01026,2.977134 -9.31836,4.373048 1.3081,-1.395914 2.45554,-8.184168 3.76366,-9.580078 0.98962,-1.05512 6.73496,-1.61871 7.72462,-2.673828 z m 16.67774,0 c 0.98966,1.055118 6.73496,1.618708 7.7246,2.673828 1.30812,1.39591 2.4536,8.184164 3.76172,9.580078 -1.30812,-1.395914 -8.0083,-2.977136 -9.3164,-4.373048 -0.98964,-1.055118 -1.18026,-6.82574 -2.16992,-7.880858 z m 62.6914,0 c -0.98964,1.055118 -1.1803,6.82574 -2.16992,7.880858 -1.30812,1.395912 -8.0083,2.977134 -9.3164,4.373048 1.3081,-1.395914 2.45364,-8.184168 3.76172,-9.580078 0.98964,-1.05512 6.73496,-1.61871 7.7246,-2.673828 z m 16.67968,0 c 0.98964,1.055118 6.73496,1.618708 7.72462,2.673828 1.30808,1.39591 2.45362,8.184164 3.76172,9.580078 -1.3081,-1.395914 -8.01024,-2.977136 -9.31836,-4.373048 -0.98962,-1.055118 -1.17834,-6.82574 -2.16798,-7.880858 z m 62.69142,0 c -0.98962,1.055118 -1.18028,6.82574 -2.16992,7.880858 -1.3081,1.395912 -8.01024,2.977134 -9.31836,4.373048 1.30812,-1.395914 2.45554,-8.184168 3.76366,-9.580078 0.98964,-1.05512 6.735,-1.61871 7.72462,-2.673828 z m 16.67774,0 c 0.98962,1.055118 6.73496,1.618708 7.7246,2.673828 1.30812,1.39591 2.45362,8.184164 3.76172,9.580078 -1.3081,-1.395914 -8.0083,-2.977136 -9.3164,-4.373048 -0.98966,-1.055118 -1.1803,-6.82574 -2.16992,-7.880858 z m 62.6914,0 c -0.98964,1.055118 -1.1803,6.82574 -2.16992,7.880858 -1.30812,1.395912 -8.00828,2.977134 -9.3164,4.373048 1.30812,-1.395914 2.4536,-8.184168 3.76172,-9.580078 0.98962,-1.05512 6.73494,-1.61871 7.7246,-2.673828 z m 16.67774,0 c 0.98964,1.055118 6.73692,1.618708 7.72656,2.673828 1.30812,1.39591 2.4536,8.184164 3.76172,9.580078 -1.30812,-1.395914 -8.01024,-2.977136 -9.31836,-4.373048 -0.98964,-1.055118 -1.18028,-6.82574 -2.16992,-7.880858 z m -572.267596,0.002 c -0.989642,1.055116 -1.180286,6.825742 -2.169922,7.88086 -1.308108,1.395912 -8.010252,2.977132 -9.31836,4.373046 1.308108,-1.395914 2.455564,-8.184168 3.763672,-9.580078 0.989638,-1.05512 6.734968,-1.618712 7.72461,-2.673828 z m 16.677734,0 c 0.98964,1.055116 6.73497,1.618708 7.72461,2.673828 1.308108,1.39591 2.453606,8.184164 3.761718,9.580078 -1.308112,-1.395914 -8.0083,-2.977134 -9.316406,-4.373046 -0.989638,-1.055118 -1.180282,-6.825744 -2.169922,-7.88086 z m 62.691412,0 c -0.98965,1.055116 -1.18029,6.825742 -2.16993,7.88086 -1.30811,1.395912 -8.00829,2.977132 -9.316402,4.373046 1.308112,-1.395914 2.453612,-8.184168 3.761722,-9.580078 0.98963,-1.05512 6.73496,-1.618712 7.72461,-2.673828 z m 16.67968,0 c 0.98964,1.055116 6.73497,1.618708 7.72461,2.673828 1.30811,1.39591 2.45361,8.184164 3.76172,9.580078 -1.30811,-1.395914 -8.01025,-2.977134 -9.31836,-4.373046 -0.98964,-1.055118 -1.17833,-6.825744 -2.16797,-7.88086 z m 62.69141,0 c -0.98964,1.055116 -1.18029,6.825742 -2.16992,7.88086 -1.30811,1.395912 -8.01025,2.977132 -9.31836,4.373046 1.30811,-1.395914 2.45557,-8.184168 3.76367,-9.580078 0.98964,-1.05512 6.73497,-1.618712 7.72461,-2.673828 z m 16.67774,0 c 0.98964,1.055116 6.73494,1.618708 7.7246,2.673828 1.3081,1.39591 2.4536,8.184164 3.76172,9.580078 -1.30812,-1.395914 -8.00828,-2.977134 -9.3164,-4.373046 -0.98964,-1.055118 -1.18028,-6.825744 -2.16992,-7.88086 z m 62.6914,0 c -0.98964,1.055116 -1.1803,6.825742 -2.16992,7.88086 -1.30812,1.395912 -8.00828,2.977132 -9.3164,4.373046 1.30812,-1.395914 2.45362,-8.184168 3.76172,-9.580078 0.98964,-1.05512 6.73496,-1.618712 7.7246,-2.673828 z m 16.6797,0 c 0.98964,1.055116 6.73496,1.618708 7.7246,2.673828 1.3081,1.39591 2.45362,8.184164 3.76172,9.580078 -1.3081,-1.395914 -8.01024,-2.977134 -9.31836,-4.373046 -0.98964,-1.055118 -1.17832,-6.825744 -2.16796,-7.88086 z m 388.50782,2.671876 h 0.002 0.002 c 0.0328,1.45395 3.4676,5.357238 3.78906,7.05078 0.29616,1.736708 -3.78906,7.70283 -3.78906,9.746094 h -0.002 c 0,-2.016478 -4.04984,-7.99516 -3.79686,-9.705078 v -0.002 c 0.002,-0.012 0.006,-0.02566 0.006,-0.03906 0.27382,-1.598304 3.78906,-5.654866 3.78906,-7.05078 z m 79.37108,0 h 0.002 c 0.0328,1.45395 3.46762,5.357238 3.78906,7.05078 0.29614,1.736708 -3.78906,7.70283 -3.78906,9.746094 h -0.002 c 0,-2.016478 -4.04794,-7.99516 -3.79492,-9.705078 v -0.002 c 0.002,-0.012 0.006,-0.02566 0.006,-0.03906 0.27382,-1.598304 3.78906,-5.654866 3.78906,-7.05078 z m -396.85156,0.002 h 0.002 0.002 c 0.0328,1.45395 3.46762,5.35724 3.78906,7.050782 0.29616,1.736706 -3.78906,7.70283 -3.78906,9.746094 h -0.002 c 0,-2.016478 -4.04988,-7.997112 -3.79688,-9.707032 0.002,-0.012 0.006,-0.02568 0.006,-0.03906 0.27382,-1.598304 3.78906,-5.654868 3.78906,-7.050782 z m 79.3711,0 h 0.002 c 0.0328,1.45395 3.46762,5.35724 3.78906,7.050782 0.29616,1.736706 -3.78906,7.70283 -3.78906,9.746094 h -0.002 c 0,-2.016478 -4.04792,-7.997112 -3.79492,-9.707032 0.002,-0.012 0.006,-0.02568 0.006,-0.03906 0.27382,-1.598304 3.78906,-5.654868 3.78906,-7.050782 z m 79.36914,0 h 0.002 0.002 c 0.0328,1.45395 3.46764,5.35724 3.78906,7.050782 0.29616,1.736706 -3.78906,7.70283 -3.78906,9.746094 h -0.002 c 0,-2.016478 -4.04986,-7.997112 -3.79686,-9.707032 0.002,-0.012 0.006,-0.02568 0.006,-0.03906 0.2738,-1.598304 3.78906,-5.654868 3.78906,-7.050782 z m 79.3711,0 h 0.002 c 0.0328,1.45395 3.46762,5.35724 3.78906,7.050782 0.29614,1.736706 -3.78906,7.70283 -3.78906,9.746094 h -0.002 c 0,-2.016478 -4.04792,-7.997112 -3.79494,-9.707032 0.002,-0.012 0.006,-0.02568 0.006,-0.03906 0.27382,-1.598304 3.78908,-5.654868 3.78908,-7.050782 z m -555.589866,0.002 h 0.002 c 0.03276,1.45395 3.467618,5.357236 3.789062,7.05078 0.29615,1.736706 -3.789062,7.70283 -3.789062,9.746094 h -0.002 c 0,-2.01648 -4.049866,-7.997112 -3.796876,-9.70703 v -0.002 c 0.0016,-0.012 0.0062,-0.02372 0.0078,-0.0371 0.273824,-1.5983 3.789048,-5.65486 3.789062,-7.05078 z m 79.369146,0 h 0.002 c 0.0328,1.45395 3.46762,5.357236 3.78906,7.05078 0.29615,1.736706 -3.78906,7.70283 -3.78906,9.746094 h -0.002 c 0,-2.01648 -4.04792,-7.997112 -3.79493,-9.70703 v -0.002 c 0.002,-0.012 0.004,-0.02372 0.006,-0.0371 0.27383,-1.5983 3.78905,-5.65486 3.78907,-7.05078 z m 79.37109,0 h 0.002 c 0.0328,1.45395 3.46759,5.357236 3.78905,7.05078 0.29614,1.736706 -3.78905,7.70283 -3.78905,9.746094 h -0.002 c 0,-2.01648 -4.04986,-7.997112 -3.79687,-9.70703 v -0.002 c 0.002,-0.012 0.006,-0.02372 0.008,-0.0371 0.27382,-1.5983 3.78905,-5.65486 3.78906,-7.05078 z m 79.36915,0 h 0.002 c 0.0328,1.45395 3.46762,5.357236 3.78908,7.05078 0.29614,1.736706 -3.78908,7.70283 -3.78908,9.746094 h -0.002 c 0,-2.01648 -4.0479,-7.997112 -3.79492,-9.70703 v -0.002 c 0.002,-0.012 0.006,-0.02372 0.006,-0.0371 0.27382,-1.598304 3.78906,-5.654866 3.78906,-7.05078 z" /></svg>
