<svg xmlns="http://www.w3.org/2000/svg" width="1133.858" height="347.717" viewBox="0 0 300 92" xmlns:v="https://vecta.io/nano"><path fill="#000" d="M46.01 0a3.07 3.07 0 0 0-3.071 3.071c-.001 1.107.595 2.128 1.56 2.673l1.513 7.544 1.501-7.537c.97-.543 1.571-1.568 1.569-2.679A3.07 3.07 0 0 0 46.01 0zm20.061 5.028l-.001.001a3.07 3.07 0 0 0-2.604 1.627c-.523.981-.473 2.168.129 3.102l-2.214 7.359 4.878-5.951a3.07 3.07 0 0 0 1.362-5.78 3.07 3.07 0 0 0-1.549-.358zm-40.12.001a3.07 3.07 0 0 0-2.819 4.51 3.07 3.07 0 0 0 2.632 1.628l4.878 5.951-2.214-7.36c.602-.934.652-2.121.129-3.102a3.07 3.07 0 0 0-2.604-1.627zM175.35 16.121c-1.135 0-2.187.187-3.156.561s-1.813.901-2.533 1.58a7.27 7.27 0 0 0-1.682 2.391c-.388.915-.581 1.913-.581 2.994s.194 2.079.581 2.994a7.42 7.42 0 0 0 1.661 2.391c.72.679 1.564 1.206 2.533 1.58.983.374 2.049.562 3.198.562 1.135 0 2.18-.187 3.136-.562a7.62 7.62 0 0 0 2.512-1.559 7.27 7.27 0 0 0 1.682-2.391c.401-.929.602-1.934.602-3.015 0-1.095-.201-2.093-.602-2.994a7.27 7.27 0 0 0-1.682-2.391c-.706-.679-1.543-1.206-2.512-1.58-.955-.374-2.007-.561-3.156-.561zm16.16 0c-1.37 0-2.512.208-3.426.624-.9.402-1.578.95-2.035 1.643a4.06 4.06 0 0 0-.664 2.266c0 .776.152 1.414.457 1.913.318.499.727.901 1.225 1.206s1.045.555 1.64.749l1.806.499 1.661.416c.498.139.9.325 1.204.561a1.07 1.07 0 0 1 .457.915 1.24 1.24 0 0 1-.29.811c-.194.236-.499.423-.914.562-.401.125-.934.187-1.599.187-.872 0-1.737-.139-2.595-.416-.844-.291-1.578-.658-2.201-1.102l-1.142 2.537c.651.499 1.508.908 2.574 1.227 1.066.305 2.18.458 3.343.458 1.384 0 2.527-.208 3.426-.624.914-.416 1.599-.963 2.055-1.643a3.94 3.94 0 0 0 .685-2.246c0-.762-.159-1.393-.477-1.892-.305-.499-.706-.901-1.204-1.206s-1.052-.548-1.661-.728l-1.806-.478-1.64-.416c-.498-.139-.9-.319-1.204-.541-.305-.236-.457-.541-.457-.915a1.33 1.33 0 0 1 .27-.832c.18-.249.478-.451.893-.603s.948-.229 1.599-.229 1.315.097 1.993.291a8.49 8.49 0 0 1 2.035.852l1.038-2.557c-.678-.43-1.461-.748-2.347-.956a11.07 11.07 0 0 0-2.699-.333zm15.413 0c-1.135 0-2.187.187-3.156.561s-1.813.901-2.533 1.58a7.27 7.27 0 0 0-1.682 2.391c-.388.915-.581 1.913-.581 2.994s.194 2.079.581 2.994a7.42 7.42 0 0 0 1.661 2.391c.72.679 1.564 1.206 2.533 1.58.983.374 2.049.562 3.198.562 1.135 0 2.18-.187 3.136-.562a7.62 7.62 0 0 0 2.512-1.559 7.27 7.27 0 0 0 1.682-2.391c.401-.929.602-1.934.602-3.015 0-1.095-.201-2.093-.602-2.994a7.27 7.27 0 0 0-1.682-2.391c-.706-.679-1.543-1.206-2.512-1.58-.955-.374-2.007-.561-3.156-.561zm71.207 0c-1.135 0-2.187.187-3.156.561s-1.813.901-2.533 1.58a7.27 7.27 0 0 0-1.682 2.391c-.388.915-.581 1.913-.581 2.994s.194 2.079.581 2.994a7.42 7.42 0 0 0 1.661 2.391c.72.679 1.564 1.206 2.533 1.58.983.374 2.049.562 3.198.562 1.135 0 2.18-.187 3.136-.562.969-.374 1.806-.894 2.512-1.559a7.27 7.27 0 0 0 1.682-2.391c.401-.929.602-1.934.602-3.015 0-1.095-.201-2.093-.602-2.994a7.27 7.27 0 0 0-1.682-2.391c-.706-.679-1.543-1.206-2.512-1.58-.955-.374-2.007-.561-3.156-.561zm-232.12.25c-10.803 0-20.75 5.873-25.966 15.329L0 34.766l21.924.001c4.369-9.353 13.761-15.33 24.087-15.33s19.718 5.977 24.087 15.33h21.923L71.978 31.7C66.762 22.243 56.814 16.37 46.01 16.37zm171.799 0v14.554h3.364v-4.013h2.928c1.301 0 2.422-.208 3.363-.624.941-.43 1.668-1.04 2.18-1.83s.768-1.726.768-2.807c0-1.095-.256-2.038-.768-2.828s-1.239-1.393-2.18-1.809c-.941-.43-2.062-.644-3.363-.644zm15.392 0v14.554h3.364v-5.967h6.603v5.967h3.364V16.37h-3.364v5.738h-6.603V16.37zm15.163 0l5.627 9.367v5.187h3.363v-5.153l5.648-9.402h-3.301l-3.891 6.461-3.875-6.461zm40.652 0v14.554h3.364v-5.302h6.727V22.92h-6.727v-3.846H300V16.37zm-173.181.249v14.554h3.364v-4.013h2.928c1.301 0 2.422-.208 3.364-.624.941-.43 1.668-1.04 2.18-1.83s.768-1.726.768-2.807c0-1.095-.256-2.038-.768-2.828s-1.239-1.393-2.18-1.809c-.941-.43-2.062-.645-3.364-.645zm15.392 0v14.554h3.364v-5.967h6.603v5.967h3.364V16.62h-3.364v5.739h-6.603V16.62zm17.178 0v14.554h3.364V16.62zm7.211 0v14.554h10.652V28.43h-7.288V16.62zm-74.058 2.309a3.07 3.07 0 0 0-1.652.524c-.922.621-1.436 1.692-1.343 2.799l-5.412 5.459 7.102-2.966a3.07 3.07 0 0 0 3.918-4.464 3.07 3.07 0 0 0-2.359-1.348v.001c-.084-.005-.169-.007-.253-.005zm-71.095.001a3.07 3.07 0 0 0-.253.005v-.001a3.07 3.07 0 0 0-1.53 5.61 3.07 3.07 0 0 0 3.088.203l7.102 2.966-5.412-5.459c.093-1.107-.421-2.178-1.343-2.799a3.07 3.07 0 0 0-1.652-.524zm164.888.06c.651 0 1.253.111 1.806.333s1.031.54 1.433.956c.415.416.734.908.955 1.476.235.568.353 1.199.353 1.892s-.117 1.324-.353 1.892c-.221.568-.54 1.061-.955 1.476a4.28 4.28 0 0 1-1.453.956c-.54.222-1.135.333-1.786.333s-1.253-.111-1.806-.333a4.28 4.28 0 0 1-1.454-.956c-.401-.416-.72-.908-.955-1.476-.221-.582-.333-1.213-.333-1.892 0-.693.111-1.324.333-1.892a4.5 4.5 0 0 1 .976-1.476 4.33 4.33 0 0 1 1.433-.956c.554-.222 1.156-.333 1.806-.333zm31.573 0c.651 0 1.253.111 1.806.333s1.031.54 1.433.956c.415.416.734.908.955 1.476.235.568.353 1.199.353 1.892s-.117 1.324-.353 1.892c-.221.568-.54 1.061-.955 1.476a4.28 4.28 0 0 1-1.453.956c-.54.222-1.135.333-1.786.333s-1.253-.111-1.806-.333a4.28 4.28 0 0 1-1.454-.956c-.401-.416-.72-.908-.955-1.476-.221-.582-.332-1.213-.332-1.892 0-.693.111-1.324.332-1.892a4.5 4.5 0 0 1 .976-1.476 4.33 4.33 0 0 1 1.433-.956c.554-.222 1.156-.333 1.806-.333zm71.207 0c.651 0 1.253.111 1.806.333s1.031.54 1.433.956c.415.416.734.908.955 1.476.235.568.353 1.199.353 1.892s-.118 1.324-.353 1.892c-.221.568-.54 1.061-.955 1.476a4.28 4.28 0 0 1-1.453.956c-.54.222-1.135.333-1.786.333s-1.253-.111-1.807-.333a4.28 4.28 0 0 1-1.454-.956c-.401-.416-.72-.908-.955-1.476-.221-.582-.332-1.213-.332-1.892 0-.693.111-1.324.332-1.892a4.5 4.5 0 0 1 .976-1.476 4.33 4.33 0 0 1 1.433-.956c.554-.222 1.156-.333 1.807-.333zm-56.957.125h2.741c1.038 0 1.814.222 2.326.665s.768 1.067.768 1.871c0 .79-.256 1.407-.768 1.851s-1.287.665-2.326.665h-2.741zm-101.974.249h2.741c1.038 0 1.814.222 2.326.666s.768 1.067.768 1.871c0 .79-.256 1.407-.768 1.85s-1.287.666-2.326.666h-2.741zM46.01 25.568a20.45 20.45 0 0 0-20.288 17.886h-11.88c-1.059-2.77-3.719-4.6-6.685-4.599C3.204 38.854-.001 42.057 0 46.009s3.204 7.156 7.157 7.154c2.967.001 5.626-1.829 6.685-4.6h11.88a20.45 20.45 0 0 0 40.577 0h11.88c1.059 2.77 3.719 4.6 6.685 4.599 3.953.001 7.157-3.202 7.157-7.154s-3.204-7.155-7.157-7.154c-2.967-.001-5.626 1.829-6.685 4.599h-11.88A20.45 20.45 0 0 0 46.01 25.568zm0 5.111c8.47 0 15.336 6.864 15.336 15.33s-6.867 15.33-15.336 15.33-15.336-6.863-15.336-15.33 6.866-15.33 15.336-15.33zm0 6.132c-5.082 0-9.202 4.118-9.202 9.198s4.12 9.198 9.202 9.198 9.201-4.117 9.202-9.197a9.2 9.2 0 0 0-9.202-9.199zm78.517 1.588c-1.367 0-2.626.226-3.776.676-1.15.434-2.159 1.06-3.025 1.878-.85.818-1.517 1.778-2 2.879-.467 1.102-.7 2.312-.7 3.631s.234 2.529.7 3.631c.483 1.102 1.15 2.062 2 2.879s1.85 1.452 3.001 1.903c1.167.434 2.425.651 3.776.651 1.534 0 2.909-.267 4.126-.801 1.234-.534 2.267-1.311 3.1-2.329l-2.6-2.404c-.6.701-1.267 1.227-2 1.577-.733.334-1.534.501-2.4.501-.817 0-1.567-.134-2.25-.401a5.1 5.1 0 0 1-1.775-1.152 5.42 5.42 0 0 1-1.175-1.778c-.267-.684-.4-1.444-.4-2.279s.133-1.594.4-2.278c.283-.684.675-1.277 1.175-1.778a5.1 5.1 0 0 1 1.775-1.152c.683-.267 1.433-.401 2.25-.401.867 0 1.667.175 2.4.526.733.334 1.4.843 2 1.527l2.6-2.404c-.833-1.018-1.867-1.786-3.1-2.304-1.217-.534-2.584-.801-4.101-.801zm21.009 0c-1.367 0-2.634.226-3.801.676s-2.183 1.085-3.05 1.903-1.542 1.778-2.026 2.879c-.467 1.102-.7 2.303-.7 3.605s.233 2.504.7 3.605c.483 1.102 1.15 2.062 2 2.88.867.818 1.884 1.452 3.05 1.903 1.184.451 2.467.676 3.851.676 1.367 0 2.625-.225 3.776-.676 1.167-.451 2.175-1.077 3.025-1.878.867-.818 1.542-1.778 2.025-2.879.483-1.118.725-2.329.725-3.631 0-1.319-.242-2.52-.725-3.605-.483-1.102-1.159-2.062-2.025-2.879-.85-.818-1.859-1.452-3.025-1.903-1.15-.451-2.417-.676-3.801-.676zm147.137 0c-1.4 0-2.684.226-3.851.676-1.167.434-2.184 1.06-3.05 1.878s-1.542 1.778-2.026 2.879c-.467 1.102-.7 2.312-.7 3.631s.233 2.529.7 3.631c.483 1.102 1.15 2.062 2 2.879.867.818 1.875 1.452 3.026 1.903 1.167.434 2.442.651 3.826.651 1.25 0 2.5-.192 3.75-.576 1.267-.384 2.375-.935 3.326-1.652v-7.111h-3.701v5.149c-.272.143-.547.263-.825.36-.75.25-1.525.376-2.325.376-.833 0-1.6-.134-2.3-.401-.683-.267-1.284-.651-1.8-1.152a5.71 5.71 0 0 1-1.175-1.803c-.267-.684-.4-1.436-.4-2.254 0-.835.133-1.594.4-2.278.283-.684.675-1.277 1.175-1.778a5.31 5.31 0 0 1 1.825-1.152c.7-.267 1.475-.401 2.325-.401a5.96 5.96 0 0 1 2.451.501c.75.317 1.442.81 2.075 1.477l2.6-2.404c-.85-.985-1.9-1.736-3.15-2.254-1.234-.517-2.625-.776-4.176-.776zm-131.528.301v17.527h3.801V45.932l5.126 8.441h1.825l5.153-8.667.023 10.52h3.801l-.05-17.527h-3.325l-6.446 10.883-6.556-10.883zm26.86 0v17.527h4.05v-4.832h3.526c1.567 0 2.917-.25 4.05-.751 1.133-.517 2.009-1.252 2.626-2.203s.925-2.078.925-3.38c0-1.319-.308-2.454-.925-3.405s-1.492-1.677-2.626-2.178c-1.134-.517-2.483-.776-4.05-.776zm20.8 0v9.815c0 2.571.7 4.549 2.1 5.934s3.342 2.078 5.826 2.078 4.426-.693 5.826-2.078 2.1-3.364 2.1-5.934v-9.815h-4v9.665c0 1.669-.342 2.871-1.025 3.606s-1.642 1.102-2.876 1.102-2.192-.367-2.875-1.102-1.025-1.936-1.025-3.606v-9.665zm20.564 0v3.305h5.601v14.222h4.051V42.004h5.601v-3.305zm20.409 0v17.527h4.051V38.699zm11.183 0v17.527h4.001V45.588l8.726 10.638h3.326V38.699h-4.001v10.634l-8.702-10.634zM84.864 41.239c2.635.001 4.77 2.136 4.771 4.77s-2.137 4.769-4.771 4.77-4.77-2.136-4.771-4.77 2.137-4.769 4.771-4.77zm60.673.614c.783 0 1.509.134 2.176.401a4.9 4.9 0 0 1 1.725 1.152c.5.501.883 1.093 1.15 1.778.283.684.425 1.444.425 2.278s-.142 1.594-.425 2.279c-.267.684-.65 1.277-1.15 1.778s-1.084.884-1.751 1.152c-.65.267-1.367.401-2.15.401s-1.508-.134-2.175-.401-1.25-.651-1.751-1.152a5.63 5.63 0 0 1-1.15-1.778c-.267-.701-.4-1.461-.4-2.279 0-.835.133-1.594.4-2.278a5.42 5.42 0 0 1 1.175-1.778 5.22 5.22 0 0 1 1.725-1.152c.667-.267 1.392-.401 2.175-.401zm46.519.15h3.301c1.25 0 2.184.267 2.801.801s.925 1.285.925 2.254c0 .951-.308 1.694-.925 2.228s-1.55.801-2.801.801h-3.301zM84.864 43.623c-1.318 0-2.386 1.068-2.386 2.385s1.069 2.384 2.386 2.384 2.385-1.067 2.386-2.384-1.069-2.384-2.386-2.384zM0 57.251l20.043 3.067c5.216 9.456 15.165 15.329 25.968 15.328s20.751-5.873 25.967-15.33l20.039-3.065H70.097c-4.369 9.353-13.761 15.33-24.087 15.33s-19.718-5.977-24.087-15.33zm145.739 6.471c-1.02 0-1.863.155-2.528.466-.654.3-1.142.705-1.463 1.216-.31.5-.466 1.049-.466 1.649 0 .622.127 1.133.382 1.532.255.389.588.699.998.933a7.37 7.37 0 0 0 1.381.583c.51.144 1.015.272 1.514.383a9.96 9.96 0 0 1 1.364.4c.421.144.76.338 1.015.583.266.244.399.567.399.966a1.56 1.56 0 0 1-.299.933c-.2.266-.51.478-.932.633s-.97.233-1.646.233a6.11 6.11 0 0 1-2.146-.383c-.687-.255-1.253-.577-1.697-.966l-.615 1.299c.466.433 1.103.788 1.913 1.066.809.266 1.657.4 2.544.4 1.02 0 1.863-.15 2.528-.45.676-.311 1.175-.716 1.497-1.216a3.04 3.04 0 0 0 .482-1.649c0-.611-.128-1.11-.383-1.499a2.83 2.83 0 0 0-1.014-.933 6.2 6.2 0 0 0-1.381-.566 24.67 24.67 0 0 0-1.497-.383 16.03 16.03 0 0 1-1.381-.4c-.41-.144-.748-.339-1.014-.583-.255-.244-.382-.572-.382-.982 0-.344.094-.655.282-.933.2-.278.51-.5.932-.666s.959-.25 1.613-.25c.521 0 1.059.078 1.613.233.554.144 1.081.383 1.58.716l.549-1.333c-.488-.333-1.064-.588-1.73-.766s-1.336-.266-2.012-.266zm54.826 0c-.887 0-1.708.15-2.462.45-.743.289-1.391.705-1.946 1.249a5.71 5.71 0 0 0-1.297 1.882c-.31.722-.466 1.515-.466 2.382s.155 1.66.466 2.382.737 1.355 1.281 1.899c.554.533 1.203.949 1.946 1.249.754.289 1.575.433 2.462.433.909 0 1.741-.156 2.495-.467a5.16 5.16 0 0 0 1.946-1.366l-1.081-1.049c-.444.477-.943.833-1.497 1.066a4.74 4.74 0 0 1-1.78.333 4.96 4.96 0 0 1-1.829-.333c-.554-.222-1.037-.533-1.447-.933s-.732-.871-.964-1.415c-.222-.555-.333-1.155-.333-1.799s.111-1.238.333-1.782a4.29 4.29 0 0 1 .964-1.432c.41-.4.893-.711 1.447-.933a4.96 4.96 0 0 1 1.829-.333c.632 0 1.225.117 1.78.35.554.222 1.054.566 1.497 1.032l1.081-1.049a5 5 0 0 0-1.946-1.349c-.754-.311-1.58-.466-2.478-.466zm35.727 0c-.909 0-1.741.15-2.495.45-.754.289-1.414.705-1.979 1.249a5.71 5.71 0 0 0-1.297 1.882c-.31.722-.466 1.515-.466 2.382s.155 1.66.466 2.382a5.9 5.9 0 0 0 1.297 1.899c.554.533 1.209.949 1.963 1.249.754.289 1.58.433 2.478.433.821 0 1.613-.122 2.378-.367.776-.255 1.452-.627 2.029-1.116v-4.547h-1.597v3.794c-.301.199-.617.355-.948.47-.565.189-1.159.283-1.78.283-.665 0-1.281-.111-1.846-.333s-1.059-.533-1.48-.933a4.53 4.53 0 0 1-.965-1.432 4.76 4.76 0 0 1-.332-1.782c0-.644.111-1.238.332-1.782.233-.555.555-1.033.965-1.432.421-.4.915-.711 1.48-.933a5.14 5.14 0 0 1 1.863-.333c.654 0 1.258.111 1.813.333.565.211 1.087.55 1.563 1.016l1.031-1.033a5 5 0 0 0-1.946-1.349c-.765-.3-1.608-.45-2.528-.45zm28.669 0c-.898 0-1.724.15-2.478.45s-1.408.722-1.963 1.266a5.71 5.71 0 0 0-1.297 1.882c-.31.722-.466 1.51-.466 2.365s.156 1.643.466 2.365a5.9 5.9 0 0 0 1.297 1.899c.554.533 1.209.949 1.963 1.249.765.3 1.591.45 2.478.45s1.702-.145 2.445-.433c.754-.3 1.408-.716 1.963-1.249a5.57 5.57 0 0 0 1.297-1.899c.31-.722.466-1.516.466-2.382s-.155-1.66-.466-2.382a5.4 5.4 0 0 0-1.297-1.882c-.554-.544-1.209-.961-1.963-1.249-.743-.3-1.558-.45-2.445-.45zm-149.903.133v11.659h1.663v-3.548h2.877a8.71 8.71 0 0 0 .739-.031l2.504 3.578h1.813l-2.762-3.903c.109-.039.214-.082.317-.127.721-.322 1.275-.783 1.663-1.382.388-.611.582-1.338.582-2.182s-.194-1.571-.582-2.182-.942-1.077-1.663-1.399-1.591-.483-2.611-.483zm13.977 0v11.659h8.449v-1.449h-6.785V70.3h5.838v-1.416h-5.838v-3.581h6.553v-1.449zm25.243 0v11.659h8.449v-1.449h-6.786V70.3h5.838v-1.416h-5.838v-3.581h6.553v-1.449zm16.538 0l-5.272 11.659h1.713l1.279-2.915h6.19l1.279 2.915h1.746l-5.289-11.659zm10.551 0v11.659h1.663v-3.548h2.877a8.71 8.71 0 0 0 .739-.031l2.504 3.578h1.813l-2.762-3.903a4.68 4.68 0 0 0 .317-.127c.721-.322 1.275-.783 1.663-1.382.388-.611.582-1.338.582-2.182s-.194-1.571-.582-2.182-.942-1.077-1.663-1.399-1.591-.483-2.611-.483zm27.887 0v11.659h1.663v-5.197h6.686v5.197h1.663V63.854h-1.663v5.013h-6.686v-5.013zm36.475 0v11.659h1.663v-3.548h2.877c.256 0 .503-.01.74-.031l2.504 3.578h1.813l-2.762-3.903a4.68 4.68 0 0 0 .317-.127c.721-.322 1.275-.783 1.663-1.382.388-.611.582-1.338.582-2.182s-.194-1.571-.582-2.182-.943-1.077-1.663-1.399-1.591-.483-2.611-.483zm29.733 0v6.629c0 1.688.438 2.97 1.314 3.847s2.079 1.316 3.609 1.316c1.541 0 2.744-.439 3.609-1.316.876-.877 1.314-2.159 1.314-3.847v-6.629h-1.613v6.562c0 1.299-.288 2.248-.865 2.848-.565.6-1.375.899-2.428.899-1.042 0-1.852-.3-2.428-.899-.565-.6-.848-1.549-.848-2.848v-6.562zm15.141 0v11.659h1.663v-3.531h2.877c1.02 0 1.891-.161 2.611-.483.721-.333 1.275-.8 1.663-1.399.388-.611.582-1.338.582-2.182s-.194-1.571-.582-2.182-.943-1.077-1.663-1.399-1.591-.483-2.611-.483zm-25.642 1.349c.643 0 1.236.111 1.78.333.554.222 1.031.539 1.43.949a4.13 4.13 0 0 1 .948 1.416 4.48 4.48 0 0 1 .349 1.782c0 .644-.116 1.238-.349 1.782-.222.544-.538 1.022-.948 1.432-.399.4-.876.711-1.43.933a4.66 4.66 0 0 1-1.78.333c-.654 0-1.259-.111-1.813-.333a4.43 4.43 0 0 1-1.43-.933c-.41-.411-.732-.888-.964-1.432-.222-.544-.333-1.138-.333-1.782s.111-1.238.333-1.782c.233-.544.554-1.016.964-1.416a4.3 4.3 0 0 1 1.43-.949c.554-.222 1.159-.333 1.813-.333zm-148.24.1h2.827c1.064 0 1.868.228 2.412.683.554.455.832 1.099.832 1.932s-.277 1.482-.832 1.949c-.543.455-1.347.683-2.412.683h-2.827zm66.308 0h2.827c1.064 0 1.868.228 2.412.683.554.455.832 1.099.832 1.932s-.277 1.482-.832 1.949c-.543.455-1.347.683-2.412.683h-2.827zm64.362 0h2.827c1.064 0 1.868.228 2.412.683.554.455.832 1.099.832 1.932s-.277 1.482-.832 1.949c-.543.455-1.347.683-2.412.683h-2.827zm44.874 0h2.828c1.064 0 1.868.228 2.412.683.554.455.831 1.099.831 1.932s-.277 1.477-.831 1.932c-.543.455-1.347.683-2.412.683h-2.828zm-120.636.242l2.51 5.721h-5.021zM10.333 66.932a3.07 3.07 0 0 0-2.481 4.786 3.07 3.07 0 1 0 5.093-3.433 3.07 3.07 0 0 0-2.359-1.348c-.084-.005-.169-.007-.253-.005zm71.356 0c-.084-.002-.168 0-.253.005a3.07 3.07 0 0 0-1.53 5.61 3.07 3.07 0 1 0 3.435-5.091 3.07 3.07 0 0 0-1.652-.524zM25.736 80.836a3.07 3.07 0 0 0-1.335 5.78 3.07 3.07 0 0 0 2.885-5.422 3.07 3.07 0 0 0-1.549-.358zm40.548 0a3.07 3.07 0 0 0-2.819 4.51c.796 1.498 2.657 2.067 4.155 1.27a3.07 3.07 0 0 0-1.334-5.78zM46.01 85.86a3.07 3.07 0 1 0 0 6.14 3.07 3.07 0 1 0 0-6.14z"/></svg>
