<?xml version="1.0" encoding="UTF-8" standalone="no"?>
<!-- Created with Inkscape (http://www.inkscape.org/) -->

<svg
   width="210mm"
   height="296.99997mm"
   viewBox="0 0 793.70081 1122.5196"
   version="1.1"
   id="svg1"
   xml:space="preserve"
   xmlns="http://www.w3.org/2000/svg"
   xmlns:svg="http://www.w3.org/2000/svg"><defs
     id="defs1" /><g
     id="layer1"><g
       id="g5"
       transform="matrix(1.1993044,0,0,1.1993044,-8.5389341e-6,2.8438871e-7)"
       style="display:inline;stroke-width:0.833817"><path
         id="rect2-1"
         style="fill:#bc5fd3;fill-opacity:1;stroke-width:21.6437;stroke-linecap:round;stroke-miterlimit:0;paint-order:markers stroke fill"
         d="M 56.692869,56.692913 V 907.08652 h 168.198101 1.88062 v -0.10505 a 17.007875,17.007875 0 0 0 15.12636,-16.90193 17.007875,17.007875 0 0 0 -15.12636,-16.90341 v -0.21011 a 17.007875,17.007875 0 0 0 15.12636,-16.90341 17.007875,17.007875 0 0 0 -15.12636,-16.90193 v -0.21011 a 17.007875,17.007875 0 0 0 15.12636,-16.90341 17.007875,17.007875 0 0 0 -15.12636,-16.90193 v -0.21011 a 17.007875,17.007875 0 0 0 15.12636,-16.90341 17.007875,17.007875 0 0 0 -15.12636,-16.90341 v -0.21011 a 17.007875,17.007875 0 0 0 15.12636,-16.90193 17.007875,17.007875 0 0 0 -15.12636,-16.90341 v -0.21011 a 17.007875,17.007875 0 0 0 15.12636,-16.90193 17.007875,17.007875 0 0 0 -15.12636,-16.90341 v -0.2101 a 17.007875,17.007875 0 0 0 15.12636,-16.90341 17.007875,17.007875 0 0 0 -15.12636,-16.90193 v -0.21011 a 17.007875,17.007875 0 0 0 15.12636,-16.90341 17.007875,17.007875 0 0 0 -15.12636,-16.90341 v -0.21011 a 17.007875,17.007875 0 0 0 15.12636,-16.90193 17.007875,17.007875 0 0 0 -15.12636,-16.90341 v -0.21011 a 17.007875,17.007875 0 0 0 15.12636,-16.90193 17.007875,17.007875 0 0 0 -15.12636,-16.90341 v -0.21011 a 17.007875,17.007875 0 0 0 15.12636,-16.90341 17.007875,17.007875 0 0 0 -15.12636,-16.90193 v -0.21011 a 17.007875,17.007875 0 0 0 15.12636,-16.9034 17.007875,17.007875 0 0 0 -15.12636,-16.90193 v -0.21011 a 17.007875,17.007875 0 0 0 15.12636,-16.90341 17.007875,17.007875 0 0 0 -15.12636,-16.90341 v -0.21011 a 17.007875,17.007875 0 0 0 15.12636,-16.90193 17.007875,17.007875 0 0 0 -15.12636,-16.90341 v -0.21011 a 17.007875,17.007875 0 0 0 15.12636,-16.90193 17.007875,17.007875 0 0 0 -15.12636,-16.90341 v -0.21011 a 17.007875,17.007875 0 0 0 15.12636,-16.90341 17.007875,17.007875 0 0 0 -15.12636,-16.90193 v -0.21011 a 17.007875,17.007875 0 0 0 15.12636,-16.90341 17.007875,17.007875 0 0 0 -15.12636,-16.90193 v -0.21011 a 17.007875,17.007875 0 0 0 15.12636,-16.9034 17.007875,17.007875 0 0 0 -15.12636,-16.90341 v -0.21011 a 17.007875,17.007875 0 0 0 15.12636,-16.90193 17.007875,17.007875 0 0 0 -15.12636,-16.90341 v -0.21011 a 17.007875,17.007875 0 0 0 15.12636,-16.90193 17.007875,17.007875 0 0 0 -15.12636,-16.90341 v -0.21011 a 17.007875,17.007875 0 0 0 15.12636,-16.90341 17.007875,17.007875 0 0 0 -15.12636,-16.90193 v -0.21011 a 17.007875,17.007875 0 0 0 15.12636,-16.90341 17.007875,17.007875 0 0 0 -15.12636,-16.90193 v -0.21011 a 17.007875,17.007875 0 0 0 15.12636,-16.90341 17.007875,17.007875 0 0 0 -15.12636,-16.90341 v -0.2101 a 17.007875,17.007875 0 0 0 15.12636,-16.90193 17.007875,17.007875 0 0 0 -15.12636,-16.903414 v -0.210109 a 17.007875,17.007875 0 0 0 15.12636,-16.90193 17.007875,17.007875 0 0 0 -15.12636,-16.903409 v -0.105055 h -1.88062 z m 176.703071,10.995207 6.01178,6.013257 -6.01178,6.011778 -6.01474,-6.011778 z m 0,34.01545 6.01178,6.01326 -6.01178,6.01177 -6.01474,-6.01177 z m 0,34.01545 6.01178,6.01325 -6.01178,6.01326 -6.01474,-6.01326 z m 0,34.01692 6.01178,6.01178 -6.01178,6.01326 -6.01474,-6.01326 z m 0,34.01545 6.01178,6.01178 -6.01178,6.01326 -6.01474,-6.01326 z m 0,34.01545 6.01178,6.01326 -6.01178,6.01178 -6.01474,-6.01178 z m 0,34.01545 6.01178,6.01326 -6.01178,6.01178 -6.01474,-6.01178 z m 0,34.01693 6.01178,6.01178 -6.01178,6.01325 -6.01474,-6.01325 z m 0,34.01545 6.01178,6.01177 -6.01178,6.01326 -6.01474,-6.01326 z m 0,34.01544 6.01178,6.01178 -6.01178,6.01326 -6.01474,-6.01326 z m 0,34.01545 6.01178,6.01326 -6.01178,6.01178 -6.01474,-6.01178 z m 0,34.01545 6.01178,6.01326 -6.01178,6.01178 -6.01474,-6.01178 z m 0,34.01693 6.01178,6.01178 -6.01178,6.01325 -6.01474,-6.01325 z m 0,34.01545 6.01178,6.01178 -6.01178,6.01325 -6.01474,-6.01325 z m 0,34.01545 6.01178,6.01177 -6.01178,6.01326 -6.01474,-6.01326 z m 0,34.01544 6.01178,6.01326 -6.01178,6.01178 -6.01474,-6.01178 z m 0,34.01545 6.01178,6.01326 -6.01178,6.01178 -6.01474,-6.01178 z m 0,34.01693 6.01178,6.01178 -6.01178,6.01326 -6.01474,-6.01326 z m 0,34.01545 6.01178,6.01178 -6.01178,6.01325 -6.01474,-6.01325 z m 0,34.01545 6.01178,6.01325 -6.01178,6.01178 -6.01474,-6.01178 z m 0,34.01544 6.01178,6.01326 -6.01178,6.01178 -6.01474,-6.01178 z m 0,34.01545 6.01178,6.01326 -6.01178,6.01178 -6.01474,-6.01178 z m 0,34.01693 6.01178,6.01178 -6.01178,6.01326 -6.01474,-6.01326 z m 0,34.01545 6.01178,6.01178 -6.01178,6.01326 -6.01474,-6.01326 z m 0,34.01545 6.01178,6.01326 -6.01178,6.01177 -6.01474,-6.01177 z"
         transform="matrix(1.100638,0,0,1.100638,-62.398319,-62.398375)" /></g></g></svg>
