<?xml version="1.0" encoding="UTF-8" standalone="no"?>

<svg
   width="800px"
   height="800px"
   viewBox="0 0 24 24"
   fill="none"
   version="1.1"
   id="svg1"
   xmlns="http://www.w3.org/2000/svg"
   xmlns:svg="http://www.w3.org/2000/svg">
  <defs
     id="defs1" />
  <path
     d="M 12,0 C 9.6266664,0 7.3065463,0.7037867 5.3331596,2.0223601 3.3597728,3.3409468 1.8217061,5.2150803 0.91345268,7.4078004 0.0051993,9.6005338 -0.23244071,12.013334 0.23058598,14.341067 c 0.46301335,2.327734 1.60590672,4.466001 3.28413352,6.144267 1.6782401,1.678134 3.8164268,2.821067 6.1442136,3.284134 2.3277339,0.462933 4.7405339,0.225333 6.9333339,-0.682934 2.192667,-0.908266 4.0668,-2.446266 5.385333,-4.419733 C 23.296267,16.693468 24,14.373334 24,12.000001 24,8.8174004 22.735734,5.7651603 20.485334,3.5147202 18.2348,1.2642801 15.182667,0 12,0 Z m 9.946667,11.000001 h -3.68 c -0.465733,-3.2119873 -1.824,-6.2286808 -3.92,-8.7066676 2.0104,0.4897201 3.82,1.5893868 5.180667,3.1482002 1.360666,1.5588001 2.205733,3.5003868 2.419333,5.5584674 z m -14.2000006,2 H 16.253333 C 15.637467,16.158401 14.166267,19.087068 12,21.466668 9.8337331,19.087068 8.3625331,16.158401 7.7466664,13.000001 Z m 0,-2 C 8.3625331,7.8415871 9.8337331,4.9129069 12,2.5333335 c 2.166267,2.3795734 3.637467,5.3082536 4.253333,8.4666675 z M 9.6533331,2.2933334 C 7.5573063,4.7713202 6.1990929,7.7880137 5.7333329,11.000001 H 2.0533327 C 2.2669461,8.9419204 3.1120395,7.0003337 4.4727195,5.4415336 5.8333863,3.8827202 7.6429997,2.7830535 9.6533331,2.2933334 Z M 2.0533327,12.960001 h 3.6800002 c 0.46576,3.212 1.8239734,6.228667 3.9200002,8.706667 C 7.6488797,21.179334 5.8435196,20.085601 4.4834395,18.534668 3.1233461,16.983601 2.2747461,15.050934 2.0533327,13.000001 Z m 12.2933343,8.706667 c 2.096,-2.478 3.454267,-5.494667 3.92,-8.706667 h 3.68 c -0.205733,2.0652 -1.047333,4.015733 -2.408533,5.582267 -1.361334,1.566666 -3.175201,2.672266 -5.191467,3.1644 z"
     fill="#000"
     id="path1"
     style="stroke-width:1" />
</svg>
