<svg xmlns="http://www.w3.org/2000/svg" width="112" height="50" fill="none"><path d="M5.781 0C2.588 0 0 2.588 0 5.781v13.492c0 3.194 2.588 5.783 5.781 5.783h18.275V0H5.781zm19.275 0v25.057.016h25.057v-.016A25.06 25.06 0 0 0 25.057 0zm49.168 3.154c-.624-.006-1.242.131-1.805.4a4.51 4.51 0 0 0-1.436 1.09 5.21 5.21 0 0 0-.949 1.584c-.221.587-.332 1.212-.332 1.873a5.14 5.14 0 0 0 .332 1.82 5.55 5.55 0 0 0 .965 1.6c.407.473.904.861 1.461 1.143a4.06 4.06 0 0 0 1.818.412l-.002.002c1.2 0 2.249-.501 3.145-1.506v1.438h.813V8.199h-2.99v.744h2.178v1.621c-.441.531-.9.932-1.379 1.205-.533.294-1.097.441-1.695.441a3.37 3.37 0 0 1-1.447-.318c-.441-.22-.831-.519-1.17-.895a4.23 4.23 0 0 1-.787-1.311c-.183-.495-.275-1.021-.275-1.572a4.93 4.93 0 0 1 .234-1.516c.165-.487.405-.924.717-1.309a3.61 3.61 0 0 1 1.117-.924c.44-.229.932-.344 1.475-.344.61-.008 1.212.139 1.75.428.524.285.942.729 1.254 1.336l.742-.494c-.312-.634-.771-1.15-1.377-1.545s-1.39-.594-2.355-.594zm-9.791.07L60.34 13.01h1.033l1.256-3.061h4.395l1.268 3.061h1.02l-4.064-9.785h-.812zm15.783 0v9.785h.965V3.225h-.965zm3.418 0v9.785h6.615v-.855H84.6v-8.93h-.965zm8.035 0v9.785h6.574v-.855l-5.609-.002V8.42h4.783v-.814h-4.783V4.078h5.484v-.854H91.67zM64.832 4.354l1.973 4.838h-.002-3.969l1.998-4.838zm17.689 16.135a4.27 4.27 0 0 0-1.805.385 3.2 3.2 0 0 0-1.336 1.104c-.34.487-.512 1.092-.512 1.818 0 .478.088.887.262 1.227.174.33.445.62.813.869.367.239.837.453 1.406.646l1.074.346a3.85 3.85 0 0 1 .801.303c.203.101.303.248.303.441 0 .129-.058.233-.178.316-.11.073-.313.111-.607.111a3.99 3.99 0 0 1-1.129-.166c-.367-.11-.702-.235-1.006-.373a7.67 7.67 0 0 1-.73-.371l-.275-.166-1.158 2.355a8.2 8.2 0 0 0 1.311.607 11.19 11.19 0 0 0 1.475.4c.514.092 1.005.137 1.473.137.454.001.909-.05 1.352-.152.427-.104.833-.279 1.199-.521a2.58 2.58 0 0 0 .854-.951c.211-.404.318-.9.318-1.488 0-.615-.12-1.108-.359-1.475-.239-.377-.578-.683-1.02-.922a8.45 8.45 0 0 0-1.572-.635l-.979-.305c-.266-.083-.473-.174-.621-.275s-.221-.234-.221-.4c0-.174.074-.297.221-.371a1.26 1.26 0 0 1 .566-.111c.304.002.606.049.896.139a6.41 6.41 0 0 1 .84.316 5.65 5.65 0 0 1 .621.305l.232.139 1.158-2.221-1.033-.469c-.387-.165-.804-.302-1.254-.412a5.27 5.27 0 0 0-1.379-.18zm13.953.012c-.675-.006-1.343.119-1.969.371a4.95 4.95 0 0 0-1.602 1.049 4.89 4.89 0 0 0-1.061 1.545c-.257.588-.385 1.227-.385 1.916 0 .799.122 1.511.371 2.135.242.591.599 1.13 1.049 1.584a4.61 4.61 0 0 0 1.516.994 5.06 5.06 0 0 0 1.82.332l-.002-.004c.906 0 1.711-.299 2.414-.891v.824h2.217v-5.209H96.82v1.93h1.697a3.75 3.75 0 0 1-.83.645 2.58 2.58 0 0 1-1.24.316 2.3 2.3 0 0 1-.924-.178 2.25 2.25 0 0 1-.715-.523 2.58 2.58 0 0 1-.455-.812c-.111-.314-.166-.664-.166-1.049-.004-.35.046-.698.15-1.033a2.58 2.58 0 0 1 .455-.828 2.22 2.22 0 0 1 .703-.537 2.01 2.01 0 0 1 .883-.193 2.3 2.3 0 0 1 1.227.359c.373.216.676.536.869.922l1.998-1.527c-.349-.662-.883-1.181-1.6-1.559-.716-.385-1.516-.578-2.398-.578zm-35.459.07v9.785h3.762c.991 0 1.857-.202 2.592-.607.729-.389 1.328-.983 1.723-1.709.414-.735.621-1.597.621-2.59 0-.9-.19-1.72-.566-2.455-.364-.74-.939-1.354-1.654-1.764-.727-.44-1.631-.66-2.715-.66h-3.762zm9.865 0v9.785h6.973v-2.342l.002-.002h-4.287v-1.543h3.555v-2.18h-3.555v-1.377h4.162V20.57h-6.85zm16.729 0v9.785h2.688V20.57h-2.687zm14.563 0v9.785h2.686v-4.809l3.887 4.809h2.137V20.57h-2.687v4.975l-3.928-4.975h-2.094zm-38.469 2.344h1.074c.459 0 .855.106 1.186.316a2.03 2.03 0 0 1 .758.896c.174.377.262.816.262 1.322a3.24 3.24 0 0 1-.262 1.322 2.11 2.11 0 0 1-.758.91c-.321.221-.717.332-1.186.332h-1.074v-5.1zm-38.646 3.158l.002 23.01a1.03 1.03 0 0 0 1.029 1.031 24.03 24.03 0 0 0 24.025-24.025v-.016H25.057zm39.377 11.764c-.623-.005-1.238.126-1.805.385a3.2 3.2 0 0 0-1.336 1.102c-.34.487-.512 1.092-.512 1.818 0 .478.088.887.262 1.227.174.33.444.62.813.869.367.239.837.455 1.406.648l1.074.344a3.85 3.85 0 0 1 .801.303c.203.101.303.248.303.441 0 .129-.058.233-.178.316-.111.073-.313.111-.607.111a3.97 3.97 0 0 1-1.129-.166 7.91 7.91 0 0 1-1.006-.373l-.73-.371-.275-.166-1.158 2.355a8.2 8.2 0 0 0 1.311.607 11.19 11.19 0 0 0 1.475.4 8.41 8.41 0 0 0 1.473.137 5.97 5.97 0 0 0 1.352-.15 3.81 3.81 0 0 0 1.197-.523 2.57 2.57 0 0 0 .855-.951c.212-.404.318-.9.318-1.488 0-.615-.12-1.108-.359-1.475-.239-.377-.579-.683-1.021-.922s-.964-.452-1.57-.635l-.979-.303c-.266-.083-.473-.176-.621-.277s-.221-.234-.221-.4c0-.174.074-.297.221-.371a1.26 1.26 0 0 1 .566-.109c.303.002.605.047.895.137a6.41 6.41 0 0 1 .842.318 5.63 5.63 0 0 1 .619.303l.234.137h.002l1.156-2.219-1.033-.467c-.387-.165-.804-.304-1.254-.414a5.27 5.27 0 0 0-1.379-.178zm42.631.027a5.02 5.02 0 0 0-2.012.4 4.9 4.9 0 0 0-1.584 1.102 5.12 5.12 0 0 0-1.033 1.572 4.74 4.74 0 0 0-.373 1.859 5.11 5.11 0 0 0 .344 1.846c.239.588.579 1.13 1.006 1.6a5.14 5.14 0 0 0 1.572 1.129c.606.276 1.282.414 2.027.414a4.95 4.95 0 0 0 2.012-.4 5.04 5.04 0 0 0 1.57-1.102c.442-.457.793-.995 1.033-1.584a4.69 4.69 0 0 0 .371-1.848c0-.624-.119-1.23-.357-1.818-.229-.594-.564-1.14-.992-1.611a4.69 4.69 0 0 0-1.557-1.131 4.71 4.71 0 0 0-2.027-.428zm-22.936.053v5.031a4.23 4.23 0 0 1-.096.91 2.79 2.79 0 0 1-.305.799c-.128.229-.302.413-.523.551-.22.128-.49.193-.811.193-.313 0-.581-.065-.801-.193-.212-.138-.385-.322-.523-.551a2.58 2.58 0 0 1-.303-.785 4.3 4.3 0 0 1-.096-.924v-5.029h-2.689v5.029a6.79 6.79 0 0 0 .25 1.848c.156.559.417 1.083.771 1.543a3.7 3.7 0 0 0 1.377 1.063c.561.256 1.23.385 2.012.385h.002c.762 0 1.418-.121 1.969-.359a3.64 3.64 0 0 0 1.377-1.033c.367-.456.64-.98.801-1.543.183-.587.275-1.222.275-1.902v-5.031h-2.687zm-15.311.002v2.342h2.826v7.441h2.688V40.26h2.811v-2.342h-8.324zm19.545 0v9.783h3.762c.992 0 1.857-.2 2.592-.605a4.22 4.22 0 0 0 1.721-1.709c.414-.735.621-1.597.621-2.59 0-.9-.187-1.72-.564-2.455a4.14 4.14 0 0 0-1.654-1.764c-.727-.44-1.633-.66-2.717-.66h-3.76zm9.863 0v9.783h2.687v-9.783h-2.687zm8.797 2.33c.343-.007.683.063.994.207.278.132.517.335.703.578s.325.519.412.813a3.36 3.36 0 0 1 0 1.9 2.62 2.62 0 0 1-.4.842c-.174.249-.404.444-.687.592s-.623.221-1.008.221-.721-.069-1.006-.207c-.276-.146-.504-.339-.687-.578a2.74 2.74 0 0 1-.414-.828 3.4 3.4 0 0 1-.137-.963 3.54 3.54 0 0 1 .123-.936c.084-.299.224-.581.412-.828.182-.247.418-.449.689-.592.285-.147.621-.221 1.006-.221zm-15.973.014h1.074c.459 0 .855.104 1.186.314a2.03 2.03 0 0 1 .758.896c.174.377.262.818.262 1.324a3.24 3.24 0 0 1-.262 1.322 2.11 2.11 0 0 1-.758.91c-.321.221-.717.33-1.186.33h-1.074v-5.098z" fill="#000"/></svg>
