<svg xmlns="http://www.w3.org/2000/svg" width="112" height="50" fill="none"><path d="M25.057 25.057h25.057v1.03c0 13.268-10.758 24.026-24.027 24.026a1.03 1.03 0 0 1-1.029-1.03z" fill="#cc97e2"/><path d="M25.057 0a25.06 25.06 0 0 1 25.057 25.057H25.057z" fill="#c787e2"/><path d="M0 5.782C0 2.589 2.589 0 5.782 0h19.274v25.057H5.782C2.589 25.057 0 22.468 0 19.274z" fill="#c172e2"/><path d="M64.433 3.224h.813l4.065 9.785h-1.02l-1.268-3.06h-4.395l-1.255 3.06H60.34zm2.371 5.967l-1.972-4.838-1.998 4.838h3.969zm7.475 3.886c-.63.005-1.253-.136-1.819-.413-.557-.282-1.053-.67-1.46-1.143s-.737-1.015-.965-1.6a5.14 5.14 0 0 1-.332-1.819c0-.661.111-1.287.332-1.874.22-.581.542-1.117.95-1.584a4.51 4.51 0 0 1 1.434-1.089c.563-.269 1.181-.406 1.805-.4.965 0 1.75.198 2.356.593s1.066.91 1.378 1.544l-.744.496c-.312-.607-.73-1.052-1.254-1.337-.538-.289-1.14-.436-1.75-.428-.543 0-1.034.116-1.474.345-.431.229-.811.543-1.117.923-.312.385-.551.822-.716 1.309a4.93 4.93 0 0 0-.235 1.516c0 .551.093 1.076.276 1.571.184.488.446.924.786 1.311.339.376.73.675 1.171.895.45.211.933.317 1.447.317.598 0 1.162-.147 1.695-.441.533-.304 1.043-.767 1.529-1.392v1.02c-.928 1.121-2.026 1.682-3.294 1.682zm3.142-4.134h-2.177v-.744h2.99v4.81h-.812V8.942zm2.796 4.066V3.224h.965v9.785zm3.418 0V3.224h.965v8.93h5.65v.855zm14.609-.855v.855h-6.574V3.224h6.45v.854h-5.485v3.528h4.783v.813h-4.783v3.734zM61.015 30.355V20.57h3.762c1.084 0 1.989.221 2.716.661.715.41 1.29 1.024 1.654 1.764.376.735.565 1.554.565 2.454 0 .993-.207 1.856-.621 2.591-.395.726-.993 1.32-1.722 1.709-.735.405-1.6.606-2.591.606zm5.967-4.905c0-.506-.087-.947-.261-1.324a2.03 2.03 0 0 0-.758-.896c-.331-.21-.726-.316-1.185-.316h-1.075v5.099h1.075c.469 0 .864-.11 1.185-.331a2.11 2.11 0 0 0 .758-.91 3.24 3.24 0 0 0 .261-1.323zm10.871 2.563v2.343h-6.972V20.57h6.849v2.342h-4.162v1.378h3.556v2.178h-3.556v1.544h4.287zm7.177-4.244l-.234-.138a5.65 5.65 0 0 0-.621-.304 6.41 6.41 0 0 0-.84-.317c-.29-.09-.592-.136-.896-.138a1.26 1.26 0 0 0-.565.11c-.147.074-.221.198-.221.372 0 .166.073.299.221.4s.354.193.62.276l.979.304c.606.183 1.129.395 1.571.634s.781.546 1.02.923c.239.367.359.859.359 1.474 0 .588-.106 1.084-.317 1.488-.212.395-.496.713-.855.951-.366.242-.772.419-1.199.523-.443.102-.896.153-1.35.152-.468 0-.96-.046-1.474-.138-.5-.1-.993-.233-1.474-.4-.454-.163-.892-.367-1.31-.607l1.157-2.356.276.166a7.67 7.67 0 0 0 .73.372c.304.138.639.262 1.006.372a3.99 3.99 0 0 0 1.13.166c.294 0 .496-.037.606-.11.12-.083.179-.189.179-.318 0-.193-.101-.339-.304-.44a3.85 3.85 0 0 0-.8-.304l-1.075-.344c-.569-.193-1.038-.409-1.405-.648-.368-.249-.639-.538-.813-.868-.174-.34-.262-.749-.262-1.227 0-.726.171-1.332.511-1.819a3.2 3.2 0 0 1 1.337-1.103c.566-.258 1.182-.39 1.805-.385.478 0 .937.06 1.378.179.45.11.867.248 1.254.413l1.034.468zm2.579 6.587V20.57h2.688v9.785zm8.605.069c-.621.002-1.238-.11-1.819-.332a4.61 4.61 0 0 1-1.516-.993c-.45-.454-.806-.993-1.048-1.584-.249-.624-.372-1.337-.372-2.136 0-.689.128-1.328.385-1.916.251-.578.611-1.103 1.061-1.544.46-.45 1.003-.806 1.6-1.048.626-.252 1.295-.378 1.97-.372.882 0 1.682.193 2.398.578.717.378 1.25.896 1.599 1.558l-1.998 1.529c-.193-.386-.495-.707-.868-.923-.367-.233-.792-.358-1.227-.359-.322 0-.616.065-.882.193a2.22 2.22 0 0 0-.704.538 2.58 2.58 0 0 0-.455.827c-.104.335-.155.684-.151 1.034 0 .385.055.734.166 1.048a2.58 2.58 0 0 0 .455.812 2.25 2.25 0 0 0 .716.524 2.3 2.3 0 0 0 .923.179c.432 0 .846-.106 1.24-.318a3.75 3.75 0 0 0 1.076-.922v2.618c-.735.671-1.585 1.006-2.55 1.006zm2.412-3.349H96.82v-1.929h4.024v5.209h-2.218zm6.232-1.53v4.81h-2.687V20.57h2.094l3.928 4.975V20.57h2.688v9.785h-2.137l-3.887-4.809zM66.942 41.114l-.235-.137a5.63 5.63 0 0 0-.62-.304 6.41 6.41 0 0 0-.841-.317c-.29-.09-.592-.136-.895-.138a1.26 1.26 0 0 0-.565.11c-.147.074-.222.198-.222.372 0 .166.074.299.222.4s.354.193.62.276l.979.304c.606.183 1.129.395 1.571.634s.781.546 1.02.923c.239.367.359.859.359 1.474 0 .588-.106 1.084-.318 1.488a2.57 2.57 0 0 1-.854.951 3.81 3.81 0 0 1-1.199.523c-.443.102-.896.153-1.35.152a8.41 8.41 0 0 1-1.474-.138c-.5-.1-.993-.233-1.474-.4-.454-.163-.893-.367-1.311-.607l1.158-2.355.276.165c.183.111.427.234.73.372s.639.262 1.006.372c.376.111.754.166 1.13.166.294 0 .495-.037.606-.11.12-.083.179-.189.179-.318 0-.193-.101-.339-.304-.44a3.85 3.85 0 0 0-.8-.304l-1.075-.344c-.569-.193-1.038-.409-1.405-.648-.368-.249-.639-.538-.813-.868-.174-.34-.262-.749-.262-1.227 0-.726.171-1.332.511-1.819a3.2 3.2 0 0 1 1.336-1.102c.567-.259 1.183-.39 1.806-.385.478 0 .937.06 1.378.179.45.11.867.248 1.254.413l1.034.468-1.157 2.219zm10.2-.854h-2.81v7.442h-2.687V40.26h-2.826v-2.343h8.324v2.342zm5.252 7.525c-.782 0-1.452-.129-2.013-.385a3.7 3.7 0 0 1-1.378-1.062c-.354-.46-.615-.984-.771-1.543a6.79 6.79 0 0 1-.249-1.847v-5.031h2.688v5.031a4.3 4.3 0 0 0 .096.924 2.58 2.58 0 0 0 .303.785c.138.229.312.413.524.551.22.128.487.193.8.193.321 0 .592-.065.812-.193.221-.138.395-.322.523-.551a2.79 2.79 0 0 0 .304-.8 4.23 4.23 0 0 0 .096-.91v-5.031h2.687v5.031c0 .68-.092 1.315-.275 1.902-.161.563-.433 1.088-.8 1.544a3.64 3.64 0 0 1-1.378 1.033c-.551.239-1.208.359-1.971.359zm5.969-.083v-9.785h3.761c1.084 0 1.989.221 2.716.661a4.14 4.14 0 0 1 1.654 1.764c.377.735.565 1.554.565 2.454 0 .993-.207 1.856-.621 2.591-.395.726-.993 1.32-1.722 1.709-.735.405-1.599.606-2.591.606zm5.967-4.905c0-.506-.088-.947-.262-1.324a2.03 2.03 0 0 0-.758-.896c-.331-.21-.726-.316-1.185-.316H91.05v5.099h1.075c.469 0 .864-.11 1.185-.331a2.11 2.11 0 0 0 .758-.91 3.24 3.24 0 0 0 .262-1.323zm3.897 4.905v-9.785h2.688v9.785zm8.784.083c-.745 0-1.42-.138-2.026-.414-.591-.273-1.124-.657-1.572-1.129-.427-.47-.767-1.011-1.006-1.599a5.11 5.11 0 0 1-.344-1.846 4.74 4.74 0 0 1 .372-1.86c.245-.583.595-1.116 1.034-1.571.45-.469.988-.844 1.584-1.103.636-.27 1.321-.406 2.012-.399.744 0 1.42.142 2.026.427a4.69 4.69 0 0 1 1.557 1.13c.428.471.764 1.018.993 1.612.238.588.358 1.195.358 1.819.002.635-.124 1.263-.372 1.847-.24.589-.591 1.127-1.033 1.584-.448.464-.982.839-1.571 1.102-.635.272-1.321.409-2.012.4zm-2.219-4.961a3.4 3.4 0 0 0 .138.964c.093.304.23.579.413.828.184.239.413.432.689.578.285.138.621.207 1.006.207s.722-.073 1.006-.221.515-.344.689-.593a2.62 2.62 0 0 0 .4-.84c.183-.621.183-1.281 0-1.902-.087-.294-.227-.569-.413-.812s-.425-.446-.703-.578c-.311-.144-.65-.214-.993-.207-.385 0-.721.073-1.006.22-.271.143-.507.346-.689.593-.188.247-.329.528-.413.827a3.54 3.54 0 0 0-.124.938z" fill="#cc97e2"/></svg>
