<svg xmlns="http://www.w3.org/2000/svg" width="380" height="120"><path fill="#000" d="M37.858 0L0 53.164l47.592 66.833H94.14v-10.252H53.019L12.728 53.164 50.586 0zM54.83.003L16.972 53.164l37.858 53.162h39.31V96.074H60.256l-30.555-42.91 30.555-42.91H94.14V.003zm.418 1.371h37.497v7.509H59.84L28.305 53.164h-9.94zm6.82 12.297L33.945 53.164l28.123 39.493h12.729 19.346V82.406H67.497L46.674 53.164l20.822-29.241H94.14V13.671H74.794zm.418 1.37h30.26v7.511H67.077L45.281 53.164h-9.94zm86.604 10.738c-2.093 0-3.913.438-5.463 1.314-1.539.876-2.721 2.123-3.545 3.742-.814 1.619-1.22 3.504-1.22 5.657 0 3.438.849 6.091 2.544 7.957 1.706 1.866 4.122 2.799 7.25 2.799 2.159 0 3.976-.272 5.448-.814v-2.127c-1.899.524-3.589.785-5.071.785-2.412 0-4.273-.743-5.58-2.229-1.298-1.495-1.948-3.608-1.948-6.341 0-2.657.673-4.748 2.018-6.272 1.356-1.533 3.202-2.3 5.535-2.3h.003c1.608 0 3.215.371 4.823 1.114l1.047-2.085c-1.666-.8-3.614-1.2-5.842-1.2zm64.548 0c-2.093 0-3.915.438-5.464 1.314-1.539.876-2.721 2.123-3.545 3.742-.814 1.619-1.22 3.504-1.22 5.657 0 3.438.849 6.091 2.544 7.957 1.706 1.866 4.122 2.799 7.25 2.799 2.159 0 3.976-.272 5.448-.814v-2.127c-1.899.524-3.589.785-5.071.785-2.412 0-4.273-.743-5.58-2.229-1.298-1.495-1.948-3.608-1.948-6.341 0-2.657.674-4.748 2.02-6.272 1.356-1.533 3.2-2.3 5.534-2.3h.003c1.608 0 3.216.371 4.824 1.114l1.046-2.085c-1.666-.8-3.612-1.2-5.84-1.2zm27.951.214l-8.398 20.971h2.499l2.614-6.643h8.514l2.644 6.643h2.556l-8.353-20.971zm82.329 0l-8.397 20.971h2.498l2.615-6.643h8.513l2.644 6.643h2.556l-8.352-20.971zm-50.282.083v13.456c0 2.4.697 4.287 2.092 5.658 1.404 1.372 3.384 2.057 5.941 2.057s4.569-.681 6.031-2.042 2.193-3.232 2.193-5.613V26.079l-2.471-.003v13.601c0 1.752-.484 3.099-1.452 4.042-.968.933-2.348 1.4-4.14 1.4-1.88 0-3.304-.467-4.273-1.4s-1.452-2.27-1.452-4.014v-13.63zm-161.945.003v20.886h11.84v-2.2h-9.371V26.079zm17.711 0v20.886h2.469V26.079zm31.598 0v20.886h11.84v-2.171h-9.371v-7.687h8.804v-2.143h-8.804v-6.728h9.371v-2.156zm33.094 0v11.986c-.019.601.005 1.602.074 3.001l.132 2.472h-.117l-11.578-17.457h-2.788v20.886h2.28V35.095l-.232-5.657h.116l11.607 17.527h2.818l-.003-20.886zm31.453 0v20.886h2.471V26.079zm72.232 0v20.886h2.471v-8.684h4.428l5.142 8.684h2.92l-5.767-9.384c2.848-.971 4.273-2.838 4.273-5.601 0-1.971-.625-3.448-1.874-4.429-1.239-.981-3.161-1.472-5.767-1.472zm-45.311.003v2.156h6.726v18.727h2.469V28.238h6.727v-2.156zm47.782 2.128h3.21c1.829 0 3.156.305 3.98.915.833.61 1.249 1.605 1.249 2.985 0 1.361-.407 2.385-1.22 3.071-.814.676-2.092 1.014-3.835 1.014h-3.383zm-57.66.443l.989 3.013 2.469 6.471h-6.871l2.498-6.471c.397-1.095.703-2.099.915-3.013zm82.329 0l.989 3.013 2.469 6.471h-6.871l2.499-6.471c.397-1.095.701-2.099.914-3.013zm-154.533 32.82c-2.024 0-3.791.438-5.302 1.314-1.501.867-2.653 2.12-3.458 3.758-.805 1.628-1.207 3.527-1.207 5.699 0 3.449.818 6.098 2.456 7.944 1.638 1.838 4.002 2.756 7.091 2.756 2.151 0 4.097-.357 5.84-1.07V78.16c-2.121.733-3.928 1.1-5.419 1.1-3.555 0-5.332-2.328-5.332-6.984 0-2.237.465-3.981 1.395-5.228.929-1.258 2.242-1.886 3.938-1.886v-.002c.773 0 1.562.137 2.367.414s1.604.601 2.398.972l1.452-3.6c-2.082-.981-4.155-1.472-6.218-1.472zm71.448 0c-2.024 0-3.793.438-5.304 1.314-1.501.867-2.653 2.12-3.458 3.758-.805 1.628-1.207 3.527-1.207 5.699 0 3.449.818 6.098 2.456 7.944 1.638 1.838 4.002 2.756 7.091 2.756 2.151 0 4.097-.357 5.84-1.07V78.16c-2.121.733-3.926 1.1-5.418 1.1-3.555 0-5.332-2.328-5.332-6.984 0-2.237.464-3.981 1.393-5.228.93-1.258 2.243-1.886 3.939-1.886v-.002a7.25 7.25 0 0 1 2.366.414c.805.276 1.604.601 2.398.972l1.452-3.6c-2.082-.981-4.153-1.472-6.216-1.472zm47.783.002c-2.246 0-4.008.528-5.287 1.586-1.269 1.057-1.903 2.51-1.903 4.357 0 .981.194 1.839.58 2.571a6.55 6.55 0 0 0 1.555 1.929c.648.553 1.622 1.128 2.92 1.728l2.746 1.416c.455.295.799.605 1.031.928.232.314.347.675.347 1.085 0 .733-.266 1.285-.798 1.657-.524.371-1.279.557-2.266.557-.822 0-1.733-.128-2.731-.386-.987-.257-2.199-.701-3.632-1.33v4.116c1.743.838 3.748 1.256 6.015 1.256 2.46 0 4.379-.542 5.754-1.627 1.385-1.087 2.077-2.572 2.077-4.457h.003c0-1.361-.368-2.509-1.105-3.442-.736-.943-2.098-1.882-4.083-2.815l-2.862-1.456c-.397-.276-.689-.557-.873-.842a1.9 1.9 0 0 1-.276-1.029c0-.629.227-1.139.682-1.529s1.109-.585 1.961-.585a9.08 9.08 0 0 1 2.179.272c.745.18 1.685.498 2.818.956l1.452-3.442a21.92 21.92 0 0 0-3.152-1.086c-.998-.257-2.05-.386-3.153-.386zm-22.281.213L259.84 82.66h4.856l1.539-4.971h7.743l1.539 4.971h4.85l-7.525-20.971zm-155.891.084V82.66h12.232V79h-7.728v-5.385h7.193v-3.628h-7.193v-4.584h7.728v-3.629zm17.108 0V82.66h4.025v-9.827l-.276-5.972h.131l9.241 15.799h5.724l-.003-20.884h-4.053v9.885l.219 5.756h-.103l-9.225-15.644zm52.218 0V82.66h4.504V61.773zm10.297 0V82.66h12.232V79h-7.728v-5.385h7.193v-3.628h-7.193v-4.584h7.728v-3.629zm17.105 0V82.66h4.025v-9.827l-.276-5.972h.132l9.24 15.799h5.724l-.003-20.884h-4.053v9.885l.219 5.756h-.103l-9.225-15.644zm44.044 0V82.66h4.504V61.773zm56.282 0V82.66h6.013c3.758 0 6.631-.915 8.616-2.743 1.994-1.828 2.992-4.461 2.992-7.899v-.002c0-3.227-.958-5.741-2.875-7.541s-4.613-2.701-8.079-2.701zm22.468 0V82.66H343.2V79h-7.727v-5.385h7.191v-3.628h-7.191v-4.584h7.727v-3.629zm-60.854 3.159l.377 1.4 2.412 7.643h-5.535l2.746-9.043zm42.888.473h2.398c4.029 0 6.043 2.242 6.043 6.727l-.003.002c0 4.58-2.169 6.87-6.508 6.87h-1.931zm34.332 27.066c-.61.962-1.747 2.395-3.413 4.299v.387h2.949l2.847-2.172 2.585-2.214v-.3zM185.857 98.5c-3.263 0-5.77.919-7.524 2.758-1.743 1.828-2.615 4.48-2.615 7.957s.872 6.143 2.615 8.001 4.241 2.786 7.495 2.786 5.753-.928 7.496-2.786 2.614-4.515 2.614-7.973h.003c0-3.468-.867-6.124-2.601-7.971-1.724-1.847-4.218-2.771-7.483-2.771zm160.372 0c-3.263 0-5.771.919-7.525 2.758-1.743 1.828-2.615 4.48-2.615 7.957s.872 6.143 2.615 8.001 4.241 2.786 7.495 2.786 5.753-.928 7.496-2.786 2.615-4.515 2.615-7.973h.003c0-3.468-.867-6.124-2.601-7.971-1.724-1.847-4.218-2.771-7.483-2.771zm-179.358.025c-2.024 0-3.793.439-5.304 1.315-1.501.867-2.653 2.119-3.458 3.757-.805 1.628-1.207 3.528-1.207 5.7 0 3.449.819 6.096 2.457 7.943 1.638 1.838 4 2.758 7.089 2.758 2.151 0 4.097-.357 5.84-1.07v-3.714c-2.121.733-3.926 1.098-5.418 1.098-3.555 0-5.332-2.328-5.332-6.984 0-2.237.465-3.98 1.395-5.227.929-1.258 2.242-1.887 3.938-1.887v-.003c.773 0 1.562.139 2.367.415s1.603.6 2.397.971l1.453-3.599c-2.082-.981-4.155-1.473-6.218-1.473zm149.48 0c-2.024 0-3.791.439-5.302 1.315-1.501.867-2.653 2.119-3.458 3.757-.805 1.628-1.207 3.528-1.207 5.7 0 3.449.818 6.096 2.456 7.943 1.638 1.838 4.002 2.758 7.091 2.758 2.151 0 4.097-.357 5.84-1.07v-3.714c-2.121.733-3.928 1.098-5.419 1.098-3.555 0-5.332-2.328-5.332-6.984 0-2.237.465-3.98 1.395-5.227.929-1.258 2.242-1.887 3.938-1.887v-.003c.773 0 1.562.139 2.367.415s1.604.6 2.398.971l1.452-3.599c-2.082-.981-4.155-1.473-6.218-1.473zm-182.826.218l-7.496 20.971h4.853l1.539-4.971h7.743l1.539 4.971h4.853l-7.525-20.971zm158.248 0l-7.495 20.971h4.851l1.539-4.971h7.744l1.539 4.971h4.851l-7.524-20.971zm-62.491.083v20.886h4.505v-7.427h1.931c2.636 0 4.665-.595 6.088-1.785 1.434-1.19 2.151-2.91 2.151-5.157h-.003c0-2.163-.673-3.787-2.018-4.872-1.337-1.095-3.294-1.643-5.87-1.643zm18.99 0v13.455c0 2.391.755 4.277 2.266 5.657 1.511 1.372 3.633 2.058 6.363 2.058 1.812 0 3.38-.31 4.707-.928s2.338-1.511 3.036-2.672c.706-1.161 1.06-2.512 1.06-4.055V98.829l-4.489-.002v12.756c0 1.619-.333 2.809-1.001 3.57-.659.752-1.724 1.128-3.197 1.128-1.52 0-2.61-.376-3.269-1.128s-.987-1.932-.987-3.542V98.826zm-136.827.002v20.886h13.12v-3.656h-8.616V98.829zm89.341 0v20.886h4.025v-9.714l-.276-6.671h.131l5.114 16.384h4.121l5.477-16.356h.132l-.203 4.857-.014 1.614v9.885h4.199V98.829h-6.13l-5.332 15.972h-.087l-5.026-15.972zm68.487 0v3.686h5.767v17.2h4.504v-17.2h5.767v-3.685zm57.463 0v20.886h4.504V98.829zm34.418 0v20.886h4.025v-9.827l-.276-5.972h.132l9.24 15.799H380l-.003-20.883h-4.055v9.884l.219 5.756h-.103l-9.223-15.643zM136.3 101.988l.377 1.4 2.412 7.642h-5.535l2.746-9.041zm158.25 0l.377 1.4 2.411 7.642h-5.534l2.746-9.041zm-108.692.2c3.574 0 5.361 2.352 5.361 7.057 0 4.694-1.796 7.042-5.389 7.042-1.79 0-3.137-.591-4.038-1.773s-1.351-2.938-1.351-5.269v-.001-.001c0-2.333.455-4.089 1.365-5.269.91-1.19 2.261-1.785 4.053-1.785zm160.372 0c3.574 0 5.361 2.352 5.361 7.057 0 4.694-1.798 7.042-5.391 7.042-1.79 0-3.136-.591-4.037-1.773s-1.352-2.938-1.352-5.269v-.001-.001c0-2.333.456-4.089 1.366-5.269.91-1.19 2.261-1.785 4.053-1.785zm-112.439.267h2.047c1.23 0 2.131.247 2.702.743.582.494.872 1.261.872 2.299 0 1.03-.343 1.816-1.03 2.358-.689.534-1.726.801-3.111.801h-1.481z"/></svg>
