<?xml version="1.0" encoding="UTF-8"?>
<svg xmlns="http://www.w3.org/2000/svg" viewBox="0 0 1280 374.99997"><path fill="#000" d="M187.5 0a12.52 12.52 0 00-6.16 23.41l6.16 30.75 6.12-30.72A12.5 12.5 0 00187.5 0m81.75 20.49a12.5 12.5 0 00-10.61 6.63c-2.13 4-1.93 8.84.53 12.64l-9.02 30 19.88-24.26a12.5 12.5 0 005.55-23.56 12.6 12.6 0 00-6.31-1.46zm-163.49 0a12.53 12.53 0 10-.77 25.03l19.88 24.26-9.02-30a12.52 12.52 0 00-10.08-19.27zm1021.27 38.68-6.78 6.14h3.46l8.02-6.14zM187.5 66.71a120.8 120.8 0 00-105.81 62.48L0 141.71h89.34a108.34 108.34 0 01196.32 0H375l-81.68-12.5A120.8 120.8 0 00187.5 66.73Zm271.13 1.12q-3.96 0-7.32 1.34a17 17 0 00-9.65 9.25 18 18 0 00-1.34 7.03q0 3.8 1.34 7.03a17 17 0 003.81 5.59 18 18 0 005.79 3.71q3.36 1.29 7.32 1.29 3.62 0 6.93-1.09a17 17 0 005.79-3.32v-13.2h-3.51v11.65q-1.62 1.2-3.46 1.81-2.62.89-5.59.89-3.17 0-5.89-1.04a15 15 0 01-4.7-3.02 15 15 0 01-3.12-4.6 15 15 0 01-1.09-5.69q0-3.12 1.09-5.69a14 14 0 017.82-7.57 16 16 0 015.94-1.09q3.01 0 5.64.94t4.8 3.12l2.28-2.33a14.4 14.4 0 00-5.64-3.76 20 20 0 00-7.23-1.24zm159.86 0q-3.95 0-7.28 1.34a17.1 17.1 0 00-10.94 16.28 18 18 0 001.34 7.03q1.39 3.17 3.81 5.59a18 18 0 005.79 3.71q3.36 1.29 7.28 1.29 3.91 0 7.23-1.29a18 18 0 005.74-3.71 16 16 0 003.81-5.59 18 18 0 001.38-7.03q0-3.8-1.38-7.03a16.7 16.7 0 00-9.55-9.25 19 19 0 00-7.23-1.34m283.47 0q-4.4 0-7.22 1.34a9.5 9.5 0 00-4.21 3.46 8.7 8.7 0 00-1.34 4.7q0 2.77 1.14 4.5a9 9 0 003.07 2.72q1.93 1.03 4.21 1.68 2.28.6 4.55 1.14a30 30 0 014.16 1.29 8 8 0 013.02 1.93 4.5 4.5 0 011.19 3.27q0 1.68-.99 3.07a6.4 6.4 0 01-3.02 2.23q-2.03.8-5.3.79-3.41 0-6.53-1.19a15 15 0 01-4.9-3.02l-1.44 2.82a14.5 14.5 0 005.44 3.27q3.57 1.23 7.42 1.24 4.45 0 7.28-1.29a10 10 0 004.26-3.46 8.6 8.6 0 001.39-4.7q0-2.72-1.19-4.4a8 8 0 00-3.07-2.67 20 20 0 00-4.16-1.68q-2.24-.64-4.5-1.19a38 38 0 01-4.21-1.24 8 8 0 01-3.07-1.93 4.6 4.6 0 01-1.14-3.27q0-1.78.94-3.17a6.6 6.6 0 013.02-2.28q2.03-.84 5.15-.84a18 18 0 019.55 2.87l1.24-2.92a16 16 0 00-4.95-2.23 21 21 0 00-5.79-.84m86.63 0q-3.96 0-7.32 1.34a17 17 0 00-9.65 9.25 18 18 0 00-1.34 7.03 18 18 0 001.34 7.03 17 17 0 003.81 5.59 18 18 0 005.79 3.71q3.37 1.29 7.33 1.29 3.62 0 6.93-1.09a17 17 0 005.79-3.32v-13.2h-3.51v11.65q-1.62 1.2-3.47 1.81-2.62.89-5.59.89-3.17 0-5.89-1.04a15 15 0 01-4.7-3.02 15 15 0 01-3.12-4.6 15 15 0 01-1.09-5.69q0-3.12 1.09-5.69a14 14 0 017.82-7.57 16 16 0 015.94-1.09q3.01 0 5.64.94t4.8 3.12l2.28-2.33a14.4 14.4 0 00-5.64-3.76 20 20 0 00-7.23-1.24zm78.69 0q-3.91 0-7.23 1.34a17 17 0 00-5.79 3.66 17 17 0 00-3.81 5.59 18 18 0 00-1.34 7.03q0 3.8 1.34 7.03a17 17 0 003.81 5.59 18 18 0 005.74 3.71q3.32 1.29 7.23 1.29 3.81 0 7.13-1.29a14.5 14.5 0 005.59-3.81l-2.33-2.33a13 13 0 01-4.7 3.17 15 15 0 01-5.54.99q-3.12 0-5.79-1.04a14 14 0 01-4.65-3.02 15 15 0 01-3.12-4.55 15 15 0 01-1.09-5.74q0-3.12 1.09-5.69a14 14 0 017.77-7.57 15 15 0 015.79-1.09q2.97 0 5.54.99 2.58.94 4.7 3.12l2.33-2.33a14 14 0 00-5.59-3.76 19 19 0 00-7.08-1.29m56.17 0q-3.96 0-7.28 1.34a17.1 17.1 0 00-10.94 16.28q0 3.8 1.34 7.03 1.39 3.17 3.81 5.59a18 18 0 005.79 3.71q3.36 1.29 7.28 1.29 3.91 0 7.23-1.29a18 18 0 005.74-3.71 16 16 0 003.81-5.59 18 18 0 001.38-7.03q0-3.8-1.38-7.03a16.7 16.7 0 00-9.55-9.25 19 19 0 00-7.23-1.34m-639.01.31v34.64h3.66V91.8h9.3q1.47 0 2.79-.15l7.89 11.14h4.01l-8.46-11.87q.7-.23 1.33-.5a11 11 0 004.85-4.06 11.4 11.4 0 001.73-6.33q0-3.77-1.73-6.38a10.6 10.6 0 00-4.85-4.06 18 18 0 00-7.57-1.44zm38.28 0v19.85q0 7.47 3.81 11.28t10.44 3.81 10.39-3.81q3.81-3.81 3.81-11.28V68.14h-3.56v19.7q0 6.14-2.77 9.06t-7.87 2.92q-5.05 0-7.82-2.92t-2.77-9.06v-19.7Zm42.29 0v34.64h3.66V91.85h9.3q4.4 0 7.57-1.44a11 11 0 004.85-4.06 11.3 11.3 0 001.73-6.33q0-3.77-1.73-6.38a10.6 10.6 0 00-4.85-4.06 18 18 0 00-7.57-1.44zm98.41 0v34.64h14.11q5.55 0 9.7-2.18a16.3 16.3 0 006.53-6.14 17.3 17.3 0 002.33-9.01q0-5.1-2.33-9.01a16 16 0 00-6.53-6.09 20 20 0 00-9.7-2.23zm43.68 0v34.64h24.5v-3.16h-20.83V86.75h17.92v-3.12h-17.92V71.31h20.09v-3.17zm51.67 0v34.64h3.66V68.14Zm17.74 0v34.64h3.66V74.69l22.27 28.09h3.02V68.14h-3.61v28.1l-22.32-28.1Zm37.16 0 15.34 34.64h3.61l15.34-34.64h-3.71L830.9 98.29l-13.27-30.15Zm42.09 0v34.64h24.5v-3.16h-20.83V86.75h17.92v-3.12h-17.92V71.31h20.09v-3.17zm63.2 0v3.17h12.18v31.47h3.66V71.31h12.18v-3.17zm36.65 0v34.64h3.66V68.14Zm69.09 0-15.84 34.64h3.81l4.14-9.25h19.33l4.14 9.25h3.86l-15.84-34.64zm65.87 0v34.64h3.66V68.14Zm62.06 0v34.64h3.66V74.69l22.27 28.09h3.02V68.14h-3.61v28.1l-22.32-28.1zm58.8 0v34.64h24.5v-3.17h-20.84V86.75h17.92v-3.12h-17.92V71.31h20.09v-3.17zm35.91 0v34.64h3.66V74.69l22.27 28.09h3.02V68.14h-3.61v28.1l-22.32-28.1zm-628.85 2.97q3.12 0 5.74 1.09 2.67 1.04 4.6 3.02a14 14 0 013.07 4.55 14 14 0 011.09 5.69q0 3.12-1.09 5.74a13.8 13.8 0 01-7.67 7.57 16 16 0 01-5.74 1.04q-3.12 0-5.79-1.04a14 14 0 01-4.65-3.02 15 15 0 01-3.07-4.6 15 15 0 01-1.09-5.69q0-3.12 1.09-5.69a14 14 0 013.07-4.55 13 13 0 014.65-3.02 15 15 0 015.79-1.09m504.97 0q3.12 0 5.74 1.09 2.67 1.04 4.6 3.02a14 14 0 013.07 4.55 14 14 0 011.09 5.69q0 3.12-1.09 5.74a13.8 13.8 0 01-7.67 7.57 16 16 0 01-5.74 1.04q-3.12 0-5.79-1.04a14 14 0 01-4.65-3.02 15 15 0 01-3.07-4.6 15 15 0 01-1.09-5.69q0-3.12 1.09-5.69a14 14 0 013.07-4.55 13 13 0 014.65-3.02 15 15 0 015.79-1.09m-635.36.2h9.21q5.2 0 7.87 2.28 2.72 2.28 2.72 6.43 0 4.11-2.72 6.38-2.67 2.28-7.87 2.28h-9.21zm80.57 0h9.21q5.2 0 7.87 2.28 2.72 2.28 2.72 6.43 0 4.11-2.72 6.38-2.67 2.23-7.87 2.23h-9.21zm98.41 0h10.24q4.6 0 7.97 1.83a13 13 0 015.3 4.95 14 14 0 011.88 7.37q0 4.16-1.88 7.37a13.3 13.3 0 01-5.3 5 17 17 0 01-7.97 1.78h-10.24zm359.39.62 8.34 18.63h-16.67zm-693.1 5.24v.01a12.5 12.5 0 00-13.23 13.52l-22.05 22.25 28.94-12.09a12.52 12.52 0 106.35-23.69zm-291.78.01a12.52 12.52 0 106.35 23.68l28.94 12.09L54.83 90.7A12.5 12.5 0 0041.6 77.18zm145.91 27.04c-42 0-77.43 31.25-82.68 72.9H56.41a29.16 29.16 0 100 20.83h48.41a83.33 83.33 0 00165.36 0h48.41a29.16 29.16 0 1027.24-39.58 29.1 29.1 0 00-27.24 18.75h-48.41a83.3 83.3 0 00-82.68-72.9m0 20.83a62.5 62.5 0 11-62.5 62.49 62.5 62.5 0 0162.5-62.49m689.51 3.24-15.23 12.25h10.38l19.14-12.25zm-259.26 16.08q-6.98 0-12.93 2.3a32 32 0 00-10.38 6.46 30 30 0 00-6.89 9.78 31 31 0 00-2.38 12.25 31 31 0 002.38 12.25q2.46 5.61 6.81 9.78a31 31 0 0010.38 6.46 37 37 0 0013.1 2.3q6.97 0 12.85-2.3a31 31 0 0010.29-6.38 30 30 0 006.89-9.78 31 31 0 002.47-12.33 29.7 29.7 0 00-9.36-22.03 30 30 0 00-10.29-6.46 35 35 0 00-12.93-2.3zm69.94 0q-8.41 0-14.04 2.55-5.53 2.47-8.34 6.72a16.6 16.6 0 00-2.72 9.27q0 4.76 1.87 7.83a15 15 0 005.02 4.93 31 31 0 006.72 3.06q3.75 1.19 7.4 2.04 3.75.77 6.81 1.7 3.07.85 4.93 2.3a4.4 4.4 0 011.87 3.74 5 5 0 01-1.19 3.32 8 8 0 01-3.74 2.3q-2.47.77-6.55.77a34.5 34.5 0 01-19.65-6.21l-4.68 10.38q4 3.06 10.55 5.02a50 50 0 0013.7 1.87q8.5 0 14.03-2.55 5.61-2.55 8.42-6.72a16 16 0 002.81-9.19q0-4.68-1.96-7.74a14.6 14.6 0 00-4.93-4.93 29 29 0 00-6.8-2.98q-3.66-1.1-7.4-1.96a163 163 0 01-6.72-1.7 15 15 0 01-4.93-2.21 4.5 4.5 0 01-1.87-3.74q0-1.95 1.11-3.4 1.11-1.53 3.66-2.47t6.55-.94 8.17 1.19q4.17 1.1 8.34 3.49l4.25-10.46a31 31 0 00-9.61-3.91 45 45 0 00-11.06-1.36zm66.88 0q-6.98 0-12.93 2.3a32 32 0 00-10.38 6.46 30 30 0 00-6.89 9.78 31 31 0 00-2.38 12.25 31 31 0 002.38 12.25q2.46 5.61 6.81 9.78a31 31 0 0010.38 6.46 37 37 0 0013.1 2.3q6.97 0 12.85-2.3a31 31 0 0010.29-6.38 30 30 0 006.89-9.78 31 31 0 002.47-12.33 29.7 29.7 0 00-9.36-22.03 30 30 0 00-10.29-6.46 35 35 0 00-12.93-2.3zm-314.42 1.02v59.54h13.78v-21.69h27.56v-11.06h-27.56v-15.74h31.22v-11.06zm59.73 0v59.54h13.78v-59.54zm33.28 0v59.54h43.64V193.7h-29.86v-48.32zm269.74 0v59.54h13.78v-21.69h27.56v-11.06h-27.56v-15.74h31.22v-11.06zm59.73 0v59.54h13.78v-59.54zm51.99 0-26.54 59.54h14.12l5.31-12.76h27.6l5.29 12.76h14.46l-26.62-59.54zm85.02 0v59.54h27.05q9.69 0 17.1-3.66a28.6 28.6 0 0011.57-10.38q4.17-6.72 4.17-15.74 0-9.1-4.17-15.74a28 28 0 00-11.57-10.29q-7.4-3.75-17.1-3.74zm73.49 0v59.54h46.11v-11.06h-32.41v-13.78h27.65v-10.72h-27.65v-12.93h31.3v-11.06zm89.75 0v59.54h43.64V193.7h-29.86v-48.32zm76.88 0-26.54 59.54h14.12l5.31-12.76h27.6l5.29 12.76H1280l-26.63-59.54zm-1052.27 4.65a37.5 37.5 0 10-.02 74.98 37.5 37.5 0 00.02-74.98m430.25 6.06q4 0 7.4 1.36t5.87 3.91q2.55 2.55 3.91 6.04a20 20 0 011.45 7.74q0 4.26-1.45 7.74a17.4 17.4 0 01-9.87 9.95 19 19 0 01-7.31 1.36q-4 0-7.4-1.36a18 18 0 01-5.95-3.91 19 19 0 01-3.91-6.04 22 22 0 01-1.36-7.74q0-4.26 1.36-7.74 1.44-3.5 4-6.04 2.55-2.55 5.87-3.91a20 20 0 017.4-1.36zm136.82 0q4 0 7.4 1.36t5.87 3.91a17 17 0 013.91 6.04 20 20 0 011.45 7.74q0 4.26-1.45 7.74a17.4 17.4 0 01-9.87 9.95 19 19 0 01-7.31 1.36q-4 0-7.4-1.36a18 18 0 01-5.95-3.91 19 19 0 01-3.91-6.04 22 22 0 01-1.36-7.74q0-4.26 1.36-7.74 1.44-3.5 4-6.04 2.55-2.55 5.87-3.91a20 20 0 017.4-1.36zm258.85.6H1026q5.96 0 10.29 2.29a15.7 15.7 0 016.8 6.38q2.46 4.08 2.47 9.78 0 5.61-2.47 9.78a16.3 16.3 0 01-6.8 6.46q-4.34 2.2-10.29 2.21h-12.59zm233.06 2.22 9.44 22.79h-18.92zm-325.14 0 9.44 22.79h-18.92zm-892.17 9.17a19.45 19.45 0 11-.02 38.9 19.45 19.45 0 01.02-38.9m316.67 0a19.45 19.45 0 110 38.86 19.45 19.45 0 010-38.86m0 9.72a9.72 9.72 0 100 19.44 9.72 9.72 0 000-19.44m821.22 53.1-11.48 12.25h10.38l15.4-12.25zM0 233.36l81.68 12.5a120.86 120.86 0 00211.64 0l81.66-12.49h-89.33a108.34 108.34 0 01-196.32 0zm472.47 13.63q-6.98 0-12.84 2.3a31 31 0 00-10.29 6.38 30 30 0 00-6.8 9.78 31 31 0 00-2.38 12.33q0 6.72 2.38 12.33a30.3 30.3 0 0017.01 16.24 37 37 0 0012.85 2.21q7.83 0 14.04-2.72a27.5 27.5 0 0010.55-7.91l-8.85-8.17a21 21 0 01-6.8 5.36 20 20 0 01-8.17 1.7q-4.17 0-7.66-1.36a17 17 0 01-6.04-3.91 19 19 0 01-4-6.04 21 21 0 01-1.36-7.74q0-4.26 1.36-7.74 1.44-3.5 4-6.04 2.55-2.55 6.04-3.91a21 21 0 017.66-1.36q4.42 0 8.17 1.79a20 20 0 016.8 5.19l8.85-8.17a27 27 0 00-10.55-7.83 34.5 34.5 0 00-13.95-2.72zm77.46 0q-6.98 0-12.93 2.3a32 32 0 00-10.38 6.46 30 30 0 00-6.89 9.78 31 31 0 00-2.38 12.25q0 6.64 2.38 12.25 2.46 5.61 6.8 9.78a31 31 0 0010.38 6.46 37 37 0 0013.1 2.3q6.98 0 12.84-2.3a31 31 0 0010.29-6.38 29.7 29.7 0 009.36-22.11 29.7 29.7 0 00-9.36-22.03 30 30 0 00-10.29-6.46 35 35 0 00-12.93-2.3zm490.61 0q-6.97 0-12.84 2.3a31 31 0 00-10.29 6.38 30 30 0 00-6.8 9.78 31 31 0 00-2.38 12.33q0 6.72 2.38 12.33a30.3 30.3 0 0017.01 16.24 37 37 0 0012.85 2.21q7.83 0 14.04-2.72a27.5 27.5 0 0010.55-7.91l-8.85-8.17a21 21 0 01-6.8 5.36 20 20 0 01-8.17 1.7q-4.17 0-7.66-1.36a17 17 0 01-6.04-3.91 19 19 0 01-4-6.04 21 21 0 01-1.36-7.74q0-4.26 1.36-7.74 1.44-3.5 4-6.04 2.55-2.55 6.04-3.91a21 21 0 017.66-1.36q4.42 0 8.17 1.79a20 20 0 016.8 5.19l8.85-8.17a27 27 0 00-10.55-7.83 34.5 34.5 0 00-13.95-2.72zm122.77 0q-6.97 0-12.93 2.3a32 32 0 00-10.38 6.46 30 30 0 00-6.89 9.78 31 31 0 00-2.38 12.25 31 31 0 002.38 12.25q2.46 5.61 6.8 9.78a31 31 0 0010.38 6.46 37 37 0 0013.1 2.3q6.97 0 12.85-2.3a31 31 0 0010.29-6.38 29.7 29.7 0 009.36-22.11 29.7 29.7 0 00-9.36-22.03 30 30 0 00-10.29-6.46 35 35 0 00-12.93-2.3m-554.29 1.02v59.54h12.93v-34.97l17.44 28.68h6.21l17.53-29.44.08 35.74h12.93l-.17-59.55h-11.31l-21.93 36.97-22.31-36.97Zm97.37 0v59.54h13.78v-16.41h11.99q8 0 13.78-2.55a20.4 20.4 0 008.93-7.49q3.15-4.85 3.15-11.48 0-6.72-3.15-11.57a20 20 0 00-8.93-7.4q-5.79-2.64-13.78-2.64zm76.75 0v33.35q0 13.1 7.14 20.16t19.82 7.06 19.82-7.06 7.14-20.16v-33.35h-13.61v32.84q0 8.5-3.49 12.25t-9.78 3.74-9.78-3.74q-3.5-3.75-3.49-12.25v-32.84Zm75.95 0v11.23h19.05v48.32h13.78v-48.32h19.05v-11.23Zm91.16 0-26.54 59.54h14.12l5.3-12.76h27.6l5.29 12.76h14.46l-26.63-59.54Zm140.21 0v59.54h13.78v-59.54Zm131.95 0v59.54h13.61v-36.14l29.69 36.14h11.31v-59.54h-13.61v36.13l-29.6-36.13zm-672.46 10.72q4 0 7.4 1.36t5.87 3.91q2.55 2.56 3.91 6.04a20 20 0 011.45 7.74q0 4.26-1.45 7.74a17.4 17.4 0 01-9.87 9.95 19 19 0 01-7.32 1.36q-4 0-7.4-1.36a18 18 0 01-5.96-3.91 19 19 0 01-3.91-6.04 22 22 0 01-1.36-7.74q0-4.26 1.36-7.74 1.44-3.5 4-6.04 2.55-2.55 5.87-3.91a20 20 0 017.4-1.36zm613.38 0q4 0 7.4 1.36t5.87 3.91a17 17 0 013.91 6.04 20 20 0 011.45 7.74q0 4.26-1.45 7.74a17.4 17.4 0 01-9.87 9.95 19 19 0 01-7.31 1.36q-4 0-7.4-1.36a18 18 0 01-5.96-3.91 19 19 0 01-3.91-6.04 22 22 0 01-1.36-7.74q0-4.26 1.36-7.74 1.45-3.5 4-6.04t5.87-3.91a20 20 0 017.4-1.36m-443.16.51h11.23q6.38 0 9.53 2.72t3.15 7.66q0 4.85-3.15 7.57t-9.53 2.72h-11.23Zm236.79 2.3 9.44 22.79h-18.92Zm-913.82 11.3a12.52 12.52 0 10-1.5 24.97 12.52 12.52 0 001.49-24.96zm288.73 0a12.51 12.51 0 101.5 25 12.51 12.51 0 00-1.49-25.01zm-226.99 56.65a12.5 12.5 0 00-5.45 23.56 12.52 12.52 0 105.45-23.56m165.24 0a12.52 12.52 0 10-.88 25.02 12.52 12.52 0 00.89-25.02zm-82.62 20.48a12.52 12.52 0 100 25.05 12.52 12.52 0 000-25.05"/></svg>
